<?xml version="1.0" standalone="no"?>
<!DOCTYPE svg PUBLIC "-//W3C//DTD SVG 1.1//EN" "http://www.w3.org/Graphics/SVG/1.1/DTD/svg11.dtd" >
<svg xmlns="http://www.w3.org/2000/svg" xmlns:xlink="http://www.w3.org/1999/xlink" version="1.1">
<metadata>
Created by FontForge 20161003 at Fri Jan 13 11:55:48 2017
 By www-data
Copyright (c) 2006 by Art. Lebedev Studio. All rights reserved.
</metadata>
<defs>
<font id="ALSEkibastuzBlack" horiz-adv-x="624" >
  <font-face 
    font-family="ALSEkibastuzBlack"
    font-weight="900"
    font-stretch="normal"
    units-per-em="1000"
    panose-1="2 0 9 3 0 0 0 2 0 4"
    ascent="800"
    descent="-200"
    x-height="500"
    cap-height="700"
    bbox="-82 -251 1362 950"
    underline-thickness="50"
    underline-position="-150"
    unicode-range="U+0020-2122"
  />
<missing-glyph horiz-adv-x="440" 
 />
    <glyph glyph-name=".notdef" horiz-adv-x="440" 
 />
    <glyph glyph-name=".null" horiz-adv-x="0" 
 />
    <glyph glyph-name="nonmarkingreturn" horiz-adv-x="333" 
 />
    <glyph glyph-name="space" unicode=" " horiz-adv-x="278" 
 />
    <glyph glyph-name="exclam" unicode="!" horiz-adv-x="304" 
d="M52 700h200l-24 -467h-152zM52 174h200v-174h-200v174z" />
    <glyph glyph-name="quotedbl" unicode="&#x22;" horiz-adv-x="489" 
d="M264 700h165l-10 -230h-145zM60 700h165l-10 -230h-145z" />
    <glyph glyph-name="numbersign" unicode="#" horiz-adv-x="797" 
d="M62 413v141h137l28 146h168l-29 -146h146l28 146h167l-29 -146h57v-141h-85l-24 -126h109v-141h-137l-28 -146h-166l28 146h-146l-28 -146h-167l28 146h-57v141h85l24 126h-109zM338 413l-24 -126h146l24 126h-146z" />
    <glyph glyph-name="dollar" unicode="$" horiz-adv-x="644" 
d="M268 730h110v-60q106 -4 206 -29l-20 -131q-91 21 -186 23v-114q228 -19 228 -218q0 -107 -58 -156.5t-170 -54.5v-70h-110v70q-137 2 -226 34l20 139q72 -24 206 -26v119q-102 8 -166.5 56.5t-64.5 147.5q0 109 63 158.5t168 51.5v60zM396 248q-12 0 -18 -1v-110
q71 3 71 53q0 26 -14 41.5t-39 16.5zM247 431q14 -2 21 -2v104q-71 -3 -71 -48q0 -41 50 -54z" />
    <glyph glyph-name="percent" unicode="%" horiz-adv-x="1018" 
d="M781 -10q-85 0 -135 41t-50 123v63q0 82 50.5 125t134.5 43t134.5 -42.5t50.5 -125.5v-63q0 -81 -50 -122.5t-135 -41.5zM237 710q84 0 134 -42.5t50 -124.5v-64q0 -81 -49.5 -122.5t-134.5 -41.5t-135 41t-50 123v64q0 81 50.5 124t134.5 43zM182 550v-62
q0 -39 11.5 -56t43.5 -17q29 0 41 14.5t12 46.5v62q0 72 -53 72q-55 0 -55 -60zM781 285q-32 0 -43 -19.5t-11 -55.5v-59q0 -32 12.5 -47t41.5 -15q30 0 41.5 14.5t11.5 47.5v73q0 61 -53 61zM764 700l-347 -700h-167l346 700h168z" />
    <glyph glyph-name="ampersand" unicode="&#x26;" horiz-adv-x="831" 
d="M613 660l-35 -143q-90 48 -134 48q-89 0 -89 -67q0 -33 30 -70l170 -197q24 33 30 94l169 -21q-3 -57 -35.5 -110.5t-64.5 -70.5l111 -123h-200l-37 41q-67 -51 -194 -51q-39 0 -74.5 5t-74 18.5t-66.5 35.5t-46 59t-18 86q0 47 12 83t34.5 59.5t47.5 38t58 26.5
q-51 70 -51 135q0 82 69 128t175 46q113 0 213 -50zM334 111q65 0 103 31l-137 158q-47 -28 -47 -94q0 -45 21 -70t60 -25z" />
    <glyph glyph-name="quotesingle" unicode="'" horiz-adv-x="289" 
d="M62 700h165l-10 -230h-145z" />
    <glyph glyph-name="parenleft" unicode="(" horiz-adv-x="480" 
d="M69 325q0 223 148 479l178 -28q-61 -104 -96.5 -210t-35.5 -241q0 -74 11.5 -141t33.5 -124.5t41.5 -96.5t47.5 -87l-178 -28q-150 244 -150 477z" />
    <glyph glyph-name="parenright" unicode=")" horiz-adv-x="480" 
d="M397 325q0 -231 -149 -477l-179 28q28 48 47.5 87t41.5 96.5t33.5 124.5t11.5 141q0 135 -35.5 242t-96.5 209l178 28q148 -256 148 -479z" />
    <glyph glyph-name="asterisk" unicode="*" horiz-adv-x="728" 
d="M62 537l66 136l169 -100l-9 167h152l-9 -167l169 100l66 -136l-172 -67l172 -67l-66 -136l-169 100l9 -167h-152l9 166l-169 -99l-66 136l182 67z" />
    <glyph glyph-name="plus" unicode="+" 
d="M229 500h166v-167h167v-145h-167v-167h-166v167h-167v145h167v167z" />
    <glyph glyph-name="comma" unicode="," horiz-adv-x="310" 
d="M55 174h200v-106q0 -62 -36 -124.5t-83 -97.5l-63 35q47 54 47 119h-65v174z" />
    <glyph glyph-name="hyphen" unicode="-" horiz-adv-x="424" 
d="M62 247v145h300v-145h-300z" />
    <glyph glyph-name="period" unicode="." horiz-adv-x="310" 
d="M55 174h200v-174h-200v174z" />
    <glyph glyph-name="slash" unicode="/" horiz-adv-x="573" 
d="M546 707l-333 -740h-186l332 740h187z" />
    <glyph glyph-name="zero" unicode="0" horiz-adv-x="682" 
d="M29 290v113q0 151 83.5 229t228.5 78q146 0 229 -77.5t83 -229.5v-113q0 -150 -82 -225t-230 -75q-147 0 -229.5 74.5t-82.5 225.5zM341 561q-57 0 -84 -41t-27 -105v-130q0 -146 111 -146t111 146v129q0 65 -27 106t-84 41z" />
    <glyph glyph-name="one" unicode="1" horiz-adv-x="682" 
d="M123 453l267 247h169v-700h-194v466l-195 -160z" />
    <glyph glyph-name="two" unicode="2" horiz-adv-x="682" 
d="M330 710q284 0 284 -197q0 -36 -8.5 -66.5t-28 -54t-37 -39.5t-49.5 -32t-49.5 -24t-52.5 -21q-8 -4 -27.5 -12.5t-27 -12.5t-22 -12.5t-21 -16.5t-14.5 -20t-11 -28t-3 -35h357v-139h-558v46q0 102 21 164t56.5 94t103.5 64q10 5 41 18t48.5 22t40.5 22.5t34 28t11 30.5
q0 59 -100 59q-64 0 -215 -33l-31 155q144 40 258 40z" />
    <glyph glyph-name="three" unicode="3" horiz-adv-x="682" 
d="M61 22l24 148q112 -22 203 -22q70 0 103.5 14t33.5 57q0 44 -32 58t-110 14h-78l-20 131h104q105 0 105 69q0 34 -25.5 47.5t-79.5 13.5q-126 0 -193 -19l-29 148q28 10 96.5 19.5t119.5 9.5q152 0 225.5 -36.5t73.5 -134.5q0 -116 -111 -153q72 -20 110.5 -61t38.5 -126
q0 -52 -17.5 -90t-46 -60.5t-74.5 -36t-94.5 -18t-113.5 -4.5q-52 0 -122.5 11.5t-90.5 20.5z" />
    <glyph glyph-name="four" unicode="4" horiz-adv-x="682" 
d="M339 700h221v-412h84l-23 -156h-61v-132h-194v132h-328v140zM366 521l-157 -232h157v232z" />
    <glyph glyph-name="five" unicode="5" horiz-adv-x="682" 
d="M55 25l24 134q128 -25 238 -25q56 0 82 20.5t26 74.5q0 23 -8 37.5t-25 21t-32 8t-40 1.5q-87 0 -222 -16l32 419h472l-10 -155h-301l-10 -119q50 13 147 13q95 0 147 -46.5t52 -160.5q0 -60 -16.5 -104t-42.5 -70t-65.5 -41.5t-79.5 -21t-91 -5.5q-80 0 -163.5 12
t-113.5 23z" />
    <glyph glyph-name="six" unicode="6" horiz-adv-x="682" 
d="M50 287v123q0 146 87 222.5t219 76.5q125 0 258 -37l-32 -140q-76 28 -204 28q-64 0 -98 -33t-34 -92v-28q65 32 164 32q111 0 166 -53.5t55 -168.5q0 -110 -69.5 -168.5t-208.5 -58.5q-146 0 -224.5 67.5t-78.5 229.5zM246 283v-46q0 -62 23 -87t73 -25q42 0 68 24
t26 67q0 88 -87 88q-53 0 -103 -21z" />
    <glyph glyph-name="seven" unicode="7" horiz-adv-x="682" 
d="M398 0h-219q0 182 59.5 317t154.5 212h-338v171h571v-122q-37 -29 -74.5 -79.5t-73 -122t-58 -170.5t-22.5 -206z" />
    <glyph glyph-name="eight" unicode="8" horiz-adv-x="682" 
d="M193 382q-134 42 -134 163q0 83 75 124t207 41t207 -41t75 -124q0 -70 -38.5 -107t-102.5 -57q171 -50 171 -192q0 -199 -312 -199t-312 199q0 141 164 193zM327 299q-45 -17 -70.5 -38t-25.5 -55q0 -43 30 -66.5t80 -23.5t80 23.5t30 66.5q0 15 -8.5 28.5t-19 22t-31 18
t-32 13.5t-33.5 11zM341 596q-101 0 -101 -64q0 -56 115 -93q17 10 27 16t26.5 18.5t25 27.5t8.5 31q0 64 -101 64z" />
    <glyph glyph-name="nine" unicode="9" horiz-adv-x="682" 
d="M631 412v-123q0 -146 -87 -222.5t-219 -76.5q-125 0 -258 37l32 140q76 -28 204 -28q64 0 98 33t34 92v28q-65 -32 -164 -32q-111 0 -166 53.5t-55 168.5q0 110 69.5 168.5t208.5 58.5q146 0 224.5 -67.5t78.5 -229.5zM435 416v46q0 59 -23.5 85.5t-72.5 26.5
q-42 0 -68 -24t-26 -67q0 -88 87 -88q53 0 103 21z" />
    <glyph glyph-name="colon" unicode=":" horiz-adv-x="310" 
d="M55 506h200v-174h-200v174zM55 174h200v-174h-200v174z" />
    <glyph glyph-name="semicolon" unicode=";" horiz-adv-x="310" 
d="M55 506h200v-174h-200v174zM55 174h200v-106q0 -62 -36 -124.5t-83 -97.5l-63 35q47 54 47 119h-65v174z" />
    <glyph glyph-name="less" unicode="&#x3c;" horiz-adv-x="655" 
d="M62 210v86q69 28 524 207v-140q-175 -60 -316 -107v-7q47 -15 158 -53.5t158 -52.5v-141q-64 25 -244.5 97.5t-279.5 110.5z" />
    <glyph glyph-name="equal" unicode="=" 
d="M62 303v131h500v-131h-500zM62 76v131h500v-131h-500z" />
    <glyph glyph-name="greater" unicode="&#x3e;" horiz-adv-x="655" 
d="M586 296v-86q-99 -38 -279.5 -110.5t-244.5 -97.5v141q47 15 158.5 53.5t157.5 52.5v7q-141 47 -316 107v140q455 -179 524 -207z" />
    <glyph glyph-name="question" unicode="?" horiz-adv-x="578" 
d="M78 544l-19 147q100 19 160 19q55 0 94 -3.5t80 -16.5t66 -35t41 -60.5t16 -92.5q0 -35 -8.5 -62t-20 -43.5t-34 -31.5t-39.5 -22.5t-47 -19.5q-25 -9 -25 -57v-55h-166v82q0 50 17.5 77t60.5 45q35 15 51.5 33t16.5 54q0 38 -23 49.5t-80 11.5q-78 0 -141 -19zM159 174
h200v-174h-200v174z" />
    <glyph glyph-name="at" unicode="@" horiz-adv-x="1149" 
d="M574 710q96 0 171.5 -11t141.5 -39t109 -72.5t67.5 -114.5t24.5 -163q0 -310 -326 -310h-111v39q-18 -18 -57 -33.5t-74 -15.5q-82 0 -132.5 60t-50.5 184q0 134 65.5 198.5t179.5 64.5q69 0 209 -23v-370q27 2 47.5 10.5t39.5 29.5t29 63t10 103q0 87 -17 141t-60 85
t-104.5 42.5t-161.5 11.5q-341 0 -341 -350q0 -102 24.5 -171t72.5 -105.5t106 -51.5t138 -15q111 0 228.5 19.5t205.5 48.5l25 -110q-206 -84 -459 -84q-123 0 -213.5 23t-159.5 75.5t-104.5 145.5t-35.5 225q0 470 513 470zM566 106q32 0 68 26v248q-35 8 -63 8
q-40 0 -64 -30.5t-25 -115.5q0 -136 84 -136z" />
    <glyph glyph-name="A" unicode="A" horiz-adv-x="731" 
d="M503 0l-37 138h-199l-38 -138h-204l222 700h244l215 -700h-203zM371 520l-77 -254h146z" />
    <glyph glyph-name="B" unicode="B" horiz-adv-x="631" 
d="M62 0v700h317q89 0 139.5 -39t50.5 -136q0 -110 -83 -141q50 -16 79.5 -54.5t29.5 -122.5q0 -108 -47.5 -157.5t-159.5 -49.5h-326zM249 298v-170h90q35 0 55 23t20 63q0 39 -22 61.5t-53 22.5h-90zM330 572h-81v-146h81q24 0 41 21t17 57q0 31 -15 49.5t-43 18.5z" />
    <glyph glyph-name="C" unicode="C" horiz-adv-x="572" 
d="M510 177l26 -154q-28 -9 -84.5 -21t-101.5 -12q-142 0 -228 71t-86 219v140q0 147 86.5 218.5t227.5 71.5q45 0 101.5 -12t84.5 -21l-33 -154q-18 7 -70.5 17t-82.5 10q-58 0 -88.5 -36.5t-30.5 -96.5v-135q0 -58 29 -95t90 -37q30 0 86 10t74 17z" />
    <glyph glyph-name="D" unicode="D" horiz-adv-x="710" 
d="M62 0v700h262q96 0 159 -16t107.5 -55.5t64 -107.5t19.5 -171q0 -201 -80.5 -275.5t-269.5 -74.5h-262zM324 562h-68v-424h68q81 0 118 45t37 167q0 87 -19 134.5t-50 62.5t-86 15z" />
    <glyph glyph-name="E" unicode="E" horiz-adv-x="575" 
d="M256 283v-135h283v-148h-477v700h477v-148h-283v-124h229v-145h-229z" />
    <glyph glyph-name="F" unicode="F" horiz-adv-x="568" 
d="M256 253v-253h-194v700h477v-153h-283v-145h229v-149h-229z" />
    <glyph glyph-name="G" unicode="G" horiz-adv-x="651" 
d="M615 34q-108 -44 -248 -44q-331 0 -331 281v153q0 76 24.5 132t69.5 89t104 49t133 16q120 0 232 -32l-33 -148q-97 27 -175 27q-84 0 -122 -34.5t-38 -105.5v-146q0 -139 136 -139q31 0 83 13v121l-104 6v124h269v-362z" />
    <glyph glyph-name="H" unicode="H" horiz-adv-x="757" 
d="M501 700h194v-700h-194v293h-245v-293h-194v700h194v-258h245v258z" />
    <glyph glyph-name="I" unicode="I" horiz-adv-x="432" 
d="M20 551v149h385v-149h-96v-402h103v-149h-385v149h88v402h-95z" />
    <glyph glyph-name="J" unicode="J" horiz-adv-x="518" 
d="M191 -10q-97 0 -174 29l23 153q52 -26 109 -26q113 0 113 99v455h194v-473q0 -126 -64 -181.5t-201 -55.5z" />
    <glyph glyph-name="K" unicode="K" horiz-adv-x="685" 
d="M256 700v-299h15l174 299h223l-214 -322l220 -378h-216l-186 335h-16v-335h-194v700h194z" />
    <glyph glyph-name="L" unicode="L" horiz-adv-x="588" 
d="M62 0v700h194v-538h303v-162h-497z" />
    <glyph glyph-name="M" unicode="M" horiz-adv-x="966" 
d="M481 168h4l3 50l146 482h233l57 -700h-187l-19 455l1 55h-4l-5 -55l-140 -455h-173l-139 455l-4 55h-4l-2 -55l-22 -455h-184l57 700h233l146 -482z" />
    <glyph glyph-name="N" unicode="N" horiz-adv-x="760" 
d="M526 700h172v-700h-187l-278 404v-404h-171v700h192l272 -398v398z" />
    <glyph glyph-name="O" unicode="O" horiz-adv-x="738" 
d="M36 266v161q0 143 88.5 213t244.5 70t244.5 -70t88.5 -213v-161q0 -143 -87.5 -209.5t-245.5 -66.5t-245.5 66.5t-87.5 209.5zM238 410v-121q0 -150 131 -150q71 0 101 39t30 111v121q0 151 -131 151t-131 -151z" />
    <glyph glyph-name="P" unicode="P" horiz-adv-x="659" 
d="M62 700h263q161 0 229.5 -57t68.5 -197t-69 -199t-229 -59h-69v-188h-194v700zM256 550v-213h69q50 0 76 23t26 87q0 59 -24.5 81t-77.5 22h-69z" />
    <glyph glyph-name="Q" unicode="Q" horiz-adv-x="738" 
d="M36 266v161q0 143 88.5 213t244.5 70t244.5 -70t88.5 -213v-161q0 -225 -224 -267l119 -146h-217l-76 140q-268 26 -268 273zM238 410v-121q0 -150 131 -150q71 0 101 39t30 111v121q0 151 -131 151t-131 -151z" />
    <glyph glyph-name="R" unicode="R" horiz-adv-x="680" 
d="M453 0l-123 230h-74v-230h-194v700h276q162 0 230 -52.5t68 -183.5q0 -89 -39 -148t-96 -68l167 -248h-215zM256 556v-182h89q50 0 72.5 20.5t22.5 69.5t-22.5 70.5t-72.5 21.5h-89z" />
    <glyph glyph-name="S" unicode="S" horiz-adv-x="644" 
d="M319 710q134 0 265 -30l-20 -146q-131 32 -233 32q-99 0 -99 -48q0 -42 61 -62q27 -8 64.5 -18.5t60.5 -17t52.5 -17t47 -20.5t37 -27t30 -37.5t17 -49.5t6.5 -66q0 -213 -289 -213q-161 0 -277 43l20 146q55 -15 132 -27t125 -12q95 0 95 48q0 29 -15.5 44t-55.5 27
q-25 7 -62 17t-58.5 15.5t-51 16t-46.5 20.5t-36 26.5t-29 36.5t-16.5 48.5t-6.5 64.5q0 206 282 206z" />
    <glyph glyph-name="T" unicode="T" horiz-adv-x="582" 
d="M16 528v172h550v-172h-178v-528h-194v528h-178z" />
    <glyph glyph-name="U" unicode="U" horiz-adv-x="697" 
d="M462 700h179v-450q0 -134 -75.5 -197t-208.5 -63q-150 0 -225.5 62t-75.5 198v450h201v-460q0 -54 25.5 -77.5t81.5 -23.5q55 0 76.5 23t21.5 78v460z" />
    <glyph glyph-name="V" unicode="V" horiz-adv-x="696" 
d="M214 0l-204 700h218l115 -536h16l118 536h209l-208 -700h-264z" />
    <glyph glyph-name="W" unicode="W" horiz-adv-x="998" 
d="M167 0l-157 700h192l79 -529l128 529h189l118 -527l79 527h193l-181 -700h-198l-111 530l-111 -530h-220z" />
    <glyph glyph-name="X" unicode="X" horiz-adv-x="717" 
d="M243 700l126 -262l115 262h223l-184 -339l184 -361h-234l-104 290l-137 -290h-222l206 362l-206 338h233z" />
    <glyph glyph-name="Y" unicode="Y" horiz-adv-x="675" 
d="M241 217l-231 483h212l113 -317l118 317h212l-230 -482v-218h-194v217z" />
    <glyph glyph-name="Z" unicode="Z" horiz-adv-x="614" 
d="M42 545v155h529v-139l-311 -406h325v-155h-556v139l317 406h-304z" />
    <glyph glyph-name="bracketleft" unicode="[" horiz-adv-x="462" 
d="M400 750v-151h-144v-638h144v-151h-338v940h338z" />
    <glyph glyph-name="backslash" unicode="\" horiz-adv-x="573" 
d="M565 -111h-186l-344 833h187z" />
    <glyph glyph-name="bracketright" unicode="]" horiz-adv-x="462" 
d="M206 599h-144v151h338v-940h-338v151h144v638z" />
    <glyph glyph-name="asciicircum" unicode="^" horiz-adv-x="718" 
d="M288 700h142l226 -429h-174l-120 258l-126 -258h-174z" />
    <glyph glyph-name="underscore" unicode="_" horiz-adv-x="500" 
d="M0 -179v152h500v-152h-500z" />
    <glyph glyph-name="grave" unicode="`" horiz-adv-x="301" 
d="M234 749l12 -181l-123 -17l-71 198h182z" />
    <glyph glyph-name="a" unicode="a" horiz-adv-x="569" 
d="M76 366l-19 113q131 31 212 31q125 0 188 -44.5t63 -144.5v-321h-180v33q-61 -43 -149 -43q-157 0 -157 155q0 76 46.5 108.5t141.5 32.5h120v36q0 36 -17.5 51.5t-64.5 15.5q-74 0 -184 -23zM281 95q20 0 59 15v88h-67q-26 0 -42 -14.5t-16 -35.5q0 -28 15.5 -40.5
t50.5 -12.5z" />
    <glyph glyph-name="b" unicode="b" horiz-adv-x="595" 
d="M49 700h180v-233q72 42 140 42q102 0 150.5 -62.5t48.5 -196.5q0 -138 -47 -195.5t-152 -57.5q-66 0 -140 36v-33h-180v700zM288 110q99 0 99 140q0 133 -98 133q-21 0 -60 -15v-243q32 -15 59 -15z" />
    <glyph glyph-name="c" unicode="c" horiz-adv-x="476" 
d="M439 143l24 -125q-73 -27 -168 -27q-116 0 -188.5 55t-72.5 166v74q0 102 74.5 163.5t186.5 61.5q91 0 168 -31l-24 -125q-13 6 -49 15.5t-58 9.5q-56 0 -83 -24t-27 -84v-46q0 -60 26.5 -83t83.5 -23q10 0 19.5 1t16 2t17 3.5t15.5 4t19 6t20 6.5z" />
    <glyph glyph-name="d" unicode="d" horiz-adv-x="603" 
d="M374 700h180v-700h-180v33q-2 -1 -17 -10.5t-27 -15t-35.5 -11.5t-49.5 -6q-93 0 -151.5 61.5t-58.5 198.5q0 141 51 200.5t161 59.5q73 0 127 -43v233zM312 117q22 0 62 15v236q-45 15 -62 15q-48 0 -72 -27.5t-24 -105.5q0 -75 24 -104t72 -29z" />
    <glyph glyph-name="e" unicode="e" horiz-adv-x="570" 
d="M511 131l18 -117q-116 -24 -232 -24q-263 0 -263 205v77q0 121 63 179.5t194 58.5q252 0 252 -199v-112h-328v-17q0 -74 82 -74q126 0 214 23zM215 314v-15h161v20q0 37 -23 59.5t-62 22.5q-76 0 -76 -87z" />
    <glyph glyph-name="f" unicode="f" horiz-adv-x="436" 
d="M470 729l-23 -119q-50 12 -97 12q-44 0 -57.5 -29.5t-13.5 -92.5h137v-128h-137v-372h-180v372h-79v128h79v26q0 224 193 224q113 0 178 -21z" />
    <glyph glyph-name="g" unicode="g" horiz-adv-x="595" 
d="M298 510q54 0 95 -10q5 14 5 33q0 10 -1 17h179q0 -87 -63 -111q35 -29 35 -86q0 -48 -19.5 -80.5t-56.5 -48t-77.5 -21.5t-96.5 -6q-37 0 -61 3q-6 -16 -6 -32q0 -11 7 -32q22 3 60 3q132 0 202 -37t70 -133q0 -95 -70 -132.5t-202 -37.5t-202.5 37.5t-70.5 132.5
q0 97 76 140q-23 25 -23 57q0 38 28 64q-59 38 -59 123q0 48 20 80.5t57.5 48.5t78 22t95.5 6zM397 -31q0 35 -20 49t-79 14q-55 0 -77 -13.5t-22 -49.5q0 -33 20.5 -48t78.5 -15t78.5 14.5t20.5 48.5zM374 353q0 32 -17.5 48t-58.5 16q-45 0 -61 -15.5t-16 -48.5
q0 -34 15.5 -47.5t61.5 -14.5q44 0 60 13.5t16 48.5z" />
    <glyph glyph-name="h" unicode="h" 
d="M575 0h-180v312q0 70 -78 70q-45 0 -88 -32v-350h-180v700h180v-235q74 45 167 45q34 0 57 -2.5t48 -12t40 -27t24.5 -48.5t9.5 -75v-345z" />
    <glyph glyph-name="i" unicode="i" horiz-adv-x="278" 
d="M49 500h180v-500h-180v500zM49 700h180v-117h-180v117z" />
    <glyph glyph-name="j" unicode="j" horiz-adv-x="278" 
d="M-82 -180l13 102q38 -8 59 -9q26 0 42.5 15.5t16.5 44.5v527h180v-526q0 -174 -189 -174q-72 0 -122 20zM49 700h180v-117h-180v117z" />
    <glyph glyph-name="k" unicode="k" horiz-adv-x="574" 
d="M229 700v-412h8l123 212h209l-175 -230l177 -270h-204l-131 240h-7v-240h-180v700h180z" />
    <glyph glyph-name="l" unicode="l" horiz-adv-x="278" 
d="M229 0h-180v750h180v-750z" />
    <glyph glyph-name="m" unicode="m" horiz-adv-x="880" 
d="M530 0h-173v326q0 54 -54 54q-17 0 -40.5 -10.5t-40.5 -25.5v-344h-173v500h173v-56q35 25 87 45.5t90 20.5q52 0 78.5 -14t40.5 -48q37 25 90 43.5t91 18.5q82 0 107 -34t25 -118v-358h-173v326q0 54 -51 54q-36 0 -77 -30v-350z" />
    <glyph glyph-name="n" unicode="n" 
d="M575 0h-180v303q0 44 -18.5 61.5t-59.5 17.5q-47 0 -88 -30v-352h-180v500h180v-35q37 17 94.5 31t106.5 14q78 0 111.5 -45.5t33.5 -144.5v-320z" />
    <glyph glyph-name="o" unicode="o" horiz-adv-x="588" 
d="M27 205v89q0 106 67 160.5t196 54.5q130 0 200 -55t70 -160v-89q0 -105 -70 -160.5t-200 -55.5q-128 0 -195.5 55t-67.5 161zM201 301v-104q0 -49 20 -75t69 -26t69 26.5t20 74.5v104q0 102 -89 102q-44 0 -66.5 -28t-22.5 -74z" />
    <glyph glyph-name="p" unicode="p" horiz-adv-x="602" 
d="M229 -200h-180v700h180v-33q73 47 149 47q93 0 141.5 -61.5t48.5 -202.5q0 -139 -48 -199.5t-142 -60.5q-18 0 -35.5 2.5t-28.5 4.5t-26.5 8.5t-21 8.5t-20.5 10t-17 9v-233zM284 383q-22 0 -55 -15v-236q40 -14 70 -14q34 0 61 28.5t27 103.5q0 74 -27 103.5t-76 29.5z
" />
    <glyph glyph-name="q" unicode="q" horiz-adv-x="602" 
d="M553 491v-691h-180v233q-76 -43 -136 -43q-106 0 -154.5 62.5t-48.5 197.5q0 137 53.5 198.5t181.5 61.5q138 0 284 -19zM318 383q-103 0 -103 -133q0 -77 27 -105t76 -28q25 0 55 15v242q-23 9 -55 9z" />
    <glyph glyph-name="r" unicode="r" horiz-adv-x="433" 
d="M404 510l16 -146h-71q-46 0 -83 -41t-37 -88v-235h-180v500h180v-58q52 68 133 68h42z" />
    <glyph glyph-name="s" unicode="s" horiz-adv-x="542" 
d="M283 510q103 0 211 -28l-18 -106q-102 25 -194 25q-73 0 -73 -40q0 -16 7.5 -21.5t30.5 -9.5q52 -8 81.5 -14t70 -20.5t62 -32t37.5 -48t16 -70.5q0 -90 -55.5 -122.5t-176.5 -32.5q-129 0 -252 26l14 107q149 -26 218 -26q45 1 58.5 8t13.5 22t-9 21.5t-37 13.5
q-17 4 -47 11t-47.5 11.5t-43 13t-40 16.5t-32.5 22t-27 31t-15.5 41t-6.5 53q0 149 254 149z" />
    <glyph glyph-name="t" unicode="t" horiz-adv-x="408" 
d="M13 379v121h65v123l180 17v-140h130v-121h-130v-204q0 -63 50 -63q32 0 83 9l20 -111q-70 -20 -150 -20q-97 0 -140 34t-43 118v237h-65z" />
    <glyph glyph-name="u" unicode="u" 
d="M49 500h180v-303q0 -79 72 -79q53 0 94 29v353h180v-500h-180v35q-109 -45 -207 -45q-70 0 -104.5 40t-34.5 107v363z" />
    <glyph glyph-name="v" unicode="v" horiz-adv-x="586" 
d="M169 0l-159 500h196l85 -372h17l84 372h184l-158 -500h-249z" />
    <glyph glyph-name="w" unicode="w" horiz-adv-x="878" 
d="M143 0l-132 500h171l72 -372h7l96 372h165l101 -373h6l69 373h168l-132 -500h-211l-84 339l-85 -339h-211z" />
    <glyph glyph-name="x" unicode="x" horiz-adv-x="578" 
d="M204 500l85 -182l98 182h181l-157 -248l157 -252h-194l-85 191l-97 -191h-182l148 252l-148 248h194z" />
    <glyph glyph-name="y" unicode="y" horiz-adv-x="604" 
d="M250 -55l24 56q-33 0 -73.5 26.5t-55.5 68.5l-137 404h193l100 -396h11l96 396h186l-168 -529q-41 -88 -72 -126q-64 -80 -166 -80q-72 0 -172 31l26 126q76 -24 122 -24q31 0 51.5 9t34.5 38z" />
    <glyph glyph-name="z" unicode="z" horiz-adv-x="505" 
d="M36 369v131h426v-87l-219 -281h233v-132h-449v87l226 282h-217z" />
    <glyph glyph-name="braceleft" unicode="{" horiz-adv-x="499" 
d="M437 590h-66q-36 0 -36 -36v-168q0 -29 -25 -53.5t-50 -33.5q27 -14 51.5 -45.5t24.5 -68.5v-177q0 -36 36 -36h65v-162h-78q-217 0 -217 172v197q0 17 -8.5 26.5t-20.5 9.5h-51v161h50q13 0 21.5 9.5t8.5 26.5v165q0 92 56 132.5t161 40.5h78v-160z" />
    <glyph glyph-name="bar" unicode="|" horiz-adv-x="318" 
d="M62 750h194v-1001h-194v1001z" />
    <glyph glyph-name="braceright" unicode="}" horiz-adv-x="499" 
d="M127 590h-65v160h78q105 0 161 -40.5t56 -132.5v-165q0 -17 8.5 -26.5t21.5 -9.5h50v-161h-51q-12 0 -20.5 -9.5t-8.5 -26.5v-197q0 -172 -217 -172h-78v162h65q36 0 36 36v187q0 63 76 104q-25 9 -50.5 33.5t-25.5 53.5v168q0 36 -36 36z" />
    <glyph glyph-name="asciitilde" unicode="~" horiz-adv-x="744" 
d="M133 283l-57 156q2 2 17 13.5t23 17.5t25 16.5t30 16.5t31 10.5t35 4.5q55 0 130.5 -27t123.5 -27q12 0 26 3.5t25 7.5t26 12t22 12t20 13l13 8l73 -154q-2 -2 -14 -14.5t-20.5 -20t-25 -20t-31 -20t-35 -13t-41.5 -5.5q-63 0 -138.5 27t-115.5 27q-63 0 -142 -44z" />
    <glyph glyph-name="sterling" unicode="&#xa3;" horiz-adv-x="885" 
d="M703 669l-35 -132q-1 1 -34.5 8t-84 14t-84.5 7q-46 0 -74.5 -25.5t-28.5 -77.5v-38h243v-115h-243v-133q18 0 54 -4q17 -3 68.5 -20t85.5 -17q56 0 165 51l60 -121q-101 -76 -225 -76q-58 0 -133 24.5t-132 24.5q-38 0 -93 -11.5t-95 -29.5l-41 124q41 22 92 38v150h-57
v115h57v56q0 114 82.5 171.5t214.5 57.5q52 0 111 -10t87.5 -18t39.5 -13z" />
    <glyph glyph-name="currency" unicode="&#xa4;" horiz-adv-x="699" 
d="M30 218v119h72v363h263q157 0 227.5 -56t70.5 -176q0 -128 -70.5 -189t-227.5 -61h-69v-45h284v-119h-284v-54h-194v54h-72v119h72v45h-72zM296 550v-213h69q50 0 76 23t26 87q0 59 -24.5 81t-77.5 22h-69z" />
    <glyph glyph-name="section" unicode="&#xa7;" horiz-adv-x="760" 
d="M380 702q135 0 299 -34l-34 -119q-159 34 -265 34q-66 0 -94.5 -17t-28.5 -39q0 -45 157 -76q129 -26 182 -53q101 -51 101 -150q0 -82 -105 -135q105 -48 105 -135q0 -46 -27 -81t-72.5 -55.5t-100.5 -31t-117 -10.5q-158 0 -299 34l34 120q56 -14 139 -24.5t126 -10.5
q123 0 123 59q0 16 -14 28.5t-45.5 22t-50 13.5t-58.5 11q-41 8 -69 14.5t-70 22.5t-68 36t-45.5 53.5t-19.5 75.5q0 74 106 133q-47 18 -76.5 55t-29.5 82q0 58 46 99t116 59.5t155 18.5zM257 255q0 -19 10 -32.5t33 -23.5t41 -15.5t54 -14.5q108 44 108 79q0 33 -33 52
t-104 32q-109 -37 -109 -77z" />
    <glyph glyph-name="dieresis" unicode="&#xa8;" horiz-adv-x="482" 
d="M52 721h159v-152h-159v152zM270 721h160v-152h-160v152z" />
    <glyph glyph-name="copyright" unicode="&#xa9;" horiz-adv-x="1034" 
d="M517 710q231 0 343 -122t112 -333t-112 -333t-343 -122t-343 122t-112 333t112 333t343 122zM822 256q0 175 -72 254t-233 79q-305 0 -305 -333q0 -331 305 -331q157 0 231 73.5t74 257.5zM661 140l18 -112q-62 -23 -134 -23q-227 0 -227 209v80q0 110 61 161t166 51
q64 0 134 -22l-22 -114q-16 6 -52.5 12.5t-59.5 6.5q-48 0 -70 -23.5t-22 -72.5v-78q0 -47 21 -70t71 -23q22 0 61.5 6.5t54.5 11.5z" />
    <glyph glyph-name="guillemotleft" unicode="&#xab;" horiz-adv-x="613" 
d="M62 260l131 209h151l-112 -208l111 -209h-157zM283 260l131 209h151l-112 -208l111 -209h-157z" />
    <glyph glyph-name="registered" unicode="&#xae;" horiz-adv-x="621" 
d="M279 710q109 0 163.5 -57.5t54.5 -159.5q0 -103 -54 -160t-164 -57t-164 57t-54 160q0 102 54.5 159.5t163.5 57.5zM420 492q0 82 -33.5 118.5t-107.5 36.5q-139 0 -139 -155q0 -152 139 -152q73 0 107 33.5t34 118.5zM318 387l-43 83h-20v-83h-56v216h83q48 0 69 -16
t21 -55q0 -56 -43 -60l53 -85h-64zM255 561v-58h29q31 0 31 29t-31 29h-29z" />
    <glyph glyph-name="degree" unicode="&#xb0;" horiz-adv-x="576" 
d="M288 717q93 0 159.5 -66.5t66.5 -159.5t-66.5 -159.5t-159.5 -66.5t-159.5 66.5t-66.5 159.5t66.5 159.5t159.5 66.5zM377 491q0 37 -25.5 63t-63.5 26t-63.5 -26t-25.5 -63t25.5 -63t63.5 -26t63.5 26t25.5 63z" />
    <glyph glyph-name="plusminus" unicode="&#xb1;" 
d="M229 670h166v-167h167v-145h-167v-167h-166v167h-167v145h167v167zM62 0v145h500v-145h-500z" />
    <glyph glyph-name="acute" unicode="&#xb4;" horiz-adv-x="301" 
d="M52 566l12 184h182l-85 -201z" />
    <glyph glyph-name="paragraph" unicode="&#xb6;" horiz-adv-x="833" 
d="M740 700l31 -150h-93v-635l-152 -25v660h-101v-677l-152 -23v422h-15q-94 0 -145 55t-51 159t51 159t145 55h482z" />
    <glyph glyph-name="periodcentered" unicode="&#xb7;" horiz-adv-x="286" 
d="M62 250q0 37 19.5 59.5t60.5 22.5q42 0 62 -23t20 -59t-20 -58t-62 -22q-80 0 -80 80z" />
    <glyph glyph-name="guillemotright" unicode="&#xbb;" horiz-adv-x="613" 
d="M395 261l-112 208h151l131 -209l-124 -208h-157zM174 261l-112 208h151l131 -209l-124 -208h-157z" />
    <glyph glyph-name="Agrave" unicode="&#xc0;" horiz-adv-x="748" 
d="M511 0l-37 138h-199l-38 -138h-204l222 700h244l215 -700h-203zM379 520l-77 -254h146zM459 949l12 -181l-123 -17l-71 198h182z" />
    <glyph glyph-name="Aacute" unicode="&#xc1;" horiz-adv-x="748" 
d="M511 0l-37 138h-199l-38 -138h-204l222 700h244l215 -700h-203zM379 520l-77 -254h146zM277 766l12 184h182l-85 -201z" />
    <glyph glyph-name="Acircumflex" unicode="&#xc2;" horiz-adv-x="748" 
d="M511 0l-37 138h-199l-38 -138h-204l222 700h244l215 -700h-203zM379 520l-77 -254h146zM292 935h156l100 -152h-138l-37 91l-36 -91h-138z" />
    <glyph glyph-name="Atilde" unicode="&#xc3;" horiz-adv-x="748" 
d="M511 0l-37 138h-199l-38 -138h-204l222 700h244l215 -700h-203zM379 520l-77 -254h146zM196 805l-32 87q72 58 138 58q36 0 77.5 -25t66.5 -25q10 0 20 2t16.5 4t17 8t13 7.5t14.5 10t13 9.5l43 -80q-65 -73 -137 -73q-39 0 -81 25.5t-63 25.5q-16 0 -32.5 -4t-26.5 -8
t-25.5 -12t-21.5 -10z" />
    <glyph glyph-name="Adieresis" unicode="&#xc4;" horiz-adv-x="748" 
d="M511 0l-37 138h-199l-38 -138h-204l222 700h244l215 -700h-203zM379 520l-77 -254h146zM185 921h159v-152h-159v152zM403 921h160v-152h-160v152z" />
    <glyph glyph-name="Egrave" unicode="&#xc8;" horiz-adv-x="575" 
d="M256 283v-135h283v-148h-477v700h477v-148h-283v-124h229v-145h-229zM372 949l12 -181l-123 -17l-71 198h182z" />
    <glyph glyph-name="Eacute" unicode="&#xc9;" horiz-adv-x="575" 
d="M256 283v-135h283v-148h-477v700h477v-148h-283v-124h229v-145h-229zM190 766l12 184h182l-85 -201z" />
    <glyph glyph-name="Ecircumflex" unicode="&#xca;" horiz-adv-x="575" 
d="M256 283v-135h283v-148h-477v700h477v-148h-283v-124h229v-145h-229zM206 935h156l100 -152h-138l-37 91l-36 -91h-138z" />
    <glyph glyph-name="Edieresis" unicode="&#xcb;" horiz-adv-x="575" 
d="M256 283v-135h283v-148h-477v700h477v-148h-283v-124h229v-145h-229zM98 921h159v-152h-159v152zM316 921h160v-152h-160v152z" />
    <glyph glyph-name="Igrave" unicode="&#xcc;" horiz-adv-x="432" 
d="M20 551v149h385v-149h-96v-402h103v-149h-385v149h88v402h-95zM301 949l12 -181l-123 -17l-71 198h182z" />
    <glyph glyph-name="Iacute" unicode="&#xcd;" horiz-adv-x="432" 
d="M20 551v149h385v-149h-96v-402h103v-149h-385v149h88v402h-95zM119 766l12 184h182l-85 -201z" />
    <glyph glyph-name="Icircumflex" unicode="&#xce;" horiz-adv-x="432" 
d="M20 551v149h385v-149h-96v-402h103v-149h-385v149h88v402h-95zM135 935h156l100 -152h-138l-37 91l-36 -91h-138z" />
    <glyph glyph-name="Idieresis" unicode="&#xcf;" horiz-adv-x="432" 
d="M20 551v149h385v-149h-96v-402h103v-149h-385v149h88v402h-95zM27 921h159v-152h-159v152zM245 921h160v-152h-160v152z" />
    <glyph glyph-name="Ograve" unicode="&#xd2;" horiz-adv-x="738" 
d="M36 266v161q0 143 88.5 213t244.5 70t244.5 -70t88.5 -213v-161q0 -143 -87.5 -209.5t-245.5 -66.5t-245.5 66.5t-87.5 209.5zM238 410v-121q0 -150 131 -150q71 0 101 39t30 111v121q0 151 -131 151t-131 -151zM454 949l12 -181l-123 -17l-71 198h182z" />
    <glyph glyph-name="Oacute" unicode="&#xd3;" horiz-adv-x="738" 
d="M36 266v161q0 143 88.5 213t244.5 70t244.5 -70t88.5 -213v-161q0 -143 -87.5 -209.5t-245.5 -66.5t-245.5 66.5t-87.5 209.5zM238 410v-121q0 -150 131 -150q71 0 101 39t30 111v121q0 151 -131 151t-131 -151zM272 766l12 184h182l-85 -201z" />
    <glyph glyph-name="Ocircumflex" unicode="&#xd4;" horiz-adv-x="738" 
d="M36 266v161q0 143 88.5 213t244.5 70t244.5 -70t88.5 -213v-161q0 -143 -87.5 -209.5t-245.5 -66.5t-245.5 66.5t-87.5 209.5zM238 410v-121q0 -150 131 -150q71 0 101 39t30 111v121q0 151 -131 151t-131 -151zM287 935h156l100 -152h-138l-37 91l-36 -91h-138z" />
    <glyph glyph-name="Otilde" unicode="&#xd5;" horiz-adv-x="738" 
d="M36 266v161q0 143 88.5 213t244.5 70t244.5 -70t88.5 -213v-161q0 -143 -87.5 -209.5t-245.5 -66.5t-245.5 66.5t-87.5 209.5zM238 410v-121q0 -150 131 -150q71 0 101 39t30 111v121q0 151 -131 151t-131 -151zM191 805l-32 87q72 58 138 58q36 0 77.5 -25t66.5 -25
q15 0 29.5 4.5t22.5 9t22.5 14.5t19.5 13l43 -80q-65 -73 -137 -73q-39 0 -81 25.5t-63 25.5q-16 0 -32.5 -4t-26.5 -8t-25.5 -12t-21.5 -10z" />
    <glyph glyph-name="Odieresis" unicode="&#xd6;" horiz-adv-x="738" 
d="M36 266v161q0 143 88.5 213t244.5 70t244.5 -70t88.5 -213v-161q0 -143 -87.5 -209.5t-245.5 -66.5t-245.5 66.5t-87.5 209.5zM238 410v-121q0 -150 131 -150q71 0 101 39t30 111v121q0 151 -131 151t-131 -151zM180 921h159v-152h-159v152zM398 921h160v-152h-160v152z
" />
    <glyph glyph-name="Ugrave" unicode="&#xd9;" horiz-adv-x="697" 
d="M462 700h179v-450q0 -134 -75.5 -197t-208.5 -63q-150 0 -225.5 62t-75.5 198v450h201v-460q0 -54 25.5 -77.5t81.5 -23.5q55 0 76.5 23t21.5 78v460zM433 949l12 -181l-123 -17l-71 198h182z" />
    <glyph glyph-name="Uacute" unicode="&#xda;" horiz-adv-x="697" 
d="M462 700h179v-450q0 -134 -75.5 -197t-208.5 -63q-150 0 -225.5 62t-75.5 198v450h201v-460q0 -54 25.5 -77.5t81.5 -23.5q55 0 76.5 23t21.5 78v460zM251 766l12 184h182l-85 -201z" />
    <glyph glyph-name="Ucircumflex" unicode="&#xdb;" horiz-adv-x="697" 
d="M462 700h179v-450q0 -134 -75.5 -197t-208.5 -63q-150 0 -225.5 62t-75.5 198v450h201v-460q0 -54 25.5 -77.5t81.5 -23.5q55 0 76.5 23t21.5 78v460zM267 935h156l100 -152h-138l-37 91l-36 -91h-138z" />
    <glyph glyph-name="Udieresis" unicode="&#xdc;" horiz-adv-x="697" 
d="M462 700h179v-450q0 -134 -75.5 -197t-208.5 -63q-150 0 -225.5 62t-75.5 198v450h201v-460q0 -54 25.5 -77.5t81.5 -23.5q55 0 76.5 23t21.5 78v460zM159 921h159v-152h-159v152zM377 921h160v-152h-160v152z" />
    <glyph glyph-name="agrave" unicode="&#xe0;" horiz-adv-x="569" 
d="M349 749l12 -181l-123 -17l-71 198h182zM76 366l-19 113q131 31 212 31q125 0 188 -44.5t63 -144.5v-321h-180v33q-61 -43 -149 -43q-157 0 -157 155q0 76 46.5 108.5t141.5 32.5h120v36q0 36 -17.5 51.5t-64.5 15.5q-74 0 -184 -23zM281 95q20 0 59 15v88h-67
q-26 0 -42 -14.5t-16 -35.5q0 -28 15.5 -40.5t50.5 -12.5z" />
    <glyph glyph-name="aacute" unicode="&#xe1;" horiz-adv-x="569" 
d="M227 566l12 184h182l-85 -201zM76 366l-19 113q131 31 212 31q125 0 188 -44.5t63 -144.5v-321h-180v33q-61 -43 -149 -43q-157 0 -157 155q0 76 46.5 108.5t141.5 32.5h120v36q0 36 -17.5 51.5t-64.5 15.5q-74 0 -184 -23zM281 95q20 0 59 15v88h-67q-26 0 -42 -14.5
t-16 -35.5q0 -28 15.5 -40.5t50.5 -12.5z" />
    <glyph glyph-name="acircumflex" unicode="&#xe2;" horiz-adv-x="569" 
d="M203 735h156l100 -152h-138l-37 91l-36 -91h-138zM76 366l-19 113q131 31 212 31q125 0 188 -44.5t63 -144.5v-321h-180v33q-61 -43 -149 -43q-157 0 -157 155q0 76 46.5 108.5t141.5 32.5h120v36q0 36 -17.5 51.5t-64.5 15.5q-74 0 -184 -23zM281 95q20 0 59 15v88h-67
q-26 0 -42 -14.5t-16 -35.5q0 -28 15.5 -40.5t50.5 -12.5z" />
    <glyph glyph-name="atilde" unicode="&#xe3;" horiz-adv-x="569" 
d="M107 605l-32 87q72 58 138 58q36 0 77.5 -25t66.5 -25q15 0 29.5 4.5t22.5 9t22.5 14.5t19.5 13l43 -80q-65 -73 -137 -73q-39 0 -81 25.5t-63 25.5q-16 0 -32.5 -4t-26.5 -8t-25.5 -12t-21.5 -10zM76 366l-19 113q131 31 212 31q125 0 188 -44.5t63 -144.5v-321h-180v33
q-61 -43 -149 -43q-157 0 -157 155q0 76 46.5 108.5t141.5 32.5h120v36q0 36 -17.5 51.5t-64.5 15.5q-74 0 -184 -23zM281 95q20 0 59 15v88h-67q-26 0 -42 -14.5t-16 -35.5q0 -28 15.5 -40.5t50.5 -12.5z" />
    <glyph glyph-name="adieresis" unicode="&#xe4;" horiz-adv-x="569" 
d="M95 721h159v-152h-159v152zM313 721h160v-152h-160v152zM76 366l-19 113q131 31 212 31q125 0 188 -44.5t63 -144.5v-321h-180v33q-61 -43 -149 -43q-157 0 -157 155q0 76 46.5 108.5t141.5 32.5h120v36q0 36 -17.5 51.5t-64.5 15.5q-74 0 -184 -23zM281 95q20 0 59 15
v88h-67q-26 0 -42 -14.5t-16 -35.5q0 -28 15.5 -40.5t50.5 -12.5z" />
    <glyph glyph-name="egrave" unicode="&#xe8;" horiz-adv-x="570" 
d="M370 749l12 -181l-123 -17l-71 198h182zM511 131l18 -117q-116 -24 -232 -24q-263 0 -263 205v77q0 121 63 179.5t194 58.5q252 0 252 -199v-112h-328v-17q0 -74 82 -74q126 0 214 23zM215 314v-15h161v20q0 37 -23 59.5t-62 22.5q-76 0 -76 -87z" />
    <glyph glyph-name="eacute" unicode="&#xe9;" horiz-adv-x="570" 
d="M228 566l12 184h182l-85 -201zM511 131l18 -117q-116 -24 -232 -24q-263 0 -263 205v77q0 121 63 179.5t194 58.5q252 0 252 -199v-112h-328v-17q0 -74 82 -74q126 0 214 23zM215 314v-15h161v20q0 37 -23 59.5t-62 22.5q-76 0 -76 -87z" />
    <glyph glyph-name="ecircumflex" unicode="&#xea;" horiz-adv-x="570" 
d="M213 735h156l100 -152h-138l-37 91l-36 -91h-138zM511 131l18 -117q-116 -24 -232 -24q-263 0 -263 205v77q0 121 63 179.5t194 58.5q252 0 252 -199v-112h-328v-17q0 -74 82 -74q126 0 214 23zM215 314v-15h161v20q0 37 -23 59.5t-62 22.5q-76 0 -76 -87z" />
    <glyph glyph-name="edieresis" unicode="&#xeb;" horiz-adv-x="570" 
d="M106 721h159v-152h-159v152zM324 721h160v-152h-160v152zM511 131l18 -117q-116 -24 -232 -24q-263 0 -263 205v77q0 121 63 179.5t194 58.5q252 0 252 -199v-112h-328v-17q0 -74 82 -74q126 0 214 23zM215 314v-15h161v20q0 37 -23 59.5t-62 22.5q-76 0 -76 -87z" />
    <glyph glyph-name="igrave" unicode="&#xec;" horiz-adv-x="278" 
d="M49 500h180v-500h-180v500zM224 749l12 -181l-123 -17l-71 198h182z" />
    <glyph glyph-name="iacute" unicode="&#xed;" horiz-adv-x="278" 
d="M49 500h180v-500h-180v500zM42 566l12 184h182l-85 -201z" />
    <glyph glyph-name="icircumflex" unicode="&#xee;" horiz-adv-x="278" 
d="M49 500h180v-500h-180v500zM58 735h156l100 -152h-138l-37 91l-36 -91h-138z" />
    <glyph glyph-name="idieresis" unicode="&#xef;" horiz-adv-x="278" 
d="M49 500h180v-500h-180v500zM-50 721h159v-152h-159v152zM168 721h160v-152h-160v152z" />
    <glyph glyph-name="ograve" unicode="&#xf2;" horiz-adv-x="588" 
d="M27 205v89q0 106 67 160.5t196 54.5q130 0 200 -55t70 -160v-89q0 -105 -70 -160.5t-200 -55.5q-128 0 -195.5 55t-67.5 161zM201 301v-104q0 -49 20 -75t69 -26t69 26.5t20 74.5v104q0 102 -89 102q-44 0 -66.5 -28t-22.5 -74zM379 749l12 -181l-123 -17l-71 198h182z
" />
    <glyph glyph-name="oacute" unicode="&#xf3;" horiz-adv-x="588" 
d="M27 205v89q0 106 67 160.5t196 54.5q130 0 200 -55t70 -160v-89q0 -105 -70 -160.5t-200 -55.5q-128 0 -195.5 55t-67.5 161zM201 301v-104q0 -49 20 -75t69 -26t69 26.5t20 74.5v104q0 102 -89 102q-44 0 -66.5 -28t-22.5 -74zM197 566l12 184h182l-85 -201z" />
    <glyph glyph-name="ocircumflex" unicode="&#xf4;" horiz-adv-x="588" 
d="M27 205v89q0 106 67 160.5t196 54.5q130 0 200 -55t70 -160v-89q0 -105 -70 -160.5t-200 -55.5q-128 0 -195.5 55t-67.5 161zM201 301v-104q0 -49 20 -75t69 -26t69 26.5t20 74.5v104q0 102 -89 102q-44 0 -66.5 -28t-22.5 -74zM212 735h156l100 -152h-138l-37 91
l-36 -91h-138z" />
    <glyph glyph-name="otilde" unicode="&#xf5;" horiz-adv-x="588" 
d="M27 205v89q0 106 67 160.5t196 54.5q130 0 200 -55t70 -160v-89q0 -105 -70 -160.5t-200 -55.5q-128 0 -195.5 55t-67.5 161zM201 301v-104q0 -49 20 -75t69 -26t69 26.5t20 74.5v104q0 102 -89 102q-44 0 -66.5 -28t-22.5 -74zM116 605l-32 87q72 58 138 58
q36 0 77.5 -25t66.5 -25q15 0 29.5 4.5t22.5 9t22.5 14.5t19.5 13l43 -80q-65 -73 -137 -73q-39 0 -81 25.5t-63 25.5q-16 0 -32.5 -4t-26.5 -8t-25.5 -12t-21.5 -10z" />
    <glyph glyph-name="odieresis" unicode="&#xf6;" horiz-adv-x="588" 
d="M27 205v89q0 106 67 160.5t196 54.5q130 0 200 -55t70 -160v-89q0 -105 -70 -160.5t-200 -55.5q-128 0 -195.5 55t-67.5 161zM201 301v-104q0 -49 20 -75t69 -26t69 26.5t20 74.5v104q0 102 -89 102q-44 0 -66.5 -28t-22.5 -74zM105 721h159v-152h-159v152zM323 721h160
v-152h-160v152z" />
    <glyph glyph-name="ugrave" unicode="&#xf9;" 
d="M49 500h180v-303q0 -79 72 -79q53 0 94 29v353h180v-500h-180v35q-109 -45 -207 -45q-70 0 -104.5 40t-34.5 107v363zM397 749l12 -181l-123 -17l-71 198h182z" />
    <glyph glyph-name="uacute" unicode="&#xfa;" 
d="M49 500h180v-303q0 -79 72 -79q53 0 94 29v353h180v-500h-180v35q-109 -45 -207 -45q-70 0 -104.5 40t-34.5 107v363zM235 566l12 184h182l-85 -201z" />
    <glyph glyph-name="ucircumflex" unicode="&#xfb;" 
d="M49 500h180v-303q0 -79 72 -79q53 0 94 29v353h180v-500h-180v35q-109 -45 -207 -45q-70 0 -104.5 40t-34.5 107v363zM230 735h156l100 -152h-138l-37 91l-36 -91h-138z" />
    <glyph glyph-name="udieresis" unicode="&#xfc;" 
d="M49 500h180v-303q0 -79 72 -79q53 0 94 29v353h180v-500h-180v35q-109 -45 -207 -45q-70 0 -104.5 40t-34.5 107v363zM123 721h159v-152h-159v152zM341 721h160v-152h-160v152z" />
    <glyph glyph-name="circumflex" unicode="&#x2c6;" horiz-adv-x="494" 
d="M169 735h156l100 -152h-138l-37 91l-36 -91h-138z" />
    <glyph glyph-name="tilde" unicode="&#x2dc;" horiz-adv-x="541" 
d="M98 605l-32 87q72 58 138 58q36 0 77.5 -25t66.5 -25q15 0 29.5 4.5t22.5 9t22.5 14.5t19.5 13l43 -80q-65 -73 -137 -73q-39 0 -81 25.5t-63 25.5q-16 0 -32.5 -4t-26.5 -8t-25.5 -12t-21.5 -10z" />
    <glyph glyph-name="afii10023" unicode="&#x401;" horiz-adv-x="589" 
d="M114 921h159v-152h-159v152zM333 921h159v-152h-159v152zM256 283v-135h283v-148h-477v700h477v-148h-283v-124h229v-145h-229z" />
    <glyph glyph-name="afii10017" unicode="&#x410;" horiz-adv-x="748" 
d="M511 0l-37 138h-199l-38 -138h-204l222 700h244l215 -700h-203zM379 520l-77 -254h146z" />
    <glyph glyph-name="afii10018" unicode="&#x411;" horiz-adv-x="652" 
d="M256 551v-118h148q109 0 157 -52.5t48 -163.5q0 -108 -47 -162.5t-160 -54.5h-340v700h493v-149h-299zM346 300h-90v-166h90q75 0 75 83t-75 83z" />
    <glyph glyph-name="afii10019" unicode="&#x412;" horiz-adv-x="631" 
d="M62 0v700h317q89 0 139.5 -39t50.5 -136q0 -110 -83 -141q50 -16 79.5 -54.5t29.5 -122.5q0 -108 -47.5 -157.5t-159.5 -49.5h-326zM249 298v-170h90q35 0 55 23t20 63q0 39 -22 61.5t-53 22.5h-90zM330 572h-81v-146h81q24 0 41 21t17 57q0 31 -15 49.5t-43 18.5z" />
    <glyph glyph-name="afii10020" unicode="&#x413;" horiz-adv-x="547" 
d="M256 0h-194v700h465v-171h-271v-529z" />
    <glyph glyph-name="afii10021" unicode="&#x414;" horiz-adv-x="802" 
d="M166 700h520v-551h80l-16 -349h-178v200h-358l-10 -200h-184v349h68q78 125 78 551zM492 537h-146q-4 -88 -7.5 -136.5t-19.5 -127t-44 -124.5h217v388z" />
    <glyph glyph-name="afii10022" unicode="&#x415;" horiz-adv-x="575" 
d="M256 283v-135h283v-148h-477v700h477v-148h-283v-124h229v-145h-229z" />
    <glyph glyph-name="afii10024" unicode="&#x416;" horiz-adv-x="949" 
d="M193 376l-176 324h206l138 -298h17v298h194v-298h16l138 298h206l-176 -324l174 -376h-199l-144 348h-15v-348h-194v348h-17l-144 -348h-199z" />
    <glyph glyph-name="afii10025" unicode="&#x417;" horiz-adv-x="609" 
d="M36 25l23 141q11 -2 48 -11.5t70 -15t65 -5.5q66 0 97.5 17t31.5 61q0 53 -39.5 71t-122.5 18h-76v121h110q96 0 96 73q0 37 -22.5 54t-73.5 17q-61 0 -172 -29l-26 141q86 32 207 32q147 0 211 -37t64 -137q0 -65 -25.5 -100t-73.5 -50q69 -20 103.5 -60.5t34.5 -126.5
q0 -52 -15 -90t-40.5 -60.5t-68 -36t-89 -18t-111.5 -4.5q-62 0 -122 12t-84 23z" />
    <glyph glyph-name="afii10026" unicode="&#x418;" horiz-adv-x="755" 
d="M62 700h194v-412l281 412h156v-700h-194v412l-281 -412h-156v700z" />
    <glyph glyph-name="afii10027" unicode="&#x419;" horiz-adv-x="755" 
d="M150 894h138q0 -59 92 -59q95 0 95 59h137v-24q0 -32 -14.5 -55.5t-36 -36.5t-54.5 -20.5t-61.5 -9.5t-65.5 -2q-36 0 -64.5 2t-61 9.5t-54 20.5t-36 36.5t-14.5 55.5v24zM62 700h194v-412l281 412h156v-700h-194v412l-281 -412h-156v700z" />
    <glyph glyph-name="afii10028" unicode="&#x41a;" horiz-adv-x="685" 
d="M256 700v-299h15l174 299h223l-214 -322l220 -378h-216l-186 335h-16v-335h-194v700h194z" />
    <glyph glyph-name="afii10029" unicode="&#x41b;" horiz-adv-x="758" 
d="M165 700h531v-700h-194v530h-162q-3 -109 -10.5 -188t-23.5 -148.5t-41.5 -112.5t-65.5 -67t-94 -24q-36 0 -68 8l-24 154h3q3 -1 6 -1q33 0 57.5 17.5t39.5 53.5t24 75t13 98.5t5.5 106.5t2.5 116q0 55 1 82z" />
    <glyph glyph-name="afii10030" unicode="&#x41c;" horiz-adv-x="966" 
d="M480 168h4l4 50l146 482h233l57 -700h-187l-18 454v56h-4l-5 -55l-140 -455h-173l-140 455l-4 55h-4v-55l-20 -455h-187l57 700h233l146 -482z" />
    <glyph glyph-name="afii10031" unicode="&#x41d;" horiz-adv-x="757" 
d="M501 700h194v-700h-194v293h-245v-293h-194v700h194v-258h245v258z" />
    <glyph glyph-name="afii10032" unicode="&#x41e;" horiz-adv-x="738" 
d="M36 266v161q0 143 88.5 213t244.5 70t244.5 -70t88.5 -213v-161q0 -143 -87.5 -209.5t-245.5 -66.5t-245.5 66.5t-87.5 209.5zM238 410v-121q0 -150 131 -150q71 0 101 39t30 111v121q0 151 -131 151t-131 -151z" />
    <glyph glyph-name="afii10033" unicode="&#x41f;" horiz-adv-x="763" 
d="M256 0h-194v700h639v-700h-194v537h-251v-537z" />
    <glyph glyph-name="afii10034" unicode="&#x420;" horiz-adv-x="659" 
d="M62 700h263q161 0 229.5 -57t68.5 -197t-69 -199t-229 -59h-69v-188h-194v700zM256 550v-213h69q50 0 76 23t26 87q0 59 -24.5 81t-77.5 22h-69z" />
    <glyph glyph-name="afii10035" unicode="&#x421;" horiz-adv-x="572" 
d="M510 177l26 -154q-28 -9 -84.5 -21t-101.5 -12q-142 0 -228 71t-86 219v140q0 147 86.5 218.5t227.5 71.5q45 0 101.5 -12t84.5 -21l-33 -154q-18 7 -70.5 17t-82.5 10q-58 0 -88.5 -36.5t-30.5 -96.5v-135q0 -58 29 -95t90 -37q30 0 86 10t74 17z" />
    <glyph glyph-name="afii10036" unicode="&#x422;" horiz-adv-x="582" 
d="M16 528v172h550v-172h-178v-528h-194v528h-178z" />
    <glyph glyph-name="afii10037" unicode="&#x423;" horiz-adv-x="678" 
d="M300 189q-31 1 -72.5 23.5t-63.5 70.5l-154 417h225l123 -398h5l105 398h200l-179 -542q-37 -90 -106.5 -129t-146.5 -39q-109 0 -201 26l33 139q68 -22 121 -22q90 0 111 56z" />
    <glyph glyph-name="afii10038" unicode="&#x424;" horiz-adv-x="936" 
d="M371 737h194v-69h31q157 0 230.5 -64.5t73.5 -207.5v-53q0 -141 -74 -206t-230 -65h-31v-72h-194v72h-31q-157 0 -230.5 65t-73.5 206v53q0 143 73.5 207.5t230.5 64.5h31v69zM596 532h-31v-324h31q59 0 84 30.5t25 101.5v59q0 70 -24.5 101.5t-84.5 31.5zM231 340
q0 -72 24.5 -102t84.5 -30h31v324h-31q-60 0 -84.5 -31.5t-24.5 -101.5v-59z" />
    <glyph glyph-name="afii10039" unicode="&#x425;" horiz-adv-x="717" 
d="M243 700l126 -262l115 262h223l-184 -339l184 -361h-234l-104 290l-137 -290h-222l206 362l-206 338h233z" />
    <glyph glyph-name="afii10040" unicode="&#x426;" horiz-adv-x="790" 
d="M62 700h194v-551h224v551h194v-551h81l-11 -299h-184v150h-498v700z" />
    <glyph glyph-name="afii10041" unicode="&#x427;" horiz-adv-x="678" 
d="M42 700h194v-260q0 -42 19.5 -59.5t59.5 -17.5q47 0 107 5v332h194v-700h-194v212q-64 -6 -120 -6q-30 0 -57.5 3t-66.5 16t-67 35t-48.5 65t-20.5 101v274z" />
    <glyph glyph-name="afii10042" unicode="&#x428;" horiz-adv-x="978" 
d="M392 700h194v-551h136v551h194v-700h-854v700h194v-551h136v551z" />
    <glyph glyph-name="afii10043" unicode="&#x429;" horiz-adv-x="1032" 
d="M392 700h194v-551h136v551h194v-551h80l-11 -299h-183v150h-740v700h194v-551h136v551z" />
    <glyph glyph-name="afii10044" unicode="&#x42a;" horiz-adv-x="737" 
d="M140 0v560h-127l15 140h306v-253q85 9 122 9q129 0 187 -57.5t58 -171.5q0 -121 -68.5 -174t-229.5 -53h-263zM403 325q-37 0 -69 -4v-193h69q54 0 78.5 21t24.5 77t-25.5 77.5t-77.5 21.5z" />
    <glyph glyph-name="afii10045" unicode="&#x42b;" horiz-adv-x="954" 
d="M698 0v700h194v-700h-194zM325 0q161 0 229.5 53t68.5 174q0 114 -58 171.5t-187 57.5q-60 0 -122 -9v253h-194v-700h263zM325 325q52 0 77 -21.5t25 -77.5q0 -57 -24.5 -77.5t-77.5 -20.5h-69v193q32 4 69 4z" />
    <glyph glyph-name="afii10046" unicode="&#x42c;" horiz-adv-x="659" 
d="M325 0h-263v700h194v-253q68 9 122 9q129 0 187 -57.5t58 -171.5q0 -121 -68.5 -174t-229.5 -53zM325 325q-37 0 -69 -4v-193h69q53 0 77.5 20.5t24.5 77.5q0 56 -25 77.5t-77 21.5z" />
    <glyph glyph-name="afii10047" unicode="&#x42d;" horiz-adv-x="600" 
d="M368 279v20h-251v121h251v16q0 125 -115 125q-36 0 -101.5 -11t-96.5 -23l-32 150q18 8 89 20.5t138 12.5q66 0 120.5 -15.5t99 -48.5t69.5 -90.5t25 -135.5v-140q0 -147 -88 -218.5t-226 -71.5q-62 0 -134 12.5t-93 20.5l32 150q35 -10 94.5 -18.5t100.5 -8.5
q118 0 118 133z" />
    <glyph glyph-name="afii10048" unicode="&#x42e;" horiz-adv-x="967" 
d="M346 221v69h-90v-290h-194v700h194v-282h90v52q0 118 79.5 179t212.5 61q136 0 214.5 -67t78.5 -208v-186q0 -140 -77 -199.5t-216 -59.5q-292 0 -292 231zM534 461v-220q0 -52 27.5 -80.5t76.5 -28.5q50 0 77.5 28.5t27.5 80.5v220q0 51 -28.5 79t-76.5 28
q-47 0 -75.5 -28.5t-28.5 -78.5z" />
    <glyph glyph-name="afii10049" unicode="&#x42f;" horiz-adv-x="720" 
d="M348 700h310v-700h-194v215h-66l-122 -215h-213l150 236q-80 16 -121 75.5t-41 150.5q0 107 71.5 172.5t225.5 65.5zM348 350h116v193h-116q-102 0 -102 -96q0 -97 102 -97z" />
    <glyph glyph-name="afii10065" unicode="&#x430;" horiz-adv-x="569" 
d="M76 366l-19 113q131 31 212 31q125 0 188 -44.5t63 -144.5v-321h-180v33q-61 -43 -149 -43q-157 0 -157 155q0 76 46.5 108.5t141.5 32.5h120v36q0 36 -17.5 51.5t-64.5 15.5q-74 0 -184 -23zM281 95q20 0 59 15v88h-67q-26 0 -42 -14.5t-16 -35.5q0 -28 15.5 -40.5
t50.5 -12.5z" />
    <glyph glyph-name="afii10066" unicode="&#x431;" horiz-adv-x="616" 
d="M39 251v168q0 229 235 278l147 30q58 12 116 37l46 -145q-55 -33 -135 -40l-135 -12q-55 -5 -83 -44t-28 -88v-58q15 37 62 65.5t120 28.5q91 0 143 -44.5t52 -158.5v-56q0 -223 -270 -223q-136 0 -203 60.5t-67 201.5zM309 113q89 0 89 103v42q0 49 -22.5 70t-66.5 21
q-89 0 -89 -100v-33q0 -103 89 -103z" />
    <glyph glyph-name="afii10067" unicode="&#x432;" horiz-adv-x="569" 
d="M49 0v500h307q84 0 118.5 -28t34.5 -95q0 -73 -85 -96q25 -3 42.5 -8t36.5 -17.5t29 -37t10 -61.5q0 -89 -48.5 -123t-170.5 -34h-274zM298 215h-83v-108h87q37 0 55 12.5t18 44.5q0 27 -18.5 39t-58.5 12zM215 303h78q49 0 49 48q0 43 -49 43h-78v-91z" />
    <glyph glyph-name="afii10068" unicode="&#x433;" horiz-adv-x="450" 
d="M229 0h-180v500h388v-137h-208v-363z" />
    <glyph glyph-name="afii10069" unicode="&#x434;" horiz-adv-x="689" 
d="M140 500h454v-379h59l-10 -281h-156v160h-301l-9 -160h-157v281h49q71 75 71 379zM414 393h-111q0 -173 -51 -272h162v272z" />
    <glyph glyph-name="afii10070" unicode="&#x435;" horiz-adv-x="570" 
d="M511 131l18 -117q-116 -24 -232 -24q-263 0 -263 205v77q0 121 63 179.5t194 58.5q252 0 252 -199v-112h-328v-17q0 -74 82 -74q126 0 214 23zM215 314v-15h161v20q0 37 -23 59.5t-62 22.5q-76 0 -76 -87z" />
    <glyph glyph-name="afii10072" unicode="&#x436;" horiz-adv-x="824" 
d="M10 500h184l119 -221h13v221h173v-221h13l114 221h188l-143 -241l141 -259h-185l-115 242h-13v-242h-173v240h-12l-122 -240h-181l150 259z" />
    <glyph glyph-name="afii10073" unicode="&#x437;" horiz-adv-x="539" 
d="M34 20l21 108q66 -18 130 -18q76 0 107 10t31 42q0 27 -20 36t-63 9h-144v98h126q70 0 70 50q0 23 -25 30.5t-82 7.5q-55 0 -127 -19l-21 109q85 26 212 26q109 0 167 -26t58 -93q0 -74 -86 -97q26 -6 44 -13t38 -21.5t30.5 -39.5t10.5 -60q0 -93 -75.5 -130.5
t-220.5 -37.5q-107 0 -181 29z" />
    <glyph glyph-name="afii10074" unicode="&#x438;" horiz-adv-x="641" 
d="M49 500h180v-282l206 282h157v-500h-180v281l-205 -281h-158v500z" />
    <glyph glyph-name="afii10075" unicode="&#x439;" horiz-adv-x="641" 
d="M85 735h138q0 -13 3 -22t12 -19t30 -15.5t53 -5.5q98 0 98 62h138v-20q0 -41 -21 -70.5t-57 -44.5t-74.5 -21t-83.5 -6t-83.5 6t-74.5 21t-57 44.5t-21 70.5v20zM49 500h180v-282l206 282h157v-500h-180v281l-205 -281h-158v500z" />
    <glyph glyph-name="afii10076" unicode="&#x43a;" horiz-adv-x="581" 
d="M229 500v-216h8l133 216h206l-179 -231l181 -269h-201l-141 237h-7v-237h-180v500h180z" />
    <glyph glyph-name="afii10077" unicode="&#x43b;" horiz-adv-x="647" 
d="M143 500h455v-500h-180v386h-120q0 -49 -1 -82.5t-5 -78.5t-12 -75.5t-22 -62.5t-34 -51.5t-50.5 -32t-68.5 -12.5q-40 0 -76 9l-16 124q9 0 22 -0.5t21 -0.5q45 0 66 91.5t21 285.5z" />
    <glyph glyph-name="afii10078" unicode="&#x43c;" horiz-adv-x="827" 
d="M211 340l-9 -340h-160l41 500h208l122 -348l122 348h209l41 -500h-161l-9 340l-136 -340h-144z" />
    <glyph glyph-name="afii10079" unicode="&#x43d;" horiz-adv-x="638" 
d="M409 500h180v-500h-180v195h-180v-195h-180v500h180v-185h180v185z" />
    <glyph glyph-name="afii10080" unicode="&#x43e;" horiz-adv-x="588" 
d="M27 205v89q0 106 67 160.5t196 54.5q130 0 200 -55t70 -160v-89q0 -105 -70 -160.5t-200 -55.5q-128 0 -195.5 55t-67.5 161zM201 301v-104q0 -49 20 -75t69 -26t69 26.5t20 74.5v104q0 102 -89 102q-44 0 -66.5 -28t-22.5 -74z" />
    <glyph glyph-name="afii10081" unicode="&#x43f;" horiz-adv-x="635" 
d="M229 0h-180v500h537v-500h-180v379h-177v-379z" />
    <glyph glyph-name="afii10082" unicode="&#x440;" horiz-adv-x="602" 
d="M229 -200h-180v700h180v-33q73 47 149 47q93 0 141.5 -61.5t48.5 -202.5q0 -139 -48 -199.5t-142 -60.5q-18 0 -35.5 2.5t-28.5 4.5t-26.5 8.5t-21 8.5t-20.5 10t-17 9v-233zM284 383q-22 0 -55 -15v-236q40 -14 70 -14q34 0 61 28.5t27 103.5q0 74 -27 103.5t-76 29.5z
" />
    <glyph glyph-name="afii10083" unicode="&#x441;" horiz-adv-x="476" 
d="M439 143l24 -125q-73 -27 -168 -27q-116 0 -188.5 55t-72.5 166v74q0 102 74.5 163.5t186.5 61.5q91 0 168 -31l-24 -125q-13 6 -49 15.5t-58 9.5q-56 0 -83 -24t-27 -84v-46q0 -60 26.5 -83t83.5 -23q10 0 19.5 1t16 2t17 3.5t15.5 4t19 6t20 6.5z" />
    <glyph glyph-name="afii10084" unicode="&#x442;" horiz-adv-x="538" 
d="M20 363v137h498v-137h-158v-363h-180v363h-160z" />
    <glyph glyph-name="afii10085" unicode="&#x443;" horiz-adv-x="604" 
d="M250 -55l24 56q-33 0 -73.5 26.5t-55.5 68.5l-137 404h193l100 -396h11l96 396h186l-168 -529q-41 -88 -72 -126q-64 -80 -166 -80q-72 0 -172 31l26 126q76 -24 122 -24q31 0 51.5 9t34.5 38z" />
    <glyph glyph-name="afii10086" unicode="&#x444;" horiz-adv-x="879" 
d="M349 700h180v-211q15 7 49 14t55 7q218 0 218 -257q0 -263 -218 -263q-22 0 -56 7t-48 14v-211h-180v211q-14 -7 -47.5 -14t-56.5 -7q-218 0 -218 263q0 122 53.5 189.5t164.5 67.5q23 0 56.5 -7t47.5 -14v211zM316 103q9 0 33 8v277q-24 8 -33 8q-53 0 -80.5 -37.5
t-27.5 -105.5q0 -77 30 -113t78 -37zM561 396q-13 0 -32 -8v-277q21 -8 32 -8q109 0 109 150q0 143 -109 143z" />
    <glyph glyph-name="afii10087" unicode="&#x445;" horiz-adv-x="577" 
d="M204 500l85 -182l98 182h181l-157 -248l157 -252h-194l-85 191l-97 -191h-182l148 252l-148 248h194z" />
    <glyph glyph-name="afii10088" unicode="&#x446;" horiz-adv-x="662" 
d="M49 500h180v-379h160v379h180v-379h60l-12 -281h-168v160h-400v500z" />
    <glyph glyph-name="afii10089" unicode="&#x447;" horiz-adv-x="598" 
d="M39 500h180v-181q0 -42 15.5 -59.5t54.5 -17.5q28 0 80 8v250h180v-500h-180v143q-80 -12 -137 -12q-100 0 -146.5 51t-46.5 170v148z" />
    <glyph glyph-name="afii10090" unicode="&#x448;" horiz-adv-x="866" 
d="M350 500h166v-379h128v379h173v-500h-768v500h173v-379h128v379z" />
    <glyph glyph-name="afii10091" unicode="&#x449;" horiz-adv-x="910" 
d="M49 0v500h173v-379h128v379h166v-379h128v379h173v-379h60l-11 -281h-169v160h-648z" />
    <glyph glyph-name="afii10092" unicode="&#x44a;" horiz-adv-x="671" 
d="M13 389l14 111h295v-156q87 4 114 4q105 0 153 -36.5t48 -134.5q0 -103 -66 -140t-197 -37h-232v389h-129zM384 246h-62v-142h67q67 0 67 73q0 69 -72 69z" />
    <glyph glyph-name="afii10093" unicode="&#x44b;" horiz-adv-x="836" 
d="M607 0v500h180v-500h-180zM49 0v500h180v-156q88 4 115 4q104 0 152 -36.5t48 -134.5q0 -103 -65.5 -140t-196.5 -37h-233zM291 246h-62v-142h67q67 0 67 73q0 69 -72 69z" />
    <glyph glyph-name="afii10094" unicode="&#x44c;" horiz-adv-x="578" 
d="M49 0v500h180v-156q88 4 115 4q104 0 152 -36.5t48 -134.5q0 -103 -65.5 -140t-196.5 -37h-233zM291 246h-62v-142h67q67 0 67 73q0 69 -72 69z" />
    <glyph glyph-name="afii10095" unicode="&#x44d;" horiz-adv-x="508" 
d="M291 188v15h-190v96h190v18q0 43 -28.5 56.5t-89.5 13.5q-45 0 -114 -24l-25 112q87 35 183 35q117 0 186.5 -55.5t69.5 -168.5v-75q0 -112 -69.5 -166.5t-186.5 -54.5q-103 0 -190 33l25 113q70 -24 121 -24q62 0 90 14.5t28 61.5z" />
    <glyph glyph-name="afii10096" unicode="&#x44e;" horiz-adv-x="867" 
d="M304 192h-89v-192h-166v500h166v-201h88v24q0 89 77 137.5t187 48.5q122 0 194 -54t72 -168v-75q0 -114 -72 -168.5t-194 -54.5q-105 0 -184 50t-79 139v14zM480 290v-92q0 -85 87 -85q86 0 86 85v92q0 49 -19.5 72.5t-66.5 23.5q-87 0 -87 -96z" />
    <glyph glyph-name="afii10097" unicode="&#x44f;" horiz-adv-x="613" 
d="M255 500h309v-500h-180v159h-55l-103 -159h-194l127 173q-58 6 -93 37.5t-35 113.5q0 91 54 133.5t170 42.5zM218 325q1 -36 18.5 -52.5t58.5 -16.5h89v140h-89q-77 0 -77 -71z" />
    <glyph glyph-name="afii10071" unicode="&#x451;" horiz-adv-x="570" 
d="M95 721h159v-152h-159v152zM314 721h160v-152h-160v152zM511 131l18 -117q-116 -24 -232 -24q-263 0 -263 205v77q0 121 63 179.5t194 58.5q252 0 252 -199v-112h-328v-17q0 -74 82 -74q126 0 214 23zM215 314v-15h161v20q0 37 -23 59.5t-62 22.5q-76 0 -76 -87z" />
    <glyph glyph-name="endash" unicode="&#x2013;" 
d="M62 267v152h500v-152h-500z" />
    <glyph glyph-name="emdash" unicode="&#x2014;" horiz-adv-x="894" 
d="M62 267v152h770v-152h-770z" />
    <glyph glyph-name="quoteleft" unicode="&#x2018;" horiz-adv-x="310" 
d="M253 422h-200v106q0 62 36 124.5t83 97.5l63 -35q-46 -53 -46 -119h64v-174z" />
    <glyph glyph-name="quoteright" unicode="&#x2019;" horiz-adv-x="310" 
d="M55 700h200v-106q0 -62 -36 -124.5t-83 -97.5l-63 35q47 54 47 119h-65v174z" />
    <glyph glyph-name="quotesinglbase" unicode="&#x201a;" horiz-adv-x="310" 
d="M55 174h200v-106q0 -62 -36 -124.5t-83 -97.5l-63 35q47 54 47 119h-65v174z" />
    <glyph glyph-name="quotedblleft" unicode="&#x201c;" horiz-adv-x="556" 
d="M510 422h-200v106q0 62 36 124.5t83 97.5l63 -35q-46 -53 -46 -119h64v-174zM253 422h-200v106q0 62 36 124.5t83 97.5l63 -35q-46 -53 -46 -119h64v-174z" />
    <glyph glyph-name="quotedblright" unicode="&#x201d;" horiz-adv-x="556" 
d="M55 700h200v-106q0 -62 -36 -124.5t-83 -97.5l-63 35q47 54 47 119h-65v174zM312 700h200v-106q0 -62 -36 -124.5t-83 -97.5l-63 35q47 54 47 119h-65v174z" />
    <glyph glyph-name="quotedblbase" unicode="&#x201e;" horiz-adv-x="556" 
d="M55 174h200v-106q0 -62 -36 -124.5t-83 -97.5l-63 35q47 54 47 119h-65v174zM312 174h200v-106q0 -62 -36 -124.5t-83 -97.5l-63 35q47 54 47 119h-65v174z" />
    <glyph glyph-name="bullet" unicode="&#x2022;" horiz-adv-x="395" 
d="M62 274q0 61 32.5 99t101.5 38q70 0 103.5 -38t33.5 -99q0 -60 -33.5 -97.5t-103.5 -37.5q-69 0 -101.5 37.5t-32.5 97.5z" />
    <glyph glyph-name="ellipsis" unicode="&#x2026;" horiz-adv-x="820" 
d="M55 174h200v-174h-200v174zM310 174h200v-174h-200v174zM565 174h200v-174h-200v174z" />
    <glyph glyph-name="perthousand" unicode="&#x2030;" horiz-adv-x="1424" 
d="M781 -10q-175 0 -175 164v63q0 83 46 125.5t129 42.5q82 0 128.5 -42.5t46.5 -125.5v-63q0 -82 -45.5 -123t-129.5 -41zM237 710q82 0 128 -42t46 -125v-64q0 -82 -45 -123t-129 -41q-175 0 -175 164v64q0 82 46 124.5t129 42.5zM182 550v-62q0 -83 55 -83q53 0 53 71v62
q0 82 -53 82q-55 0 -55 -70zM781 295q-54 0 -54 -85v-59q0 -72 54 -72q53 0 53 72v73q0 71 -53 71zM764 701l-347 -701h-167l346 701h168zM1188 -10q-175 0 -175 164v63q0 83 46 125.5t129 42.5q82 0 128 -42t46 -126v-63q0 -82 -45.5 -123t-128.5 -41zM1188 295
q-55 0 -55 -85v-59q0 -72 55 -72q53 0 53 72v73q0 71 -53 71z" />
    <glyph glyph-name="Euro" unicode="&#x20ac;" horiz-adv-x="701" 
d="M79 375l-17 90h60v9q0 65 22.5 112t63.5 73.5t90.5 38.5t110.5 12q67 0 137 -12.5t93 -21.5l-33 -135q-14 6 -68 12.5t-96 6.5q-54 0 -91.5 -20t-37.5 -66v-9h279l-15 -90h-264v-45h257l-15 -91h-242v-13q0 -44 37 -65t91 -21q44 0 100 6.5t72 12.5l26 -136
q-24 -9 -93 -21t-137 -12q-128 0 -207.5 56.5t-79.5 179.5v13h-43l-17 91h57v45h-40z" />
    <glyph glyph-name="afii61352" unicode="&#x2116;" horiz-adv-x="1147" 
d="M471 700h172v-700h-187l-223 404v-404h-171v700h192l217 -398v398zM693 412v41q0 70 47.5 113.5t146.5 43.5t148.5 -44t49.5 -113v-41q0 -70 -49.5 -113t-148.5 -43t-146.5 43t-47.5 113zM834 451v-37q0 -31 10.5 -46t42.5 -15t42.5 15t10.5 46v37q0 31 -10.5 46.5
t-42.5 15.5t-42.5 -15.5t-10.5 -46.5zM697 110v105h388v-105h-388z" />
    <glyph glyph-name="trademark" unicode="&#x2122;" horiz-adv-x="880" 
d="M43 601v99h295v-99h-87v-250h-120v250h-88zM479 568l-14 -217h-107l29 349h137l70 -219l71 219h137l28 -349h-106l-14 217l-64 -217h-103z" />
    <glyph glyph-name="CR" horiz-adv-x="278" 
 />
    </font>
</defs>
</svg>
