<?xml version="1.0" standalone="no"?>
<!DOCTYPE svg PUBLIC "-//W3C//DTD SVG 1.1//EN" "http://www.w3.org/Graphics/SVG/1.1/DTD/svg11.dtd" >
<svg xmlns="http://www.w3.org/2000/svg" xmlns:xlink="http://www.w3.org/1999/xlink" version="1.1">
<metadata>
Created by FontForge 20161003 at Fri Jan 13 11:55:53 2017
 By www-data
Copyright (c) 2006 by Art. Lebedev Studio. All rights reserved.
</metadata>
<defs>
<font id="ALSEkibastuzBold" horiz-adv-x="529" >
  <font-face 
    font-family="ALSEkibastuzBold"
    font-weight="700"
    font-stretch="normal"
    units-per-em="1000"
    panose-1="2 0 8 3 5 0 0 2 0 4"
    ascent="800"
    descent="-200"
    x-height="500"
    cap-height="700"
    bbox="-112 -281 1201 950"
    underline-thickness="50"
    underline-position="-150"
    unicode-range="U+0020-221E"
  />
<missing-glyph horiz-adv-x="360" 
 />
    <glyph glyph-name=".notdef" horiz-adv-x="360" 
 />
    <glyph glyph-name=".null" horiz-adv-x="0" 
 />
    <glyph glyph-name="nonmarkingreturn" horiz-adv-x="333" 
 />
    <glyph glyph-name="space" unicode=" " horiz-adv-x="260" 
 />
    <glyph glyph-name="exclam" unicode="!" horiz-adv-x="256" 
d="M68 700h120l-16 -503h-88zM67 134h121v-134h-121v134z" />
    <glyph glyph-name="quotedbl" unicode="&#x22;" horiz-adv-x="413" 
d="M75 700h105l-10 -230h-85zM233 700h105l-10 -230h-85z" />
    <glyph glyph-name="numbersign" unicode="#" horiz-adv-x="673" 
d="M78 463v84h126l30 153h98l-30 -153h147l30 153h98l-30 -153h47v-84h-64l-44 -226h108v-84h-124l-30 -153h-97l29 153h-147l-30 -153h-97l29 153h-49v84h66l44 226h-110zM285 463l-44 -226h148l44 226h-148z" />
    <glyph glyph-name="dollar" unicode="$" horiz-adv-x="610" 
d="M272 730h70v-60q94 -2 206 -37l-16 -80q-100 35 -190 37v-211q52 -10 88 -23.5t69 -37.5t49.5 -62t16.5 -91q0 -82 -64 -126.5t-159 -47.5v-71h-70v70q-145 2 -226 40l15 83q79 -34 211 -38v217q-47 9 -84 22.5t-70.5 35.5t-52 57t-18.5 81q0 89 63 134t162 48v60z
M473 173q0 18 -3 31.5t-11.5 23.5t-15 16.5t-22 12.5t-23.5 8.5t-28 8t-28 7.5v-206q131 5 131 98zM141 489q0 -23 10.5 -40t34.5 -29t38.5 -16.5t47.5 -13.5v199q-68 -3 -99.5 -31.5t-31.5 -68.5z" />
    <glyph glyph-name="percent" unicode="%" horiz-adv-x="909" 
d="M677 -10q-75 0 -114.5 39t-39.5 107v75q0 68 39.5 108t114.5 40q74 0 114 -39.5t40 -108.5v-75q0 -68 -39.5 -107t-114.5 -39zM232 710q75 0 115 -40t40 -108v-75q0 -68 -40 -107t-115 -39t-114.5 39t-39.5 107v75q0 68 40 108t114 40zM162 555v-54q0 -95 70 -95t70 90
v54q0 94 -70 94q-36 0 -53 -25t-17 -64zM677 294q-70 0 -70 -100v-49q0 -90 70 -90q69 0 69 90v59q0 90 -69 90zM702 700l-397 -700h-100l399 700h98z" />
    <glyph glyph-name="ampersand" unicode="&#x26;" horiz-adv-x="782" 
d="M559 665l-21 -82q-89 43 -143 43q-29 0 -48.5 -2t-42.5 -9.5t-35 -25.5t-12 -45q0 -52 51 -114l217 -263q37 50 53 132l93 -12q-6 -51 -33 -101.5t-59 -79.5l90 -106h-116l-45 53q-70 -63 -188 -63q-66 0 -119 18.5t-89.5 64t-36.5 113.5q0 87 37.5 135.5t103.5 79.5
q-64 82 -64 143q0 81 60.5 123.5t159.5 42.5q95 0 187 -45zM325 55q36 0 74.5 14t63.5 37l-197 237q-16 -9 -32.5 -24.5t-34.5 -52t-18 -80.5q0 -60 41.5 -95.5t102.5 -35.5z" />
    <glyph glyph-name="quotesingle" unicode="'" horiz-adv-x="261" 
d="M78 700h105l-10 -230h-85z" />
    <glyph glyph-name="parenleft" unicode="(" horiz-adv-x="421" 
d="M81 325q0 92 26.5 187.5t55 153.5t70.5 130l96 -12q-142 -225 -142 -459q0 -34 3.5 -69t9 -64.5t14.5 -61t16.5 -55t19.5 -51t20 -43.5t20.5 -39t17.5 -31.5t16 -25.5l10 -17l-99 -12q-68 110 -111 222t-43 247z" />
    <glyph glyph-name="parenright" unicode=")" horiz-adv-x="421" 
d="M334 325q0 -134 -43 -246t-112 -223l-98 12q147 225 147 457t-143 459l97 12q42 -72 70.5 -130t55 -153.5t26.5 -187.5z" />
    <glyph glyph-name="asterisk" unicode="*" horiz-adv-x="694" 
d="M78 566l40 78l193 -117l-8 213h88l-7 -213l192 117l40 -78l-190 -96l190 -96l-40 -78l-192 117l7 -213h-88l8 212l-193 -116l-40 78l190 96z" />
    <glyph glyph-name="plus" unicode="+" horiz-adv-x="656" 
d="M281 595h94v-203h203v-85h-203v-203h-94v203h-203v85h203v203z" />
    <glyph glyph-name="comma" unicode="," horiz-adv-x="271" 
d="M75 134h121v-82q0 -108 -78 -206l-39 18q40 67 40 136h-44v134z" />
    <glyph glyph-name="hyphen" unicode="-" horiz-adv-x="456" 
d="M78 283v85h300v-85h-300z" />
    <glyph glyph-name="period" unicode="." horiz-adv-x="271" 
d="M75 134h121v-134h-121v134z" />
    <glyph glyph-name="slash" unicode="/" horiz-adv-x="581" 
d="M518 715l-349 -793h-106l348 793h107z" />
    <glyph glyph-name="zero" unicode="0" horiz-adv-x="658" 
d="M41 282v133q0 136 76.5 215.5t211.5 79.5t211.5 -79t76.5 -215v-134q0 -135 -76 -213.5t-212 -78.5t-212 78t-76 214zM329 619q-86 0 -132.5 -54t-46.5 -144v-142q0 -94 46 -146t133 -52t133 52t46 146v141q0 90 -46.5 144.5t-132.5 54.5z" />
    <glyph glyph-name="one" unicode="1" horiz-adv-x="658" 
d="M153 447l258 253h94v-700h-106v572l-213 -213z" />
    <glyph glyph-name="two" unicode="2" horiz-adv-x="658" 
d="M322 710q260 0 260 -178q0 -24 -7 -47t-16 -40.5t-27.5 -36t-31.5 -30t-38.5 -27.5t-38 -23t-40 -22t-35.5 -19q-7 -4 -31.5 -17t-32.5 -18l-28 -17.5t-27.5 -20.5t-20.5 -23t-18 -29t-9.5 -33.5t-4.5 -41.5h411v-87h-517v36q0 43 6 78.5t13.5 61.5t25 50t31 39t41 34
t45 29t53.5 30q9 5 44 23t54 29.5t44.5 30t37.5 39t12 42.5q0 46 -42.5 74t-117.5 28q-40 0 -107.5 -14.5t-110.5 -31.5l-16 84q124 48 239 48z" />
    <glyph glyph-name="three" unicode="3" horiz-adv-x="658" 
d="M63 21l25 85q110 -31 201 -31q199 0 199 122q0 31 -10 55t-29.5 37.5t-38 22t-46.5 12t-42.5 4t-38.5 0.5h-83l-13 79h108q62 0 107.5 31t45.5 86q0 101 -153 101q-45 0 -107.5 -7t-91.5 -19l-20 82q87 29 217 29q260 0 260 -166q0 -58 -38 -100t-97 -58q84 -24 130 -67
t46 -131q0 -58 -24 -98t-68.5 -61t-97 -30t-121.5 -9q-56 0 -128.5 12t-91.5 19z" />
    <glyph glyph-name="four" unicode="4" horiz-adv-x="658" 
d="M406 700h117v-425h76l-14 -83h-62v-192h-106v192h-358v79zM416 592l-254 -317h254v317z" />
    <glyph glyph-name="five" unicode="5" horiz-adv-x="658" 
d="M63 28l14 89q135 -38 244 -38q83 0 124 31t41 115q0 127 -146 127q-100 0 -235 -28l34 376h433l-7 -83h-337l-22 -200q78 24 180 24q93 0 151 -50t58 -165q0 -67 -20 -114.5t-58 -73.5t-84 -37t-106 -11q-72 0 -156 14.5t-108 23.5z" />
    <glyph glyph-name="six" unicode="6" horiz-adv-x="658" 
d="M51 274v144q0 77 25 135t67 91.5t91.5 49.5t105.5 16q130 0 237 -34l-20 -78q-32 12 -93 21t-114 9q-84 0 -137.5 -50t-53.5 -135v-53q87 57 199 57q113 0 181 -53.5t68 -174.5q0 -104 -73.5 -166.5t-199.5 -62.5q-283 0 -283 284zM159 311v-49q0 -98 45 -147t125 -49
q74 0 121.5 40t47.5 113t-43.5 108t-115.5 35q-87 0 -180 -51z" />
    <glyph glyph-name="seven" unicode="7" horiz-adv-x="658" 
d="M315 0h-110q0 111 25 213.5t65.5 178t82.5 128.5t85 89h-404v91h539v-64q-50 -38 -96.5 -93.5t-90 -133.5t-70 -184.5t-26.5 -224.5z" />
    <glyph glyph-name="eight" unicode="8" horiz-adv-x="658" 
d="M231 375q-160 51 -160 164q0 80 68.5 125.5t189.5 45.5t189.5 -45.5t68.5 -125.5q0 -118 -175 -164q205 -52 205 -184q0 -201 -288 -201t-288 201q0 42 16 74.5t46.5 53.5t59 33t68.5 23zM310 329q-75 -19 -116.5 -48.5t-41.5 -82.5q0 -68 44.5 -97.5t132.5 -29.5
q87 0 132 29.5t45 97.5q0 17 -5.5 32t-19 26.5t-24.5 19.5t-34 17t-35 13t-40.5 12t-37.5 11zM329 634q-75 0 -115.5 -28t-40.5 -73q0 -25 16 -46.5t46.5 -37t50 -23.5t50.5 -18q149 52 149 125q0 45 -40.5 73t-115.5 28z" />
    <glyph glyph-name="nine" unicode="9" horiz-adv-x="658" 
d="M607 426v-144q0 -77 -25 -135t-67.5 -91.5t-92 -49.5t-105.5 -16q-110 0 -237 34l20 79q32 -12 94 -21.5t114 -9.5q83 0 136.5 50t53.5 136v42q-28 -17 -90 -33t-116 -16q-111 0 -176 57t-65 173q0 104 73 166.5t200 62.5q283 0 283 -284zM498 379v72q-11 184 -170 184
q-74 0 -121.5 -40.5t-47.5 -113.5t44.5 -108t114.5 -35q40 0 95.5 12.5t84.5 28.5z" />
    <glyph glyph-name="colon" unicode=":" horiz-adv-x="271" 
d="M75 502h121v-134h-121v134zM75 134h121v-134h-121v134z" />
    <glyph glyph-name="semicolon" unicode=";" horiz-adv-x="271" 
d="M75 502h121v-134h-121v134zM75 134h121v-82q0 -108 -78 -206l-39 18q40 67 40 136h-44v134z" />
    <glyph glyph-name="less" unicode="&#x3c;" horiz-adv-x="629" 
d="M78 220v62l456 217v-88l-341 -159l341 -161v-87z" />
    <glyph glyph-name="equal" unicode="=" horiz-adv-x="656" 
d="M78 228v79h500v-79h-500zM78 392v79h500v-79h-500z" />
    <glyph glyph-name="greater" unicode="&#x3e;" horiz-adv-x="629" 
d="M78 499l456 -217v-62l-456 -216v87l341 161l-341 159v88z" />
    <glyph glyph-name="question" unicode="?" horiz-adv-x="547" 
d="M62 599l-11 91q17 5 71.5 12.5t93.5 7.5q50 0 93 -9t80 -29t58.5 -56.5t21.5 -86.5q0 -29 -4 -53t-14.5 -42t-18 -30t-25.5 -24l-25.5 -17t-29 -15.5t-26.5 -13.5q-20 -10 -31 -18t-21.5 -23.5t-10.5 -35.5v-70h-94v76q0 46 25 73.5t73 51.5q47 23 71.5 48.5t24.5 70.5
q0 72 -33.5 91.5t-113.5 19.5q-31 0 -83.5 -6.5t-70.5 -12.5zM155 134h121v-134h-121v134z" />
    <glyph glyph-name="at" unicode="@" horiz-adv-x="1115" 
d="M558 710q244 0 363 -96t119 -310q0 -147 -74.5 -225.5t-215.5 -78.5h-81v47q-84 -57 -149 -57q-195 0 -195 248q0 135 59 203.5t174 68.5q62 0 204 -27v-421q37 1 64.5 11.5t52.5 35t38.5 74t13.5 121.5q0 184 -83 256t-290 72q-189 0 -281.5 -91t-92.5 -292
q0 -209 89.5 -295t284.5 -86q204 0 418 86l21 -72q-211 -95 -439 -95q-238 0 -360.5 108t-122.5 354q0 461 483 461zM550 57q46 0 112 41v334q-56 14 -99 14q-61 0 -99 -43t-39 -162q0 -106 34 -145t91 -39z" />
    <glyph glyph-name="A" unicode="A" horiz-adv-x="652" 
d="M515 0l-60 190h-258l-60 -190h-112l236 700h132l234 -700h-112zM328 604l-110 -331h216z" />
    <glyph glyph-name="B" unicode="B" horiz-adv-x="592" 
d="M78 0v700h261q82 0 128.5 -40.5t46.5 -126.5q0 -118 -83 -148q117 -42 117 -182q0 -99 -48 -151t-168 -52h-254zM184 329v-252h124q67 0 101 29t34 100q0 67 -39 95t-96 28h-124zM315 623h-131v-217h131q38 0 66 27.5t28 90.5q0 47 -24 73t-70 26z" />
    <glyph glyph-name="C" unicode="C" horiz-adv-x="559" 
d="M497 103l18 -75q-112 -38 -186 -38q-140 0 -212.5 71.5t-72.5 210.5v156q0 138 72.5 210t212.5 72q91 0 186 -38l-21 -75q-92 35 -165 35q-177 0 -177 -205v-155q0 -92 42.5 -148t134.5 -56q59 0 168 35z" />
    <glyph glyph-name="D" unicode="D" horiz-adv-x="683" 
d="M78 0v700h238q82 0 138 -15t99.5 -53t64.5 -107.5t21 -174.5q0 -104 -21 -174t-65 -108t-100 -53t-137 -15h-238zM316 624h-132v-548h132q48 0 83 10t67 37.5t48.5 84.5t16.5 142q0 86 -16.5 143t-49 84.5t-66.5 37t-83 9.5z" />
    <glyph glyph-name="E" unicode="E" horiz-adv-x="555" 
d="M184 333v-252h327v-81h-433v700h433v-81h-327v-207h281v-79h-281z" />
    <glyph glyph-name="F" unicode="F" horiz-adv-x="552" 
d="M184 308v-308h-106v700h433v-81h-327v-230h281v-81h-281z" />
    <glyph glyph-name="G" unicode="G" horiz-adv-x="612" 
d="M568 30q-108 -40 -232 -40q-292 0 -292 278v162q0 280 292 280q118 0 217 -31l-21 -79q-81 27 -186 27q-102 0 -148 -51.5t-46 -153.5v-159q0 -199 184 -199q60 0 126 18v209l-135 6v79h241v-346z" />
    <glyph glyph-name="H" unicode="H" horiz-adv-x="713" 
d="M529 700h106v-700h-106v337h-345v-337h-106v700h106v-282h345v282z" />
    <glyph glyph-name="I" unicode="I" horiz-adv-x="388" 
d="M30 629v71h325v-71h-110v-558h113v-71h-325v71h106v558h-109z" />
    <glyph glyph-name="J" unicode="J" horiz-adv-x="486" 
d="M163 -10q-87 0 -150 28l17 81q66 -34 115 -34q48 0 81 13.5t48.5 38t21.5 50.5t6 61v472h106v-471q0 -54 -11 -95t-37.5 -74.5t-75.5 -51.5t-121 -18z" />
    <glyph glyph-name="K" unicode="K" horiz-adv-x="631" 
d="M184 700v-307h13l291 307h129l-317 -321l320 -379h-124l-298 354h-14v-354h-106v700h106z" />
    <glyph glyph-name="L" unicode="L" horiz-adv-x="572" 
d="M78 0v700h106v-619h347v-81h-453z" />
    <glyph glyph-name="M" unicode="M" horiz-adv-x="917" 
d="M199 563l-38 -563h-103l59 700h124l218 -604l216 604h125l59 -700h-103l-38 563l-205 -563h-110z" />
    <glyph glyph-name="N" unicode="N" horiz-adv-x="760" 
d="M581 700h101v-700h-110l-394 553v-553h-100v700h112l391 -550v550z" />
    <glyph glyph-name="O" unicode="O" horiz-adv-x="708" 
d="M44 266v165q0 125 82 202t228 77t228 -77t82 -202v-165q0 -124 -81.5 -200t-228.5 -76t-228.5 76t-81.5 200zM153 440v-181q0 -91 53 -140t148 -49q99 0 150 48.5t51 140.5v181q0 87 -52 138.5t-149 51.5q-92 0 -146.5 -50.5t-54.5 -139.5z" />
    <glyph glyph-name="P" unicode="P" horiz-adv-x="604" 
d="M78 700h227q136 0 195.5 -48.5t59.5 -174.5q0 -128 -60.5 -182t-194.5 -54h-121v-241h-106v700zM184 624v-307h121q68 0 107.5 34t39.5 126q0 80 -37 113.5t-110 33.5h-121z" />
    <glyph glyph-name="Q" unicode="Q" horiz-adv-x="708" 
d="M44 266v165q0 125 82 202t228 77t228 -77t82 -202v-165q0 -84 -37.5 -146.5t-109.5 -96.5l88 -195h-102l-75 168q-34 -6 -74 -6q-147 0 -228.5 76t-81.5 200zM153 445v-181q0 -92 53.5 -145.5t147.5 -53.5q16 0 40 2l-99 225h102l83 -192q75 52 75 165v180
q0 87 -52 138.5t-149 51.5q-92 0 -146.5 -50.5t-54.5 -139.5z" />
    <glyph glyph-name="R" unicode="R" horiz-adv-x="637" 
d="M506 0l-186 280h-136v-280h-106v700h244q135 0 195 -50t60 -165q0 -92 -42 -146.5t-107 -56.5l198 -282h-120zM184 624v-268h141q74 0 109 27.5t35 101.5q0 75 -36 107t-108 32h-141z" />
    <glyph glyph-name="S" unicode="S" horiz-adv-x="610" 
d="M309 710q116 0 239 -40l-16 -82q-122 43 -223 43q-81 0 -117 -28.5t-36 -71.5q0 -66 87 -101q34 -14 81.5 -29t78 -24t64.5 -25.5t53.5 -36t32.5 -53t13 -78.5q0 -97 -73 -145.5t-188 -48.5q-165 0 -259 45l15 80q112 -46 244 -46q51 0 85 13t47 34t17 34.5t4 27.5
q0 46 -20.5 68t-76.5 40q-23 7 -62.5 18.5t-64 19.5t-57.5 20.5t-53 27.5t-39.5 36t-28.5 50.5t-9 65.5q0 93 73 139.5t189 46.5z" />
    <glyph glyph-name="T" unicode="T" horiz-adv-x="558" 
d="M24 616v84h510v-84h-202v-616h-106v616h-202z" />
    <glyph glyph-name="U" unicode="U" horiz-adv-x="653" 
d="M491 700h98v-450q0 -260 -253 -260q-272 0 -272 260v450h106v-462q0 -169 169 -169q79 0 115.5 40.5t36.5 128.5v462z" />
    <glyph glyph-name="V" unicode="V" horiz-adv-x="619" 
d="M234 0l-224 700h113l183 -619h11l180 619h112l-226 -700h-149z" />
    <glyph glyph-name="W" unicode="W" horiz-adv-x="986" 
d="M197 0l-187 700h112l143 -606l172 606h104l174 -605l142 605h119l-197 -700h-120l-173 579l-169 -579h-120z" />
    <glyph glyph-name="X" unicode="X" horiz-adv-x="632" 
d="M141 700l188 -286l166 286h127l-243 -350l243 -350h-131l-187 284l-167 -284h-127l242 350l-242 350h131z" />
    <glyph glyph-name="Y" unicode="Y" horiz-adv-x="613" 
d="M254 261l-244 439h120l182 -368l174 368h117l-243 -439v-261h-106v261z" />
    <glyph glyph-name="Z" unicode="Z" horiz-adv-x="606" 
d="M48 615v85h511v-75l-390 -540h396v-85h-524v75l393 540h-386z" />
    <glyph glyph-name="bracketleft" unicode="[" horiz-adv-x="398" 
d="M320 800v-86h-136v-768h136v-86h-242v940h242z" />
    <glyph glyph-name="backslash" unicode="\" horiz-adv-x="581" 
d="M526 -111h-106l-354 833h107z" />
    <glyph glyph-name="bracketright" unicode="]" horiz-adv-x="398" 
d="M214 714h-136v86h242v-940h-242v86h136v768z" />
    <glyph glyph-name="asciicircum" unicode="^" horiz-adv-x="691" 
d="M302 701h86l225 -416h-102l-164 317l-168 -317h-101z" />
    <glyph glyph-name="underscore" unicode="_" horiz-adv-x="500" 
d="M0 -123v88h500v-88h-500z" />
    <glyph glyph-name="grave" unicode="`" horiz-adv-x="277" 
d="M175 749l27 -187l-70 -12l-64 199h107z" />
    <glyph glyph-name="a" unicode="a" 
d="M82 414l-13 65q90 31 199 31q113 0 156.5 -45t43.5 -136v-329h-100v37q-67 -48 -156 -48q-172 0 -172 153q0 70 49.5 104t136.5 34h142v65q0 51 -24.5 74.5t-79.5 23.5q-93 0 -182 -29zM251 58q41 0 117 35v123h-120q-52 0 -78.5 -22t-26.5 -51q0 -45 25.5 -65t82.5 -20z
" />
    <glyph glyph-name="b" unicode="b" horiz-adv-x="563" 
d="M61 700h100v-237q74 46 152 46q111 0 161.5 -66t50.5 -193q0 -133 -49.5 -195t-162.5 -62q-72 0 -152 44v-37h-100v700zM278 59q145 0 145 191q0 188 -145 188q-54 0 -117 -35v-309q55 -35 117 -35z" />
    <glyph glyph-name="c" unicode="c" horiz-adv-x="463" 
d="M431 98l15 -72q-70 -36 -166 -36q-111 0 -175.5 56.5t-64.5 164.5v77q0 103 65 162.5t175 59.5q86 0 166 -36l-16 -73q-82 35 -134 35q-150 0 -150 -154v-65q0 -154 150 -154q47 0 135 35z" />
    <glyph glyph-name="d" unicode="d" horiz-adv-x="580" 
d="M419 700h100v-700h-100v37q-75 -47 -148 -47q-102 0 -159 65.5t-57 194.5q0 131 52 195.5t166 64.5q79 0 146 -47v237zM301 62q59 0 118 35v306q-65 35 -118 35q-65 0 -104.5 -39.5t-39.5 -148.5q0 -107 39.5 -147.5t104.5 -40.5z" />
    <glyph glyph-name="e" unicode="e" 
d="M469 98l11 -74q-109 -34 -199 -34q-241 0 -241 196v96q0 228 227 228q104 0 164 -49t60 -151v-86h-348v-43q0 -68 36 -92.5t111 -24.5q71 0 179 34zM143 306v-23h253v37q0 64 -32 92.5t-97 28.5t-94.5 -31.5t-29.5 -103.5z" />
    <glyph glyph-name="f" unicode="f" horiz-adv-x="404" 
d="M442 730l-14 -68q-66 16 -117 16q-63 0 -81.5 -38.5t-18.5 -139.5h173v-72h-173v-428h-100v428h-91v72h91v40q0 210 175 210q87 0 156 -20z" />
    <glyph glyph-name="g" unicode="g" horiz-adv-x="564" 
d="M294 510q91 0 142 -32q5 23 5 72h101q-2 -83 -58 -104q36 -34 36 -95q0 -86 -60 -118.5t-166 -32.5q-58 0 -86 6q-12 -19 -12 -47q0 -24 15 -45q24 5 83 5q119 0 184.5 -34.5t65.5 -124.5q0 -47 -18.5 -79.5t-53.5 -49.5t-77.5 -24t-100.5 -7q-57 0 -99.5 7t-77.5 24
t-53.5 49.5t-18.5 79.5q0 95 91 136q-29 27 -29 62q0 41 30 67q-68 40 -68 126q0 159 225 159zM445 -40q0 51 -31 73t-120 22q-150 0 -150 -95q0 -46 32.5 -71.5t117.5 -25.5q86 0 118.5 25.5t32.5 71.5zM420 351q0 97 -126 97q-71 0 -98.5 -25t-27.5 -72q0 -50 26 -70
t100 -20q70 0 98 20.5t28 69.5z" />
    <glyph glyph-name="h" unicode="h" horiz-adv-x="576" 
d="M515 0h-100v328q0 59 -25 84.5t-87 25.5q-37 0 -77 -17.5t-65 -38.5v-382h-100v700h100v-252q77 62 176 62q91 0 134.5 -33.5t43.5 -134.5v-342z" />
    <glyph glyph-name="i" unicode="i" horiz-adv-x="222" 
d="M61 500h100v-500h-100v500zM61 700h100v-117h-100v117z" />
    <glyph glyph-name="j" unicode="j" horiz-adv-x="222" 
d="M-112 -190l16 72q52 -16 75 -16q82 0 82 100v534h100v-544q0 -166 -161 -166q-31 0 -66 6.5t-46 13.5zM61 700h100v-117h-100v117z" />
    <glyph glyph-name="k" unicode="k" horiz-adv-x="514" 
d="M161 700v-414h14l207 214h124l-245 -239l245 -261h-118l-213 238h-14v-238h-100v700h100z" />
    <glyph glyph-name="l" unicode="l" horiz-adv-x="222" 
d="M161 0h-100v750h100v-750z" />
    <glyph glyph-name="m" unicode="m" horiz-adv-x="800" 
d="M450 0h-97v346q0 43 -17.5 64.5t-56.5 21.5q-25 0 -62 -16.5t-59 -37.5v-378h-97v500h97v-69q33 27 81 53t81 26q54 0 80 -22.5t40 -60.5q35 32 87 57.5t87 25.5q73 0 99 -36t26 -115v-359h-97v346q0 45 -14 65.5t-53 20.5q-24 0 -62.5 -15.5t-62.5 -35.5v-381z" />
    <glyph glyph-name="n" unicode="n" horiz-adv-x="576" 
d="M515 0h-100v324q0 63 -24.5 88.5t-87.5 25.5q-38 0 -78 -17.5t-64 -38.5v-382h-100v500h100v-52q101 62 191 62q89 0 126 -43.5t37 -135.5v-331z" />
    <glyph glyph-name="o" unicode="o" horiz-adv-x="558" 
d="M37 197v105q0 97 63 152.5t178 55.5q114 0 178.5 -55.5t64.5 -152.5v-105q0 -97 -64.5 -152t-178.5 -55q-115 0 -178 55t-63 152zM137 318v-129q0 -64 36 -98t105 -34t105 34t36 98v129q0 124 -141 124q-67 0 -104 -32t-37 -92z" />
    <glyph glyph-name="p" unicode="p" horiz-adv-x="566" 
d="M161 -200h-100v700h100v-37q78 49 155 49q209 0 209 -262q0 -130 -50.5 -193.5t-158.5 -63.5q-72 0 -155 44v-237zM276 438q-60 0 -115 -35v-306q67 -35 121 -35q141 2 141 188q0 188 -147 188z" />
    <glyph glyph-name="q" unicode="q" horiz-adv-x="566" 
d="M505 479v-679h-100v237q-83 -48 -150 -48q-113 0 -164 66.5t-51 194.5q0 129 53.5 194.5t175.5 65.5q112 0 236 -31zM290 438q-66 0 -106.5 -40.5t-40.5 -147.5q0 -108 40.5 -148t106.5 -40q50 0 115 35v320q-49 21 -115 21z" />
    <glyph glyph-name="r" unicode="r" horiz-adv-x="380" 
d="M351 510l12 -85h-50q-58 0 -105 -45t-47 -85v-295h-100v500h100v-90q22 41 63 70.5t86 29.5h41z" />
    <glyph glyph-name="s" unicode="s" horiz-adv-x="504" 
d="M259 510q85 0 189 -31l-14 -69q-101 31 -176 31q-63 0 -90 -21.5t-27 -51.5q0 -46 48 -61q22 -7 59 -15.5t63.5 -14t57.5 -17.5t50.5 -27.5t33 -42.5t13.5 -63q0 -42 -15 -70t-45 -42t-64.5 -19.5t-83.5 -5.5q-105 0 -219 32l9 70q132 -33 202 -33q116 0 116 60
q0 47 -53 67q-25 9 -68.5 19t-74.5 19t-63 25t-49 45.5t-17 73.5q0 142 218 142z" />
    <glyph glyph-name="t" unicode="t" horiz-adv-x="392" 
d="M17 431v69h85v127l100 13v-140h170v-69h-170v-270q0 -102 78 -102q38 0 89 15l15 -63q-54 -21 -123 -21q-82 0 -120.5 37t-38.5 119v285h-85z" />
    <glyph glyph-name="u" unicode="u" horiz-adv-x="576" 
d="M61 500h100v-324q0 -114 99 -114q45 0 88 17t67 38v383h100v-500h-100v52q-37 -24 -93.5 -43t-111.5 -19q-75 0 -112 43t-37 117v350z" />
    <glyph glyph-name="v" unicode="v" horiz-adv-x="506" 
d="M189 0l-179 500h111l137 -428h6l134 428h98l-178 -500h-129z" />
    <glyph glyph-name="w" unicode="w" horiz-adv-x="806" 
d="M149 0l-136 500h109l91 -412h4l132 412h110l133 -413h4l92 413h104l-136 -500h-123l-130 418l-131 -418h-123z" />
    <glyph glyph-name="x" unicode="x" horiz-adv-x="516" 
d="M125 500l149 -202l121 202h111l-187 -258l187 -242h-115l-147 202l-122 -202h-112l186 262l-186 238h115z" />
    <glyph glyph-name="y" unicode="y" horiz-adv-x="541" 
d="M9 500h111l175 -439l128 439h108l-169 -495q-27 -80 -68 -150q-49 -85 -142 -85q-65 0 -129 27l19 69q59 -22 98 -22q65 0 91 62l39 94q-21 2 -43.5 18.5t-30.5 41.5z" />
    <glyph glyph-name="z" unicode="z" horiz-adv-x="499" 
d="M53 426v74h402v-52l-287 -374h290v-74h-421v52l290 374h-274z" />
    <glyph glyph-name="braceleft" unicode="{" horiz-adv-x="431" 
d="M353 708h-56q-45 0 -45 -44v-247q0 -28 -10.5 -42t-31.5 -26q23 -17 32.5 -40.5t9.5 -71.5v-241q0 -21 12 -32.5t33 -11.5h56v-92h-62q-145 0 -145 136v260q0 22 -11 33t-23 11h-34v92h34q12 0 23 11t11 33v233q0 131 145 131h62v-92z" />
    <glyph glyph-name="bar" unicode="|" horiz-adv-x="262" 
d="M78 750h106v-1000h-106v1000z" />
    <glyph glyph-name="braceright" unicode="}" horiz-adv-x="431" 
d="M134 708h-56v92h62q145 0 145 -131v-233q0 -22 11.5 -33t22.5 -11h34v-92h-34q-12 0 -23 -11t-11 -33v-260q0 -136 -145 -136h-62v92h56q21 0 33 11.5t12 32.5v241q0 48 9.5 71.5t32.5 40.5q-21 12 -31.5 26t-10.5 42v247q0 44 -45 44z" />
    <glyph glyph-name="asciitilde" unicode="~" horiz-adv-x="693" 
d="M121 349l-37 80q73 84 147 84q43 0 109 -31.5t113 -31.5q58 0 122 70l46 -77q-69 -97 -152 -97q-52 0 -117.5 31.5t-104.5 31.5q-32 0 -69 -20.5t-57 -39.5z" />
    <glyph glyph-name="sterling" unicode="&#xa3;" horiz-adv-x="807" 
d="M644 669l-23 -72q-1 1 -30.5 9t-79 16.5t-88.5 8.5q-61 0 -104 -38t-43 -114v-68h287v-67h-287v-222q28 4 45 4q41 0 104.5 -25t99.5 -25q20 0 42.5 6.5t41 16.5t33 19t25.5 18l11 8l39 -65q-96 -89 -188 -89q-43 0 -115 27.5t-122 27.5q-96 0 -181 -52l-27 68
q45 29 86 45v238h-59v67h59v75q0 105 70.5 164.5t182.5 59.5q26 0 54 -3t50 -7t44 -9.5t36 -10t25 -8t12 -3.5z" />
    <glyph glyph-name="currency" unicode="&#xa4;" horiz-adv-x="635" 
d="M30 241v76h78v383h227q136 0 195.5 -48.5t59.5 -174.5q0 -128 -60.5 -182t-194.5 -54h-121v-59h316v-76h-316v-106h-106v106h-78v76h78v59h-78zM214 624v-307h121q68 0 107.5 34t39.5 126q0 80 -37 113.5t-110 33.5h-121z" />
    <glyph glyph-name="section" unicode="&#xa7;" horiz-adv-x="708" 
d="M354 707q123 0 267 -37l-18 -79q-146 38 -249 38q-87 0 -127 -24.5t-40 -58.5q0 -22 14 -39t43 -29.5t56.5 -20t70.5 -16.5q26 -5 33.5 -7t33 -8t36 -9.5t33 -11.5t33 -15t27.5 -18t25.5 -23t17.5 -27t13 -33t4 -39q0 -49 -38.5 -86t-94.5 -60q133 -43 133 -142
q0 -55 -41.5 -93t-101 -53.5t-130.5 -15.5q-116 0 -268 36l19 79q154 -37 249 -37q88 0 127.5 24.5t39.5 59.5q0 43 -49.5 65.5t-140.5 39.5q-38 7 -65.5 13.5t-65 21.5t-61 33.5t-41 50t-17.5 71.5q0 27 12 50t35 41t41.5 29t45.5 25q-57 15 -95.5 53.5t-38.5 89.5
q0 78 78.5 120t194.5 42zM187 257q0 -18 5.5 -33.5t20 -27t24 -19t34.5 -15t34.5 -10.5t40 -9.5t35.5 -7.5q45 19 70.5 32t47.5 35.5t22 47.5q0 28 -14.5 48.5t-44.5 34.5t-59.5 22t-75.5 17q-140 -52 -140 -115z" />
    <glyph glyph-name="dieresis" unicode="&#xa8;" horiz-adv-x="413" 
d="M68 709h103v-132h-103v132zM242 709h103v-132h-103v132z" />
    <glyph glyph-name="copyright" unicode="&#xa9;" horiz-adv-x="1066" 
d="M533 710q228 0 341.5 -119t113.5 -336t-113.5 -336t-341.5 -119t-341.5 119t-113.5 336t113.5 336t341.5 119zM901 255q0 193 -90 289.5t-278 96.5q-368 0 -368 -386q0 -385 368 -385q187 0 277.5 94t90.5 291zM687 86l14 -64q-76 -26 -146 -26q-117 0 -171 52t-54 166
v76q0 115 54.5 169.5t170.5 54.5q73 0 146 -25l-16 -65q-70 24 -130 24q-80 0 -112.5 -37t-32.5 -122v-74q0 -79 32.5 -116t112.5 -37q62 0 132 24z" />
    <glyph glyph-name="guillemotleft" unicode="&#xab;" horiz-adv-x="555" 
d="M78 254l146 215h90l-135 -214l134 -203h-93zM247 254l146 215h90l-135 -214l134 -203h-93z" />
    <glyph glyph-name="registered" unicode="&#xae;" horiz-adv-x="649" 
d="M311 710q235 0 235 -233t-235 -233q-115 0 -175 58.5t-60 174.5t60 174.5t175 58.5zM489 477q0 97 -43 143t-135 46q-177 0 -177 -189t177 -189q91 0 134.5 45.5t43.5 143.5zM366 347l-71 102h-21v-102h-49v263h88q49 0 72.5 -19.5t23.5 -62.5q0 -39 -17.5 -58.5
t-44.5 -20.5l78 -102h-59zM274 569v-84h40q45 0 45 43q0 23 -11 32t-34 9h-40z" />
    <glyph glyph-name="macron" unicode="&#xaf;" horiz-adv-x="311" 
d="M0 590v82h310v-82h-310z" />
    <glyph glyph-name="degree" unicode="&#xb0;" horiz-adv-x="544" 
d="M272 713q81 0 142.5 -57.5t61.5 -136.5t-61.5 -136.5t-142.5 -57.5t-142.5 57.5t-61.5 136.5t61.5 136.5t142.5 57.5zM385 519q0 47 -33.5 80t-79.5 33t-79 -33t-33 -80t33 -79.5t79 -32.5q47 0 80 33t33 79z" />
    <glyph glyph-name="plusminus" unicode="&#xb1;" horiz-adv-x="656" 
d="M281 630h94v-203h203v-85h-203v-203h-94v203h-203v85h203v203zM78 0v85h500v-85h-500z" />
    <glyph glyph-name="acute" unicode="&#xb4;" horiz-adv-x="277" 
d="M68 560l27 190h107l-70 -200z" />
    <glyph glyph-name="paragraph" unicode="&#xb6;" horiz-adv-x="727" 
d="M668 700l19 -86h-87v-698l-106 -18v716h-117v-747l-106 -16v437h-12q-86 0 -133.5 54.5t-47.5 151.5t47.5 151.5t133.5 54.5h409z" />
    <glyph glyph-name="periodcentered" unicode="&#xb7;" horiz-adv-x="279" 
d="M78 250q0 62 61 62q62 0 62 -62q0 -27 -15 -44t-47 -17q-61 0 -61 61z" />
    <glyph glyph-name="cedilla" unicode="&#xb8;" horiz-adv-x="172" 
d="M45 27h58l-13 -50q83 -5 83 -75q0 -42 -27 -67t-71 -25q-52 0 -92 22l28 54q29 -15 61 -15t32 25q0 22 -42 22l-49 -3z" />
    <glyph glyph-name="guillemotright" unicode="&#xbb;" horiz-adv-x="555" 
d="M381 255l-134 214h89l147 -215l-143 -202h-92zM212 255l-134 214h89l147 -215l-143 -202h-92z" />
    <glyph glyph-name="Agrave" unicode="&#xc0;" horiz-adv-x="652" 
d="M515 0l-60 190h-258l-60 -190h-112l236 700h132l234 -700h-112zM328 604l-113 -342h223zM356 949l27 -187l-70 -12l-64 199h107z" />
    <glyph glyph-name="Aacute" unicode="&#xc1;" horiz-adv-x="652" 
d="M515 0l-60 190h-258l-60 -190h-112l236 700h132l234 -700h-112zM328 604l-113 -342h223zM259 760l27 190h107l-70 -200z" />
    <glyph glyph-name="Acircumflex" unicode="&#xc2;" horiz-adv-x="652" 
d="M515 0l-60 190h-258l-60 -190h-112l236 700h132l234 -700h-112zM328 604l-113 -342h223zM278 935h92l91 -152h-86l-50 110l-49 -110h-85z" />
    <glyph glyph-name="Atilde" unicode="&#xc3;" horiz-adv-x="652" 
d="M515 0l-60 190h-258l-60 -190h-112l236 700h132l234 -700h-112zM328 604l-113 -342h223zM177 819l-19 53q61 47 109 47q29 0 65.5 -21t58.5 -21q11 0 21 2.5t20 7.5t15.5 8.5t15 11.5t11.5 9l26 -49q-14 -19 -45.5 -38t-63.5 -19q-28 0 -65 20.5t-59 20.5q-11 0 -21 -2
t-17 -3.5t-16.5 -6t-13 -6.5t-12.5 -7.5t-10 -6.5z" />
    <glyph glyph-name="Adieresis" unicode="&#xc4;" horiz-adv-x="652" 
d="M515 0l-60 190h-258l-60 -190h-112l236 700h132l234 -700h-112zM328 604l-113 -342h223zM187 909h103v-132h-103v132zM361 909h103v-132h-103v132z" />
    <glyph glyph-name="AE" unicode="&#xc6;" horiz-adv-x="971" 
d="M600 333v-252h327v-81h-433v190h-229l-128 -190h-112l469 700h433v-81h-327v-207h281v-79h-281zM494 534l-176 -261h176v261z" />
    <glyph glyph-name="Ccedilla" unicode="&#xc7;" horiz-adv-x="559" 
d="M497 103l18 -75q-112 -38 -186 -38l-5 -20q83 -5 83 -75q0 -42 -27 -67t-71 -25q-52 0 -92 22l28 54q29 -15 61 -15t32 25q0 22 -42 22l-49 -3l24 86q-112 14 -169.5 84t-57.5 194v156q0 138 72.5 210t212.5 72q91 0 186 -38l-21 -75q-92 35 -165 35q-177 0 -177 -205
v-155q0 -92 42.5 -148t134.5 -56q59 0 168 35z" />
    <glyph glyph-name="Egrave" unicode="&#xc8;" horiz-adv-x="555" 
d="M184 337v-257h327v-80h-433v700h433v-80h-327v-208h281v-75h-281zM317 949l28 -187l-71 -12l-64 199h107z" />
    <glyph glyph-name="Eacute" unicode="&#xc9;" horiz-adv-x="555" 
d="M184 337v-257h327v-80h-433v700h433v-80h-327v-208h281v-75h-281zM240 760l28 190h107l-70 -200z" />
    <glyph glyph-name="Ecircumflex" unicode="&#xca;" horiz-adv-x="555" 
d="M184 337v-257h327v-80h-433v700h433v-80h-327v-208h281v-75h-281zM230 935h92l90 -152h-86l-49 110l-49 -110h-86z" />
    <glyph glyph-name="Edieresis" unicode="&#xcb;" horiz-adv-x="555" 
d="M184 337v-257h327v-80h-433v700h433v-80h-327v-208h281v-75h-281zM139 909h103v-132h-103v132zM312 909h104v-132h-104v132z" />
    <glyph glyph-name="Igrave" unicode="&#xcc;" horiz-adv-x="368" 
d="M20 619v81h325v-81h-110v-538h113v-81h-325v81h106v538h-109zM224 949l27 -187l-70 -12l-64 199h107z" />
    <glyph glyph-name="Iacute" unicode="&#xcd;" horiz-adv-x="368" 
d="M20 619v81h325v-81h-110v-538h113v-81h-325v81h106v538h-109zM117 760l27 190h107l-70 -200z" />
    <glyph glyph-name="Icircumflex" unicode="&#xce;" horiz-adv-x="368" 
d="M20 619v81h325v-81h-110v-538h113v-81h-325v81h106v538h-109zM136 935h93l90 -152h-86l-49 110l-49 -110h-86z" />
    <glyph glyph-name="Idieresis" unicode="&#xcf;" horiz-adv-x="368" 
d="M20 619v81h325v-81h-110v-538h113v-81h-325v81h106v538h-109zM46 909h103v-132h-103v132zM219 909h104v-132h-104v132z" />
    <glyph glyph-name="Ograve" unicode="&#xd2;" horiz-adv-x="708" 
d="M44 266v165q0 125 82 202t228 77t228 -77t82 -202v-165q0 -124 -81.5 -200t-228.5 -76t-228.5 76t-81.5 200zM155 424v-149q0 -93 53 -148.5t146 -55.5q97 0 148 55t51 149v149q0 89 -51.5 147t-147.5 58q-90 0 -144.5 -57t-54.5 -148zM394 949l27 -187l-70 -12l-64 199
h107z" />
    <glyph glyph-name="Oacute" unicode="&#xd3;" horiz-adv-x="708" 
d="M44 266v165q0 125 82 202t228 77t228 -77t82 -202v-165q0 -124 -81.5 -200t-228.5 -76t-228.5 76t-81.5 200zM155 424v-149q0 -93 53 -148.5t146 -55.5q97 0 148 55t51 149v149q0 89 -51.5 147t-147.5 58q-90 0 -144.5 -57t-54.5 -148zM287 760l27 190h107l-70 -200z" />
    <glyph glyph-name="Ocircumflex" unicode="&#xd4;" horiz-adv-x="708" 
d="M44 266v165q0 125 82 202t228 77t228 -77t82 -202v-165q0 -124 -81.5 -200t-228.5 -76t-228.5 76t-81.5 200zM155 424v-149q0 -93 53 -148.5t146 -55.5q97 0 148 55t51 149v149q0 89 -51.5 147t-147.5 58q-90 0 -144.5 -57t-54.5 -148zM306 935h93l90 -152h-86l-50 110
l-49 -110h-85z" />
    <glyph glyph-name="Otilde" unicode="&#xd5;" horiz-adv-x="708" 
d="M44 266v165q0 125 82 202t228 77t228 -77t82 -202v-165q0 -124 -81.5 -200t-228.5 -76t-228.5 76t-81.5 200zM155 424v-149q0 -93 53 -148.5t146 -55.5q97 0 148 55t51 149v149q0 89 -51.5 147t-147.5 58q-90 0 -144.5 -57t-54.5 -148zM205 819l-19 53q61 47 109 47
q29 0 65.5 -21t58.5 -21q11 0 21 2.5t20 7.5t15.5 8.5t15 11.5t11.5 9l26 -49q-14 -19 -45.5 -38t-63.5 -19q-28 0 -65 20.5t-59 20.5q-11 0 -21 -2t-17 -3.5t-16.5 -6t-13 -6.5t-12.5 -7.5t-10 -6.5z" />
    <glyph glyph-name="Odieresis" unicode="&#xd6;" horiz-adv-x="708" 
d="M44 266v165q0 125 82 202t228 77t228 -77t82 -202v-165q0 -124 -81.5 -200t-228.5 -76t-228.5 76t-81.5 200zM155 424v-149q0 -93 53 -148.5t146 -55.5q97 0 148 55t51 149v149q0 89 -51.5 147t-147.5 58q-90 0 -144.5 -57t-54.5 -148zM215 909h103v-132h-103v132z
M389 909h103v-132h-103v132z" />
    <glyph glyph-name="Ugrave" unicode="&#xd9;" horiz-adv-x="653" 
d="M491 700h98v-450q0 -260 -253 -260q-272 0 -272 260v450h109v-460q0 -169 166 -169q79 0 115.5 40.5t36.5 128.5v460zM366 949l28 -187l-71 -12l-64 199h107z" />
    <glyph glyph-name="Uacute" unicode="&#xda;" horiz-adv-x="653" 
d="M491 700h98v-450q0 -260 -253 -260q-272 0 -272 260v450h109v-460q0 -169 166 -169q79 0 115.5 40.5t36.5 128.5v460zM259 760l28 190h107l-70 -200z" />
    <glyph glyph-name="Ucircumflex" unicode="&#xdb;" horiz-adv-x="653" 
d="M491 700h98v-450q0 -260 -253 -260q-272 0 -272 260v450h109v-460q0 -169 166 -169q79 0 115.5 40.5t36.5 128.5v460zM279 935h92l90 -152h-86l-49 110l-49 -110h-86z" />
    <glyph glyph-name="Udieresis" unicode="&#xdc;" horiz-adv-x="653" 
d="M491 700h98v-450q0 -260 -253 -260q-272 0 -272 260v450h109v-460q0 -169 166 -169q79 0 115.5 40.5t36.5 128.5v460zM198 909h103v-132h-103v132zM371 909h104v-132h-104v132z" />
    <glyph glyph-name="agrave" unicode="&#xe0;" 
d="M82 416l-13 63q124 31 199 31q113 0 156.5 -45t43.5 -136v-329h-100v37q-67 -48 -156 -48q-172 0 -172 153q0 135 186 135h142v70q0 51 -24.5 74.5t-79.5 23.5q-53 0 -182 -29zM251 48q41 0 117 35v143h-121q-51 0 -77.5 -26t-26.5 -57q0 -95 108 -95zM304 749l27 -187
l-70 -12l-64 199h107z" />
    <glyph glyph-name="aacute" unicode="&#xe1;" 
d="M82 416l-13 63q124 31 199 31q113 0 156.5 -45t43.5 -136v-329h-100v37q-67 -48 -156 -48q-172 0 -172 153q0 135 186 135h142v70q0 51 -24.5 74.5t-79.5 23.5q-53 0 -182 -29zM251 48q41 0 117 35v143h-121q-51 0 -77.5 -26t-26.5 -57q0 -95 108 -95zM217 560l27 190
h107l-70 -200z" />
    <glyph glyph-name="acircumflex" unicode="&#xe2;" 
d="M82 416l-13 63q124 31 199 31q113 0 156.5 -45t43.5 -136v-329h-100v37q-67 -48 -156 -48q-172 0 -172 153q0 135 186 135h142v70q0 51 -24.5 74.5t-79.5 23.5q-53 0 -182 -29zM251 48q41 0 117 35v143h-121q-51 0 -77.5 -26t-26.5 -57q0 -95 108 -95zM216 735h93
l90 -152h-86l-49 110l-49 -110h-86z" />
    <glyph glyph-name="atilde" unicode="&#xe3;" 
d="M82 416l-13 63q124 31 199 31q113 0 156.5 -45t43.5 -136v-329h-100v37q-67 -48 -156 -48q-172 0 -172 153q0 135 186 135h142v70q0 51 -24.5 74.5t-79.5 23.5q-53 0 -182 -29zM251 48q41 0 117 35v143h-121q-51 0 -77.5 -26t-26.5 -57q0 -95 108 -95zM116 619l-19 53
q58 47 108 47q29 0 65.5 -21t58.5 -21q14 0 28 5t20 8.5t20.5 14.5t15.5 11l26 -49q-16 -19 -47 -38t-63 -19q-28 0 -65 20.5t-59 20.5q-11 0 -21 -1.5t-17 -3.5t-15.5 -6.5t-13 -7t-12.5 -7.5t-10 -6z" />
    <glyph glyph-name="adieresis" unicode="&#xe4;" 
d="M82 416l-13 63q124 31 199 31q113 0 156.5 -45t43.5 -136v-329h-100v37q-67 -48 -156 -48q-172 0 -172 153q0 135 186 135h142v70q0 51 -24.5 74.5t-79.5 23.5q-53 0 -182 -29zM251 48q41 0 117 35v143h-121q-51 0 -77.5 -26t-26.5 -57q0 -95 108 -95zM125 709h103v-132
h-103v132zM299 709h103v-132h-103v132z" />
    <glyph glyph-name="ae" unicode="&#xe6;" horiz-adv-x="853" 
d="M793 98l11 -74q-109 -34 -199 -34q-128 0 -186 54q-107 -55 -203 -55q-85 0 -130.5 39t-45.5 114q0 70 49.5 104t136.5 34h142v65q0 51 -24.5 74.5t-79.5 23.5q-93 0 -182 -29l-13 65q90 31 199 31q113 0 160 -57q34 31 71 44t92 13q104 0 164 -49t60 -151v-86h-348v-43
q0 -68 36 -92.5t111 -24.5q71 0 179 34zM467 306v-23h253v37q0 64 -32 92.5t-97 28.5t-94.5 -31.5t-29.5 -103.5zM251 58q58 0 132 38q-15 37 -15 90v30h-120q-52 0 -78.5 -22t-26.5 -51q0 -45 25.5 -65t82.5 -20z" />
    <glyph glyph-name="ccedilla" unicode="&#xe7;" horiz-adv-x="463" 
d="M431 98l15 -72q-67 -33 -157 -36l-6 -23q83 -5 83 -75q0 -42 -27 -67t-71 -25q-52 0 -92 22l28 54q29 -15 61 -15t32 25q0 22 -42 22l-49 -3l25 88q-90 12 -140.5 67.5t-50.5 150.5v77q0 103 65 162.5t175 59.5q86 0 166 -36l-16 -73q-82 35 -134 35q-150 0 -150 -154
v-65q0 -154 150 -154q47 0 135 35z" />
    <glyph glyph-name="egrave" unicode="&#xe8;" 
d="M469 88l11 -64q-109 -34 -199 -34q-241 0 -241 196v96q0 228 227 228q104 0 164 -49t60 -151v-86h-348v-43q0 -69 37 -98t110 -29q71 0 179 34zM143 306v-33h253v47q0 131 -129 131q-124 0 -124 -145zM304 749l27 -187l-70 -12l-64 199h107z" />
    <glyph glyph-name="eacute" unicode="&#xe9;" 
d="M469 88l11 -64q-109 -34 -199 -34q-241 0 -241 196v96q0 228 227 228q104 0 164 -49t60 -151v-86h-348v-43q0 -69 37 -98t110 -29q71 0 179 34zM143 306v-33h253v47q0 131 -129 131q-124 0 -124 -145zM197 560l27 190h107l-70 -200z" />
    <glyph glyph-name="ecircumflex" unicode="&#xea;" 
d="M469 88l11 -64q-109 -34 -199 -34q-241 0 -241 196v96q0 228 227 228q104 0 164 -49t60 -151v-86h-348v-43q0 -69 37 -98t110 -29q71 0 179 34zM143 306v-33h253v47q0 131 -129 131q-124 0 -124 -145zM217 735h92l90 -152h-86l-49 110l-49 -110h-85z" />
    <glyph glyph-name="edieresis" unicode="&#xeb;" 
d="M469 88l11 -64q-109 -34 -199 -34q-241 0 -241 196v96q0 228 227 228q104 0 164 -49t60 -151v-86h-348v-43q0 -69 37 -98t110 -29q71 0 179 34zM143 306v-33h253v47q0 131 -129 131q-124 0 -124 -145zM125 709h103v-132h-103v132zM299 709h103v-132h-103v132z" />
    <glyph glyph-name="igrave" unicode="&#xec;" horiz-adv-x="222" 
d="M61 500h100v-500h-100v500zM151 749l27 -187l-70 -12l-64 199h107z" />
    <glyph glyph-name="iacute" unicode="&#xed;" horiz-adv-x="222" 
d="M61 500h100v-500h-100v500zM44 560l27 190h107l-70 -200z" />
    <glyph glyph-name="icircumflex" unicode="&#xee;" horiz-adv-x="222" 
d="M61 500h100v-500h-100v500zM63 735h93l90 -152h-86l-49 110l-49 -110h-86z" />
    <glyph glyph-name="idieresis" unicode="&#xef;" horiz-adv-x="222" 
d="M61 500h100v-500h-100v500zM-27 709h103v-132h-103v132zM146 709h104v-132h-104v132z" />
    <glyph glyph-name="ograve" unicode="&#xf2;" horiz-adv-x="558" 
d="M37 197v105q0 97 63 152.5t178 55.5q114 0 178.5 -55.5t64.5 -152.5v-105q0 -97 -64.5 -152t-178.5 -55q-115 0 -178 55t-63 152zM137 308v-109q0 -66 36.5 -106.5t104.5 -40.5t104.5 41t36.5 106v102q0 65 -36.5 105.5t-104.5 40.5q-66 0 -103.5 -38.5t-37.5 -100.5z
M319 749l27 -187l-70 -12l-64 199h107z" />
    <glyph glyph-name="oacute" unicode="&#xf3;" horiz-adv-x="558" 
d="M37 197v105q0 97 63 152.5t178 55.5q114 0 178.5 -55.5t64.5 -152.5v-105q0 -97 -64.5 -152t-178.5 -55q-115 0 -178 55t-63 152zM137 308v-109q0 -66 36.5 -106.5t104.5 -40.5t104.5 41t36.5 106v102q0 65 -36.5 105.5t-104.5 40.5q-66 0 -103.5 -38.5t-37.5 -100.5z
M212 560l27 190h107l-70 -200z" />
    <glyph glyph-name="ocircumflex" unicode="&#xf4;" horiz-adv-x="558" 
d="M37 197v105q0 97 63 152.5t178 55.5q114 0 178.5 -55.5t64.5 -152.5v-105q0 -97 -64.5 -152t-178.5 -55q-115 0 -178 55t-63 152zM137 308v-109q0 -66 36.5 -106.5t104.5 -40.5t104.5 41t36.5 106v102q0 65 -36.5 105.5t-104.5 40.5q-66 0 -103.5 -38.5t-37.5 -100.5z
M231 735h93l90 -152h-86l-50 110l-49 -110h-85z" />
    <glyph glyph-name="otilde" unicode="&#xf5;" horiz-adv-x="558" 
d="M37 197v105q0 97 63 152.5t178 55.5q114 0 178.5 -55.5t64.5 -152.5v-105q0 -97 -64.5 -152t-178.5 -55q-115 0 -178 55t-63 152zM137 308v-109q0 -66 36.5 -106.5t104.5 -40.5t104.5 41t36.5 106v102q0 65 -36.5 105.5t-104.5 40.5q-66 0 -103.5 -38.5t-37.5 -100.5z
M130 619l-19 53q61 47 109 47q29 0 65.5 -21t58.5 -21q11 0 21 2.5t20 7.5t15.5 8.5t15 11.5t11.5 9l26 -49q-14 -19 -45.5 -38t-63.5 -19q-28 0 -65 20.5t-59 20.5q-11 0 -21 -2t-17 -3.5t-16.5 -6t-13 -6.5t-12.5 -7.5t-10 -6.5z" />
    <glyph glyph-name="odieresis" unicode="&#xf6;" horiz-adv-x="558" 
d="M37 197v105q0 97 63 152.5t178 55.5q114 0 178.5 -55.5t64.5 -152.5v-105q0 -97 -64.5 -152t-178.5 -55q-115 0 -178 55t-63 152zM137 308v-109q0 -66 36.5 -106.5t104.5 -40.5t104.5 41t36.5 106v102q0 65 -36.5 105.5t-104.5 40.5q-66 0 -103.5 -38.5t-37.5 -100.5z
M140 709h103v-132h-103v132zM314 709h103v-132h-103v132z" />
    <glyph glyph-name="ugrave" unicode="&#xf9;" horiz-adv-x="576" 
d="M61 500h100v-324q0 -114 99 -114q45 0 88 17t67 38v383h100v-500h-100v52q-37 -24 -93.5 -43t-111.5 -19q-75 0 -112 43t-37 117v350zM328 749l27 -187l-70 -12l-64 199h107z" />
    <glyph glyph-name="uacute" unicode="&#xfa;" horiz-adv-x="576" 
d="M61 500h100v-324q0 -114 99 -114q45 0 88 17t67 38v383h100v-500h-100v52q-37 -24 -93.5 -43t-111.5 -19q-75 0 -112 43t-37 117v350zM221 560l27 190h107l-70 -200z" />
    <glyph glyph-name="ucircumflex" unicode="&#xfb;" horiz-adv-x="576" 
d="M61 500h100v-324q0 -114 99 -114q45 0 88 17t67 38v383h100v-500h-100v52q-37 -24 -93.5 -43t-111.5 -19q-75 0 -112 43t-37 117v350zM240 735h92l91 -152h-86l-50 110l-49 -110h-85z" />
    <glyph glyph-name="udieresis" unicode="&#xfc;" horiz-adv-x="576" 
d="M61 500h100v-324q0 -114 99 -114q45 0 88 17t67 38v383h100v-500h-100v52q-37 -24 -93.5 -43t-111.5 -19q-75 0 -112 43t-37 117v350zM149 709h103v-132h-103v132zM323 709h103v-132h-103v132z" />
    <glyph glyph-name="Amacron" unicode="&#x100;" horiz-adv-x="652" 
d="M515 0l-60 190h-258l-60 -190h-112l236 700h132l234 -700h-112zM328 604l-110 -331h216zM171 777v82h310v-82h-310z" />
    <glyph glyph-name="amacron" unicode="&#x101;" 
d="M82 414l-13 65q90 31 199 31q113 0 156.5 -45t43.5 -136v-329h-100v37q-67 -48 -156 -48q-172 0 -172 153q0 70 49.5 104t136.5 34h142v65q0 51 -24.5 74.5t-79.5 23.5q-93 0 -182 -29zM251 58q41 0 117 35v123h-120q-52 0 -78.5 -22t-26.5 -51q0 -45 25.5 -65t82.5 -20z
M109 590v82h310v-82h-310z" />
    <glyph glyph-name="Ccaron" unicode="&#x10c;" horiz-adv-x="559" 
d="M497 103l18 -75q-112 -38 -186 -38q-140 0 -212.5 71.5t-72.5 210.5v156q0 138 72.5 210t212.5 72q91 0 186 -38l-21 -75q-92 35 -165 35q-177 0 -177 -205v-155q0 -92 42.5 -148t134.5 -56q59 0 168 35zM363 776h-92l-87 152h85l49 -110l50 110h86z" />
    <glyph glyph-name="ccaron" unicode="&#x10d;" horiz-adv-x="463" 
d="M431 98l15 -72q-70 -36 -166 -36q-111 0 -175.5 56.5t-64.5 164.5v77q0 103 65 162.5t175 59.5q86 0 166 -36l-16 -73q-82 35 -134 35q-150 0 -150 -154v-65q0 -154 150 -154q47 0 135 35zM316 576h-92l-87 152h85l49 -110l50 110h86z" />
    <glyph glyph-name="Emacron" unicode="&#x112;" horiz-adv-x="555" 
d="M184 333v-252h327v-81h-433v700h433v-81h-327v-207h281v-79h-281zM143 777v82h310v-82h-310z" />
    <glyph glyph-name="emacron" unicode="&#x113;" 
d="M469 98l11 -74q-109 -34 -199 -34q-241 0 -241 196v96q0 228 227 228q104 0 164 -49t60 -151v-86h-348v-43q0 -68 36 -92.5t111 -24.5q71 0 179 34zM143 306v-23h253v37q0 64 -32 92.5t-97 28.5t-94.5 -31.5t-29.5 -103.5zM113 590v82h310v-82h-310z" />
    <glyph glyph-name="Gcommaaccent" unicode="&#x122;" horiz-adv-x="612" 
d="M568 30q-108 -40 -232 -40q-292 0 -292 278v162q0 280 292 280q118 0 217 -31l-21 -79q-81 27 -186 27q-102 0 -148 -51.5t-46 -153.5v-159q0 -199 184 -199q60 0 126 18v209l-135 6v79h241v-346zM278 -37h103v-69q0 -91 -66 -175l-33 15q34 57 34 115h-38v114z" />
    <glyph glyph-name="gcommaaccent" unicode="&#x123;" horiz-adv-x="564" 
d="M294 510q91 0 142 -32q5 23 5 72h101q-2 -83 -58 -104q36 -34 36 -95q0 -86 -60 -118.5t-166 -32.5q-58 0 -86 6q-12 -19 -12 -47q0 -24 15 -45q24 5 83 5q119 0 184.5 -34.5t65.5 -124.5q0 -47 -18.5 -79.5t-53.5 -49.5t-77.5 -24t-100.5 -7q-57 0 -99.5 7t-77.5 24
t-53.5 49.5t-18.5 79.5q0 95 91 136q-29 27 -29 62q0 41 30 67q-68 40 -68 126q0 159 225 159zM445 -40q0 51 -31 73t-120 22q-150 0 -150 -95q0 -46 32.5 -71.5t117.5 -25.5q86 0 118.5 25.5t32.5 71.5zM420 351q0 97 -126 97q-71 0 -98.5 -25t-27.5 -72q0 -50 26 -70
t100 -20q70 0 98 20.5t28 69.5zM338 571h-103v69q0 91 66 175l33 -15q-34 -57 -34 -115h38v-114z" />
    <glyph glyph-name="uni012A" unicode="&#x12a;" horiz-adv-x="388" 
d="M30 629v71h325v-71h-110v-558h113v-71h-325v71h106v558h-109zM40 777v82h310v-82h-310z" />
    <glyph glyph-name="imacron" unicode="&#x12b;" horiz-adv-x="222" 
d="M61 500h100v-500h-100v500zM-44 590v82h310v-82h-310z" />
    <glyph glyph-name="dotlessi" unicode="&#x131;" horiz-adv-x="222" 
d="M61 500h100v-500h-100v500z" />
    <glyph glyph-name="Kcommaaccent" unicode="&#x136;" horiz-adv-x="631" 
d="M184 700v-307h13l291 307h129l-317 -321l320 -379h-124l-298 354h-14v-354h-106v700h106zM272 -37h103v-69q0 -91 -66 -175l-33 15q34 57 34 115h-38v114z" />
    <glyph glyph-name="kcommaaccent" unicode="&#x137;" horiz-adv-x="514" 
d="M161 700v-414h14l207 214h124l-245 -239l245 -261h-118l-213 238h-14v-238h-100v700h100zM205 -37h103v-69q0 -91 -66 -175l-33 15q34 57 34 115h-38v114z" />
    <glyph glyph-name="Lcommaaccent" unicode="&#x13b;" horiz-adv-x="572" 
d="M78 0v700h106v-619h347v-81h-453zM271 -37h103v-69q0 -91 -66 -175l-33 15q34 57 34 115h-38v114z" />
    <glyph glyph-name="lcommaaccent" unicode="&#x13c;" horiz-adv-x="222" 
d="M161 0h-100v750h100v-750zM59 -37h103v-69q0 -91 -66 -175l-33 15q34 57 34 115h-38v114z" />
    <glyph glyph-name="Ncommaaccent" unicode="&#x145;" horiz-adv-x="760" 
d="M581 700h101v-700h-110l-394 553v-553h-100v700h112l391 -550v550zM328 -37h103v-69q0 -91 -66 -175l-33 15q34 57 34 115h-38v114z" />
    <glyph glyph-name="ncommaaccent" unicode="&#x146;" horiz-adv-x="576" 
d="M515 0h-100v324q0 63 -24.5 88.5t-87.5 25.5q-38 0 -78 -17.5t-64 -38.5v-382h-100v500h100v-52q101 62 191 62q89 0 126 -43.5t37 -135.5v-331zM234 -37h103v-69q0 -91 -66 -175l-33 15q34 57 34 115h-38v114z" />
    <glyph glyph-name="OE" unicode="&#x152;" horiz-adv-x="990" 
d="M619 333v-252h327v-81h-433q-124 -10 -159 -10q-147 0 -228.5 76t-81.5 200v165q0 125 82 202t228 77q53 0 159 -10h433v-81h-327v-207h281v-79h-281zM153 440v-181q0 -91 54 -140t153 -49q86 0 153 14v534q-87 12 -159 12q-92 0 -146.5 -50.5t-54.5 -139.5z" />
    <glyph glyph-name="oe" unicode="&#x153;" horiz-adv-x="907" 
d="M847 98l11 -74q-109 -34 -199 -34q-68 0 -115 14.5t-80 55.5q-41 -40 -84 -55t-102 -15q-115 0 -178 55t-63 152v105q0 97 63 152.5t178 55.5q123 0 189 -73q40 42 78 57.5t100 15.5q104 0 164 -49t60 -151v-86h-348v-43q0 -68 36 -92.5t111 -24.5q71 0 179 34zM137 318
v-129q0 -64 36 -98t105 -34t105 33.5t36 95.5v132q0 124 -141 124q-67 0 -104 -32t-37 -92zM521 306v-23h253v37q0 64 -32 92.5t-97 28.5t-94.5 -31.5t-29.5 -103.5z" />
    <glyph glyph-name="Scaron" unicode="&#x160;" horiz-adv-x="610" 
d="M309 710q116 0 239 -40l-16 -82q-122 43 -223 43q-81 0 -117 -28.5t-36 -71.5q0 -66 87 -101q34 -14 81.5 -29t78 -24t64.5 -25.5t53.5 -36t32.5 -53t13 -78.5q0 -97 -73 -145.5t-188 -48.5q-165 0 -259 45l15 80q112 -46 244 -46q51 0 85 13t47 34t17 34.5t4 27.5
q0 46 -20.5 68t-76.5 40q-23 7 -62.5 18.5t-64 19.5t-57.5 20.5t-53 27.5t-39.5 36t-28.5 50.5t-9 65.5q0 93 73 139.5t189 46.5zM349 776h-92l-87 152h85l49 -110l50 110h86z" />
    <glyph glyph-name="scaron" unicode="&#x161;" horiz-adv-x="504" 
d="M259 510q85 0 189 -31l-14 -69q-101 31 -176 31q-63 0 -90 -21.5t-27 -51.5q0 -46 48 -61q22 -7 59 -15.5t63.5 -14t57.5 -17.5t50.5 -27.5t33 -42.5t13.5 -63q0 -42 -15 -70t-45 -42t-64.5 -19.5t-83.5 -5.5q-105 0 -219 32l9 70q132 -33 202 -33q116 0 116 60
q0 47 -53 67q-25 9 -68.5 19t-74.5 19t-63 25t-49 45.5t-17 73.5q0 142 218 142zM296 576h-92l-87 152h85l49 -110l50 110h86z" />
    <glyph glyph-name="Umacron" unicode="&#x16a;" horiz-adv-x="653" 
d="M491 700h98v-450q0 -260 -253 -260q-272 0 -272 260v450h106v-462q0 -169 169 -169q79 0 115.5 40.5t36.5 128.5v462zM180 777v82h310v-82h-310z" />
    <glyph glyph-name="umacron" unicode="&#x16b;" horiz-adv-x="576" 
d="M61 500h100v-324q0 -114 99 -114q45 0 88 17t67 38v383h100v-500h-100v52q-37 -24 -93.5 -43t-111.5 -19q-75 0 -112 43t-37 117v350zM143 590v82h310v-82h-310z" />
    <glyph glyph-name="Zcaron" unicode="&#x17d;" horiz-adv-x="606" 
d="M48 615v85h511v-75l-390 -540h396v-85h-524v75l393 540h-386zM354 776h-92l-87 152h85l49 -110l50 110h86z" />
    <glyph glyph-name="zcaron" unicode="&#x17e;" horiz-adv-x="499" 
d="M53 426v74h402v-52l-287 -374h290v-74h-421v52l290 374h-274zM299 576h-92l-87 152h85l49 -110l50 110h86z" />
    <glyph glyph-name="circumflex" unicode="&#x2c6;" horiz-adv-x="435" 
d="M171 735h92l91 -152h-86l-50 110l-49 -110h-85z" />
    <glyph glyph-name="caron" unicode="&#x2c7;" horiz-adv-x="270" 
d="M179 576h-92l-87 152h85l49 -110l50 110h86z" />
    <glyph glyph-name="tilde" unicode="&#x2dc;" horiz-adv-x="480" 
d="M93 619l-19 53q58 47 108 47q29 0 65.5 -21t58.5 -21q14 0 28 5t20 8.5t20.5 14.5t15.5 11l26 -49q-16 -19 -47 -38t-63 -19q-28 0 -64.5 20.5t-59.5 20.5q-10 0 -20.5 -2t-17 -3.5t-16 -6t-13 -6.5t-12.5 -7.5t-10 -6.5z" />
    <glyph glyph-name="afii10023" unicode="&#x401;" horiz-adv-x="561" 
d="M163 909h103v-132h-103v132zM336 909h104v-132h-104v132zM184 333v-252h327v-81h-433v700h433v-81h-327v-207h281v-79h-281z" />
    <glyph glyph-name="afii10017" unicode="&#x410;" horiz-adv-x="652" 
d="M515 0l-60 190h-258l-60 -190h-112l236 700h132l234 -700h-112zM328 604l-110 -331h216z" />
    <glyph glyph-name="afii10018" unicode="&#x411;" horiz-adv-x="601" 
d="M184 609v-184h155q117 0 166 -53t49 -159q0 -100 -46.5 -156.5t-169.5 -56.5h-260v700h417v-91h-311zM314 341h-130v-256h130q69 0 102 26.5t33 101.5t-33 101.5t-102 26.5z" />
    <glyph glyph-name="afii10019" unicode="&#x412;" horiz-adv-x="592" 
d="M78 0v700h261q82 0 128.5 -40.5t46.5 -126.5q0 -118 -83 -148q117 -42 117 -182q0 -99 -48 -151t-168 -52h-254zM184 329v-252h124q67 0 101 29t34 100q0 67 -39 95t-96 28h-124zM315 623h-131v-217h131q38 0 66 27.5t28 90.5q0 47 -24 73t-70 26z" />
    <glyph glyph-name="afii10020" unicode="&#x413;" horiz-adv-x="503" 
d="M184 0h-106v700h405v-92h-299v-608z" />
    <glyph glyph-name="afii10021" unicode="&#x414;" horiz-adv-x="738" 
d="M174 700h440v-619h80l-12 -281h-94v200h-462l-9 -200h-97v281h58q27 38 46.5 101.5t29 122.5t14.5 144.5t5.5 131t0.5 119.5zM508 613h-236q-1 -88 -3 -134.5t-10 -134t-28 -153t-51 -110.5h328v532z" />
    <glyph glyph-name="afii10022" unicode="&#x415;" horiz-adv-x="555" 
d="M184 333v-252h327v-81h-433v700h433v-81h-327v-207h281v-79h-281z" />
    <glyph glyph-name="afii10024" unicode="&#x416;" horiz-adv-x="839" 
d="M259 378l-245 322h117l220 -307h16v307h106v-307h16l219 307h118l-246 -322l245 -378h-112l-225 362h-15v-362h-106v362h-16l-225 -362h-112z" />
    <glyph glyph-name="afii10025" unicode="&#x417;" horiz-adv-x="580" 
d="M44 28l15 82q5 -1 30.5 -9.5t46 -14.5t53 -11.5t61.5 -5.5q86 0 130.5 28t44.5 97q0 46 -18 76.5t-50.5 43t-60 16.5t-65.5 4h-92v73h117q59 0 95.5 28.5t36.5 84.5q0 110 -132 110q-82 0 -180 -35l-18 77q87 38 201 38q119 0 176.5 -38t57.5 -135q0 -122 -110 -152
q78 -21 114 -63.5t36 -133.5q0 -58 -19.5 -98t-59 -61.5t-88 -30t-116.5 -8.5q-60 0 -120.5 14t-85.5 24z" />
    <glyph glyph-name="afii10026" unicode="&#x418;" horiz-adv-x="735" 
d="M78 700h106v-549l380 549h93v-700h-106v549l-380 -549h-93v700z" />
    <glyph glyph-name="afii10027" unicode="&#x419;" horiz-adv-x="735" 
d="M162 886h81q0 -14 3.5 -24.5t15.5 -24t40.5 -21t71.5 -7.5t72 7.5t40.5 20.5t15.5 24t4 25h82v-22q0 -110 -214 -110q-37 0 -70 4.5t-67.5 15t-54.5 34t-20 56.5v22zM78 700h106v-549l380 549h93v-700h-106v549l-380 -549h-93v700z" />
    <glyph glyph-name="afii10028" unicode="&#x41a;" horiz-adv-x="631" 
d="M184 700v-307h13l291 307h129l-317 -321l320 -379h-124l-298 354h-14v-354h-106v700h106z" />
    <glyph glyph-name="afii10029" unicode="&#x41b;" horiz-adv-x="696" 
d="M177 700h441v-700h-106v610h-240q-1 -78 -4 -141.5t-10.5 -139t-21.5 -132t-34 -106t-51.5 -75.5t-71.5 -26q-23 0 -46 5l-16 89q7 -1 32 -1q68 0 98 154.5t30 462.5z" />
    <glyph glyph-name="afii10030" unicode="&#x41c;" horiz-adv-x="917" 
d="M199 563l-38 -563h-103l59 700h124l218 -604l216 604h125l59 -700h-103l-38 563l-205 -563h-110z" />
    <glyph glyph-name="afii10031" unicode="&#x41d;" horiz-adv-x="713" 
d="M529 700h106v-700h-106v337h-345v-337h-106v700h106v-282h345v282z" />
    <glyph glyph-name="afii10032" unicode="&#x41e;" horiz-adv-x="708" 
d="M44 266v165q0 125 82 202t228 77t228 -77t82 -202v-165q0 -124 -81.5 -200t-228.5 -76t-228.5 76t-81.5 200zM153 440v-181q0 -91 53 -140t148 -49q99 0 150 48.5t51 140.5v181q0 87 -52 138.5t-149 51.5q-92 0 -146.5 -50.5t-54.5 -139.5z" />
    <glyph glyph-name="afii10033" unicode="&#x41f;" horiz-adv-x="727" 
d="M184 0h-106v700h571v-700h-106v613h-359v-613z" />
    <glyph glyph-name="afii10034" unicode="&#x420;" horiz-adv-x="604" 
d="M78 700h227q136 0 195.5 -48.5t59.5 -174.5q0 -128 -60.5 -182t-194.5 -54h-121v-241h-106v700zM184 624v-307h121q68 0 107.5 34t39.5 126q0 80 -37 113.5t-110 33.5h-121z" />
    <glyph glyph-name="afii10035" unicode="&#x421;" horiz-adv-x="559" 
d="M497 103l18 -75q-112 -38 -186 -38q-140 0 -212.5 71.5t-72.5 210.5v156q0 138 72.5 210t212.5 72q91 0 186 -38l-21 -75q-92 35 -165 35q-177 0 -177 -205v-155q0 -92 42.5 -148t134.5 -56q59 0 168 35z" />
    <glyph glyph-name="afii10036" unicode="&#x422;" horiz-adv-x="558" 
d="M24 616v84h510v-84h-202v-616h-106v616h-202z" />
    <glyph glyph-name="afii10037" unicode="&#x423;" horiz-adv-x="611" 
d="M289 149q-18 3 -40 18t-33 42l-206 491h113l189 -480h13l167 480h109l-201 -541q-64 -169 -195 -169q-91 0 -167 27l21 78q65 -27 128 -27q35 0 59 19t43 62z" />
    <glyph glyph-name="afii10038" unicode="&#x424;" horiz-adv-x="850" 
d="M372 733h106v-81h59q269 0 269 -254v-57q0 -253 -269 -253h-59v-88h-106v88h-59q-269 0 -269 253v57q0 254 269 254h59v81zM537 577h-59v-414h59q83 0 122 41.5t39 129.5v71q0 87 -39 129.5t-122 42.5zM152 334q0 -88 39 -129.5t122 -41.5h59v413h-59q-83 0 -122 -41.5
t-39 -129.5v-71z" />
    <glyph glyph-name="afii10039" unicode="&#x425;" horiz-adv-x="632" 
d="M141 700l188 -286l166 286h127l-243 -350l243 -350h-131l-187 284l-167 -284h-127l242 350l-242 350h131z" />
    <glyph glyph-name="afii10040" unicode="&#x426;" horiz-adv-x="750" 
d="M78 700h106v-619h336v619h106v-619h82l-9 -259h-99v178h-522v700z" />
    <glyph glyph-name="afii10041" unicode="&#x427;" horiz-adv-x="622" 
d="M58 700h106v-260q0 -66 30 -89.5t95 -23.5q93 0 149 6v367h106v-700h-106v248q-74 -7 -154 -7q-226 0 -226 193v266z" />
    <glyph glyph-name="afii10042" unicode="&#x428;" horiz-adv-x="922" 
d="M408 700h106v-619h224v619h106v-700h-766v700h106v-619h224v619z" />
    <glyph glyph-name="afii10043" unicode="&#x429;" horiz-adv-x="968" 
d="M408 700h106v-619h224v619h106v-619h80l-9 -259h-97v178h-740v700h106v-619h224v619z" />
    <glyph glyph-name="afii10044" unicode="&#x42a;" horiz-adv-x="678" 
d="M152 0v623h-135l9 77h232v-275q75 11 139 11q124 0 180.5 -52.5t56.5 -166.5t-59.5 -165.5t-195.5 -51.5h-227zM379 362q-58 0 -121 -9v-281h121q74 0 110 31.5t36 113.5t-36.5 113.5t-109.5 31.5z" />
    <glyph glyph-name="afii10045" unicode="&#x42b;" horiz-adv-x="838" 
d="M654 0v700h106v-700h-106zM305 0q136 0 195.5 51.5t59.5 165.5q0 111 -55 165t-177 54q-73 0 -144 -11v275h-106v-700h227zM305 362q74 0 110.5 -31.5t36.5 -113.5t-36.5 -113.5t-110.5 -31.5h-121v281q63 9 121 9z" />
    <glyph glyph-name="afii10046" unicode="&#x42c;" horiz-adv-x="604" 
d="M305 0h-227v700h106v-275q82 12 130 12q131 0 188.5 -53t57.5 -167t-59.5 -165.5t-195.5 -51.5zM305 362q-58 0 -121 -9v-281h121q74 0 110.5 31.5t36.5 113.5t-36.5 113.5t-110.5 31.5z" />
    <glyph glyph-name="afii10047" unicode="&#x42d;" horiz-adv-x="559" 
d="M407 312v22h-268v69h268v14q0 104 -43 158t-126 54q-40 0 -95.5 -11t-95.5 -27l-20 81q31 14 88 26t115 12q135 0 210 -68t75 -214v-156q0 -137 -76 -209.5t-209 -72.5q-121 0 -203 38l20 81q94 -35 183 -35q53 0 89.5 19t55 55t25.5 74.5t7 89.5z" />
    <glyph glyph-name="afii10048" unicode="&#x42e;" horiz-adv-x="896" 
d="M301 237v93h-117v-330h-106v700h106v-298h117v57q0 114 72 182.5t203 68.5q133 0 204.5 -70.5t71.5 -195.5v-195q0 -124 -71 -191.5t-205 -67.5q-132 0 -203.5 65.5t-71.5 181.5zM406 460v-220q0 -76 45 -124t125 -48q81 0 126 48t45 124v220q0 76 -45 124t-126 48
q-78 0 -124 -48.5t-46 -123.5z" />
    <glyph glyph-name="afii10049" unicode="&#x42f;" horiz-adv-x="668" 
d="M320 700h270v-700h-106v264h-132l-164 -264h-120l180 272q-93 7 -139.5 63.5t-46.5 148.5q0 103 63 159.5t195 56.5zM320 339h164v277h-164q-74 0 -110.5 -31.5t-36.5 -107.5q0 -75 37 -106.5t110 -31.5z" />
    <glyph glyph-name="afii10065" unicode="&#x430;" 
d="M82 414l-13 65q90 31 199 31q113 0 156.5 -45t43.5 -136v-329h-100v37q-67 -48 -156 -48q-172 0 -172 153q0 70 49.5 104t136.5 34h142v65q0 51 -24.5 74.5t-79.5 23.5q-93 0 -182 -29zM251 58q41 0 117 35v123h-121q-52 0 -78 -21.5t-26 -51.5q0 -45 25.5 -65t82.5 -20z
" />
    <glyph glyph-name="afii10066" unicode="&#x431;" horiz-adv-x="579" 
d="M51 217v250q0 199 162 227l184 31q33 6 103 38l29 -85q-41 -25 -87 -32l-188 -30q-52 -8 -82 -49.5t-30 -95.5v-118q30 123 184 123q98 0 154.5 -48.5t56.5 -152.5v-75q0 -97 -61 -154t-182 -57q-122 0 -182.5 59.5t-60.5 168.5zM294 60q65 0 103 39t38 103v69
q0 63 -37.5 100t-103.5 37q-65 0 -103 -46t-38 -113v-47q0 -66 37 -104t104 -38z" />
    <glyph glyph-name="afii10067" unicode="&#x432;" 
d="M61 0v500h241q76 0 112 -27t36 -95q0 -72 -68 -102q109 -16 109 -127q0 -87 -48.5 -118t-155.5 -31h-226zM277 227h-122v-164h124q61 0 88.5 19t27.5 70q0 41 -27.5 58t-90.5 17zM155 288h120q79 0 79 78q0 73 -79 73h-120v-151z" />
    <glyph glyph-name="afii10068" unicode="&#x433;" horiz-adv-x="410" 
d="M161 0h-100v500h332v-79h-232v-421z" />
    <glyph glyph-name="afii10069" unicode="&#x434;" horiz-adv-x="621" 
d="M151 500h366v-431h60l-8 -229h-86v160h-369l-8 -160h-86v229h48q29 31 47.5 82.5t25.5 121.5t8.5 113.5t1.5 113.5zM417 437h-173q0 -75 -3.5 -126t-21 -120t-50.5 -122h248v368z" />
    <glyph glyph-name="afii10070" unicode="&#x435;" 
d="M469 98l11 -74q-109 -34 -199 -34q-241 0 -241 196v96q0 228 227 228q104 0 164 -49t60 -151v-86h-348v-43q0 -68 36 -92.5t111 -24.5q71 0 179 34zM143 306v-23h253v37q0 64 -32 92.5t-97 28.5t-94.5 -31.5t-29.5 -103.5z" />
    <glyph glyph-name="afii10072" unicode="&#x436;" horiz-adv-x="717" 
d="M11 500h106l183 -229h11v229h97v-229h10l181 229h108l-198 -240l197 -260h-107l-181 249h-10v-249h-97v249h-11l-185 -249h-105l202 260z" />
    <glyph glyph-name="afii10073" unicode="&#x437;" horiz-adv-x="506" 
d="M40 27l17 66q73 -39 144 -39q163 0 163 98q0 46 -35 64.5t-99 18.5h-114v64h107q105 0 105 76q0 34 -33 53t-94 19q-62 0 -139 -34l-16 62q79 35 169 35q109 0 162 -26t53 -94q0 -81 -79 -105q29 -8 45 -14.5t35.5 -21t28.5 -39t9 -59.5q0 -89 -67 -124.5t-187 -35.5
q-57 0 -106.5 12.5t-68.5 23.5z" />
    <glyph glyph-name="afii10074" unicode="&#x438;" horiz-adv-x="589" 
d="M61 500h100v-377l277 377h90v-500h-100v376l-277 -376h-90v500z" />
    <glyph glyph-name="afii10075" unicode="&#x439;" horiz-adv-x="589" 
d="M91 715h82v-4q0 -17 2.5 -26.5t12.5 -22.5t37 -19t70 -6q122 0 122 78h82v-20q0 -118 -204 -118t-204 118v20zM61 500h100v-377l277 377h90v-500h-100v376l-277 -376h-90v500z" />
    <glyph glyph-name="afii10076" unicode="&#x43a;" horiz-adv-x="517" 
d="M161 500v-220h4l217 220h127l-251 -239l251 -261h-121l-223 241h-4v-241h-100v500h100z" />
    <glyph glyph-name="afii10077" unicode="&#x43b;" horiz-adv-x="583" 
d="M159 500h363v-500h-100v434h-177q0 -59 -1.5 -100t-6.5 -98t-16.5 -95t-30 -74.5t-49 -55t-70.5 -18.5q-23 0 -44 7l-10 77q19 -3 33 -3q109 0 109 426z" />
    <glyph glyph-name="afii10078" unicode="&#x43c;" horiz-adv-x="777" 
d="M182 403l-32 -403h-92l46 500h113l172 -428l171 428h113l46 -500h-91l-33 403l-166 -403h-87z" />
    <glyph glyph-name="afii10079" unicode="&#x43d;" horiz-adv-x="582" 
d="M421 500h100v-500h-100v229h-260v-229h-100v500h100v-205h260v205z" />
    <glyph glyph-name="afii10080" unicode="&#x43e;" horiz-adv-x="558" 
d="M37 197v105q0 97 63 152.5t178 55.5q114 0 178.5 -55.5t64.5 -152.5v-105q0 -97 -64.5 -152t-178.5 -55q-115 0 -178 55t-63 152zM137 318v-129q0 -64 36 -98t105 -34t105 34t36 98v129q0 124 -141 124q-67 0 -104 -32t-37 -92z" />
    <glyph glyph-name="afii10081" unicode="&#x43f;" horiz-adv-x="575" 
d="M161 0h-100v500h453v-500h-100v431h-253v-431z" />
    <glyph glyph-name="afii10082" unicode="&#x440;" horiz-adv-x="566" 
d="M161 -200h-100v700h100v-37q78 49 155 49q209 0 209 -262q0 -130 -50.5 -193.5t-158.5 -63.5q-72 0 -155 44v-237zM276 438q-60 0 -115 -35v-306q67 -35 121 -35q141 2 141 188q0 188 -147 188z" />
    <glyph glyph-name="afii10083" unicode="&#x441;" horiz-adv-x="463" 
d="M431 98l15 -72q-70 -36 -166 -36q-111 0 -175.5 56.5t-64.5 164.5v77q0 103 65 162.5t175 59.5q86 0 166 -36l-16 -73q-82 35 -134 35q-150 0 -150 -154v-65q0 -154 150 -154q55 0 135 35z" />
    <glyph glyph-name="afii10084" unicode="&#x442;" horiz-adv-x="482" 
d="M20 421v79h442v-79h-170v-421h-100v421h-172z" />
    <glyph glyph-name="afii10085" unicode="&#x443;" horiz-adv-x="541" 
d="M9 500h111l175 -439l128 439h108l-169 -495q-27 -80 -68 -150q-49 -85 -142 -85q-65 0 -129 27l19 69q59 -22 98 -22q65 0 91 62l39 94q-21 2 -43.5 18.5t-30.5 41.5z" />
    <glyph glyph-name="afii10086" unicode="&#x444;" horiz-adv-x="797" 
d="M349 700h100v-212q47 22 96 22q215 0 215 -253q0 -126 -52.5 -196.5t-162.5 -70.5q-54 0 -96 22v-212h-100v212q-44 -22 -96 -22q-216 0 -216 267q0 253 216 253q39 0 96 -22v212zM283 56q30 0 66 17v353q-38 18 -66 18q-72 0 -107.5 -50t-35.5 -137q0 -201 143 -201z
M514 444q-34 0 -65 -18v-353q29 -17 65 -17q144 0 144 201q0 88 -37 137.5t-107 49.5z" />
    <glyph glyph-name="afii10087" unicode="&#x445;" horiz-adv-x="516" 
d="M125 500l149 -202l121 202h111l-187 -258l187 -242h-115l-147 202l-122 -202h-112l186 262l-186 238h115z" />
    <glyph glyph-name="afii10088" unicode="&#x446;" horiz-adv-x="598" 
d="M61 500h100v-431h240v431h100v-431h60l-10 -229h-90v160h-400v500z" />
    <glyph glyph-name="afii10089" unicode="&#x447;" horiz-adv-x="542" 
d="M51 500h100v-159q0 -61 23.5 -87t86.5 -26q45 0 120 13v259h100v-500h-100v173q-86 -14 -144 -14q-96 0 -141 46t-45 151v144z" />
    <glyph glyph-name="afii10090" unicode="&#x448;" horiz-adv-x="794" 
d="M350 500h94v-431h192v431h97v-500h-672v500h97v-431h192v431z" />
    <glyph glyph-name="afii10091" unicode="&#x449;" horiz-adv-x="830" 
d="M61 0v500h97v-431h192v431h94v-431h192v431h97v-431h60l-9 -229h-91v160h-632z" />
    <glyph glyph-name="afii10092" unicode="&#x44a;" horiz-adv-x="593" 
d="M17 435l6 65h221v-181h107q103 0 152 -32.5t49 -123.5q0 -94 -53 -128.5t-157 -34.5h-198v435h-127zM346 260h-102v-199h104q58 0 80 23.5t22 78.5q0 47 -23 72t-81 25z" />
    <glyph glyph-name="afii10093" unicode="&#x44b;" horiz-adv-x="716" 
d="M553 0v500h102v-500h-102zM61 0v500h100v-181h106q104 0 153 -32.5t49 -123.5q0 -94 -53 -128.5t-158 -34.5h-197zM263 260h-102v-199h104q57 0 79.5 23.5t22.5 78.5q0 47 -23 72t-81 25z" />
    <glyph glyph-name="afii10094" unicode="&#x44c;" horiz-adv-x="510" 
d="M61 0v500h100v-181h106q104 0 153 -32.5t49 -123.5q0 -94 -53 -128.5t-158 -34.5h-197zM263 260h-102v-199h104q57 0 79.5 23.5t22.5 78.5q0 47 -23 72t-81 25z" />
    <glyph glyph-name="afii10095" unicode="&#x44d;" horiz-adv-x="491" 
d="M348 205v17h-233v64h233v11q0 72 -39 110t-114 38q-59 0 -138 -36l-17 63q86 38 174 38q111 0 174 -57t63 -165v-77q0 -108 -63 -164.5t-174 -56.5q-89 0 -177 38l16 62q93 -35 142 -35q74 0 113.5 39t39.5 111z" />
    <glyph glyph-name="afii10096" unicode="&#x44e;" horiz-adv-x="793" 
d="M272 222h-117v-222h-94v500h94v-215h116v34q0 90 67 140.5t174 50.5q111 0 176 -55t65 -156v-99q0 -101 -65 -155.5t-176 -54.5q-105 0 -172.5 55t-67.5 153v24zM372 300v-106q0 -62 37.5 -100.5t102.5 -38.5q64 0 101.5 38.5t37.5 100.5v106q0 66 -36.5 105t-102.5 39
q-65 0 -102.5 -39.5t-37.5 -104.5z" />
    <glyph glyph-name="afii10097" unicode="&#x44f;" horiz-adv-x="565" 
d="M245 500h259v-500h-100v177h-105l-142 -177h-115l158 183q-73 2 -114.5 34.5t-41.5 115.5q0 167 201 167zM150 333q0 -51 26 -72t87 -21h141v194h-141q-60 0 -86.5 -24.5t-26.5 -76.5z" />
    <glyph glyph-name="afii10071" unicode="&#x451;" 
d="M125 709h103v-132h-103v132zM299 709h103v-132h-103v132zM469 98l11 -74q-109 -34 -199 -34q-241 0 -241 196v96q0 228 227 228q104 0 164 -49t60 -151v-86h-348v-43q0 -68 36 -92.5t111 -24.5q71 0 179 34zM143 306v-23h253v37q0 64 -32 92.5t-97 28.5t-94.5 -31.5
t-29.5 -103.5z" />
    <glyph glyph-name="endash" unicode="&#x2013;" horiz-adv-x="656" 
d="M78 303v88h500v-88h-500z" />
    <glyph glyph-name="emdash" unicode="&#x2014;" horiz-adv-x="926" 
d="M78 303v88h770v-88h-770z" />
    <glyph glyph-name="quoteleft" unicode="&#x2018;" horiz-adv-x="271" 
d="M191 462h-120v82q0 110 77 206l39 -18q-40 -67 -40 -136h44v-134z" />
    <glyph glyph-name="quoteright" unicode="&#x2019;" horiz-adv-x="271" 
d="M75 700h121v-82q0 -108 -78 -206l-39 18q40 67 40 136h-44v134z" />
    <glyph glyph-name="quotesinglbase" unicode="&#x201a;" horiz-adv-x="271" 
d="M75 134h121v-82q0 -108 -78 -206l-39 18q40 67 40 136h-44v134z" />
    <glyph glyph-name="quotedblleft" unicode="&#x201c;" horiz-adv-x="445" 
d="M364 462h-120v82q0 110 77 206l39 -18q-40 -67 -40 -136h44v-134zM191 462h-120v82q0 110 77 206l39 -18q-40 -67 -40 -136h44v-134z" />
    <glyph glyph-name="quotedblright" unicode="&#x201d;" horiz-adv-x="445" 
d="M75 700h121v-82q0 -108 -78 -206l-39 18q40 67 40 136h-44v134zM248 700h121v-82q0 -108 -78 -206l-39 18q40 67 40 136h-44v134z" />
    <glyph glyph-name="quotedblbase" unicode="&#x201e;" horiz-adv-x="445" 
d="M75 134h121v-82q0 -108 -78 -206l-39 18q40 67 40 136h-44v134zM248 134h121v-82q0 -108 -78 -206l-39 18q40 67 40 136h-44v134z" />
    <glyph glyph-name="bullet" unicode="&#x2022;" horiz-adv-x="357" 
d="M78 286q0 45 24 73t76 28t76.5 -28t24.5 -73q0 -46 -24.5 -73.5t-76.5 -27.5q-100 0 -100 101z" />
    <glyph glyph-name="ellipsis" unicode="&#x2026;" horiz-adv-x="662" 
d="M75 134h121v-134h-121v134zM271 134h120v-134h-120v134zM466 134h121v-134h-121v134z" />
    <glyph glyph-name="perthousand" unicode="&#x2030;" horiz-adv-x="1279" 
d="M702 701l-397 -701h-100l399 701h98zM677 -10q-75 0 -114.5 39t-39.5 107v75q0 68 39.5 108t114.5 40q74 0 114 -39.5t40 -108.5v-75q0 -68 -39.5 -107t-114.5 -39zM232 710q75 0 115 -40t40 -108v-75q0 -68 -40 -107t-115 -39t-114.5 39t-39.5 107v75q0 68 40 108
t114 40zM162 555v-54q0 -95 70 -95t70 90v54q0 94 -70 94q-36 0 -53 -25t-17 -64zM677 294q-70 0 -70 -100v-49q0 -90 70 -90q69 0 69 90v59q0 90 -69 90zM1047 -10q-75 0 -114.5 39t-39.5 107v75q0 68 39.5 108t114.5 40q74 0 114 -39.5t40 -108.5v-75q0 -68 -39.5 -107
t-114.5 -39zM1047 294q-70 0 -70 -100v-49q0 -90 70 -90q69 0 69 90v59q0 90 -69 90z" />
    <glyph glyph-name="Euro" unicode="&#x20ac;" horiz-adv-x="687" 
d="M91 389l-13 56h54v13q0 252 272 252q111 0 203 -39l-20 -76q-78 34 -169 34q-86 0 -133.5 -42.5t-47.5 -128.5v-13h323l-10 -56h-313v-71h300l-9 -55h-291v-20q0 -79 49 -125.5t132 -46.5q84 0 173 34l18 -77q-100 -38 -205 -38q-128 0 -200 64t-72 189v20h-41l-13 55h53
v71h-40z" />
    <glyph glyph-name="afii61352" unicode="&#x2116;" horiz-adv-x="1060" 
d="M514 112h9l-10 82v506h94v-700h-110l-308 532l-20 56h-8l10 -76v-512h-93v700h112l304 -527zM684 427v34q0 68 38 107t109 39t109.5 -39t38.5 -107v-34q0 -68 -38.5 -106.5t-109.5 -38.5t-109 38.5t-38 106.5zM764 458v-28q0 -42 15 -60.5t52 -18.5t52 18.5t15 60.5v28
q0 42 -15 61t-52 19t-52 -19t-15 -61zM682 120v75h300v-75h-300z" />
    <glyph glyph-name="trademark" unicode="&#x2122;" horiz-adv-x="891" 
d="M54 634v66h275v-66h-100v-283h-76v283h-99zM469 589l-22 -238h-69l30 349h83l111 -269l111 269h84l29 -349h-68l-22 238l-94 -238h-79z" />
    <glyph glyph-name="infinity" unicode="&#x221e;" horiz-adv-x="833" 
 />
    <glyph glyph-name="CR" horiz-adv-x="360" 
 />
    <glyph glyph-name="afii10022.001" horiz-adv-x="561" 
d="M184 337v-257h327v-80h-433v700h433v-80h-327v-208h281v-75h-281z" />
    <glyph glyph-name="commaaccent" horiz-adv-x="103" 
d="M0 -37h103v-69q0 -91 -66 -175l-33 15q34 57 34 115h-38v114z" />
    </font>
</defs>
</svg>
