<?xml version="1.0" standalone="no"?>
<!DOCTYPE svg PUBLIC "-//W3C//DTD SVG 1.1//EN" "http://www.w3.org/Graphics/SVG/1.1/DTD/svg11.dtd" >
<svg xmlns="http://www.w3.org/2000/svg" xmlns:xlink="http://www.w3.org/1999/xlink" version="1.1">
<metadata>
Created by FontForge 20161003 at Fri Jan 13 11:56:13 2017
 By www-data
Copyright (c) 2006 by Art. Lebedev Studio. All rights reserved.
</metadata>
<defs>
<font id="ALSEkibastuzRegular" horiz-adv-x="529" >
  <font-face 
    font-family="ALSEkibastuzRegular"
    font-weight="400"
    font-stretch="normal"
    units-per-em="1000"
    panose-1="2 0 5 3 5 0 0 2 0 4"
    ascent="800"
    descent="-200"
    x-height="500"
    cap-height="700"
    bbox="-121 -264 1079 950"
    underline-thickness="50"
    underline-position="-150"
    unicode-range="U+0020-2260"
  />
<missing-glyph horiz-adv-x="220" 
 />
    <glyph glyph-name=".notdef" horiz-adv-x="220" 
 />
    <glyph glyph-name=".null" horiz-adv-x="0" 
 />
    <glyph glyph-name="nonmarkingreturn" horiz-adv-x="333" 
 />
    <glyph glyph-name="space" unicode=" " horiz-adv-x="260" 
 />
    <glyph glyph-name="exclam" unicode="!" horiz-adv-x="262" 
d="M91 700h81l-12 -520h-57zM90 115h82v-115h-82v115z" />
    <glyph glyph-name="quotedbl" unicode="&#x22;" horiz-adv-x="378" 
d="M90 700h76l-10 -230h-56zM211 700h77l-10 -230h-57z" />
    <glyph glyph-name="numbersign" unicode="#" horiz-adv-x="622" 
d="M90 470v60h118l33 170h66l-34 -170h148l33 170h65l-33 -170h46v-60h-58l-47 -240h105v-60h-116l-34 -170h-64l33 170h-148l-33 -170h-65l33 170h-48v60h60l46 240h-106zM262 470l-47 -240h148l46 240h-147z" />
    <glyph glyph-name="dollar" unicode="$" horiz-adv-x="677" 
d="M315 730h51v-60q95 -2 205 -42l-12 -45q-103 42 -193 44v-268q48 -12 74.5 -20.5t59 -24.5t48.5 -34.5t27.5 -49t11.5 -70.5q0 -75 -64 -120t-157 -49v-71h-51v70q-150 4 -225 42l6 24t5 24q84 -40 214 -45v273q-48 13 -82.5 26.5t-69 35.5t-52.5 55.5t-18 76.5
q0 79 63 122t159 46v60zM418 284q-20 6 -52 13v-262q44 2 76.5 14.5t48 27t24 35t10 31t1.5 22.5q0 51 -22.5 75t-85.5 44zM253 394q38 -16 62 -22v255q-84 -4 -122.5 -39t-38.5 -82q0 -70 99 -112z" />
    <glyph glyph-name="percent" unicode="%" horiz-adv-x="866" 
d="M631 -10q-71 0 -107.5 38.5t-36.5 99.5v81q0 60 37 99t107 39q71 0 108 -38.5t37 -99.5v-81q0 -61 -37 -99.5t-108 -38.5zM234 710q71 0 108 -39t37 -99v-81q0 -61 -37 -99.5t-108 -38.5t-107.5 38.5t-36.5 99.5v81q0 60 37 99t107 39zM677 702q-282 -468 -422 -702h-67
l423 702h66zM142 573v-81q0 -43 25 -71.5t67 -28.5q43 0 67.5 28t24.5 70v81q0 41 -24.5 70.5t-67.5 29.5q-42 0 -67 -28.5t-25 -69.5zM631 308q-42 0 -67 -30.5t-25 -75.5v-75q0 -42 25 -70t67 -28q43 0 67.5 28t24.5 70v83q0 41 -24.5 69.5t-67.5 28.5z" />
    <glyph glyph-name="ampersand" unicode="&#x26;" horiz-adv-x="727" 
d="M539 667l-16 -53q-87 46 -152 46q-149 0 -149 -120q0 -47 49 -103q46 -56 129.5 -159t115.5 -142q42 57 63 151q36 -6 58 -8q-15 -90 -89 -181q26 -32 80 -98h-75l-49 60q-70 -70 -185 -70q-101 0 -165 49.5t-64 143.5q0 85 35.5 134.5t99.5 83.5q-69 86 -69 147
q0 80 56 121t151 41q83 0 176 -43zM320 33q41 0 84.5 16.5t70.5 44.5q-28 34 -103 126.5t-117 142.5q-31 -13 -66.5 -59t-35.5 -121q0 -69 48 -109.5t119 -40.5z" />
    <glyph glyph-name="quotesingle" unicode="'" horiz-adv-x="256" 
d="M90 700h76l-10 -230h-56z" />
    <glyph glyph-name="parenleft" unicode="(" horiz-adv-x="396" 
d="M90 325q0 71 13.5 139.5t39.5 130.5t47.5 103.5t52.5 93.5l58 -4q-19 -29 -38.5 -65.5t-47 -99t-44.5 -141t-17 -157.5q0 -41 4.5 -81.5t13.5 -76.5t19 -69.5t23 -63t24 -53.5t23.5 -45.5t20.5 -34.5t16 -25l8 -12q-10 0 -29.5 -1.5t-30.5 -2.5q-44 70 -72.5 125
t-56 150.5t-27.5 189.5z" />
    <glyph glyph-name="parenright" unicode=")" horiz-adv-x="396" 
d="M306 325q0 -94 -27.5 -189.5t-56 -150.5t-72.5 -125l-60 4q15 20 31 47.5t48 91.5t52.5 149.5t20.5 172.5q0 79 -17 157.5t-44.5 141t-47 99t-38.5 65.5l58 4q31 -51 53 -93.5t47.5 -104t39 -130t13.5 -139.5z" />
    <glyph glyph-name="asterisk" unicode="*" horiz-adv-x="686" 
d="M90 580l27 50l204 -125l-7 235h57l-6 -235l204 125l27 -50l-207 -110l207 -110l-27 -50l-204 125l6 -235h-57l7 234l-204 -124l-27 50l208 110z" />
    <glyph glyph-name="plus" unicode="+" horiz-adv-x="680" 
d="M310 598h59v-220h221v-56h-221v-220h-59v220h-220v56h220v220z" />
    <glyph glyph-name="comma" unicode="," horiz-adv-x="265" 
d="M93 115h82v-71q0 -97 -57 -198l-28 10q37 78 37 144h-34v115z" />
    <glyph glyph-name="hyphen" unicode="-" horiz-adv-x="480" 
d="M90 300v57h300v-57h-300z" />
    <glyph glyph-name="period" unicode="." horiz-adv-x="262" 
d="M90 115h82v-115h-82v115z" />
    <glyph glyph-name="slash" unicode="/" horiz-adv-x="604" 
d="M514 720l-362 -819h-62l361 819h63z" />
    <glyph glyph-name="zero" unicode="0" horiz-adv-x="647" 
d="M47 277v145q0 128 73 208t203 80t203.5 -80t73.5 -208v-145q0 -128 -73.5 -207.5t-203.5 -79.5t-203 79.5t-73 207.5zM323 661q-99 0 -155 -66.5t-56 -170.5v-147q0 -107 56 -172.5t155 -65.5t155.5 65.5t56.5 172.5v146q0 104 -56.5 171t-155.5 67z" />
    <glyph glyph-name="one" unicode="1" horiz-adv-x="647" 
d="M168 445l253 255h58v-700h-64v623l-221 -223z" />
    <glyph glyph-name="two" unicode="2" horiz-adv-x="647" 
d="M319 710q116 0 182.5 -41.5t66.5 -127.5q0 -21 -7 -41.5t-16 -36.5t-27 -33.5t-32 -29t-39 -27t-39 -23t-41.5 -22.5l-38.5 -21q-40 -23 -59 -34.5t-49 -36t-44 -47.5t-25 -60t-11 -82h431v-47h-496v31q0 67 13.5 114.5t47.5 85t69 61.5t101 62q7 4 38 21t41.5 23.5
t35 22t34.5 26t24 26t19 31.5t5 33q0 55 -49.5 89t-136.5 34q-44 0 -112 -16.5t-103 -34.5l-13 48q33 17 102 35t128 18z" />
    <glyph glyph-name="three" unicode="3" horiz-adv-x="647" 
d="M64 21l11 54q30 -10 93 -22t122 -12q225 0 225 145q0 45 -18.5 78t-44 50t-61 27t-59.5 12t-50 2h-75l-9 44h100q66 0 121 38t55 102q0 61 -47.5 91t-128.5 30q-44 0 -110 -8t-93 -21l-15 49q30 12 97.5 21t119.5 9q54 0 94.5 -7t76 -24.5t54 -50.5t18.5 -81
q0 -55 -42 -100t-106 -62q89 -24 139 -68.5t50 -133.5q0 -193 -294 -193q-59 0 -133 12t-90 19z" />
    <glyph glyph-name="four" unicode="4" horiz-adv-x="647" 
d="M452 700h68v-445h72l-9 -49h-63v-206h-64v206h-402v50zM455 636l-340 -381h340v381z" />
    <glyph glyph-name="five" unicode="5" horiz-adv-x="647" 
d="M66 30l10 51q39 -12 112.5 -27t133.5 -15q93 0 142 42t49 141q0 151 -163 151q-120 0 -241 -34l34 361h414l-5 -49h-354l-26 -254q78 24 194 24q45 0 79.5 -8t67 -28t50.5 -61t18 -101q0 -233 -257 -233q-68 0 -152.5 16t-105.5 24z" />
    <glyph glyph-name="six" unicode="6" horiz-adv-x="647" 
d="M51 268v155q0 77 25 135t67 90t89.5 47t99.5 15q135 0 228 -32l-15 -48q-30 12 -93 21.5t-116 9.5q-92 0 -155 -59t-63 -156v-74q30 21 96.5 38.5t119.5 17.5q125 0 193 -46t68 -162q0 -101 -75 -165t-196 -64q-57 0 -103 13.5t-86 43.5t-62 86t-22 134zM118 335v-79
q13 -219 205 -219q89 0 147 48.5t58 134.5t-54 125.5t-139 40.5q-48 0 -115 -15.5t-102 -35.5z" />
    <glyph glyph-name="seven" unicode="7" horiz-adv-x="647" 
d="M295 0h-72q0 120 28 231t72.5 191t88 135t85.5 89h-435v54h522v-36q-114 -87 -201.5 -269.5t-87.5 -394.5z" />
    <glyph glyph-name="eight" unicode="8" horiz-adv-x="647" 
d="M249 387q-28 8 -53 19.5t-54.5 31t-47 49t-17.5 64.5q0 76 64 117.5t182 41.5t182.5 -41.5t64.5 -117.5q0 -114 -192 -165q94 -22 158 -69.5t64 -124.5q0 -106 -70.5 -154t-206.5 -48t-206 48t-70 154q0 44 18 79t51 57t63.5 35t69.5 24zM304 360q-190 -46 -190 -165
q0 -160 209 -160t209 160q0 21 -8 39t-17.5 31t-32 26.5t-35.5 21t-44.5 18.5t-43.5 14.5t-47 14.5zM323 667q-182 0 -182 -118q0 -23 14.5 -44t31.5 -34t48.5 -27.5t46.5 -20t44 -14.5q179 51 179 140q0 61 -45 89.5t-137 28.5z" />
    <glyph glyph-name="nine" unicode="9" horiz-adv-x="647" 
d="M595 432v-154q0 -77 -25 -135t-67 -90t-89.5 -47t-100.5 -15q-134 0 -227 32l15 48q30 -12 92 -21.5t117 -9.5q91 0 154.5 58.5t63.5 156.5v73q-31 -20 -100.5 -38t-125.5 -18q-251 0 -251 208q0 101 74.5 165.5t195.5 64.5q57 0 103.5 -13.5t86.5 -43.5t62 -86t22 -135z
M528 366v80q-16 218 -205 218q-90 0 -147.5 -48.5t-57.5 -134.5t54 -126t139 -40q47 0 115 15.5t102 35.5z" />
    <glyph glyph-name="colon" unicode=":" horiz-adv-x="262" 
d="M90 501h82v-115h-82v115zM90 115h82v-115h-82v115z" />
    <glyph glyph-name="semicolon" unicode=";" horiz-adv-x="265" 
d="M93 501h82v-115h-82v115zM93 115h82v-71q0 -97 -57 -198l-28 10q37 78 37 144h-34v115z" />
    <glyph glyph-name="less" unicode="&#x3c;" horiz-adv-x="603" 
d="M90 225v51q282 146 423 220v-61q-351 -180 -353 -181v-4q41 -21 176.5 -92t176.5 -92v-61q-47 24 -194.5 101.5t-228.5 118.5z" />
    <glyph glyph-name="equal" unicode="=" horiz-adv-x="680" 
d="M90 245v54h500v-54h-500zM90 401v54h500v-54h-500z" />
    <glyph glyph-name="greater" unicode="&#x3e;" horiz-adv-x="603" 
d="M513 276v-51q-81 -41 -228.5 -118.5t-194.5 -101.5v61q41 21 176.5 92t176.5 92v4q-2 1 -353 181v61q141 -74 423 -220z" />
    <glyph glyph-name="question" unicode="?" horiz-adv-x="549" 
d="M98 645l-8 45q75 20 137 20q40 0 69 -3.5t61.5 -15.5t53.5 -33t34.5 -59t13.5 -90q0 -67 -32 -102t-97 -68q-35 -17 -54 -37t-19 -49v-77h-60v72q0 44 25.5 73t72.5 54q26 14 38.5 22t30 24t24.5 37.5t7 50.5q0 87 -39.5 121.5t-118.5 34.5q-31 0 -77 -7.5t-62 -12.5z
M185 115h83v-115h-83v115z" />
    <glyph glyph-name="at" unicode="@" horiz-adv-x="1113" 
d="M557 714q241 0 353.5 -100t112.5 -308q0 -141 -68 -221.5t-205 -80.5h-51v52q-101 -62 -172 -62q-201 0 -201 249q0 278 228 278q77 0 201 -29v-446q205 4 205 260q0 191 -95 277.5t-308 86.5q-203 0 -303.5 -102t-100.5 -311q0 -216 97.5 -314t306.5 -98t410 93l19 -39
q-207 -99 -429 -99q-232 0 -349.5 108t-117.5 349q0 457 467 457zM534 38q65 0 163 64v357q-83 20 -145 20q-166 0 -166 -234q0 -63 12 -106t34 -64t46 -29t56 -8z" />
    <glyph glyph-name="A" unicode="A" horiz-adv-x="606" 
d="M517 0l-72 214h-285l-72 -214h-68l244 700h80l242 -700h-69zM303 644l-130 -385h259z" />
    <glyph glyph-name="B" unicode="B" horiz-adv-x="594" 
d="M96 0v700h233q79 0 126 -41.5t47 -122.5q0 -118 -87 -151q125 -48 125 -184q0 -94 -50 -147.5t-175 -53.5h-219zM160 355v-310h148q81 0 122 35.5t41 121.5q0 82 -48 117.5t-115 35.5h-148zM321 655h-161v-255h161q112 0 112 133q0 57 -28.5 89.5t-83.5 32.5z" />
    <glyph glyph-name="C" unicode="C" horiz-adv-x="573" 
d="M501 81l14 -51q-115 -40 -186 -40q-271 0 -271 277v166q0 277 271 277q71 0 186 -40l-15 -51q-113 39 -171 39q-108 0 -156.5 -56t-48.5 -170v-164q0 -226 205 -226q55 0 172 39z" />
    <glyph glyph-name="D" unicode="D" horiz-adv-x="690" 
d="M96 0v700h226q75 0 128 -14.5t97 -52t65.5 -108t21.5 -175.5t-21.5 -175.5t-65.5 -108t-97 -52t-128 -14.5h-226zM322 652h-162v-604h162q53 0 91 10t75.5 39.5t57.5 93t20 159.5q0 78 -14 134.5t-36 88t-56 50t-65 24t-73 5.5z" />
    <glyph glyph-name="E" unicode="E" horiz-adv-x="565" 
d="M160 358v-310h348v-48h-412v700h412v-48h-348v-248h305v-46h-305z" />
    <glyph glyph-name="F" unicode="F" horiz-adv-x="564" 
d="M160 335v-335h-64v700h412v-51h-348v-266h305v-48h-305z" />
    <glyph glyph-name="G" unicode="G" horiz-adv-x="614" 
d="M556 27q-107 -37 -225 -37q-273 0 -273 276v167q0 277 273 277q116 0 210 -31l-15 -59q-93 41 -191 41q-112 0 -161.5 -56.5t-49.5 -172.5v-166q0 -229 207 -229q72 0 161 26v249l-174 11v43h238v-339z" />
    <glyph glyph-name="H" unicode="H" horiz-adv-x="712" 
d="M552 700h64v-700h-64v358h-392v-358h-64v700h64v-293h392v293z" />
    <glyph glyph-name="I" unicode="I" horiz-adv-x="357" 
d="M30 656v44h296v-44h-116v-612h117v-44h-296v44h115v612h-116z" />
    <glyph glyph-name="J" unicode="J" horiz-adv-x="491" 
d="M160 -10q-80 0 -139 28l15 54q43 -32 117 -32q46 0 80 11.5t52.5 29t29 45t13.5 51t3 55.5v468h64v-470q0 -51 -8.5 -88.5t-31.5 -74.5t-72.5 -57t-122.5 -20z" />
    <glyph glyph-name="K" unicode="K" horiz-adv-x="626" 
d="M160 700v-312h12l343 312h88l-361 -323l363 -377h-83l-350 364h-12v-364h-64v700h64z" />
    <glyph glyph-name="L" unicode="L" horiz-adv-x="584" 
d="M96 0v700h64v-644h368v-56h-432z" />
    <glyph glyph-name="M" unicode="M" horiz-adv-x="913" 
d="M455 49h4q0 21 10 44l239 607h70l60 -700h-66l-48 560v39h-4q0 -13 -10 -39l-224 -560h-60l-228 559q-10 25 -10 40h-4v-39l-42 -560h-66l59 700h70l240 -607q10 -23 10 -44z" />
    <glyph glyph-name="N" unicode="N" horiz-adv-x="780" 
d="M624 60h4v640h56v-700h-73l-446 607q-9 11 -9 37h-4v-644h-56v700h73l445 -605q10 -13 10 -35z" />
    <glyph glyph-name="O" unicode="O" horiz-adv-x="726" 
d="M60 265v169q0 116 80 196t223 80t223 -80t80 -196v-169q0 -116 -80 -195.5t-223 -79.5t-223 79.5t-80 195.5zM130 431v-186q8 -96 69.5 -153.5t163.5 -57.5q109 0 171 64.5t62 170.5v162q0 99 -63 167t-170 68q-100 0 -166.5 -67t-66.5 -168z" />
    <glyph glyph-name="P" unicode="P" horiz-adv-x="598" 
d="M96 700h209q124 0 179.5 -44.5t55.5 -163.5q0 -122 -57 -174t-178 -52h-145v-266h-64v700zM160 651v-337h143q37 0 63.5 6.5t52 24t39 54.5t13.5 93q0 89 -42 124t-126 35h-143z" />
    <glyph glyph-name="Q" unicode="Q" horiz-adv-x="726" 
d="M60 265v169q0 116 80 196t223 80t223 -80t80 -196v-169q0 -84 -44.5 -152.5t-126.5 -100.5l92 -196h-66l-85 181q-40 -7 -73 -7q-143 0 -223 79.5t-80 195.5zM298 292h66l110 -236q59 27 90.5 82.5t31.5 130.5v162q0 99 -63 167t-170 68q-100 0 -166.5 -67t-66.5 -168
v-186q8 -96 69.5 -153.5t163.5 -57.5q30 0 53 4z" />
    <glyph glyph-name="R" unicode="R" horiz-adv-x="637" 
d="M541 0l-205 303h-176v-303h-64v700h228q123 0 180 -49t57 -157q0 -90 -46 -139.5t-116 -51.5l217 -303h-75zM160 652v-301h165q85 0 126 30.5t41 112.5q0 88 -41.5 123t-125.5 35h-165z" />
    <glyph glyph-name="S" unicode="S" horiz-adv-x="614" 
d="M309 710q107 0 231 -44l-12 -49q-117 47 -217 47q-94 0 -138 -38t-44 -89q0 -75 101 -120q40 -17 98 -35t92 -30.5t69 -34t51 -56.5t16 -88q0 -92 -70 -137.5t-177 -45.5q-71 0 -139.5 14t-110.5 32l11 49q129 -48 239 -48q50 0 86.5 12t54 28t27.5 38t11.5 34t1.5 24
q0 89 -111 124q-20 6 -68 19t-74 21.5t-64 27t-58.5 40t-36 57t-15.5 80.5q0 82 70.5 125t175.5 43z" />
    <glyph glyph-name="T" unicode="T" horiz-adv-x="567" 
d="M38 644v56h491v-56h-214v-644h-64v644h-213z" />
    <glyph glyph-name="U" unicode="U" horiz-adv-x="652" 
d="M515 700h59v-450q0 -125 -55.5 -192.5t-181.5 -67.5q-132 0 -195.5 68.5t-63.5 191.5v450h66v-460q0 -201 194 -201q91 0 134 49t43 152v460z" />
    <glyph glyph-name="V" unicode="V" horiz-adv-x="598" 
d="M254 0l-234 700h74l208 -648h6l205 648h65l-235 -700h-89z" />
    <glyph glyph-name="W" unicode="W" horiz-adv-x="986" 
d="M221 0l-201 700h69l174 -617l197 617h68l201 -617l172 617h65l-205 -700h-68l-202 622l-197 -622h-73z" />
    <glyph glyph-name="X" unicode="X" horiz-adv-x="612" 
d="M102 700l210 -305l202 305h78l-246 -352l246 -348h-82l-214 307l-199 -307h-77l242 352l-242 348h82z" />
    <glyph glyph-name="Y" unicode="Y" horiz-adv-x="604" 
d="M270 282l-250 418h79l209 -363l206 363h70l-250 -419v-281h-64v282z" />
    <glyph glyph-name="Z" unicode="Z" horiz-adv-x="598" 
d="M64 649v51h487v-44l-422 -605h424v-51h-508v44l423 605h-404z" />
    <glyph glyph-name="bracketleft" unicode="[" horiz-adv-x="376" 
d="M286 800v-55h-132v-830h132v-55h-196v940h196z" />
    <glyph glyph-name="backslash" unicode="\" horiz-adv-x="606" 
d="M516 -111h-62l-364 833h64z" />
    <glyph glyph-name="bracketright" unicode="]" horiz-adv-x="376" 
d="M222 745h-132v55h196v-940h-196v55h132v830z" />
    <glyph glyph-name="asciicircum" unicode="^" horiz-adv-x="686" 
d="M313 701h59l224 -409h-67l-186 344l-187 -344h-66z" />
    <glyph glyph-name="underscore" unicode="_" horiz-adv-x="500" 
d="M0 -93v58h500v-58h-500z" />
    <glyph glyph-name="grave" unicode="`" horiz-adv-x="266" 
d="M147 749l35 -189l-46 -10l-60 199h71z" />
    <glyph glyph-name="a" unicode="a" 
d="M98 436l-12 44q93 30 192 30q58 0 94.5 -12.5t53 -39.5t21.5 -54t5 -70v-334h-61v39q-82 -50 -159 -50q-179 0 -179 151q0 67 50.5 102t133.5 35h154v81q0 58 -27.5 83.5t-86.5 25.5q-84 0 -179 -31zM246 32q58 0 145 42v163h-146q-62 0 -94.5 -30.5t-32.5 -66.5
q0 -108 128 -108z" />
    <glyph glyph-name="b" unicode="b" horiz-adv-x="567" 
d="M77 700h61v-239q73 47 157 47q220 0 220 -258q0 -127 -55 -193t-179 -66q-67 0 -143 45v-36h-61v700zM283 34q167 0 167 216q0 215 -167 215q-66 0 -145 -45v-341q70 -45 145 -45z" />
    <glyph glyph-name="c" unicode="c" horiz-adv-x="477" 
d="M437 75l11 -46q-97 -39 -166 -39q-108 0 -168.5 57.5t-60.5 162.5v79q0 104 61 162.5t168 58.5q86 0 166 -39l-12 -46q-84 41 -148 41q-84 0 -127 -47t-43 -132v-74q0 -86 43 -132.5t127 -46.5q51 0 149 41z" />
    <glyph glyph-name="d" unicode="d" horiz-adv-x="589" 
d="M306 35q73 0 145 45v340q-82 45 -145 45q-34 0 -60.5 -8.5t-51.5 -30t-39 -66.5t-14 -110t14 -109.5t39 -66.5t51.5 -30.5t60.5 -8.5zM512 700v-700h-61v39q-77 -47 -151 -47q-122 0 -173.5 63t-51.5 195q0 125 52.5 192t171.5 67q70 0 152 -45v236h61z" />
    <glyph glyph-name="e" unicode="e" 
d="M459 73l8 -45q-112 -38 -184 -38q-110 0 -170 44t-60 148v105q0 105 51.5 164t160.5 59q103 0 157.5 -50.5t54.5 -149.5v-82h-358v-48q0 -79 42 -113.5t125 -34.5q57 0 173 41zM119 302v-33h297v51q0 73 -38.5 111t-112.5 38q-146 0 -146 -167z" />
    <glyph glyph-name="f" unicode="f" horiz-adv-x="409" 
d="M438 695l-11 -44q-61 19 -126 19q-70 0 -91.5 -39t-21.5 -131h191v-45h-191v-455h-61v455h-97v45h97v11q0 108 36 156t129 48q91 0 146 -20z" />
    <glyph glyph-name="g" unicode="g" horiz-adv-x="585" 
d="M292 510q37 0 77.5 -10t61.5 -24q21 21 21 74h64q-1 -38 -12 -62.5t-42 -35.5q36 -39 36 -102q0 -83 -55 -115.5t-151 -32.5q-74 0 -105 9q-6 -6 -12 -24.5t-6 -33.5q0 -30 22 -56q29 7 101 7q52 0 91 -6.5t73 -22.5t51.5 -47t17.5 -76q0 -60 -33 -95t-81 -46t-119 -11
t-118.5 11t-80.5 46t-33 95q0 52 20 82.5t64 48.5q-32 36 -32 70q0 36 32 74q-58 30 -58 123q0 84 56.5 122t149.5 38zM459 -48q0 111 -167 111q-89 0 -127.5 -28.5t-38.5 -82.5q0 -112 166 -112q167 0 167 112zM432 350q0 122 -140 122t-140 -122q0 -60 32.5 -86t107.5 -26
q140 0 140 112z" />
    <glyph glyph-name="h" unicode="h" horiz-adv-x="573" 
d="M496 0h-61v336q0 68 -28 98.5t-101 30.5q-44 0 -92.5 -21.5t-75.5 -47.5v-396h-61v700h61v-260q28 25 74.5 47t101.5 22q94 0 138 -35t44 -133v-341z" />
    <glyph glyph-name="i" unicode="i" horiz-adv-x="215" 
d="M77 500h61v-500h-61v500zM77 700h61v-104h-61v104z" />
    <glyph glyph-name="j" unicode="j" horiz-adv-x="215" 
d="M-121 -178l10 41q64 -20 94 -20q94 0 94 119v538h62v-538q0 -162 -148 -162q-50 0 -112 22zM77 700h62v-104h-62v104z" />
    <glyph glyph-name="k" unicode="k" horiz-adv-x="505" 
d="M138 700v-430h9l250 230h88l-280 -238l280 -262h-83l-255 252h-9v-252h-61v700h61z" />
    <glyph glyph-name="l" unicode="l" horiz-adv-x="215" 
d="M138 0h-61v750h61v-750z" />
    <glyph glyph-name="m" unicode="m" horiz-adv-x="781" 
d="M421 0h-61v355q0 52 -19 76.5t-65 24.5q-29 0 -71 -22t-67 -49v-385h-61v500h61v-81q33 35 75 63t78 28q30 0 52 -7.5t35.5 -22t20.5 -27.5t13 -32q31 33 83 61t87 28q69 0 95.5 -36.5t26.5 -113.5v-360h-61v355q0 54 -15 77.5t-60 23.5q-28 0 -74 -18.5t-73 -41.5v-396z
" />
    <glyph glyph-name="n" unicode="n" horiz-adv-x="572" 
d="M495 0h-61v334q0 72 -27.5 101.5t-101.5 29.5q-44 0 -92 -21t-75 -47v-397h-61v500h61v-60q80 70 176 70q47 0 76.5 -6t55 -23.5t37.5 -52.5t12 -91v-337z" />
    <glyph glyph-name="o" unicode="o" horiz-adv-x="564" 
d="M52 194v112q0 93 61 148.5t168 55.5q108 0 169.5 -55.5t61.5 -148.5v-112q0 -93 -61.5 -148.5t-169.5 -55.5q-107 0 -168 55.5t-61 148.5zM117 308v-114q0 -73 43.5 -117.5t120.5 -44.5t121.5 44.5t44.5 117.5v111q0 73 -44.5 118t-121.5 45q-75 0 -119.5 -44t-44.5 -116
z" />
    <glyph glyph-name="p" unicode="p" horiz-adv-x="568" 
d="M282 465q-73 0 -143 -45v-340q77 -45 145 -45q33 0 59.5 9t52.5 30.5t40 66t14 109.5q0 215 -168 215zM78 -200v700h61v-39q72 47 147 47q229 0 229 -258q0 -259 -225 -259q-72 0 -151 45v-236h-61z" />
    <glyph glyph-name="q" unicode="q" horiz-adv-x="568" 
d="M491 473v-673h-61v239q-79 -49 -157 -49q-220 0 -220 260q0 259 225 259q99 0 213 -36zM286 465q-168 0 -168 -215t168 -215q66 0 144 45v358q-61 27 -144 27z" />
    <glyph glyph-name="r" unicode="r" horiz-adv-x="374" 
d="M336 510l10 -57h-39q-64 0 -116.5 -46t-52.5 -83v-324h-61v500h61v-110q18 45 69.5 82.5t86.5 37.5h42z" />
    <glyph glyph-name="s" unicode="s" horiz-adv-x="505" 
d="M258 510q79 0 178 -33l-12 -42q-94 32 -167 32t-105.5 -30t-32.5 -66q0 -49 53 -70q25 -9 70 -19.5t77 -19.5t65.5 -25.5t51 -45.5t17.5 -72q0 -40 -15 -67t-44 -40t-60.5 -17.5t-76.5 -4.5q-97 0 -204 35l8 44q118 -37 192 -37q48 0 78.5 8.5t42 24t14.5 25.5t3 26
q0 51 -57 77q-24 11 -66 21t-75.5 18.5t-66 23.5t-51 43.5t-18.5 71.5q0 72 55.5 105.5t145.5 33.5z" />
    <glyph glyph-name="t" unicode="t" horiz-adv-x="404" 
d="M29 461v39h94v129l61 11v-140h190v-39h-190v-307q0 -120 93 -120q54 0 92 18l12 -40q-41 -22 -111 -22q-75 0 -111 39t-36 120v312h-94z" />
    <glyph glyph-name="u" unicode="u" horiz-adv-x="573" 
d="M77 500h61v-334q0 -72 27.5 -101.5t101.5 -29.5q44 0 92 21t76 47v397h61v-500h-61v60q-82 -69 -177 -69q-93 0 -137 34.5t-44 130.5v344z" />
    <glyph glyph-name="v" unicode="v" horiz-adv-x="502" 
d="M209 0l-189 500h71l164 -463h4l157 463h66l-187 -500h-86z" />
    <glyph glyph-name="w" unicode="w" horiz-adv-x="783" 
d="M173 0l-148 500h70l118 -461h4l154 461h65l135 -462h4l118 462h65l-147 -500h-82l-127 460l-158 -460h-71z" />
    <glyph glyph-name="x" unicode="x" horiz-adv-x="507" 
d="M97 500l163 -222l155 222h72l-197 -255l197 -245h-77l-166 211l-151 -211h-73l190 251l-190 249h77z" />
    <glyph glyph-name="y" unicode="y" horiz-adv-x="531" 
d="M230 -112l45 112q-15 2 -30 14t-22 28l-203 458h74l174 -411q17 -40 19 -61h4q3 20 18 61l143 411h59l-170 -478q-31 -86 -66 -162q-42 -90 -129 -90q-57 0 -109 24l15 45q48 -20 86 -20q33 0 54 14.5t38 54.5z" />
    <glyph glyph-name="z" unicode="z" horiz-adv-x="516" 
d="M71 456v44h390v-35l-329 -421h328v-44h-408v35l330 421h-311z" />
    <glyph glyph-name="braceleft" unicode="{" horiz-adv-x="407" 
d="M317 741h-52q-22 0 -35 -12.5t-13 -35.5v-276q0 -27 -8.5 -40.5t-28.5 -27.5q23 -17 30 -39.5t7 -76.5v-266q0 -23 13 -35.5t35 -12.5h52v-59h-54q-110 0 -110 119v290q0 24 -12.5 36t-24.5 12h-26v59h25q12 0 25 12t13 36v265q0 111 110 111h54v-59z" />
    <glyph glyph-name="bar" unicode="|" horiz-adv-x="244" 
d="M90 750h64v-1000h-64v1000z" />
    <glyph glyph-name="braceright" unicode="}" horiz-adv-x="407" 
d="M142 741h-52v59h54q110 0 110 -111v-265q0 -24 12.5 -36t24.5 -12h26v-59h-27q-11 0 -23.5 -12t-12.5 -36v-290q0 -119 -110 -119h-54v59h52q22 0 35 12.5t13 35.5v266q0 54 7 76.5t29 39.5q-19 14 -27.5 27.5t-8.5 40.5v276q0 23 -13 35.5t-35 12.5z" />
    <glyph glyph-name="asciitilde" unicode="~" horiz-adv-x="677" 
d="M117 381l-27 43q10 12 25.5 27t51 37.5t64.5 22.5q37 0 98 -33.5t108 -33.5q60 0 116 75l34 -39l-7 -10q-6 -9 -13.5 -19t-21 -23.5t-27.5 -23.5t-34 -17t-41 -7q-46 0 -107.5 34t-99.5 34q-30 0 -66 -23.5t-53 -43.5z" />
    <glyph glyph-name="sterling" unicode="&#xa3;" horiz-adv-x="772" 
d="M617 669l-17 -44q-2 2 -29 10t-76 17.5t-90 9.5q-67 0 -117.5 -44t-50.5 -132v-82h308v-43h-308v-266q34 8 68 8t97.5 -28t103.5 -28q31 0 66.5 18t53 32.5t27.5 25.5l29 -38q-89 -95 -176 -95q-33 0 -102.5 29t-115.5 29q-97 0 -177 -57l-21 41q37 28 83 49v280h-59v43
h59v85q0 101 64.5 161t167.5 60q30 0 62 -4t57.5 -10t45.5 -12t34 -10z" />
    <glyph glyph-name="currency" unicode="&#xa4;" horiz-adv-x="611" 
d="M40 266v48h67v386h209q124 0 179.5 -44.5t55.5 -163.5q0 -122 -57 -174t-178 -52h-145v-66h340v-48h-340v-152h-64v152h-67v48h67v66h-67zM175 651v-337h143q37 0 63.5 6.5t52 24t39 54.5t13.5 93q0 89 -42 124t-126 35h-143z" />
    <glyph glyph-name="section" unicode="&#xa7;" horiz-adv-x="685" 
d="M342 709q119 0 253 -38l-11 -44q-144 38 -242 38q-96 0 -142 -34t-46 -76q0 -26 14.5 -45.5t45.5 -33t60.5 -22t77.5 -18.5q38 -8 55 -12t52.5 -15t53.5 -23t40 -31t31.5 -45t9.5 -59q0 -52 -42.5 -90t-102.5 -61q145 -39 145 -146q0 -52 -38 -88t-93 -51t-121 -15
q-96 0 -252 37l11 44q156 -37 241 -37q96 0 142 34t46 76q0 50 -51 75.5t-148 43.5q-37 7 -64 13.5t-63 21t-58.5 33t-39 49t-16.5 68.5q0 29 13.5 53t40 43t45.5 29.5t49 24.5q-61 14 -104.5 53.5t-43.5 93.5q0 74 72 114t180 40zM154 258q0 -22 7 -40.5t22.5 -31.5t30 -22
t39.5 -16.5t40.5 -11.5t43.5 -10t39 -8q37 16 58 26.5t46.5 27t37.5 36t12 43.5q0 34 -17.5 58t-53 39.5t-67.5 24t-83 17.5q-155 -57 -155 -132z" />
    <glyph glyph-name="dieresis" unicode="&#xa8;" horiz-adv-x="408" 
d="M90 703h76v-122h-76v122zM242 703h76v-122h-76v122z" />
    <glyph glyph-name="copyright" unicode="&#xa9;" horiz-adv-x="1090" 
d="M545 710q227 0 341 -117.5t114 -337.5t-114 -337.5t-341 -117.5q-228 0 -341.5 117.5t-113.5 337.5t113.5 337.5t341.5 117.5zM943 255q0 411 -398 411t-398 -411q0 -410 398 -410t398 410zM704 61l11 -41q-78 -28 -151 -28q-123 0 -173 52.5t-50 170.5v72
q0 118 51 174.5t172 56.5q74 0 151 -26l-12 -43q-78 28 -139 28q-96 0 -133 -43.5t-37 -146.5v-72q0 -95 37.5 -138.5t132.5 -43.5q62 0 140 28z" />
    <glyph glyph-name="guillemotleft" unicode="&#xab;" horiz-adv-x="537" 
d="M90 251l153 218h60l-145 -216l145 -201h-63zM234 251l154 218h59l-145 -216l145 -201h-63z" />
    <glyph glyph-name="registered" unicode="&#xae;" horiz-adv-x="667" 
d="M333 710q244 0 244 -241q0 -240 -244 -240q-243 0 -243 240q0 241 243 241zM528 469q0 104 -47 155t-148 51q-194 0 -194 -206q0 -104 47.5 -154.5t146.5 -50.5q101 0 148 50.5t47 154.5zM410 329l-83 124h-52v-124h-31v284h91q99 0 99 -83q0 -36 -20.5 -56t-50.5 -21
l90 -124h-43zM275 587v-110h61q21 0 32.5 2t21.5 14.5t10 36.5q0 35 -16.5 46t-47.5 11h-61z" />
    <glyph glyph-name="macron" unicode="&#xaf;" horiz-adv-x="290" 
d="M0 593v55h290v-55h-290z" />
    <glyph glyph-name="degree" unicode="&#xb0;" horiz-adv-x="567" 
d="M268 711q74 0 126.5 -52.5t52.5 -126.5t-52.5 -126t-126.5 -52t-126 52t-52 126t52 126.5t126 52.5zM392 532q0 52 -36 88t-88 36q-51 0 -87 -36t-36 -88q0 -51 36 -87t87 -36q52 0 88 36t36 87z" />
    <glyph glyph-name="plusminus" unicode="&#xb1;" horiz-adv-x="680" 
d="M310 611h59v-220h221v-57h-221v-220h-59v220h-220v57h220v220zM90 0v56h500v-56h-500z" />
    <glyph glyph-name="acute" unicode="&#xb4;" horiz-adv-x="286" 
d="M90 558l34 192h72l-63 -199z" />
    <glyph glyph-name="paragraph" unicode="&#xb6;" horiz-adv-x="729" 
d="M626 700l13 -64h-99v-720l-57 -13v733h-151v-772l-58 -13v445h-10q-83 0 -128.5 54.5t-45.5 147.5t45.5 147.5t128.5 54.5h362z" />
    <glyph glyph-name="periodcentered" unicode="&#xb7;" horiz-adv-x="275" 
d="M86 250q0 52 51 52q52 0 52 -52q0 -51 -52 -51q-51 0 -51 51z" />
    <glyph glyph-name="cedilla" unicode="&#xb8;" horiz-adv-x="150" 
d="M50 10h40l-11 -44q71 0 71 -60q0 -36 -21 -56.5t-61 -20.5t-68 18l19 38q28 -13 50 -13q32 0 32 27q0 26 -37 26l-38 -2z" />
    <glyph glyph-name="guillemotright" unicode="&#xbb;" horiz-adv-x="537" 
d="M379 253l-145 216h59l154 -218l-151 -199h-62zM235 253l-145 216h59l154 -218l-151 -199h-62z" />
    <glyph glyph-name="Agrave" unicode="&#xc0;" horiz-adv-x="605" 
d="M517 0l-72 214h-285l-71 -214h-69l244 700h79l242 -700h-68zM304 644l-130 -385h259zM321 949l35 -189l-45 -10l-61 199h71z" />
    <glyph glyph-name="Aacute" unicode="&#xc1;" horiz-adv-x="605" 
d="M517 0l-72 214h-285l-71 -214h-69l244 700h79l242 -700h-68zM304 644l-130 -385h259zM250 758l35 192h71l-63 -199z" />
    <glyph glyph-name="Acircumflex" unicode="&#xc2;" horiz-adv-x="605" 
d="M517 0l-72 214h-285l-71 -214h-69l244 700h79l242 -700h-68zM304 644l-130 -385h259zM272 935h61l86 -152h-61l-55 119l-55 -119h-61z" />
    <glyph glyph-name="Atilde" unicode="&#xc3;" horiz-adv-x="605" 
d="M517 0l-72 214h-285l-71 -214h-69l244 700h79l242 -700h-68zM304 644l-130 -385h259zM168 825l-13 37q51 42 94 42q26 0 60.5 -19t54.5 -19q36 0 79 37l17 -33q-12 -16 -40.5 -33t-55.5 -17q-22 0 -57 19t-58 19q-40 0 -81 -33z" />
    <glyph glyph-name="Adieresis" unicode="&#xc4;" horiz-adv-x="605" 
d="M517 0l-72 214h-285l-71 -214h-69l244 700h79l242 -700h-68zM304 644l-130 -385h259zM188 903h77v-122h-77v122zM341 903h76v-122h-76v122z" />
    <glyph glyph-name="AE" unicode="&#xc6;" horiz-adv-x="937" 
d="M468 0v214h-244l-137 -214h-67l448 700h412v-48h-348v-248h305v-46h-305v-310h348v-48h-412zM252 259h216v341z" />
    <glyph glyph-name="Ccedilla" unicode="&#xc7;" horiz-adv-x="573" 
d="M501 81l14 -51q-115 -40 -188 -40l-6 -24q71 0 71 -60q0 -36 -21 -56.5t-61 -20.5t-68 18l19 38q28 -13 50 -13q32 0 32 27q0 26 -37 26l-38 -2l19 69q-229 20 -229 275v166q0 277 271 277q71 0 186 -40l-15 -51q-113 39 -171 39q-108 0 -156.5 -56t-48.5 -170v-164
q0 -226 205 -226q55 0 172 39z" />
    <glyph glyph-name="Egrave" unicode="&#xc8;" horiz-adv-x="565" 
d="M160 358v-310h348v-48h-412v700h412v-48h-348v-248h305v-46h-305zM301 949l35 -189l-45 -10l-61 199h71z" />
    <glyph glyph-name="Eacute" unicode="&#xc9;" horiz-adv-x="565" 
d="M160 358v-310h348v-48h-412v700h412v-48h-348v-248h305v-46h-305zM250 758l34 192h72l-63 -199z" />
    <glyph glyph-name="Ecircumflex" unicode="&#xca;" horiz-adv-x="565" 
d="M160 358v-310h348v-48h-412v700h412v-48h-348v-248h305v-46h-305zM261 935h62l86 -152h-62l-54 119l-56 -119h-60z" />
    <glyph glyph-name="Edieresis" unicode="&#xcb;" horiz-adv-x="565" 
d="M160 358v-310h348v-48h-412v700h412v-48h-348v-248h305v-46h-305zM168 903h76v-122h-76v122zM320 903h77v-122h-77v122z" />
    <glyph glyph-name="Igrave" unicode="&#xcc;" horiz-adv-x="357" 
d="M30 651v49h296v-49h-116v-602h117v-49h-296v49h115v602h-116zM197 949l35 -189l-45 -10l-61 199h71z" />
    <glyph glyph-name="Iacute" unicode="&#xcd;" horiz-adv-x="357" 
d="M30 651v49h296v-49h-116v-602h117v-49h-296v49h115v602h-116zM126 758l34 192h72l-63 -199z" />
    <glyph glyph-name="Icircumflex" unicode="&#xce;" horiz-adv-x="357" 
d="M30 651v49h296v-49h-116v-602h117v-49h-296v49h115v602h-116zM147 935h62l86 -152h-62l-54 119l-56 -119h-60z" />
    <glyph glyph-name="Idieresis" unicode="&#xcf;" horiz-adv-x="357" 
d="M30 651v49h296v-49h-116v-602h117v-49h-296v49h115v602h-116zM65 903h76v-122h-76v122zM217 903h76v-122h-76v122z" />
    <glyph glyph-name="Ograve" unicode="&#xd2;" horiz-adv-x="718" 
d="M60 265v169q0 116 78.5 196t220.5 80t220.5 -80t78.5 -196v-169q0 -116 -78 -195.5t-221 -79.5t-221 79.5t-78 195.5zM128 431v-162q0 -104 63.5 -167t167.5 -63q110 0 171 62t61 168v162q0 99 -62 164.5t-170 65.5q-100 0 -165.5 -64.5t-65.5 -165.5zM377 949l35 -189
l-45 -10l-61 199h71z" />
    <glyph glyph-name="Oacute" unicode="&#xd3;" horiz-adv-x="718" 
d="M60 265v169q0 116 78.5 196t220.5 80t220.5 -80t78.5 -196v-169q0 -116 -78 -195.5t-221 -79.5t-221 79.5t-78 195.5zM128 431v-162q0 -104 63.5 -167t167.5 -63q110 0 171 62t61 168v162q0 99 -62 164.5t-170 65.5q-100 0 -165.5 -64.5t-65.5 -165.5zM306 758l35 192h71
l-63 -199z" />
    <glyph glyph-name="Ocircumflex" unicode="&#xd4;" horiz-adv-x="718" 
d="M60 265v169q0 116 78.5 196t220.5 80t220.5 -80t78.5 -196v-169q0 -116 -78 -195.5t-221 -79.5t-221 79.5t-78 195.5zM128 431v-162q0 -104 63.5 -167t167.5 -63q110 0 171 62t61 168v162q0 99 -62 164.5t-170 65.5q-100 0 -165.5 -64.5t-65.5 -165.5zM328 935h61
l86 -152h-61l-55 119l-56 -119h-60z" />
    <glyph glyph-name="Otilde" unicode="&#xd5;" horiz-adv-x="718" 
d="M60 265v169q0 116 78.5 196t220.5 80t220.5 -80t78.5 -196v-169q0 -116 -78 -195.5t-221 -79.5t-221 79.5t-78 195.5zM128 431v-162q0 -104 63.5 -167t167.5 -63q110 0 171 62t61 168v162q0 99 -62 164.5t-170 65.5q-100 0 -165.5 -64.5t-65.5 -165.5zM224 826l-13 36
q51 42 94 42q26 0 60 -19t55 -19q36 0 79 37l17 -33q-12 -15 -40.5 -32.5t-55.5 -17.5q-23 0 -57.5 19t-57.5 19q-42 0 -81 -32z" />
    <glyph glyph-name="Odieresis" unicode="&#xd6;" horiz-adv-x="718" 
d="M60 265v169q0 116 78.5 196t220.5 80t220.5 -80t78.5 -196v-169q0 -116 -78 -195.5t-221 -79.5t-221 79.5t-78 195.5zM128 431v-162q0 -104 63.5 -167t167.5 -63q110 0 171 62t61 168v162q0 99 -62 164.5t-170 65.5q-100 0 -165.5 -64.5t-65.5 -165.5zM244 903h77v-122
h-77v122zM397 903h76v-122h-76v122z" />
    <glyph glyph-name="Ugrave" unicode="&#xd9;" horiz-adv-x="652" 
d="M515 700h59v-450q0 -125 -55.5 -192.5t-181.5 -67.5q-132 0 -195.5 68.5t-63.5 191.5v450h65v-460q0 -201 195 -201q91 0 134 49t43 152v460zM344 949l35 -189l-45 -10l-61 199h71z" />
    <glyph glyph-name="Uacute" unicode="&#xda;" horiz-adv-x="652" 
d="M515 700h59v-450q0 -125 -55.5 -192.5t-181.5 -67.5q-132 0 -195.5 68.5t-63.5 191.5v450h65v-460q0 -201 195 -201q91 0 134 49t43 152v460zM273 758l35 192h71l-63 -199z" />
    <glyph glyph-name="Ucircumflex" unicode="&#xdb;" horiz-adv-x="652" 
d="M515 700h59v-450q0 -125 -55.5 -192.5t-181.5 -67.5q-132 0 -195.5 68.5t-63.5 191.5v450h65v-460q0 -201 195 -201q91 0 134 49t43 152v460zM295 935h61l86 -152h-61l-55 119l-56 -119h-60z" />
    <glyph glyph-name="Udieresis" unicode="&#xdc;" horiz-adv-x="652" 
d="M515 700h59v-450q0 -125 -55.5 -192.5t-181.5 -67.5q-132 0 -195.5 68.5t-63.5 191.5v450h65v-460q0 -201 195 -201q91 0 134 49t43 152v460zM211 903h77v-122h-77v122zM363 903h77v-122h-77v122z" />
    <glyph glyph-name="agrave" unicode="&#xe0;" 
d="M283 749l35 -189l-46 -10l-61 199h72zM98 436l-12 44q93 30 192 30q58 0 94.5 -12.5t53 -39.5t21.5 -54t5 -70v-334h-61v39q-82 -50 -159 -50q-179 0 -179 151q0 67 50.5 102t133.5 35h154v81q0 58 -27.5 83.5t-86.5 25.5q-84 0 -179 -31zM246 32q58 0 145 42v163h-146
q-62 0 -94.5 -30.5t-32.5 -66.5q0 -108 128 -108z" />
    <glyph glyph-name="aacute" unicode="&#xe1;" 
d="M211 558l35 192h72l-63 -199zM98 436l-12 44q93 30 192 30q58 0 94.5 -12.5t53 -39.5t21.5 -54t5 -70v-334h-61v39q-82 -50 -159 -50q-179 0 -179 151q0 67 50.5 102t133.5 35h154v81q0 58 -27.5 83.5t-86.5 25.5q-84 0 -179 -31zM246 32q58 0 145 42v163h-146
q-62 0 -94.5 -30.5t-32.5 -66.5q0 -108 128 -108z" />
    <glyph glyph-name="acircumflex" unicode="&#xe2;" 
d="M233 735h62l85 -152h-61l-55 119l-55 -119h-60zM98 436l-12 44q93 30 192 30q58 0 94.5 -12.5t53 -39.5t21.5 -54t5 -70v-334h-61v39q-82 -50 -159 -50q-179 0 -179 151q0 67 50.5 102t133.5 35h154v81q0 58 -27.5 83.5t-86.5 25.5q-84 0 -179 -31zM246 32q58 0 145 42
v163h-146q-62 0 -94.5 -30.5t-32.5 -66.5q0 -108 128 -108z" />
    <glyph glyph-name="atilde" unicode="&#xe3;" 
d="M129 625l-13 37q51 42 95 42q26 0 60 -19t54 -19q8 0 15.5 1.5t14.5 4t12 5t11.5 7t9.5 7l9 7.5t7 6l17 -34q-10 -15 -39 -32.5t-57 -17.5q-23 0 -57 19t-57 19q-41 0 -82 -33zM98 436l-12 44q93 30 192 30q58 0 94.5 -12.5t53 -39.5t21.5 -54t5 -70v-334h-61v39
q-82 -50 -159 -50q-179 0 -179 151q0 67 50.5 102t133.5 35h154v81q0 58 -27.5 83.5t-86.5 25.5q-84 0 -179 -31zM246 32q58 0 145 42v163h-146q-62 0 -94.5 -30.5t-32.5 -66.5q0 -108 128 -108z" />
    <glyph glyph-name="adieresis" unicode="&#xe4;" 
d="M150 703h76v-122h-76v122zM302 703h76v-122h-76v122zM98 436l-12 44q93 30 192 30q58 0 94.5 -12.5t53 -39.5t21.5 -54t5 -70v-334h-61v39q-82 -50 -159 -50q-179 0 -179 151q0 67 50.5 102t133.5 35h154v81q0 58 -27.5 83.5t-86.5 25.5q-84 0 -179 -31zM246 32
q58 0 145 42v163h-146q-62 0 -94.5 -30.5t-32.5 -66.5q0 -108 128 -108z" />
    <glyph glyph-name="ae" unicode="&#xe6;" horiz-adv-x="862" 
d="M792 73l8 -45q-112 -38 -184 -38q-132 0 -184 59q-106 -60 -200 -60q-179 0 -179 145q0 68 51 105.5t133 37.5h154v81q0 58 -27.5 83.5t-86.5 25.5q-84 0 -179 -31l-12 44q93 30 192 30q122 0 155 -67q51 67 165 67q103 0 157.5 -50.5t54.5 -149.5v-82h-358v-48
q0 -79 42 -113.5t125 -34.5q57 0 173 41zM452 302v-33h297v51q0 73 -38.5 111t-112.5 38q-146 0 -146 -167zM246 32q33 0 81 13.5t83 36.5q-19 43 -19 100v55h-146q-63 0 -95 -29t-32 -68q0 -55 30.5 -81.5t97.5 -26.5z" />
    <glyph glyph-name="ccedilla" unicode="&#xe7;" horiz-adv-x="477" 
d="M437 75l11 -46q-94 -38 -164 -39l-6 -24q71 0 71 -60q0 -36 -21 -56.5t-61 -20.5q-39 0 -68 18l19 38q28 -13 50 -13q32 0 32 27q0 26 -37 26l-38 -2l19 69q-91 10 -141 66t-50 152v79q0 104 61 162.5t168 58.5q86 0 166 -39l-12 -46q-84 41 -148 41q-84 0 -127 -47
t-43 -132v-74q0 -86 43 -132.5t127 -46.5q51 0 149 41z" />
    <glyph glyph-name="egrave" unicode="&#xe8;" horiz-adv-x="509" 
d="M449 73l8 -45q-112 -38 -184 -38q-110 0 -170 44t-60 148v105q0 105 51.5 164t160.5 59q103 0 157.5 -50.5t54.5 -149.5v-79h-359v-51q0 -78 42.5 -113t125.5 -35q57 0 173 41zM108 302v-37h297v55q0 149 -150 149q-147 0 -147 -167zM273 749l35 -189l-46 -10l-61 199h72
z" />
    <glyph glyph-name="eacute" unicode="&#xe9;" horiz-adv-x="509" 
d="M449 73l8 -45q-112 -38 -184 -38q-110 0 -170 44t-60 148v105q0 105 51.5 164t160.5 59q103 0 157.5 -50.5t54.5 -149.5v-79h-359v-51q0 -78 42.5 -113t125.5 -35q57 0 173 41zM108 302v-37h297v55q0 149 -150 149q-147 0 -147 -167zM201 558l35 192h72l-63 -199z" />
    <glyph glyph-name="ecircumflex" unicode="&#xea;" horiz-adv-x="509" 
d="M449 73l8 -45q-112 -38 -184 -38q-110 0 -170 44t-60 148v105q0 105 51.5 164t160.5 59q103 0 157.5 -50.5t54.5 -149.5v-79h-359v-51q0 -78 42.5 -113t125.5 -35q57 0 173 41zM108 302v-37h297v55q0 149 -150 149q-147 0 -147 -167zM223 735h62l85 -152h-61l-55 119
l-55 -119h-60z" />
    <glyph glyph-name="edieresis" unicode="&#xeb;" horiz-adv-x="509" 
d="M449 73l8 -45q-112 -38 -184 -38q-110 0 -170 44t-60 148v105q0 105 51.5 164t160.5 59q103 0 157.5 -50.5t54.5 -149.5v-79h-359v-51q0 -78 42.5 -113t125.5 -35q57 0 173 41zM108 302v-37h297v55q0 149 -150 149q-147 0 -147 -167zM140 703h76v-122h-76v122zM292 703
h76v-122h-76v122z" />
    <glyph glyph-name="igrave" unicode="&#xec;" horiz-adv-x="216" 
d="M77 500h62v-500h-62v500zM126 749l35 -189l-46 -10l-60 199h71z" />
    <glyph glyph-name="iacute" unicode="&#xed;" horiz-adv-x="216" 
d="M77 500h62v-500h-62v500zM55 558l34 192h72l-63 -199z" />
    <glyph glyph-name="icircumflex" unicode="&#xee;" horiz-adv-x="216" 
d="M77 500h62v-500h-62v500zM76 735h62l86 -152h-62l-54 119l-56 -119h-60z" />
    <glyph glyph-name="idieresis" unicode="&#xef;" horiz-adv-x="216" 
d="M77 500h62v-500h-62v500zM-6 703h76v-122h-76v122zM146 703h76v-122h-76v122z" />
    <glyph glyph-name="ograve" unicode="&#xf2;" horiz-adv-x="564" 
d="M52 194v112q0 93 61 148.5t168 55.5q108 0 169.5 -55.5t61.5 -148.5v-112q0 -93 -61.5 -148.5t-169.5 -55.5q-107 0 -168 55.5t-61 148.5zM116 308v-114q0 -73 44 -117.5t121 -44.5t121.5 44.5t44.5 117.5v111q0 73 -44.5 118t-121.5 45q-76 0 -120.5 -44.5t-44.5 -115.5
zM300 749l35 -189l-45 -10l-61 199h71z" />
    <glyph glyph-name="oacute" unicode="&#xf3;" horiz-adv-x="564" 
d="M52 194v112q0 93 61 148.5t168 55.5q108 0 169.5 -55.5t61.5 -148.5v-112q0 -93 -61.5 -148.5t-169.5 -55.5q-107 0 -168 55.5t-61 148.5zM116 308v-114q0 -73 44 -117.5t121 -44.5t121.5 44.5t44.5 117.5v111q0 73 -44.5 118t-121.5 45q-76 0 -120.5 -44.5t-44.5 -115.5
zM229 558l35 192h71l-63 -199z" />
    <glyph glyph-name="ocircumflex" unicode="&#xf4;" horiz-adv-x="564" 
d="M52 194v112q0 93 61 148.5t168 55.5q108 0 169.5 -55.5t61.5 -148.5v-112q0 -93 -61.5 -148.5t-169.5 -55.5q-107 0 -168 55.5t-61 148.5zM116 308v-114q0 -73 44 -117.5t121 -44.5t121.5 44.5t44.5 117.5v111q0 73 -44.5 118t-121.5 45q-76 0 -120.5 -44.5t-44.5 -115.5
zM251 735h61l86 -152h-61l-55 119l-56 -119h-60z" />
    <glyph glyph-name="otilde" unicode="&#xf5;" horiz-adv-x="564" 
d="M52 194v112q0 93 61 148.5t168 55.5q108 0 169.5 -55.5t61.5 -148.5v-112q0 -93 -61.5 -148.5t-169.5 -55.5q-107 0 -168 55.5t-61 148.5zM116 308v-114q0 -73 44 -117.5t121 -44.5t121.5 44.5t44.5 117.5v111q0 73 -44.5 118t-121.5 45q-76 0 -120.5 -44.5t-44.5 -115.5
zM147 625l-13 37q51 42 94 42q26 0 60 -19t55 -19q36 0 79 37l17 -33q-12 -15 -40.5 -32.5t-55.5 -17.5q-23 0 -57.5 19t-57.5 19q-40 0 -81 -33z" />
    <glyph glyph-name="odieresis" unicode="&#xf6;" horiz-adv-x="564" 
d="M52 194v112q0 93 61 148.5t168 55.5q108 0 169.5 -55.5t61.5 -148.5v-112q0 -93 -61.5 -148.5t-169.5 -55.5q-107 0 -168 55.5t-61 148.5zM116 308v-114q0 -73 44 -117.5t121 -44.5t121.5 44.5t44.5 117.5v111q0 73 -44.5 118t-121.5 45q-76 0 -120.5 -44.5t-44.5 -115.5
zM167 703h77v-122h-77v122zM320 703h76v-122h-76v122z" />
    <glyph glyph-name="ugrave" unicode="&#xf9;" horiz-adv-x="573" 
d="M77 500h62v-334q0 -131 111 -131q54 0 105 21t80 47v397h61v-500h-61v60q-34 -26 -92.5 -48t-111.5 -22q-78 0 -116 44t-38 122v344zM305 749l35 -189l-46 -10l-61 199h72z" />
    <glyph glyph-name="uacute" unicode="&#xfa;" horiz-adv-x="573" 
d="M77 500h62v-334q0 -131 111 -131q54 0 105 21t80 47v397h61v-500h-61v60q-34 -26 -92.5 -48t-111.5 -22q-78 0 -116 44t-38 122v344zM233 558l35 192h72l-63 -199z" />
    <glyph glyph-name="ucircumflex" unicode="&#xfb;" horiz-adv-x="573" 
d="M77 500h62v-334q0 -131 111 -131q54 0 105 21t80 47v397h61v-500h-61v60q-34 -26 -92.5 -48t-111.5 -22q-78 0 -116 44t-38 122v344zM255 735h62l85 -152h-61l-55 119l-55 -119h-60z" />
    <glyph glyph-name="udieresis" unicode="&#xfc;" horiz-adv-x="573" 
d="M77 500h62v-334q0 -131 111 -131q54 0 105 21t80 47v397h61v-500h-61v60q-34 -26 -92.5 -48t-111.5 -22q-78 0 -116 44t-38 122v344zM172 703h76v-122h-76v122zM324 703h76v-122h-76v122z" />
    <glyph glyph-name="Amacron" unicode="&#x100;" horiz-adv-x="606" 
d="M517 0l-72 214h-285l-72 -214h-68l244 700h80l242 -700h-69zM303 644l-130 -385h259zM158 782v55h290v-55h-290z" />
    <glyph glyph-name="amacron" unicode="&#x101;" 
d="M98 436l-12 44q93 30 192 30q58 0 94.5 -12.5t53 -39.5t21.5 -54t5 -70v-334h-61v39q-82 -50 -159 -50q-179 0 -179 151q0 67 50.5 102t133.5 35h154v81q0 58 -27.5 83.5t-86.5 25.5q-84 0 -179 -31zM246 32q58 0 145 42v163h-146q-62 0 -94.5 -30.5t-32.5 -66.5
q0 -108 128 -108zM130 593v55h290v-55h-290z" />
    <glyph glyph-name="Ccaron" unicode="&#x10c;" horiz-adv-x="573" 
d="M501 81l14 -51q-115 -40 -186 -40q-271 0 -271 277v166q0 277 271 277q71 0 186 -40l-15 -51q-113 39 -171 39q-108 0 -156.5 -56t-48.5 -170v-164q0 -226 205 -226q55 0 172 39zM345 782h-62l-83 152h62l54 -119l56 119h60z" />
    <glyph glyph-name="ccaron" unicode="&#x10d;" horiz-adv-x="477" 
d="M437 75l11 -46q-97 -39 -166 -39q-108 0 -168.5 57.5t-60.5 162.5v79q0 104 61 162.5t168 58.5q86 0 166 -39l-12 -46q-84 41 -148 41q-84 0 -127 -47t-43 -132v-74q0 -86 43 -132.5t127 -46.5q51 0 149 41zM306 583h-62l-83 152h62l54 -119l56 119h60z" />
    <glyph glyph-name="Emacron" unicode="&#x112;" horiz-adv-x="565" 
d="M160 358v-310h348v-48h-412v700h412v-48h-348v-248h305v-46h-305zM164 782v55h290v-55h-290z" />
    <glyph glyph-name="emacron" unicode="&#x113;" 
d="M459 73l8 -45q-112 -38 -184 -38q-110 0 -170 44t-60 148v105q0 105 51.5 164t160.5 59q103 0 157.5 -50.5t54.5 -149.5v-82h-358v-48q0 -79 42 -113.5t125 -34.5q57 0 173 41zM119 302v-33h297v51q0 73 -38.5 111t-112.5 38q-146 0 -146 -167zM139 593v55h290v-55h-290z
" />
    <glyph glyph-name="Gcommaaccent" unicode="&#x122;" horiz-adv-x="614" 
d="M556 27q-107 -37 -225 -37q-273 0 -273 276v167q0 277 273 277q116 0 210 -31l-15 -59q-93 41 -191 41q-112 0 -161.5 -56.5t-49.5 -172.5v-166q0 -229 207 -229q72 0 161 26v249l-174 11v43h238v-339zM298 -37h69v-60q0 -82 -48 -167l-24 8q31 66 31 122h-28v97z" />
    <glyph glyph-name="gcommaaccent" unicode="&#x123;" horiz-adv-x="585" 
d="M292 510q37 0 77.5 -10t61.5 -24q21 21 21 74h64q-1 -38 -12 -62.5t-42 -35.5q36 -39 36 -102q0 -83 -55 -115.5t-151 -32.5q-74 0 -105 9q-6 -6 -12 -24.5t-6 -33.5q0 -30 22 -56q29 7 101 7q52 0 91 -6.5t73 -22.5t51.5 -47t17.5 -76q0 -60 -33 -95t-81 -46t-119 -11
t-118.5 11t-80.5 46t-33 95q0 52 20 82.5t64 48.5q-32 36 -32 70q0 36 32 74q-58 30 -58 123q0 84 56.5 122t149.5 38zM459 -48q0 111 -167 111q-89 0 -127.5 -28.5t-38.5 -82.5q0 -112 166 -112q167 0 167 112zM432 350q0 122 -140 122t-140 -122q0 -60 32.5 -86t107.5 -26
q140 0 140 112zM318 570h-69v60q0 82 48 167l24 -8q-31 -66 -31 -122h28v-97z" />
    <glyph glyph-name="uni012A" unicode="&#x12a;" horiz-adv-x="357" 
d="M30 656v44h296v-44h-116v-612h117v-44h-296v44h115v612h-116zM33 782v55h290v-55h-290z" />
    <glyph glyph-name="imacron" unicode="&#x12b;" horiz-adv-x="215" 
d="M77 500h61v-500h-61v500zM-37 593v55h290v-55h-290z" />
    <glyph glyph-name="dotlessi" unicode="&#x131;" horiz-adv-x="215" 
d="M77 500h61v-500h-61v500z" />
    <glyph glyph-name="Kcommaaccent" unicode="&#x136;" horiz-adv-x="626" 
d="M160 700v-312h12l343 312h88l-361 -323l363 -377h-83l-350 364h-12v-364h-64v700h64zM280 -37h69v-60q0 -82 -48 -167l-24 8q31 66 31 122h-28v97z" />
    <glyph glyph-name="kcommaaccent" unicode="&#x137;" horiz-adv-x="505" 
d="M138 700v-430h9l250 230h88l-280 -238l280 -262h-83l-255 252h-9v-252h-61v700h61zM227 -37h69v-60q0 -82 -48 -167l-24 8q31 66 31 122h-28v97z" />
    <glyph glyph-name="Lcommaaccent" unicode="&#x13b;" horiz-adv-x="584" 
d="M96 0v700h64v-644h368v-56h-432zM276 -37h69v-60q0 -82 -48 -167l-24 8q31 66 31 122h-28v97z" />
    <glyph glyph-name="lcommaaccent" unicode="&#x13c;" horiz-adv-x="215" 
d="M138 0h-61v750h61v-750zM74 -37h69v-60q0 -82 -48 -167l-24 8q31 66 31 122h-28v97z" />
    <glyph glyph-name="Ncommaaccent" unicode="&#x145;" horiz-adv-x="780" 
d="M624 60h4v640h56v-700h-73l-446 607q-9 11 -9 37h-4v-644h-56v700h73l445 -605q10 -13 10 -35zM357 -37h69v-60q0 -82 -48 -167l-24 8q31 66 31 122h-28v97z" />
    <glyph glyph-name="ncommaaccent" unicode="&#x146;" horiz-adv-x="572" 
d="M495 0h-61v334q0 72 -27.5 101.5t-101.5 29.5q-44 0 -92 -21t-75 -47v-397h-61v500h61v-60q80 70 176 70q47 0 76.5 -6t55 -23.5t37.5 -52.5t12 -91v-337zM253 -37h69v-60q0 -82 -48 -167l-24 8q31 66 31 122h-28v97z" />
    <glyph glyph-name="OE" unicode="&#x152;" horiz-adv-x="982" 
d="M577 358v-310h348v-48h-412q-103 -10 -150 -10q-143 0 -223 79.5t-80 195.5v169q0 116 80 196t223 80q55 0 150 -10h412v-48h-348v-248h305v-46h-305zM130 431v-186q8 -96 69.5 -153.5t163.5 -57.5q79 0 150 12v606q-80 14 -150 14q-100 0 -166.5 -67t-66.5 -168z" />
    <glyph glyph-name="oe" unicode="&#x153;" horiz-adv-x="923" 
d="M853 73l8 -45q-112 -38 -184 -38q-81 0 -130 23.5t-73 75.5q-59 -99 -193 -99q-107 0 -168 55.5t-61 148.5v112q0 93 61 148.5t168 55.5q136 0 197 -100q31 54 73.5 77t107.5 23q103 0 157.5 -50.5t54.5 -149.5v-82h-359v-48q0 -78 42.5 -113t125.5 -35q57 0 173 41z
M117 308v-114q0 -73 43.5 -117.5t120.5 -44.5t121.5 44.5t44.5 117.5v111q0 73 -44.5 118t-121.5 45q-75 0 -119.5 -44t-44.5 -116zM512 302v-33h298v51q0 73 -38.5 111t-112.5 38q-147 0 -147 -167z" />
    <glyph glyph-name="Scaron" unicode="&#x160;" horiz-adv-x="614" 
d="M309 710q107 0 231 -44l-12 -49q-117 47 -217 47q-94 0 -138 -38t-44 -89q0 -75 101 -120q40 -17 98 -35t92 -30.5t69 -34t51 -56.5t16 -88q0 -92 -70 -137.5t-177 -45.5q-71 0 -139.5 14t-110.5 32l11 49q129 -48 239 -48q50 0 86.5 12t54 28t27.5 38t11.5 34t1.5 24
q0 89 -111 124q-20 6 -68 19t-74 21.5t-64 27t-58.5 40t-36 57t-15.5 80.5q0 82 70.5 125t175.5 43zM336 781h-62l-83 152h62l54 -119l56 119h60z" />
    <glyph glyph-name="scaron" unicode="&#x161;" horiz-adv-x="505" 
d="M258 510q79 0 178 -33l-12 -42q-94 32 -167 32t-105.5 -30t-32.5 -66q0 -49 53 -70q25 -9 70 -19.5t77 -19.5t65.5 -25.5t51 -45.5t17.5 -72q0 -40 -15 -67t-44 -40t-60.5 -17.5t-76.5 -4.5q-97 0 -204 35l8 44q118 -37 192 -37q48 0 78.5 8.5t42 24t14.5 25.5t3 26
q0 51 -57 77q-24 11 -66 21t-75.5 18.5t-66 23.5t-51 43.5t-18.5 71.5q0 72 55.5 105.5t145.5 33.5zM281 583h-62l-83 152h62l54 -119l56 119h60z" />
    <glyph glyph-name="Umacron" unicode="&#x16a;" horiz-adv-x="652" 
d="M515 700h59v-450q0 -125 -55.5 -192.5t-181.5 -67.5q-132 0 -195.5 68.5t-63.5 191.5v450h66v-460q0 -201 194 -201q91 0 134 49t43 152v460zM192 782v55h290v-55h-290z" />
    <glyph glyph-name="umacron" unicode="&#x16b;" horiz-adv-x="573" 
d="M77 500h61v-334q0 -72 27.5 -101.5t101.5 -29.5q44 0 92 21t76 47v397h61v-500h-61v60q-82 -69 -177 -69q-93 0 -137 34.5t-44 130.5v344zM146 593v55h290v-55h-290z" />
    <glyph glyph-name="Zcaron" unicode="&#x17d;" horiz-adv-x="598" 
d="M64 649v51h487v-44l-422 -605h424v-51h-508v44l423 605h-404zM337 782h-62l-83 152h62l54 -119l56 119h60z" />
    <glyph glyph-name="zcaron" unicode="&#x17e;" horiz-adv-x="516" 
d="M71 456v44h390v-35l-329 -421h328v-44h-408v35l330 421h-311zM299 583h-62l-83 152h62l54 -119l56 119h60z" />
    <glyph glyph-name="circumflex" unicode="&#x2c6;" horiz-adv-x="412" 
d="M174 735h62l86 -152h-62l-54 119l-56 -119h-60z" />
    <glyph glyph-name="caron" unicode="&#x2c7;" horiz-adv-x="232" 
d="M145 583h-62l-83 152h62l54 -119l56 119h60z" />
    <glyph glyph-name="tilde" unicode="&#x2dc;" horiz-adv-x="485" 
d="M102 625l-12 37q51 42 94 42q26 0 60 -19t54 -19q37 0 80 37l17 -33q-12 -16 -41 -33t-56 -17q-22 0 -57 19t-57 19q-39 0 -82 -33z" />
    <glyph glyph-name="afii10023" unicode="&#x401;" horiz-adv-x="548" 
d="M150 358v-310h348v-48h-412v700h412v-48h-348v-248h305v-46h-305zM186 903h76v-122h-76v122zM338 903h76v-122h-76v122z" />
    <glyph glyph-name="afii10017" unicode="&#x410;" horiz-adv-x="604" 
d="M517 0l-72 214h-285l-72 -214h-68l244 700h80l242 -700h-69zM303 644l-130 -385h259z" />
    <glyph glyph-name="afii10018" unicode="&#x411;" horiz-adv-x="597" 
d="M160 651v-229h158q121 0 170.5 -53t49.5 -158q0 -46 -8.5 -80t-31 -65.5t-68 -48.5t-113.5 -17h-221v700h380v-49h-316zM306 376h-146v-330h146q81 0 122 36.5t41 128.5t-41 128.5t-122 36.5z" />
    <glyph glyph-name="afii10019" unicode="&#x412;" horiz-adv-x="594" 
d="M96 0v700h233q79 0 126 -41.5t47 -122.5q0 -118 -87 -151q125 -48 125 -184q0 -94 -50 -147.5t-175 -53.5h-219zM160 355v-310h148q81 0 122 35.5t41 121.5q0 82 -48 117.5t-115 35.5h-148zM321 655h-161v-255h161q112 0 112 133q0 57 -28.5 89.5t-83.5 32.5z" />
    <glyph glyph-name="afii10020" unicode="&#x413;" horiz-adv-x="502" 
d="M160 0h-64v700h376v-51h-312v-649z" />
    <glyph glyph-name="afii10021" unicode="&#x414;" horiz-adv-x="727" 
d="M188 700h402v-651h80l-10 -249h-54v200h-512l-9 -200h-55v249h53q30 39 51 104.5t31.5 126.5t16 151.5t6 139.5t0.5 129zM526 649h-279q0 -7 -1.5 -66.5t-3 -89t-5 -91t-10.5 -102.5t-17.5 -91.5t-27 -90.5t-37.5 -69h381v600z" />
    <glyph glyph-name="afii10022" unicode="&#x415;" horiz-adv-x="565" 
d="M160 358v-310h348v-48h-412v700h412v-48h-348v-248h305v-46h-305z" />
    <glyph glyph-name="afii10024" unicode="&#x416;" horiz-adv-x="807" 
d="M301 379l-279 321h78l264 -311h8v311h64v-311h8l263 311h79l-280 -321l289 -379h-74l-278 369h-7v-369h-64v369h-8l-268 -369h-75z" />
    <glyph glyph-name="afii10025" unicode="&#x417;" horiz-adv-x="587" 
d="M58 30l10 52q2 -1 28 -10t46.5 -15t55 -12t65.5 -6q96 0 147 32.5t51 113.5q0 170 -210 170h-69v44h90q64 0 106.5 34t42.5 98q0 131 -149 131q-91 0 -183 -39l-15 47q91 40 199 40q106 0 161 -38.5t55 -133.5q0 -123 -117 -154q82 -22 120.5 -65.5t38.5 -135.5
q0 -107 -70 -150t-198 -43q-59 0 -120 15t-85 25z" />
    <glyph glyph-name="afii10026" unicode="&#x418;" horiz-adv-x="745" 
d="M96 700h64v-604l427 604h63v-700h-64v604l-428 -604h-62v700z" />
    <glyph glyph-name="afii10027" unicode="&#x419;" horiz-adv-x="745" 
d="M177 882h55q0 -15 3.5 -26t16.5 -26.5t46 -24t84 -8.5t83.5 8.5t45.5 24t16.5 26.5t3.5 26h56v-20q0 -30 -19.5 -51.5t-52.5 -32.5t-65.5 -15.5t-67.5 -4.5q-34 0 -66 4.5t-65.5 15t-53.5 32.5t-20 52v20zM96 700h64v-604l427 604h63v-700h-64v604l-428 -604h-62v700z
" />
    <glyph glyph-name="afii10028" unicode="&#x41a;" horiz-adv-x="626" 
d="M160 700v-312h12l343 312h88l-361 -323l363 -377h-83l-350 364h-12v-364h-64v700h64z" />
    <glyph glyph-name="afii10029" unicode="&#x41b;" horiz-adv-x="687" 
d="M194 700h397v-700h-64v648h-278q0 -54 -1.5 -97.5t-4 -105.5t-8 -111t-14 -104t-21.5 -95.5t-30 -74.5t-40.5 -52t-52.5 -18q-20 0 -36 4l-12 58q13 -3 30 -3q71 1 103 162t32 489z" />
    <glyph glyph-name="afii10030" unicode="&#x41c;" horiz-adv-x="913" 
d="M455 49h4q0 21 10 44l239 607h70l60 -700h-66l-48 560v39h-4q0 -13 -10 -39l-224 -560h-60l-228 559q-10 25 -10 40h-4v-39l-42 -560h-66l59 700h70l240 -607q10 -23 10 -44z" />
    <glyph glyph-name="afii10031" unicode="&#x41d;" horiz-adv-x="712" 
d="M552 700h64v-700h-64v358h-392v-358h-64v700h64v-293h392v293z" />
    <glyph glyph-name="afii10032" unicode="&#x41e;" horiz-adv-x="714" 
d="M54 265v169q0 116 80 196t223 80t223 -80t80 -196v-169q0 -116 -80 -195.5t-223 -79.5t-223 79.5t-80 195.5zM124 431v-186q8 -96 69.5 -153.5t163.5 -57.5q109 0 171 64.5t62 170.5v162q0 99 -63 167t-170 68q-100 0 -166.5 -67t-66.5 -168z" />
    <glyph glyph-name="afii10033" unicode="&#x41f;" horiz-adv-x="730" 
d="M160 0h-64v700h538v-700h-64v649h-410v-649z" />
    <glyph glyph-name="afii10034" unicode="&#x420;" horiz-adv-x="598" 
d="M96 700h209q124 0 179.5 -44.5t55.5 -163.5q0 -122 -57 -174t-178 -52h-145v-266h-64v700zM160 651v-337h143q37 0 63.5 6.5t52 24t39 54.5t13.5 93q0 89 -42 124t-126 35h-143z" />
    <glyph glyph-name="afii10035" unicode="&#x421;" horiz-adv-x="573" 
d="M501 81l14 -51q-115 -40 -186 -40q-271 0 -271 277v166q0 277 271 277q71 0 186 -40l-15 -51q-113 39 -171 39q-108 0 -156.5 -56t-48.5 -170v-164q0 -226 205 -226q55 0 172 39z" />
    <glyph glyph-name="afii10036" unicode="&#x422;" horiz-adv-x="567" 
d="M38 644v56h491v-56h-214v-644h-64v644h-213z" />
    <glyph glyph-name="afii10037" unicode="&#x423;" horiz-adv-x="598" 
d="M293 131q-9 3 -22 15.5t-19 27.5l-232 526h73l220 -519h4l197 519h64l-210 -541q-42 -93 -75.5 -131t-92.5 -38q-82 0 -150 27l15 49q63 -28 132 -28q32 0 53 21.5t43 71.5z" />
    <glyph glyph-name="afii10038" unicode="&#x424;" horiz-adv-x="829" 
d="M383 731h64v-87h72q124 0 188.5 -61.5t64.5 -183.5v-58q0 -119 -65 -182t-188 -63h-72v-96h-64v96h-73q-123 0 -187.5 63t-64.5 182v58q0 245 252 245h73v87zM517 598h-70v-456h70q95 0 140.5 46.5t45.5 143.5v76q0 190 -186 190zM127 332q0 -190 186 -190h70v456h-70
q-186 0 -186 -190v-76z" />
    <glyph glyph-name="afii10039" unicode="&#x425;" horiz-adv-x="612" 
d="M102 700l210 -305l202 305h78l-246 -352l246 -348h-82l-214 307l-199 -307h-77l242 352l-242 348h82z" />
    <glyph glyph-name="afii10040" unicode="&#x426;" horiz-adv-x="751" 
d="M96 700h64v-651h389v651h64v-651h80l-8 -241h-56v192h-533v700z" />
    <glyph glyph-name="afii10041" unicode="&#x427;" horiz-adv-x="615" 
d="M76 700h64v-260q0 -77 34.5 -103.5t112.5 -26.5q105 0 169 6v384h64v-700h-64v264q-87 -6 -171 -6q-46 0 -80.5 7.5t-65 26.5t-47 55.5t-16.5 90.5v262z" />
    <glyph glyph-name="afii10042" unicode="&#x428;" horiz-adv-x="915" 
d="M426 700h64v-651h266v651h64v-700h-724v700h64v-651h266v651z" />
    <glyph glyph-name="afii10043" unicode="&#x429;" horiz-adv-x="957" 
d="M426 700h64v-651h266v651h64v-651h80l-9 -241h-55v192h-740v700h64v-651h266v651z" />
    <glyph glyph-name="afii10044" unicode="&#x42a;" horiz-adv-x="669" 
d="M374 380q-66 0 -143 -12v-323h143q84 0 126 37t42 131t-42 130.5t-126 36.5zM167 653h-138l6 47h196v-286q87 14 146 14q123 0 178.5 -52t55.5 -163t-55 -162t-179 -51h-210v653z" />
    <glyph glyph-name="afii10045" unicode="&#x42b;" horiz-adv-x="803" 
d="M644 0v700h64v-700h-64zM302 380q84 0 126 -36.5t42 -130.5q0 -95 -41.5 -131.5t-126.5 -36.5h-142v323q77 12 142 12zM96 0h209q124 0 179.5 51t55.5 162t-56 163t-179 52q-57 0 -145 -14v286h-64v-700z" />
    <glyph glyph-name="afii10046" unicode="&#x42c;" horiz-adv-x="598" 
d="M302 380q-66 0 -142 -12v-323h142q85 0 126.5 36.5t41.5 131.5q0 94 -42 130.5t-126 36.5zM305 0h-209v700h64v-286q88 14 145 14q123 0 179 -52t56 -163t-55.5 -162t-179.5 -51z" />
    <glyph glyph-name="afii10047" unicode="&#x42d;" horiz-adv-x="560" 
d="M435 351h-275v44h275v12q-1 131 -58.5 191.5t-150.5 60.5q-65 0 -162 -38l-15 49q91 40 182 40q273 0 273 -277v-166q0 -130 -71 -203.5t-202 -73.5q-102 0 -192 40l15 49q94 -40 177 -40q47 0 81.5 12.5t63.5 43t44 89t15 143.5v24z" />
    <glyph glyph-name="afii10048" unicode="&#x42e;" horiz-adv-x="882" 
d="M289 245v104h-129v-349h-64v700h64v-306h129v59q0 114 68 185.5t200 71.5t199.5 -72t67.5 -190v-198q0 -118 -67.5 -189t-199.5 -71t-200 70.5t-68 184.5zM358 460v-220q0 -88 51.5 -145.5t147.5 -57.5q95 0 146.5 57.5t51.5 145.5v220q0 88 -51.5 145.5t-146.5 57.5
q-93 0 -146 -58t-53 -145z" />
    <glyph glyph-name="afii10049" unicode="&#x42f;" horiz-adv-x="662" 
d="M314 333h189v317h-189q-83 0 -125.5 -35t-42.5 -123t42.5 -123.5t125.5 -35.5zM316 700h251v-700h-64v287h-163l-184 -287h-76l195 290q-99 2 -148.5 56.5t-49.5 147.5q0 206 239 206z" />
    <glyph glyph-name="afii10065" unicode="&#x430;" 
d="M98 436l-12 44q93 30 192 30q58 0 94.5 -12.5t53 -39.5t21.5 -54t5 -70v-334h-61v39q-82 -50 -159 -50q-179 0 -179 151q0 67 50.5 102t133.5 35h154v81q0 58 -27.5 83.5t-86.5 25.5q-84 0 -179 -31zM246 32q58 0 145 42v163h-146q-62 0 -94.5 -30.5t-32.5 -66.5
q0 -108 128 -108z" />
    <glyph glyph-name="afii10066" unicode="&#x431;" horiz-adv-x="581" 
d="M67 192v262q0 86 34.5 137.5t111.5 71.5l168 44q28 7 40.5 11t27.5 15t17 27l42 -27q-3 -27 -20 -44t-39 -23l-214 -55q-51 -13 -81 -56t-30 -99v-118q12 58 63 99.5t122 41.5q101 0 159.5 -50t58.5 -151v-92q0 -89 -57.5 -147t-172.5 -58t-172.5 59t-57.5 152zM297 26
q76 0 120.5 45t44.5 116v90q0 70 -44.5 114.5t-120.5 44.5q-74 0 -119.5 -56t-45.5 -131v-62q0 -73 44.5 -117t120.5 -44z" />
    <glyph glyph-name="afii10067" unicode="&#x432;" 
d="M77 0v500h210q72 0 110 -27t38 -95q0 -71 -63 -104q108 -21 108 -130q0 -85 -49 -114.5t-150 -29.5h-204zM278 242h-140v-202h139q73 0 105.5 23t32.5 82q0 50 -32.5 73.5t-104.5 23.5zM138 278h139q93 0 93 96q0 86 -93 86h-139v-182z" />
    <glyph glyph-name="afii10068" unicode="&#x433;" horiz-adv-x="411" 
d="M138 0h-61v500h305v-51h-244v-449z" />
    <glyph glyph-name="afii10069" unicode="&#x434;" horiz-adv-x="609" 
d="M167 500h324v-456h59l-7 -204h-53v160h-400l-7 -160h-53v204h47q26 27 44 72.5t26.5 87.5t13.5 105t5.5 97.5t0.5 93.5zM430 458h-204q0 -86 -3.5 -141.5t-23.5 -134.5t-59 -138h290v414z" />
    <glyph glyph-name="afii10070" unicode="&#x435;" 
d="M459 73l8 -45q-112 -38 -184 -38q-110 0 -170 44t-60 148v105q0 105 51.5 164t160.5 59q103 0 157.5 -50.5t54.5 -149.5v-82h-358v-48q0 -79 42 -113.5t125 -34.5q57 0 173 41zM119 302v-33h297v51q0 73 -38.5 111t-112.5 38q-146 0 -146 -167z" />
    <glyph glyph-name="afii10072" unicode="&#x436;" horiz-adv-x="686" 
d="M21 500h77l206 -233h9v233h61v-233h10l204 233h78l-225 -240l224 -260h-77l-204 253h-10v-253h-61v253h-9l-208 -253h-76l227 260z" />
    <glyph glyph-name="afii10073" unicode="&#x437;" horiz-adv-x="511" 
d="M53 30l15 42q7 -4 27.5 -12.5t57 -18t66.5 -9.5q86 0 130 30.5t44 85.5q0 13 -1 22.5t-9.5 27.5t-23.5 29.5t-47 21t-76 9.5h-105v39h102q15 0 31.5 2.5t39 10.5t36.5 27.5t14 47.5q0 38 -34.5 60.5t-100.5 22.5q-29 0 -73 -12.5t-71 -25.5l-15 42q30 13 79.5 25.5
t84.5 12.5q99 0 147 -26t48 -94q0 -73 -85 -100q29 -9 46 -17t38 -23.5t31 -41t10 -61.5q0 -157 -235 -157q-91 0 -171 40z" />
    <glyph glyph-name="afii10074" unicode="&#x438;" horiz-adv-x="584" 
d="M77 500h62v-411l310 411h58v-500h-61v410l-311 -410h-58v500z" />
    <glyph glyph-name="afii10075" unicode="&#x439;" horiz-adv-x="584" 
d="M104 705h56q0 -15 3 -22q1 -8 2 -13t8 -15.5t19.5 -17t38.5 -12t62 -5.5q133 0 133 85h56v-20q0 -31 -17.5 -53.5t-47 -33t-59.5 -15t-65 -4.5q-189 0 -189 106v20zM77 500h62v-411l310 411h58v-500h-61v410l-311 -410h-58v500z" />
    <glyph glyph-name="afii10076" unicode="&#x43a;" horiz-adv-x="505" 
d="M138 500v-225h4l255 225h88l-280 -238l280 -262h-83l-260 247h-4v-247h-61v500h61z" />
    <glyph glyph-name="afii10077" unicode="&#x43b;" horiz-adv-x="573" 
d="M177 500h319v-500h-61v457h-205q0 -50 -1 -86t-4.5 -87.5t-10 -88.5t-18.5 -77.5t-29 -65.5t-43 -41.5t-59 -16.5q-12 0 -28 6l-8 54q22 -4 29 -4q35 0 60 42.5t37 114t17 142.5t5 151z" />
    <glyph glyph-name="afii10078" unicode="&#x43c;" horiz-adv-x="774" 
d="M173 414l-34 -414h-63l48 500h68l195 -452l194 452h68l49 -500h-64l-33 414l-180 -414h-70z" />
    <glyph glyph-name="afii10079" unicode="&#x43d;" horiz-adv-x="575" 
d="M437 500h62v-500h-62v243h-298v-243h-62v500h62v-211h298v211z" />
    <glyph glyph-name="afii10080" unicode="&#x43e;" horiz-adv-x="564" 
d="M52 194v112q0 93 61 148.5t168 55.5q108 0 169.5 -55.5t61.5 -148.5v-112q0 -93 -61.5 -148.5t-169.5 -55.5q-107 0 -168 55.5t-61 148.5zM117 308v-114q0 -73 43.5 -117.5t120.5 -44.5t121.5 44.5t44.5 117.5v111q0 73 -44.5 118t-121.5 45q-75 0 -119.5 -44t-44.5 -116
z" />
    <glyph glyph-name="afii10081" unicode="&#x43f;" horiz-adv-x="566" 
d="M139 0h-62v500h413v-500h-62v456h-289v-456z" />
    <glyph glyph-name="afii10082" unicode="&#x440;" horiz-adv-x="568" 
d="M282 465q-73 0 -143 -45v-340q77 -45 145 -45q33 0 59.5 9t52.5 30.5t40 66t14 109.5q0 215 -168 215zM78 -200v700h61v-39q72 47 147 47q229 0 229 -258q0 -259 -225 -259q-72 0 -151 45v-236h-61z" />
    <glyph glyph-name="afii10083" unicode="&#x441;" horiz-adv-x="477" 
d="M437 75l11 -46q-97 -39 -166 -39q-108 0 -168.5 57.5t-60.5 162.5v79q0 104 61 162.5t168 58.5q86 0 166 -39l-12 -46q-84 41 -148 41q-84 0 -127 -47t-43 -132v-74q0 -86 43 -132.5t127 -46.5q51 0 149 41z" />
    <glyph glyph-name="afii10084" unicode="&#x442;" horiz-adv-x="475" 
d="M30 452v48h415v-48h-176v-452h-62v452h-177z" />
    <glyph glyph-name="afii10085" unicode="&#x443;" horiz-adv-x="531" 
d="M230 -112l45 112q-15 2 -30 14t-22 28l-203 458h74l174 -411q17 -40 19 -61h4q3 20 18 61l143 411h59l-170 -478q-31 -86 -66 -162q-42 -90 -129 -90q-57 0 -109 24l15 45q48 -20 86 -20q33 0 54 14.5t38 54.5z" />
    <glyph glyph-name="afii10086" unicode="&#x444;" horiz-adv-x="777" 
d="M358 700h61v-213q46 23 92 23q214 0 214 -251q0 -126 -52 -197.5t-162 -71.5q-49 0 -92 23v-213h-61v213q-41 -23 -92 -23q-110 0 -162 71.5t-52 197.5q0 251 214 251q36 0 92 -23v213zM277 33q42 0 81 22v390q-46 22 -81 22q-80 0 -120 -56t-40 -152q0 -226 160 -226z
M500 467q-44 0 -81 -22v-390q37 -22 81 -22q160 0 160 226q0 97 -40 152.5t-120 55.5z" />
    <glyph glyph-name="afii10087" unicode="&#x445;" horiz-adv-x="507" 
d="M97 500l163 -222l155 222h72l-197 -255l197 -245h-77l-166 211l-151 -211h-73l190 251l-190 249h77z" />
    <glyph glyph-name="afii10088" unicode="&#x446;" horiz-adv-x="585" 
d="M77 500h61v-456h278v456h61v-456h60l-7 -204h-55v160h-398v500z" />
    <glyph glyph-name="afii10089" unicode="&#x447;" horiz-adv-x="535" 
d="M67 500h61v-153q0 -71 27 -100.5t102 -29.5q33 0 141 14v269h61v-500h-61v188q-82 -16 -149 -16q-94 0 -138 43.5t-44 143.5v141z" />
    <glyph glyph-name="afii10090" unicode="&#x448;" horiz-adv-x="781" 
d="M360 500h61v-456h222v456h61v-500h-627v500h61v-456h222v456z" />
    <glyph glyph-name="afii10091" unicode="&#x449;" horiz-adv-x="813" 
d="M77 0v500h61v-456h222v456h61v-456h222v456h61v-456h60l-7 -204h-55v160h-625z" />
    <glyph glyph-name="afii10092" unicode="&#x44a;" horiz-adv-x="575" 
d="M29 457l2 43h185v-193h122q91 0 137.5 -33.5t46.5 -117.5q0 -89 -47.5 -122.5t-139.5 -33.5h-180v457h-126zM336 266h-120v-225h121q69 0 94.5 26t25.5 89q0 55 -25.5 82.5t-95.5 27.5z" />
    <glyph glyph-name="afii10093" unicode="&#x44b;" horiz-adv-x="678" 
d="M540 0v500h61v-500h-61zM77 0v500h61v-193h122q91 0 137 -33.5t46 -117.5q0 -89 -47.5 -122.5t-139.5 -33.5h-179zM258 266h-120v-225h121q69 0 94 26t25 89q0 55 -25.5 82.5t-94.5 27.5z" />
    <glyph glyph-name="afii10094" unicode="&#x44c;" horiz-adv-x="497" 
d="M77 0v500h61v-193h122q91 0 137 -33.5t46 -117.5q0 -89 -47.5 -122.5t-139.5 -33.5h-179zM258 266h-120v-225h121q69 0 94 26t25 89q0 55 -25.5 82.5t-94.5 27.5z" />
    <glyph glyph-name="afii10095" unicode="&#x44d;" horiz-adv-x="503" 
d="M385 237h-253v43h253v13q0 83 -43 128.5t-127 45.5q-71 0 -149 -41l-13 45q78 39 169 39q108 0 168 -58t60 -163v-79q0 -106 -60 -163t-168 -57q-82 0 -169 39l12 45q96 -41 150 -41q84 0 127 45.5t43 129.5v29z" />
    <glyph glyph-name="afii10096" unicode="&#x44e;" horiz-adv-x="778" 
d="M266 237h-128v-237h-61v500h61v-221h128v39q0 89 62.5 140.5t166.5 51.5q106 0 168 -55t62 -150v-110q0 -95 -62 -150t-168 -55q-104 0 -166.5 57.5t-62.5 160.5v29zM331 305v-110q0 -73 44 -117.5t120 -44.5t120.5 44t44.5 116v111q0 73 -44 118t-121 45
q-76 0 -120 -44.5t-44 -117.5z" />
    <glyph glyph-name="afii10097" unicode="&#x44f;" horiz-adv-x="561" 
d="M252 500h233v-500h-61v185h-129l-160 -185h-78l173 187q-81 1 -124.5 33.5t-43.5 116.5q0 163 190 163zM127 338q0 -60 30.5 -86t99.5 -26h167v232h-167q-68 0 -99 -30t-31 -90z" />
    <glyph glyph-name="afii10071" unicode="&#x451;" horiz-adv-x="509" 
d="M449 73l8 -45q-112 -38 -184 -38q-110 0 -170 44t-60 148v105q0 105 51.5 164t160.5 59q103 0 157.5 -50.5t54.5 -149.5v-79h-359v-51q0 -78 42.5 -113t125.5 -35q57 0 173 41zM108 302v-37h297v55q0 149 -150 149q-147 0 -147 -167zM140 703h76v-122h-76v122zM292 703
h76v-122h-76v122z" />
    <glyph glyph-name="endash" unicode="&#x2013;" horiz-adv-x="680" 
d="M90 320v58h500v-58h-500z" />
    <glyph glyph-name="emdash" unicode="&#x2014;" horiz-adv-x="950" 
d="M90 320v58h770v-58h-770z" />
    <glyph glyph-name="quoteleft" unicode="&#x2018;" horiz-adv-x="265" 
d="M173 481h-83v71q0 95 58 198l27 -10q-37 -78 -37 -144h35v-115z" />
    <glyph glyph-name="quoteright" unicode="&#x2019;" horiz-adv-x="265" 
d="M93 700h82v-71q0 -97 -57 -198l-28 11q37 76 37 143h-34v115z" />
    <glyph glyph-name="quotesinglbase" unicode="&#x201a;" horiz-adv-x="265" 
d="M93 115h82v-71q0 -97 -57 -198l-28 10q37 78 37 144h-34v115z" />
    <glyph glyph-name="quotedblleft" unicode="&#x201c;" horiz-adv-x="398" 
d="M306 481h-83v71q0 93 57 198l28 -10q-37 -78 -37 -144h35v-115zM173 481h-83v71q0 95 58 198l27 -10q-37 -78 -37 -144h35v-115z" />
    <glyph glyph-name="quotedblright" unicode="&#x201d;" horiz-adv-x="398" 
d="M93 700h82v-71q0 -97 -57 -198l-28 11q37 76 37 143h-34v115zM225 700h83v-71q0 -97 -57 -198l-28 11q37 76 37 143h-35v115z" />
    <glyph glyph-name="quotedblbase" unicode="&#x201e;" horiz-adv-x="398" 
d="M93 115h82v-71q0 -97 -57 -198l-28 10q37 78 37 144h-34v115zM225 115h83v-71q0 -97 -57 -198l-28 10q37 78 37 144h-35v115z" />
    <glyph glyph-name="bullet" unicode="&#x2022;" horiz-adv-x="339" 
d="M86 291q0 85 83 85q44 0 64.5 -23.5t20.5 -61.5q0 -84 -85 -84q-83 0 -83 84z" />
    <glyph glyph-name="ellipsis" unicode="&#x2026;" horiz-adv-x="587" 
d="M85 115h82v-115h-82v115zM252 115h83v-115h-83v115zM420 115h82v-115h-82v115z" />
    <glyph glyph-name="Euro" unicode="&#x20ac;" horiz-adv-x="688" 
d="M101 396l-11 39h51v15q0 260 264 260q95 0 192 -42l-15 -47q-91 40 -171 40q-206 0 -206 -211v-15h343l-7 -39h-336v-83h321l-7 -39h-314v-23q0 -98 53 -155t153 -57q68 0 173 40l14 -49q-105 -40 -193 -40q-127 0 -195.5 67.5t-68.5 193.5v23h-40l-11 39h51v83h-40z" />
    <glyph glyph-name="afii61352" unicode="&#x2116;" horiz-adv-x="1205" 
d="M776 700l8 -42h-80q-58 0 -86 -39t-28 -101v-518h-73l-375 613v-613h-56v700h73l375 -612v449q0 78 43.5 120.5t117.5 42.5h81zM688 363v43q0 167 195 167q196 0 196 -167v-43q0 -166 -196 -166q-195 0 -195 166zM745 406v-43q0 -61 32 -92t106 -31t106 31t32 92v43
q0 62 -32 93.5t-106 31.5t-106 -31.5t-32 -93.5z" />
    <glyph glyph-name="trademark" unicode="&#x2122;" horiz-adv-x="866" 
d="M59 663v37h246v-37h-103v-312h-41v312h-102zM430 646l-24 -295h-41l30 349h52l126 -306l126 306h52l30 -349h-40l-25 295l-119 -295h-48z" />
    <glyph glyph-name="notequal" unicode="&#x2260;" horiz-adv-x="680" 
d="M90 245v54h500v-54h-500zM90 401v54h500v-54h-500z" />
    <glyph glyph-name="CR" horiz-adv-x="220" 
 />
    <glyph glyph-name="commaaccent" horiz-adv-x="72" 
d="M3 -37h69v-60q0 -82 -48 -167l-24 8q31 66 31 122h-28v97z" />
    </font>
</defs>
</svg>
