<?xml version="1.0" standalone="no"?>
<!DOCTYPE svg PUBLIC "-//W3C//DTD SVG 1.1//EN" "http://www.w3.org/Graphics/SVG/1.1/DTD/svg11.dtd" >
<svg xmlns="http://www.w3.org/2000/svg" xmlns:xlink="http://www.w3.org/1999/xlink" version="1.1">
<metadata>
Created by FontForge 20161003 at Fri Jan 13 11:56:05 2017
 By www-data
Copyright (c) 2006 by Art. Lebedev Studio. All rights reserved.
</metadata>
<defs>
<font id="ALSEkibastuzHeavy" horiz-adv-x="676" >
  <font-face 
    font-family="ALSEkibastuzHeavy"
    font-weight="900"
    font-stretch="normal"
    units-per-em="1000"
    panose-1="2 0 9 3 5 0 0 2 0 4"
    ascent="800"
    descent="-200"
    x-height="500"
    cap-height="700"
    bbox="-89 -251 1324 950"
    underline-thickness="50"
    underline-position="-150"
    unicode-range="U+0020-2122"
  />
<missing-glyph horiz-adv-x="420" 
 />
    <glyph glyph-name=".notdef" horiz-adv-x="420" 
 />
    <glyph glyph-name=".null" horiz-adv-x="0" 
 />
    <glyph glyph-name="nonmarkingreturn" horiz-adv-x="333" 
 />
    <glyph glyph-name="space" unicode=" " horiz-adv-x="264" 
 />
    <glyph glyph-name="exclam" unicode="!" horiz-adv-x="292" 
d="M56 700h180l-22 -476h-136zM56 164h180v-164h-180v164z" />
    <glyph glyph-name="quotedbl" unicode="&#x22;" horiz-adv-x="487" 
d="M271 700h150l-10 -230h-130zM65 700h150l-10 -230h-130z" />
    <glyph glyph-name="numbersign" unicode="#" horiz-adv-x="766" 
d="M66 436v138h139l24 126h155l-25 -126h136l25 126h155l-25 -126h50v-138h-75l-38 -172h113v-138h-137l-25 -126h-154l24 126h-136l-25 -126h-154l24 126h-51v138h75l39 172h-114zM334 436l-38 -172h136l38 172h-136z" />
    <glyph glyph-name="dollar" unicode="$" horiz-adv-x="636" 
d="M269 730h100v-60q103 -4 206 -31l-19 -108q-99 25 -187 26v-148q227 -23 227 -215q0 -104 -58.5 -151t-168.5 -53v-70h-100v70q-140 2 -226 36l19 114q77 -26 207 -28v153q-229 25 -229 202q0 104 63 152.5t166 50.5v60zM393 255q-7 1 -24 1v-144q35 1 55.5 16.5
t25.5 29.5t5 28q0 60 -62 69zM241 425q3 -1 13 -3l15 -3v138q-86 -4 -86 -69q0 -45 58 -63z" />
    <glyph glyph-name="percent" unicode="%" horiz-adv-x="991" 
d="M749 700l-360 -700h-150l359 700h151zM236 710q81 0 125 -41.5t44 -120.5v-67q0 -79 -44 -119t-125 -40q-82 0 -126 40t-44 119v67q0 79 45 120.5t125 41.5zM185 533v-34q0 -45 9.5 -65.5t41.5 -20.5q50 0 50 86v34q0 30 -2.5 46t-14 28t-33.5 12q-31 0 -41 -21.5
t-10 -64.5zM755 378q81 0 125 -41.5t44 -120.5v-67q0 -79 -44 -119t-125 -40q-82 0 -126 40t-44 119v67q0 79 45 120.5t125 41.5zM704 201v-34q0 -45 9.5 -65.5t41.5 -20.5q50 0 50 86v34q0 30 -2.5 46t-14 28t-33.5 12q-31 0 -41 -21.5t-10 -64.5z" />
    <glyph glyph-name="ampersand" unicode="&#x26;" horiz-adv-x="819" 
d="M600 661l-32 -127q-76 39 -129 39q-99 0 -99 -76q0 -39 33 -76l175 -206q27 39 35 103l150 -18q-3 -53 -34 -103.5t-64 -77.5l106 -119h-179l-39 44q-67 -54 -192 -54q-49 0 -93 9t-86 30t-67 63t-25 100q0 88 40 135t109 74q-54 73 -54 137q0 82 67 127t171 45
q112 0 207 -49zM339 100q82 0 112 26l-159 185q-61 -42 -61 -119q0 -46 30 -69t78 -23z" />
    <glyph glyph-name="quotesingle" unicode="'" horiz-adv-x="282" 
d="M66 700h150l-10 -230h-130z" />
    <glyph glyph-name="parenleft" unicode="(" horiz-adv-x="465" 
d="M72 325q0 221 149 477l158 -24q-135 -225 -135 -453q0 -75 13 -145t37.5 -130.5t42 -94.5t44.5 -81l-158 -24q-151 247 -151 475z" />
    <glyph glyph-name="parenright" unicode=")" horiz-adv-x="465" 
d="M381 325q0 -226 -150 -475l-159 24q27 47 44.5 81t42 94.5t37.5 130.5t13 145q0 232 -135 453l158 24q149 -256 149 -477z" />
    <glyph glyph-name="asterisk" unicode="*" horiz-adv-x="720" 
d="M66 544l60 122l175 -104l-9 178h136l-9 -178l175 104l60 -122l-162 -74l162 -74l-60 -122l-175 104l9 -178h-136l9 178l-175 -104l-60 122l162 74z" />
    <glyph glyph-name="plus" unicode="+" horiz-adv-x="632" 
d="M242 499h148v-176h176v-130h-176v-176h-148v176h-176v130h176v176z" />
    <glyph glyph-name="comma" unicode="," horiz-adv-x="300" 
d="M60 164h180v-100q0 -62 -32.5 -122t-75.5 -96l-57 31q45 57 45 123h-60v164z" />
    <glyph glyph-name="hyphen" unicode="-" horiz-adv-x="432" 
d="M66 256v130h300v-130h-300z" />
    <glyph glyph-name="period" unicode="." horiz-adv-x="300" 
d="M60 164h180v-164h-180v164z" />
    <glyph glyph-name="slash" unicode="/" horiz-adv-x="575" 
d="M539 709l-344 -753h-159l344 753h159z" />
    <glyph glyph-name="zero" unicode="0" 
d="M32 288v118q0 147 82 225.5t224 78.5q143 0 224.5 -78t81.5 -226v-118q0 -146 -81 -222t-225 -76t-225 75.5t-81 222.5zM338 578q-64 0 -96 -46t-32 -116v-132q0 -76 31.5 -119t96.5 -43t96.5 43t31.5 119v132q0 71 -32 116.5t-96 45.5z" />
    <glyph glyph-name="one" unicode="1" 
d="M130 452l265 248h151v-700h-172v492l-200 -170z" />
    <glyph glyph-name="two" unicode="2" 
d="M328 710q62 0 109 -8.5t87 -29t61 -59.5t21 -95q0 -23 -5 -44t-10.5 -37t-20 -33t-22.5 -27t-30 -24.5t-30 -20t-35 -19t-33.5 -16.5t-35.5 -16q-68 -31 -105 -63t-37 -82h370v-136h-548v44q0 76 11 127.5t38 87.5t57.5 58t83.5 48q10 5 41.5 19t50 24t41.5 24.5t34.5 31
t11.5 33.5q0 35 -29.5 55t-85.5 20q-93 0 -214 -41l-29 137q114 42 253 42z" />
    <glyph glyph-name="three" unicode="3" 
d="M62 22l21 132q115 -24 205 -24q75 0 113.5 17.5t38.5 66.5q0 26 -10.5 44.5t-25.5 28t-38 15t-41 7t-42 1.5h-74l-19 108h100q54 0 85.5 20.5t31.5 60.5q0 39 -30 55t-89 16q-123 0 -192 -20l-27 131q28 10 96.5 19.5t120.5 9.5q145 0 217 -36.5t72 -133.5
q0 -117 -117 -154q75 -21 115.5 -62.5t40.5 -127.5q0 -51 -17 -88t-45.5 -59.5t-73 -36t-92 -18t-110.5 -4.5q-53 0 -124 11.5t-90 20.5z" />
    <glyph glyph-name="four" unicode="4" 
d="M358 700h195v-423h82l-21 -137h-61v-140h-172v140h-340v124zM381 539l-186 -261h186v261z" />
    <glyph glyph-name="five" unicode="5" 
d="M57 26l21 130q134 -28 240 -28q64 0 93 20t29 80q0 90 -115 90q-90 0 -225 -19l32 401h463l-10 -137h-310l-15 -134q58 14 158 14q201 0 201 -212q0 -73 -22.5 -122t-65 -74t-90 -35t-110.5 -10q-78 0 -161.5 12.5t-112.5 23.5z" />
    <glyph glyph-name="six" unicode="6" 
d="M50 284v128q0 99 43 168t109.5 99t149.5 30q131 0 253 -36l-29 -134q-88 28 -205 28q-147 0 -147 -120v-34q63 35 176 35q225 0 225 -231q0 -109 -70.5 -168t-206.5 -59q-142 0 -220 67t-78 227zM224 300v-52q0 -70 28.5 -99t86.5 -29q112 0 112 97q0 54 -29.5 81.5
t-78.5 27.5q-61 0 -119 -26z" />
    <glyph glyph-name="seven" unicode="7" 
d="M381 0h-203q0 187 67.5 328t165.5 221h-355v151h563v-108q-89 -69 -163.5 -228t-74.5 -364z" />
    <glyph glyph-name="eight" unicode="8" 
d="M203 383q-141 45 -141 163q0 82 73.5 123t202.5 41t202.5 -41t73.5 -123q0 -69 -41 -106.5t-108 -57.5q80 -22 129.5 -70t49.5 -123q0 -199 -306 -199t-306 199q0 141 171 194zM323 309q-52 -18 -82 -42t-30 -63q0 -82 127 -82t127 82q0 17 -10 32.5t-22 25t-34.5 20
t-36.5 15t-39 12.5zM338 588q-115 0 -115 -63q0 -20 11.5 -36t34.5 -27t38.5 -16t42.5 -12q3 1 19 8.5t23.5 11t21.5 12t20.5 16.5t12.5 19.5t6 23.5q0 63 -115 63z" />
    <glyph glyph-name="nine" unicode="9" 
d="M625 416v-128q0 -147 -86 -222.5t-215 -75.5q-127 0 -253 37l29 134q77 -28 204 -28q73 0 110 28t37 92v34q-21 -12 -73 -24.5t-101 -12.5q-106 0 -166.5 57t-60.5 175q0 109 70.5 168t206.5 59q142 0 220 -66.5t78 -226.5zM451 400v60q0 65 -29 92t-85 27
q-51 0 -82 -23.5t-31 -72.5q0 -54 29 -81.5t76 -27.5q26 0 63.5 8t58.5 18z" />
    <glyph glyph-name="colon" unicode=":" horiz-adv-x="300" 
d="M60 505h180v-164h-180v164zM60 164h180v-164h-180v164z" />
    <glyph glyph-name="semicolon" unicode=";" horiz-adv-x="300" 
d="M60 505h180v-164h-180v164zM60 164h180v-100q0 -62 -32.5 -122t-75.5 -96l-57 31q45 57 45 123h-60v164z" />
    <glyph glyph-name="less" unicode="&#x3c;" horiz-adv-x="649" 
d="M66 212v81q120 49 507 209v-127q-63 -24 -181 -67.5t-141 -52.5v-8q39 -14 155.5 -57t166.5 -60v-127q-84 34 -253 104t-254 105z" />
    <glyph glyph-name="equal" unicode="=" horiz-adv-x="632" 
d="M66 295v118h500v-118h-500zM66 77v118h500v-118h-500z" />
    <glyph glyph-name="greater" unicode="&#x3e;" horiz-adv-x="649" 
d="M573 293v-81q-84 -35 -253 -105t-254 -104v127q50 17 166.5 60t155.5 57v8q-23 9 -141 52.5t-181 67.5v127q387 -160 507 -209z" />
    <glyph glyph-name="question" unicode="?" horiz-adv-x="570" 
d="M79 558l-17 133q95 19 156 19q52 0 89.5 -3.5t77 -16t64 -34.5t40 -60.5t15.5 -92.5q0 -30 -7 -55t-14.5 -39.5t-26.5 -29.5t-28 -20t-34.5 -17.5t-31.5 -15.5q-40 -20 -40 -62v-59h-148v81q0 47 21.5 74.5t66.5 47.5q36 16 53 36t17 59q0 44 -26.5 59t-87.5 15
q-74 0 -139 -19zM158 164h180v-164h-180v164z" />
    <glyph glyph-name="at" unicode="@" horiz-adv-x="1141" 
d="M570 734q121 0 210.5 -19.5t158 -64.5t103 -124.5t34.5 -192.5q0 -159 -83.5 -234t-233.5 -75h-101v41q-21 -18 -62 -34.5t-76 -16.5q-86 0 -136 61t-50 184q0 134 64 199.5t178 65.5q75 0 208 -24v-382q64 3 101.5 48t37.5 167q0 172 -77 233t-276 61q-352 0 -352 -361
q0 -102 24.5 -173t73 -110t109.5 -55.5t145 -16.5q219 0 430 73l24 -98q-210 -87 -454 -87q-121 0 -211 23.5t-157.5 76.5t-102 144.5t-34.5 222.5q0 468 505 468zM560 118q34 0 84 32v266q-44 11 -78 11q-45 0 -72.5 -34t-28.5 -127q0 -148 95 -148z" />
    <glyph glyph-name="A" unicode="A" horiz-adv-x="744" 
d="M522 0l-43 151h-214l-43 -151h-181l225 700h217l219 -700h-180zM376 541l-86 -276h166z" />
    <glyph glyph-name="B" unicode="B" horiz-adv-x="621" 
d="M66 0v700h303q186 0 186 -173q0 -111 -83 -143q51 -17 81 -56.5t30 -121.5q0 -106 -47.5 -156t-161.5 -50h-308zM232 308v-194h100q43 0 66.5 25t23.5 73q0 46 -26.5 71t-63.5 25h-100zM327 586h-95v-164h95q27 0 47 22t20 65q0 35 -17 56t-50 21z" />
    <glyph glyph-name="C" unicode="C" horiz-adv-x="569" 
d="M507 154l24 -130q-110 -34 -186 -34q-141 0 -224 71.5t-83 216.5v144q0 145 83.5 216.5t223.5 71.5q76 0 186 -34l-30 -130q-26 9 -75.5 19t-80.5 10q-66 0 -100 -43t-34 -112v-140q0 -68 32.5 -111.5t101.5 -43.5q31 0 84 10t78 19z" />
    <glyph glyph-name="D" unicode="D" horiz-adv-x="703" 
d="M66 0v700h256q92 0 153.5 -15.5t105.5 -55t64 -107.5t20 -172t-20 -172t-64.5 -107.5t-106 -55t-152.5 -15.5h-256zM322 569h-84v-438h84q43 0 71 8t52 31t35.5 67.5t11.5 112.5q0 71 -11 116t-35.5 66.5t-52 29t-71.5 7.5z" />
    <glyph glyph-name="E" unicode="E" horiz-adv-x="570" 
d="M238 294v-163h294v-131h-466v700h466v-131h-294v-145h242v-130h-242z" />
    <glyph glyph-name="F" unicode="F" horiz-adv-x="564" 
d="M238 267v-267h-172v700h466v-144h-294v-157h242v-132h-242z" />
    <glyph glyph-name="G" unicode="G" horiz-adv-x="641" 
d="M603 33q-107 -43 -244 -43q-151 0 -236 67.5t-85 212.5v156q0 145 85 214.5t236 69.5q123 0 228 -32l-30 -131q-95 27 -177 27q-89 0 -129 -38t-40 -116v-150q0 -154 148 -154q45 0 104 15v141l-122 6v113h262v-358z" />
    <glyph glyph-name="H" unicode="H" horiz-adv-x="746" 
d="M508 700h172v-700h-172v304h-270v-304h-172v700h172v-264h270v264z" />
    <glyph glyph-name="I" unicode="I" horiz-adv-x="416" 
d="M20 568v132h370v-132h-99v-436h105v-132h-370v132h93v436h-99z" />
    <glyph glyph-name="J" unicode="J" horiz-adv-x="510" 
d="M184 -10q-93 0 -168 29l21 136q52 -27 111 -27q68 0 96 30t28 85v457h172v-472q0 -123 -61.5 -180.5t-198.5 -57.5z" />
    <glyph glyph-name="K" unicode="K" horiz-adv-x="671" 
d="M238 700v-301h14l204 301h199l-249 -322l255 -378h-193l-214 340h-16v-340h-172v700h172z" />
    <glyph glyph-name="L" unicode="L" horiz-adv-x="584" 
d="M66 0v700h172v-558h314v-142h-486z" />
    <glyph glyph-name="M" unicode="M" horiz-adv-x="954" 
d="M398 0l-160 500h-4l-12 -500h-176l58 700h207l164 -526h4l164 526h207l58 -700h-176l-13 500h-4l-159 -500h-158z" />
    <glyph glyph-name="N" unicode="N" horiz-adv-x="760" 
d="M542 700h152v-700h-168l-308 450v-450h-152v700h172l304 -444v444z" />
    <glyph glyph-name="O" unicode="O" horiz-adv-x="730" 
d="M38 266v162q0 139 87 210.5t240 71.5q154 0 240.5 -71.5t86.5 -210.5v-162q0 -138 -86 -207t-241 -69t-241 69t-86 207zM217 414v-128q0 -77 36.5 -120.5t111.5 -43.5q148 0 148 164v128q0 75 -35.5 119.5t-112.5 44.5q-74 0 -111 -44.5t-37 -119.5z" />
    <glyph glyph-name="P" unicode="P" horiz-adv-x="645" 
d="M66 700h254q155 0 221 -55t66 -191q0 -138 -66.5 -195.5t-220.5 -57.5h-82v-201h-172v700zM238 567v-234h82q54 0 83.5 25.5t29.5 96.5q0 64 -27.5 88t-85.5 24h-82z" />
    <glyph glyph-name="Q" unicode="Q" horiz-adv-x="730" 
d="M38 266v162q0 139 87 210.5t240 71.5q154 0 240.5 -71.5t86.5 -210.5v-162q0 -115 -60.5 -182.5t-171.5 -85.5l119 -151h-188l-89 146q-126 13 -195 81t-69 192zM217 414v-128q0 -77 36.5 -120.5t111.5 -43.5q148 0 148 164v128q0 75 -35.5 119.5t-112.5 44.5
q-74 0 -111 -44.5t-37 -119.5z" />
    <glyph glyph-name="R" unicode="R" horiz-adv-x="669" 
d="M466 0l-137 240h-91v-240h-172v700h268q155 0 221 -52t66 -179q0 -91 -35.5 -149.5t-95.5 -75.5l168 -244h-192zM238 572v-203h102q55 0 81 22.5t26 77.5t-25.5 79t-81.5 24h-102z" />
    <glyph glyph-name="S" unicode="S" horiz-adv-x="636" 
d="M316 710q130 0 259 -33l-19 -131q-125 35 -230 35q-113 0 -113 -60q0 -23 16 -36t51 -25q27 -9 72 -22.5t68.5 -21.5t57.5 -22t51.5 -29.5t35.5 -38.5t25.5 -55t7.5 -73q0 -74 -38.5 -122t-99.5 -67t-145 -19q-162 0 -272 44l19 131q53 -16 128.5 -28.5t125.5 -12.5
q34 0 58 6.5t34 17.5t13.5 19.5t3.5 18.5q0 30 -16 43.5t-61 26.5q-18 5 -57 16t-54.5 16t-46.5 16t-44.5 19t-35 22t-31 29t-20.5 35t-15 45t-4 55q0 201 276 201z" />
    <glyph glyph-name="T" unicode="T" horiz-adv-x="576" 
d="M18 558v142h540v-142h-184v-558h-172v558h-184z" />
    <glyph glyph-name="U" unicode="U" horiz-adv-x="686" 
d="M469 700h159v-450q0 -132 -72 -196t-204 -64q-147 0 -220.5 63t-73.5 197v450h178v-460q0 -62 30 -90t92 -28q61 0 86 27t25 91v460z" />
    <glyph glyph-name="V" unicode="V" horiz-adv-x="677" 
d="M219 0l-209 700h194l130 -547h16l133 547h184l-213 -700h-235z" />
    <glyph glyph-name="W" unicode="W" horiz-adv-x="1010" 
d="M175 0l-165 700h159l106 -551l141 551h160l142 -549l105 549h157l-185 -700h-173l-127 532l-126 -532h-194z" />
    <glyph glyph-name="X" unicode="X" horiz-adv-x="696" 
d="M228 700l130 -260l131 260h197l-201 -340l201 -360h-219l-109 299l-152 -299h-196l211 360l-211 340h218z" />
    <glyph glyph-name="Y" unicode="Y" horiz-adv-x="660" 
d="M244 228l-234 472h189l129 -325l133 325h189l-234 -471v-229h-172v228z" />
    <glyph glyph-name="Z" unicode="Z" horiz-adv-x="612" 
d="M46 580v120h522v-123l-331 -457h343v-120h-548v123l336 457h-322z" />
    <glyph glyph-name="bracketleft" unicode="[" horiz-adv-x="446" 
d="M380 740v-135h-142v-670h142v-135h-314v940h314z" />
    <glyph glyph-name="backslash" unicode="\" horiz-adv-x="575" 
d="M555 -111h-158l-354 833h159z" />
    <glyph glyph-name="bracketright" unicode="]" horiz-adv-x="446" 
d="M208 605h-142v135h314v-940h-314v135h142v670z" />
    <glyph glyph-name="asciicircum" unicode="^" horiz-adv-x="711" 
d="M292 700h127l226 -426h-156l-131 273l-136 -273h-156z" />
    <glyph glyph-name="underscore" unicode="_" horiz-adv-x="500" 
d="M0 -165v136h500v-136h-500z" />
    <glyph glyph-name="grave" unicode="`" horiz-adv-x="295" 
d="M219 749l16 -182l-110 -16l-69 198h163z" />
    <glyph glyph-name="a" unicode="a" horiz-adv-x="559" 
d="M78 376l-18 103q124 31 209 31q122 0 180 -45t58 -142v-323h-160v34q-60 -44 -151 -44q-160 0 -160 154q0 74 47 107t140 33h125v44q0 40 -19 56.5t-68 16.5q-66 0 -183 -25zM274 86q27 0 73 20v95h-79q-34 0 -52.5 -15.5t-18.5 -38.5q0 -33 18 -47t59 -14z" />
    <glyph glyph-name="b" unicode="b" horiz-adv-x="587" 
d="M52 700h160v-234q73 43 143 43q104 0 153 -63.5t49 -195.5q0 -144 -46.5 -199t-155.5 -55q-65 0 -143 38v-34h-160v700zM286 97q105 0 105 153q0 147 -105 147q-28 0 -74 -20v-260q40 -20 74 -20z" />
    <glyph glyph-name="c" unicode="c" horiz-adv-x="473" 
d="M437 133l22 -113q-78 -29 -168 -29q-115 0 -185 55.5t-70 165.5v75q0 102 72 163t183 61q89 0 168 -32l-22 -114q-18 8 -54 18t-60 10q-61 0 -90.5 -27t-29.5 -91v-51q0 -65 29 -91t91 -26q12 0 22.5 1t24 4.5t18.5 4.5t24.5 7.5t24.5 8.5z" />
    <glyph glyph-name="d" unicode="d" horiz-adv-x="597" 
d="M385 700h160v-700h-160v34q-3 -1 -14 -8.5t-20.5 -12t-24.5 -10.5t-34 -9.5t-40 -3.5q-95 0 -153.5 62.5t-58.5 197.5q0 139 51 199.5t162 60.5q74 0 132 -44v234zM309 103q31 0 76 20v254q-45 20 -76 20q-51 0 -77 -30.5t-26 -116.5q0 -83 26 -115t77 -32z" />
    <glyph glyph-name="e" unicode="e" horiz-adv-x="560" 
d="M501 123l16 -106q-113 -27 -224 -27q-257 0 -257 203v82q0 118 61 176.5t188 58.5q69 0 121 -16.5t88 -62.5t36 -120v-98h-333v-31q0 -53 28.5 -69t85.5 -16q99 0 190 26zM197 312v-17h184v24q0 52 -23.5 72t-72.5 20q-47 0 -67.5 -21.5t-20.5 -77.5z" />
    <glyph glyph-name="f" unicode="f" horiz-adv-x="428" 
d="M463 729l-21 -106q-54 13 -102 13t-63 -32.5t-15 -103.5h146v-114h-146v-386h-160v386h-82v114h82v30q0 220 188 220q110 0 173 -21z" />
    <glyph glyph-name="g" unicode="g" horiz-adv-x="594" 
d="M297 510q50 0 102 -16q9 19 9 56h160q-2 -85 -62 -109q35 -30 35 -89q0 -47 -19 -79t-55 -47.5t-76 -21.5t-94 -6q-43 0 -67 3q-8 -14 -8 -35q0 -15 9 -35q24 3 66 3q63 0 108.5 -7.5t83 -25.5t56.5 -51.5t19 -82.5q0 -94 -69 -131t-198 -37t-198 37t-69 131q0 96 80 139
q-25 27 -25 58q0 38 29 65q-62 39 -62 123q0 48 19.5 80.5t56 48.5t76.5 22.5t93 6.5zM409 -33q0 39 -23 54.5t-89 15.5q-61 0 -86.5 -15.5t-25.5 -54.5q0 -36 23.5 -53.5t88.5 -17.5t88.5 17t23.5 54zM386 352q0 36 -19.5 49.5t-69.5 13.5q-53 0 -71 -14t-18 -49
q0 -36 17 -47t72 -11q53 0 70.5 10.5t18.5 47.5z" />
    <glyph glyph-name="h" unicode="h" horiz-adv-x="612" 
d="M560 0h-160v316q0 42 -20 61t-66 19q-56 0 -102 -38v-358h-160v700h160v-239q76 49 169 49q43 0 71.5 -5t55 -21t39.5 -51t13 -89v-344z" />
    <glyph glyph-name="i" unicode="i" horiz-adv-x="264" 
d="M52 500h160v-500h-160v500zM52 700h160v-117h-160v117z" />
    <glyph glyph-name="j" unicode="j" horiz-adv-x="264" 
d="M-89 -180l11 92q29 -11 65 -11q28 0 46.5 17.5t18.5 52.5v529h160v-528q0 -172 -182 -172q-63 0 -119 20zM52 700h160v-117h-160v117z" />
    <glyph glyph-name="k" unicode="k" horiz-adv-x="559" 
d="M212 700v-417h7l149 217h185l-185 -240l187 -260h-180l-157 245h-6v-245h-160v700h160z" />
    <glyph glyph-name="l" unicode="l" horiz-adv-x="264" 
d="M212 0h-160v750h160v-750z" />
    <glyph glyph-name="m" unicode="m" horiz-adv-x="860" 
d="M510 0h-154v331q0 62 -59 62q-18 0 -45 -12t-46 -28v-353h-154v500h154v-67q37 28 87 52.5t86 24.5q91 0 119 -75q39 29 91.5 52t88.5 23q79 0 104.5 -34.5t25.5 -117.5v-358h-154v331q0 62 -55 62q-16 0 -43 -10.5t-46 -24.5v-358z" />
    <glyph glyph-name="n" unicode="n" horiz-adv-x="612" 
d="M560 0h-160v308q0 49 -20 68.5t-66 19.5q-55 0 -102 -36v-360h-160v500h160v-39q38 19 93.5 34t104.5 15q81 0 115.5 -45t34.5 -142v-323z" />
    <glyph glyph-name="o" unicode="o" horiz-adv-x="580" 
d="M30 203v93q0 104 66 158.5t191 54.5q126 0 194.5 -55t68.5 -158v-93q0 -103 -68.5 -158.5t-194.5 -55.5q-125 0 -191 55t-66 159zM185 308v-103q0 -110 102 -110t102 110v89q0 110 -102 110t-102 -96z" />
    <glyph glyph-name="p" unicode="p" horiz-adv-x="593" 
d="M212 -200h-160v700h160v-34q75 48 151 48q96 0 145 -62.5t49 -201.5q0 -137 -48 -195.5t-146 -58.5q-21 0 -39.5 2t-37 7.5t-26.5 8t-27 11t-21 9.5v-234zM282 397q-30 0 -70 -20v-254q48 -19 83 -19q101 0 101 146q0 147 -114 147z" />
    <glyph glyph-name="q" unicode="q" horiz-adv-x="593" 
d="M541 488v-688h-160v234q-80 -45 -139 -45q-108 0 -157 64t-49 197q0 135 53.5 197.5t179.5 62.5q136 0 272 -22zM311 397q-114 0 -114 -147q0 -85 30.5 -116t83.5 -31q33 0 70 20v266q-23 8 -70 8z" />
    <glyph glyph-name="r" unicode="r" horiz-adv-x="420" 
d="M391 510l15 -131h-66q-49 0 -88.5 -41.5t-39.5 -87.5v-250h-160v500h160v-73q60 83 137 83h42z" />
    <glyph glyph-name="s" unicode="s" horiz-adv-x="533" 
d="M277 510q98 0 206 -29l-17 -97q-100 27 -190 27q-48 0 -66 -9t-18 -29q0 -36 40 -46q15 -3 52.5 -11t55 -12.5t48.5 -14.5t47 -21.5t34 -29t25.5 -42t7.5 -55.5q0 -88 -55 -119.5t-171 -31.5q-117 0 -244 27l13 98q151 -27 214 -27q52 0 67.5 9.5t15.5 27.5
q0 17 -10 24.5t-38 15.5q-18 5 -53.5 13.5t-54.5 14t-47.5 16t-44 22.5t-32 30.5t-23.5 44t-7 57.5q0 147 245 147z" />
    <glyph glyph-name="t" unicode="t" horiz-adv-x="404" 
d="M14 392v108h70v124l160 16v-140h140v-108h-140v-220q0 -73 57 -73q43 0 84 10l19 -99q-71 -20 -143 -20q-94 0 -135.5 35t-41.5 118v249h-70z" />
    <glyph glyph-name="u" unicode="u" horiz-adv-x="612" 
d="M52 500h160v-308q0 -88 79 -88q62 0 109 36v360h160v-500h-160v39q-105 -49 -206 -49q-71 0 -106.5 40.5t-35.5 109.5v360z" />
    <glyph glyph-name="v" unicode="v" horiz-adv-x="569" 
d="M174 0l-164 500h175l98 -386h16l97 386h163l-163 -500h-222z" />
    <glyph glyph-name="w" unicode="w" horiz-adv-x="860" 
d="M150 0l-138 500h150l90 -397h4l92 397h166l92 -398h4l91 398h147l-139 -500h-194l-85 386l-86 -386h-194z" />
    <glyph glyph-name="x" unicode="x" horiz-adv-x="562" 
d="M184 500l97 -197l100 197h171l-156 -244l156 -256h-174l-97 216l-99 -216h-172l147 256l-147 244h174z" />
    <glyph glyph-name="y" unicode="y" horiz-adv-x="588" 
d="M236 -65l28 66q-33 0 -62.5 23t-44.5 63l-149 413h181l109 -411h11l105 411h164l-159 -493q-11 -35 -36 -85t-44 -75q-57 -77 -160 -77q-69 0 -161 30l24 108q77 -24 116 -24q30 0 46.5 10t31.5 41z" />
    <glyph glyph-name="z" unicode="z" horiz-adv-x="504" 
d="M40 392v108h420v-78l-231 -313h243v-109h-442v78l237 314h-227z" />
    <glyph glyph-name="braceleft" unicode="{" horiz-adv-x="482" 
d="M416 597h-63q-39 0 -39 -38v-203q0 -29 -13.5 -43t-37.5 -24q52 -32 52 -106v-201q0 -18 10.5 -28t27.5 -10h63v-144h-74q-199 0 -199 163v213q0 18 -9 28t-21 10h-47v143h46q12 0 21.5 10t9.5 28v183q0 162 199 162h74v-143z" />
    <glyph glyph-name="bar" unicode="|" horiz-adv-x="304" 
d="M66 750h172v-1001h-172v1001z" />
    <glyph glyph-name="braceright" unicode="}" horiz-adv-x="482" 
d="M129 597h-63v143h74q199 0 199 -162v-183q0 -38 31 -38h46v-143h-47q-12 0 -21 -10t-9 -28v-213q0 -163 -199 -163h-74v144h63q17 0 27.5 10t10.5 28v201q0 74 52 106q-15 6 -24.5 12t-18.5 20.5t-9 34.5v203q0 38 -38 38z" />
    <glyph glyph-name="asciitilde" unicode="~" horiz-adv-x="731" 
d="M130 299l-52 138q2 2 18.5 15.5t28.5 22t31 19.5t39 17t40 6q52 0 125.5 -28.5t120.5 -28.5q58 0 130 60l66 -135q-1 -1 -15.5 -16.5t-26.5 -25.5t-31 -23.5t-42 -21t-48 -7.5q-60 0 -133 28.5t-113 28.5q-63 0 -138 -49z" />
    <glyph glyph-name="sterling" unicode="&#xa3;" horiz-adv-x="866" 
d="M688 669l-32 -117q-1 1 -33.5 8t-82.5 14.5t-86 7.5q-49 0 -81 -28.5t-33 -86.5v-45h254v-104h-254v-155q10 1 31 1q34 0 92.5 -21.5t95.5 -21.5q19 0 40.5 5t42 13t35.5 15t29 14.5t15 7.5l55 -107q-104 -79 -217 -79q-53 0 -127.5 25t-129.5 25q-40 0 -93.5 -12
t-92.5 -31l-38 110q48 25 90 39v173h-57v103h57v60q0 112 79.5 170t206.5 58q111 0 234 -41z" />
    <glyph glyph-name="currency" unicode="&#xa4;" horiz-adv-x="671" 
d="M30 211v121h62v368h254q151 0 219 -50t68 -179q0 -130 -69 -195t-218 -65h-82v-38h310v-121h-310v-52h-172v52h-62v121h62v38h-62zM264 567v-234h82q54 0 83.5 25.5t29.5 96.5q0 64 -27.5 88t-85.5 24h-82z" />
    <glyph glyph-name="section" unicode="&#xa7;" horiz-adv-x="747" 
d="M374 703q127 0 291 -34l-30 -127q-163 35 -261 35q-75 0 -104.5 -11.5t-29.5 -33.5q0 -16 13.5 -29t41 -23.5t49.5 -16.5t59 -14q129 -29 181 -56q96 -51 96 -144q0 -84 -112 -138q112 -48 112 -137q0 -88 -84.5 -131t-221.5 -43q-140 0 -292 34l31 128q59 -14 137.5 -25
t123.5 -11q76 0 105 11.5t29 36.5q0 18 -14.5 31.5t-45 23.5t-52 15t-62.5 13q-39 7 -67.5 13.5t-69 22.5t-66 35.5t-44.5 52.5t-19 74q0 74 113 137q-50 17 -81.5 54.5t-31.5 83.5q0 85 84.5 129t221.5 44zM240 255q0 -21 11 -36.5t36.5 -26.5t45.5 -16.5t58 -14.5
q117 46 117 88q0 38 -37.5 58.5t-114.5 34.5q-116 -39 -116 -87z" />
    <glyph glyph-name="dieresis" unicode="&#xa8;" horiz-adv-x="465" 
d="M56 718h145v-147h-145v147zM263 718h146v-147h-146v147z" />
    <glyph glyph-name="copyright" unicode="&#xa9;" horiz-adv-x="1042" 
d="M521 710q231 0 343 -121.5t112 -333.5t-112 -333.5t-343 -121.5t-343 121.5t-112 333.5t112 333.5t343 121.5zM842 256q0 180 -76.5 263t-244.5 83q-321 0 -321 -346q0 -345 321 -345q165 0 243 79t78 266zM668 127l17 -101q-75 -23 -138 -23q-226 0 -226 211v79
q0 215 226 215q72 0 138 -23l-21 -101q-62 20 -117 20q-56 0 -80.5 -27t-24.5 -85v-77q0 -54 23.5 -81t81.5 -27q65 0 121 20z" />
    <glyph glyph-name="guillemotleft" unicode="&#xab;" horiz-adv-x="599" 
d="M66 259l135 210h136l-118 -210l116 -207h-140zM274 259l135 210h136l-118 -210l116 -207h-140z" />
    <glyph glyph-name="registered" unicode="&#xae;" horiz-adv-x="628" 
d="M287 710q111 0 166.5 -57.5t55.5 -163.5t-55.5 -163.5t-166.5 -57.5t-166.5 57.5t-55.5 163.5t55.5 163.5t166.5 57.5zM437 488q0 86 -35.5 125t-114.5 39q-149 0 -149 -164q0 -161 149 -161q78 0 114 36.5t36 124.5zM333 377l-50 90h-26v-90h-51v228h84q48 0 69.5 -17
t21.5 -56q0 -30 -13 -46t-34 -17l59 -92h-60zM257 566v-67h34q19 0 28 6.5t9 26.5q0 34 -37 34h-34z" />
    <glyph glyph-name="degree" unicode="&#xb0;" horiz-adv-x="568" 
d="M284 716q90 0 154 -64t64 -154t-64 -154t-154 -64t-154 64t-64 154t64 154t154 64zM379 498q0 40 -27.5 67.5t-67.5 27.5t-67.5 -27.5t-27.5 -67.5t27.5 -67.5t67.5 -27.5t67.5 27.5t27.5 67.5z" />
    <glyph glyph-name="plusminus" unicode="&#xb1;" horiz-adv-x="632" 
d="M242 660h148v-176h176v-130h-176v-176h-148v176h-176v130h176v176zM66 0v130h500v-130h-500z" />
    <glyph glyph-name="acute" unicode="&#xb4;" horiz-adv-x="295" 
d="M56 564l16 186h163l-81 -201z" />
    <glyph glyph-name="paragraph" unicode="&#xb6;" horiz-adv-x="814" 
d="M720 700l28 -135h-94v-650l-136 -23v673h-110v-693l-136 -22v426h-14q-91 0 -141.5 55t-50.5 157t50.5 157t141.5 55h462z" />
    <glyph glyph-name="periodcentered" unicode="&#xb7;" horiz-adv-x="284" 
d="M66 250q0 34 18.5 55.5t56.5 21.5q40 0 58.5 -21.5t18.5 -55.5q0 -75 -77 -75q-38 0 -56.5 20.5t-18.5 54.5z" />
    <glyph glyph-name="cedilla" unicode="&#xb8;" horiz-adv-x="188" 
d="M55 39h77l-17 -58q88 -8 88 -88q0 -51 -30.5 -80.5t-85.5 -29.5q-58 0 -104 28l36 71q38 -16 66 -16q29 0 29 21q0 20 -46 20q-23 0 -54 -5z" />
    <glyph glyph-name="guillemotright" unicode="&#xbb;" horiz-adv-x="599" 
d="M392 259l-118 210h136l135 -210l-129 -207h-141zM184 259l-118 210h136l135 -210l-129 -207h-141z" />
    <glyph glyph-name="Agrave" unicode="&#xc0;" horiz-adv-x="744" 
d="M522 0l-43 151h-214l-43 -151h-181l225 700h217l219 -700h-180zM376 541l-86 -276h166zM435 949l16 -182l-110 -16l-69 198h163z" />
    <glyph glyph-name="Aacute" unicode="&#xc1;" horiz-adv-x="744" 
d="M522 0l-43 151h-214l-43 -151h-181l225 700h217l219 -700h-180zM376 541l-86 -276h166zM312 764l16 186h163l-81 -201z" />
    <glyph glyph-name="Acircumflex" unicode="&#xc2;" horiz-adv-x="744" 
d="M522 0l-43 151h-214l-43 -151h-181l225 700h217l219 -700h-180zM376 541l-86 -276h166zM298 935h141l97 -152h-125l-40 96l-39 -96h-125z" />
    <glyph glyph-name="Atilde" unicode="&#xc3;" horiz-adv-x="744" 
d="M522 0l-43 151h-214l-43 -151h-181l225 700h217l219 -700h-180zM376 541l-86 -276h166zM201 809l-29 78q69 55 131 55q33 0 74 -24t65 -24q14 0 28 4.5t22.5 9.5t22 14.5t18.5 12.5l39 -73q-60 -68 -130 -68q-37 0 -77.5 24t-61.5 24q-16 0 -32.5 -4t-25.5 -7.5
t-24.5 -11.5t-19.5 -10z" />
    <glyph glyph-name="Adieresis" unicode="&#xc4;" horiz-adv-x="744" 
d="M522 0l-43 151h-214l-43 -151h-181l225 700h217l219 -700h-180zM376 541l-86 -276h166zM195 918h145v-147h-145v147zM402 918h146v-147h-146v147z" />
    <glyph glyph-name="AE" unicode="&#xc6;" horiz-adv-x="1027" 
d="M523 0v151h-197l-104 -151h-182l483 700h466v-131h-294v-145h242v-130h-242v-163h294v-131h-466zM523 439l-120 -174h120v174z" />
    <glyph glyph-name="Ccedilla" unicode="&#xc7;" horiz-adv-x="569" 
d="M507 154l24 -130q-94 -30 -175 -34l-5 -19q88 -8 88 -88q0 -51 -30.5 -80.5t-85.5 -29.5q-58 0 -104 28l36 71q38 -16 66 -16q29 0 29 21q0 20 -46 20q-23 0 -54 -5l30 102q-113 15 -177.5 85.5t-64.5 198.5v144q0 145 83.5 216.5t223.5 71.5q76 0 186 -34l-30 -130
q-26 9 -75.5 19t-80.5 10q-66 0 -100 -43t-34 -112v-140q0 -68 32.5 -111.5t101.5 -43.5q31 0 84 10t78 19z" />
    <glyph glyph-name="Egrave" unicode="&#xc8;" horiz-adv-x="570" 
d="M238 294v-163h294v-131h-466v700h466v-131h-294v-145h242v-130h-242zM358 949l16 -182l-110 -16l-69 198h163z" />
    <glyph glyph-name="Eacute" unicode="&#xc9;" horiz-adv-x="570" 
d="M238 294v-163h294v-131h-466v700h466v-131h-294v-145h242v-130h-242zM233 764l16 186h163l-81 -201z" />
    <glyph glyph-name="Ecircumflex" unicode="&#xca;" horiz-adv-x="570" 
d="M238 294v-163h294v-131h-466v700h466v-131h-294v-145h242v-130h-242zM232 935h141l97 -152h-125l-40 96l-39 -96h-125z" />
    <glyph glyph-name="Edieresis" unicode="&#xcb;" horiz-adv-x="570" 
d="M238 294v-163h294v-131h-466v700h466v-131h-294v-145h242v-130h-242zM108 918h145v-147h-145v147zM315 918h146v-147h-146v147z" />
    <glyph glyph-name="Igrave" unicode="&#xcc;" horiz-adv-x="416" 
d="M20 568v132h370v-132h-99v-436h105v-132h-370v132h93v436h-99zM281 949l16 -182l-110 -16l-69 198h163z" />
    <glyph glyph-name="Iacute" unicode="&#xcd;" horiz-adv-x="416" 
d="M20 568v132h370v-132h-99v-436h105v-132h-370v132h93v436h-99zM118 764l16 186h163l-81 -201z" />
    <glyph glyph-name="Icircumflex" unicode="&#xce;" horiz-adv-x="416" 
d="M20 568v132h370v-132h-99v-436h105v-132h-370v132h93v436h-99zM135 935h141l97 -152h-125l-40 96l-39 -96h-125z" />
    <glyph glyph-name="Idieresis" unicode="&#xcf;" horiz-adv-x="416" 
d="M20 568v132h370v-132h-99v-436h105v-132h-370v132h93v436h-99zM32 918h145v-147h-145v147zM239 918h146v-147h-146v147z" />
    <glyph glyph-name="Ograve" unicode="&#xd2;" horiz-adv-x="730" 
d="M38 266v162q0 139 87 210.5t240 71.5q154 0 240.5 -71.5t86.5 -210.5v-162q0 -138 -86 -207t-241 -69t-241 69t-86 207zM217 414v-128q0 -77 36.5 -120.5t111.5 -43.5q148 0 148 164v128q0 75 -35.5 119.5t-112.5 44.5q-74 0 -111 -44.5t-37 -119.5zM418 949l16 -182
l-110 -16l-69 198h163z" />
    <glyph glyph-name="Oacute" unicode="&#xd3;" horiz-adv-x="730" 
d="M38 266v162q0 139 87 210.5t240 71.5q154 0 240.5 -71.5t86.5 -210.5v-162q0 -138 -86 -207t-241 -69t-241 69t-86 207zM217 414v-128q0 -77 36.5 -120.5t111.5 -43.5q148 0 148 164v128q0 75 -35.5 119.5t-112.5 44.5q-74 0 -111 -44.5t-37 -119.5zM295 764l16 186h163
l-81 -201z" />
    <glyph glyph-name="Ocircumflex" unicode="&#xd4;" horiz-adv-x="730" 
d="M38 266v162q0 139 87 210.5t240 71.5q154 0 240.5 -71.5t86.5 -210.5v-162q0 -138 -86 -207t-241 -69t-241 69t-86 207zM217 414v-128q0 -77 36.5 -120.5t111.5 -43.5q148 0 148 164v128q0 75 -35.5 119.5t-112.5 44.5q-74 0 -111 -44.5t-37 -119.5zM291 935h141l97 -152
h-125l-40 96l-39 -96h-125z" />
    <glyph glyph-name="Otilde" unicode="&#xd5;" horiz-adv-x="730" 
d="M38 266v162q0 139 87 210.5t240 71.5q154 0 240.5 -71.5t86.5 -210.5v-162q0 -138 -86 -207t-241 -69t-241 69t-86 207zM217 414v-128q0 -77 36.5 -120.5t111.5 -43.5q148 0 148 164v128q0 75 -35.5 119.5t-112.5 44.5q-74 0 -111 -44.5t-37 -119.5zM194 809l-29 78
q69 55 131 55q34 0 74 -24t65 -24q14 0 28 4.5t22.5 9.5t22 14.5t18.5 12.5l39 -73q-22 -25 -57 -46.5t-73 -21.5q-37 0 -77.5 24t-61.5 24q-16 0 -32.5 -4t-25.5 -7.5t-24.5 -11.5t-19.5 -10z" />
    <glyph glyph-name="Odieresis" unicode="&#xd6;" horiz-adv-x="730" 
d="M38 266v162q0 139 87 210.5t240 71.5q154 0 240.5 -71.5t86.5 -210.5v-162q0 -138 -86 -207t-241 -69t-241 69t-86 207zM217 414v-128q0 -77 36.5 -120.5t111.5 -43.5q148 0 148 164v128q0 75 -35.5 119.5t-112.5 44.5q-74 0 -111 -44.5t-37 -119.5zM188 918h145v-147
h-145v147zM395 918h146v-147h-146v147z" />
    <glyph glyph-name="Ugrave" unicode="&#xd9;" horiz-adv-x="686" 
d="M469 700h159v-450q0 -132 -72 -196t-204 -64q-147 0 -220.5 63t-73.5 197v450h178v-460q0 -62 30 -90t92 -28q61 0 86 27t25 91v460zM416 949l16 -182l-110 -16l-69 198h163z" />
    <glyph glyph-name="Uacute" unicode="&#xda;" horiz-adv-x="686" 
d="M469 700h159v-450q0 -132 -72 -196t-204 -64q-147 0 -220.5 63t-73.5 197v450h178v-460q0 -62 30 -90t92 -28q61 0 86 27t25 91v460zM303 764l16 186h163l-81 -201z" />
    <glyph glyph-name="Ucircumflex" unicode="&#xdb;" horiz-adv-x="686" 
d="M469 700h159v-450q0 -132 -72 -196t-204 -64q-147 0 -220.5 63t-73.5 197v450h178v-460q0 -62 30 -90t92 -28q61 0 86 27t25 91v460zM269 935h141l97 -152h-125l-40 96l-39 -96h-125z" />
    <glyph glyph-name="Udieresis" unicode="&#xdc;" horiz-adv-x="686" 
d="M469 700h159v-450q0 -132 -72 -196t-204 -64q-147 0 -220.5 63t-73.5 197v450h178v-460q0 -62 30 -90t92 -28q61 0 86 27t25 91v460zM184 918h145v-147h-145v147zM391 918h146v-147h-146v147z" />
    <glyph glyph-name="agrave" unicode="&#xe0;" horiz-adv-x="559" 
d="M343 749l16 -182l-110 -16l-69 198h163zM78 376l-18 103q124 31 209 31q122 0 180 -45t58 -142v-323h-160v34q-60 -44 -151 -44q-160 0 -160 154q0 74 47 107t140 33h125v44q0 40 -19 56.5t-68 16.5q-66 0 -183 -25zM274 86q27 0 73 20v95h-79q-34 0 -52.5 -15.5
t-18.5 -38.5q0 -33 18 -47t59 -14z" />
    <glyph glyph-name="aacute" unicode="&#xe1;" horiz-adv-x="559" 
d="M210 564l16 186h163l-81 -201zM78 376l-18 103q124 31 209 31q122 0 180 -45t58 -142v-323h-160v34q-60 -44 -151 -44q-160 0 -160 154q0 74 47 107t140 33h125v44q0 40 -19 56.5t-68 16.5q-66 0 -183 -25zM274 86q27 0 73 20v95h-79q-34 0 -52.5 -15.5t-18.5 -38.5
q0 -33 18 -47t59 -14z" />
    <glyph glyph-name="acircumflex" unicode="&#xe2;" horiz-adv-x="559" 
d="M206 735h141l97 -152h-125l-40 96l-39 -96h-125zM78 376l-18 103q124 31 209 31q122 0 180 -45t58 -142v-323h-160v34q-60 -44 -151 -44q-160 0 -160 154q0 74 47 107t140 33h125v44q0 40 -19 56.5t-68 16.5q-66 0 -183 -25zM274 86q27 0 73 20v95h-79q-34 0 -52.5 -15.5
t-18.5 -38.5q0 -33 18 -47t59 -14z" />
    <glyph glyph-name="atilde" unicode="&#xe3;" horiz-adv-x="559" 
d="M108 609l-29 78q69 55 131 55q33 0 73.5 -24t65.5 -24q14 0 28 4.5t22.5 9.5t22 14.5t18.5 12.5l39 -73q-22 -25 -57 -46.5t-73 -21.5q-37 0 -77.5 24t-61.5 24q-16 0 -32.5 -4t-25.5 -7.5t-24.5 -11.5t-19.5 -10zM78 376l-18 103q124 31 209 31q122 0 180 -45t58 -142
v-323h-160v34q-60 -44 -151 -44q-160 0 -160 154q0 74 47 107t140 33h125v44q0 40 -19 56.5t-68 16.5q-66 0 -183 -25zM274 86q27 0 73 20v95h-79q-34 0 -52.5 -15.5t-18.5 -38.5q0 -33 18 -47t59 -14z" />
    <glyph glyph-name="adieresis" unicode="&#xe4;" horiz-adv-x="559" 
d="M103 718h145v-147h-145v147zM310 718h146v-147h-146v147zM78 376l-18 103q124 31 209 31q122 0 180 -45t58 -142v-323h-160v34q-60 -44 -151 -44q-160 0 -160 154q0 74 47 107t140 33h125v44q0 40 -19 56.5t-68 16.5q-66 0 -183 -25zM274 86q27 0 73 20v95h-79
q-34 0 -52.5 -15.5t-18.5 -38.5q0 -33 18 -47t59 -14z" />
    <glyph glyph-name="ae" unicode="&#xe6;" horiz-adv-x="871" 
d="M812 123l16 -106q-113 -27 -224 -27q-143 0 -207 64q-51 -32 -95 -48t-106 -16q-160 0 -160 154q0 74 47 107t140 33h124v44q0 40 -18.5 56.5t-67.5 16.5q-66 0 -183 -25l-18 103q124 31 209 31q109 0 167 -37q59 37 160 37q69 0 121 -16.5t88 -62.5t36 -120v-98h-334
v-37q0 -49 29 -64t86 -15q99 0 190 26zM507 323v-28h185v24q0 52 -23.5 72t-72.5 20q-45 0 -66.5 -19.5t-22.5 -68.5zM264 86q50 0 96 27q-13 32 -13 80v8h-79q-34 0 -52.5 -15.5t-18.5 -38.5q0 -61 67 -61z" />
    <glyph glyph-name="ccedilla" unicode="&#xe7;" horiz-adv-x="473" 
d="M437 133l22 -113q-59 -22 -140 -28l-6 -21q88 -8 88 -88q0 -51 -30.5 -80.5t-85.5 -29.5q-58 0 -104 28l36 71q38 -16 66 -16q29 0 29 21q0 20 -46 20q-23 0 -54 -5l30 102q-94 10 -150 65t-56 153v75q0 102 72 163t183 61q89 0 168 -32l-22 -114q-18 8 -54 18t-60 10
q-61 0 -90.5 -27t-29.5 -91v-51q0 -65 29 -91t91 -26q12 0 22.5 1t24 4.5t18.5 4.5t24.5 7.5t24.5 8.5z" />
    <glyph glyph-name="egrave" unicode="&#xe8;" horiz-adv-x="560" 
d="M353 749l16 -182l-110 -16l-69 198h163zM501 123l16 -106q-113 -27 -224 -27q-257 0 -257 203v82q0 118 61 176.5t188 58.5q69 0 121 -16.5t88 -62.5t36 -120v-98h-333v-31q0 -53 28.5 -69t85.5 -16q99 0 190 26zM197 312v-17h184v24q0 52 -23.5 72t-72.5 20
q-47 0 -67.5 -21.5t-20.5 -77.5z" />
    <glyph glyph-name="eacute" unicode="&#xe9;" horiz-adv-x="560" 
d="M220 564l16 186h163l-81 -201zM501 123l16 -106q-113 -27 -224 -27q-257 0 -257 203v82q0 118 61 176.5t188 58.5q69 0 121 -16.5t88 -62.5t36 -120v-98h-333v-31q0 -53 28.5 -69t85.5 -16q99 0 190 26zM197 312v-17h184v24q0 52 -23.5 72t-72.5 20q-47 0 -67.5 -21.5
t-20.5 -77.5z" />
    <glyph glyph-name="ecircumflex" unicode="&#xea;" horiz-adv-x="560" 
d="M206 735h141l97 -152h-125l-40 96l-39 -96h-125zM501 123l16 -106q-113 -27 -224 -27q-257 0 -257 203v82q0 118 61 176.5t188 58.5q69 0 121 -16.5t88 -62.5t36 -120v-98h-333v-31q0 -53 28.5 -69t85.5 -16q99 0 190 26zM197 312v-17h184v24q0 52 -23.5 72t-72.5 20
q-47 0 -67.5 -21.5t-20.5 -77.5z" />
    <glyph glyph-name="edieresis" unicode="&#xeb;" horiz-adv-x="560" 
d="M103 718h145v-147h-145v147zM310 718h146v-147h-146v147zM501 123l16 -106q-113 -27 -224 -27q-257 0 -257 203v82q0 118 61 176.5t188 58.5q69 0 121 -16.5t88 -62.5t36 -120v-98h-333v-31q0 -53 28.5 -69t85.5 -16q99 0 190 26zM197 312v-17h184v24q0 52 -23.5 72
t-72.5 20q-47 0 -67.5 -21.5t-20.5 -77.5z" />
    <glyph glyph-name="igrave" unicode="&#xec;" horiz-adv-x="264" 
d="M52 500h160v-500h-160v500zM206 749l16 -182l-110 -16l-69 198h163z" />
    <glyph glyph-name="iacute" unicode="&#xed;" horiz-adv-x="264" 
d="M52 500h160v-500h-160v500zM43 564l16 186h163l-81 -201z" />
    <glyph glyph-name="icircumflex" unicode="&#xee;" horiz-adv-x="264" 
d="M52 500h160v-500h-160v500zM59 735h141l97 -152h-125l-40 96l-39 -96h-125z" />
    <glyph glyph-name="idieresis" unicode="&#xef;" horiz-adv-x="264" 
d="M52 500h160v-500h-160v500zM-44 718h145v-147h-145v147zM163 718h146v-147h-146v147z" />
    <glyph glyph-name="ograve" unicode="&#xf2;" horiz-adv-x="580" 
d="M30 203v93q0 104 66 158.5t191 54.5q126 0 194.5 -55t68.5 -158v-93q0 -103 -68.5 -158.5t-194.5 -55.5q-125 0 -191 55t-66 159zM185 308v-103q0 -110 102 -110t102 110v89q0 110 -102 110t-102 -96zM343 749l16 -182l-110 -16l-69 198h163z" />
    <glyph glyph-name="oacute" unicode="&#xf3;" horiz-adv-x="580" 
d="M30 203v93q0 104 66 158.5t191 54.5q126 0 194.5 -55t68.5 -158v-93q0 -103 -68.5 -158.5t-194.5 -55.5q-125 0 -191 55t-66 159zM185 308v-103q0 -110 102 -110t102 110v89q0 110 -102 110t-102 -96zM220 564l16 186h163l-81 -201z" />
    <glyph glyph-name="ocircumflex" unicode="&#xf4;" horiz-adv-x="580" 
d="M30 203v93q0 104 66 158.5t191 54.5q126 0 194.5 -55t68.5 -158v-93q0 -103 -68.5 -158.5t-194.5 -55.5q-125 0 -191 55t-66 159zM185 308v-103q0 -110 102 -110t102 110v89q0 110 -102 110t-102 -96zM216 735h141l97 -152h-125l-40 96l-39 -96h-125z" />
    <glyph glyph-name="otilde" unicode="&#xf5;" horiz-adv-x="580" 
d="M30 203v93q0 104 66 158.5t191 54.5q126 0 194.5 -55t68.5 -158v-93q0 -103 -68.5 -158.5t-194.5 -55.5q-125 0 -191 55t-66 159zM185 308v-103q0 -110 102 -110t102 110v89q0 110 -102 110t-102 -96zM119 609l-29 78q69 55 131 55q33 0 74 -24t65 -24q14 0 28 4.5
t22.5 9.5t22 14.5t18.5 12.5l39 -73q-60 -68 -130 -68q-37 0 -77.5 24t-61.5 24q-16 0 -32.5 -4t-25.5 -7.5t-24.5 -11.5t-19.5 -10z" />
    <glyph glyph-name="odieresis" unicode="&#xf6;" horiz-adv-x="580" 
d="M30 203v93q0 104 66 158.5t191 54.5q126 0 194.5 -55t68.5 -158v-93q0 -103 -68.5 -158.5t-194.5 -55.5q-125 0 -191 55t-66 159zM185 308v-103q0 -110 102 -110t102 110v89q0 110 -102 110t-102 -96zM113 718h145v-147h-145v147zM320 718h146v-147h-146v147z" />
    <glyph glyph-name="ugrave" unicode="&#xf9;" horiz-adv-x="612" 
d="M52 500h160v-308q0 -88 79 -88q62 0 109 36v360h160v-500h-160v39q-105 -49 -206 -49q-71 0 -106.5 40.5t-35.5 109.5v360zM373 749l16 -182l-110 -16l-69 198h163z" />
    <glyph glyph-name="uacute" unicode="&#xfa;" horiz-adv-x="612" 
d="M52 500h160v-308q0 -88 79 -88q62 0 109 36v360h160v-500h-160v39q-105 -49 -206 -49q-71 0 -106.5 40.5t-35.5 109.5v360zM246 564l16 186h163l-81 -201z" />
    <glyph glyph-name="ucircumflex" unicode="&#xfb;" horiz-adv-x="612" 
d="M52 500h160v-308q0 -88 79 -88q62 0 109 36v360h160v-500h-160v39q-105 -49 -206 -49q-71 0 -106.5 40.5t-35.5 109.5v360zM232 735h141l97 -152h-125l-40 96l-39 -96h-125z" />
    <glyph glyph-name="udieresis" unicode="&#xfc;" horiz-adv-x="612" 
d="M52 500h160v-308q0 -88 79 -88q62 0 109 36v360h160v-500h-160v39q-105 -49 -206 -49q-71 0 -106.5 40.5t-35.5 109.5v360zM129 718h145v-147h-145v147zM336 718h146v-147h-146v147z" />
    <glyph glyph-name="OE" unicode="&#x152;" horiz-adv-x="1017" 
d="M685 294v-163h294v-131h-466q-112 -10 -148 -10q-155 0 -241 69t-86 207v162q0 139 87 210.5t240 71.5q70 0 148 -10h466v-131h-294v-145h242v-130h-242zM217 414v-128q0 -79 36 -121.5t119 -42.5q76 0 141 16v421q-71 19 -148 19q-74 0 -111 -44.5t-37 -119.5z" />
    <glyph glyph-name="oe" unicode="&#x153;" horiz-adv-x="913" 
d="M854 123l16 -106q-113 -27 -224 -27q-118 0 -181 52q-44 -30 -83 -41.5t-95 -11.5q-125 0 -191 55t-66 159v93q0 104 66 158.5t191 54.5q112 0 179 -54q64 55 172 55q69 0 121 -16.5t88 -62.5t36 -120v-98h-333v-31q0 -53 28.5 -69t85.5 -16q99 0 190 26zM185 308v-103
q0 -110 102 -110t102 100v99q0 110 -102 110t-102 -96zM550 312v-17h184v24q0 52 -23.5 72t-72.5 20q-47 0 -67.5 -21.5t-20.5 -77.5z" />
    <glyph glyph-name="circumflex" unicode="&#x2c6;" horiz-adv-x="479" 
d="M169 735h141l97 -152h-125l-40 96l-39 -96h-125z" />
    <glyph glyph-name="tilde" unicode="&#x2dc;" horiz-adv-x="526" 
d="M97 609l-29 78q69 55 131 55q33 0 74 -24t65 -24q14 0 28 4.5t22.5 9.5t22 14.5t18.5 12.5l39 -73q-60 -68 -130 -68q-37 0 -77.5 24t-61.5 24q-16 0 -32.5 -4t-25.5 -7.5t-24.5 -11.5t-19.5 -10z" />
    <glyph glyph-name="afii10023" unicode="&#x401;" horiz-adv-x="582" 
d="M126 918h145v-147h-145v147zM334 918h145v-147h-145v147zM238 294v-163h294v-131h-466v700h466v-131h-294v-145h242v-130h-242z" />
    <glyph glyph-name="afii10017" unicode="&#x410;" horiz-adv-x="744" 
d="M522 0l-43 151h-214l-43 -151h-181l225 700h217l219 -700h-180zM376 541l-86 -276h166z" />
    <glyph glyph-name="afii10018" unicode="&#x411;" horiz-adv-x="639" 
d="M238 568v-137h150q111 0 159 -52.5t48 -162.5q0 -106 -47 -161t-162 -55h-320v700h474v-132h-302zM338 313h-100v-194h100q90 0 90 97t-90 97z" />
    <glyph glyph-name="afii10019" unicode="&#x412;" horiz-adv-x="621" 
d="M66 0v700h303q186 0 186 -173q0 -111 -83 -143q51 -17 81 -56.5t30 -121.5q0 -106 -47.5 -156t-161.5 -50h-308zM232 308v-194h100q43 0 66.5 25t23.5 73q0 46 -26.5 71t-63.5 25h-100zM327 586h-95v-164h95q27 0 47 22t20 65q0 35 -17 56t-50 21z" />
    <glyph glyph-name="afii10020" unicode="&#x413;" horiz-adv-x="536" 
d="M238 0h-172v700h450v-151h-278v-549z" />
    <glyph glyph-name="afii10021" unicode="&#x414;" horiz-adv-x="786" 
d="M168 700h500v-568h80l-15 -332h-157v200h-384l-10 -200h-162v332h66q29 45 47 117t25 165.5t8.5 148.5t1.5 137zM496 556h-169q-3 -97 -6 -149t-21 -139t-49 -136h245v424z" />
    <glyph glyph-name="afii10022" unicode="&#x415;" horiz-adv-x="570" 
d="M238 294v-163h294v-131h-466v700h466v-131h-294v-145h242v-130h-242z" />
    <glyph glyph-name="afii10024" unicode="&#x416;" horiz-adv-x="922" 
d="M200 377l-184 323h184l159 -300h16v300h172v-300h16l159 300h184l-184 -323l182 -377h-177l-165 351h-15v-351h-172v351h-16l-165 -351h-177z" />
    <glyph glyph-name="afii10025" unicode="&#x417;" horiz-adv-x="602" 
d="M38 26l21 136q97 -34 185 -34q75 0 107.5 15t32.5 65q0 32 -12 51.5t-39 28t-50.5 10.5t-67.5 2h-75v118h106q105 0 105 83q0 40 -24 55.5t-81 15.5q-90 0 -174 -30l-24 134q87 34 206 34q140 0 202.5 -37.5t62.5 -136.5q0 -119 -102 -150q72 -21 106.5 -62t34.5 -128
q0 -121 -76.5 -163.5t-237.5 -42.5q-61 0 -121.5 12.5t-84.5 23.5z" />
    <glyph glyph-name="afii10026" unicode="&#x418;" horiz-adv-x="750" 
d="M66 700h172v-436l306 436h140v-700h-172v436l-306 -436h-140v700z" />
    <glyph glyph-name="afii10027" unicode="&#x419;" horiz-adv-x="750" 
d="M153 892h124q0 -64 102 -64q104 0 104 64h123v-23q0 -38 -20 -64t-56.5 -37.5t-71 -15.5t-79.5 -4q-44 0 -78.5 4t-71 15.5t-56.5 37.5t-20 64v23zM66 700h172v-436l306 436h140v-700h-172v436l-306 -436h-140v700z" />
    <glyph glyph-name="afii10028" unicode="&#x41a;" horiz-adv-x="671" 
d="M238 700v-301h14l204 301h199l-249 -322l255 -378h-193l-214 340h-16v-340h-172v700h172z" />
    <glyph glyph-name="afii10029" unicode="&#x41b;" horiz-adv-x="743" 
d="M168 700h509v-700h-172v560h-172q-3 -106 -9.5 -185t-21.5 -155t-39 -124t-63 -77t-91 -29q-30 0 -75 10l-20 135q4 -1 40 -1q69 0 91.5 137.5t22.5 428.5z" />
    <glyph glyph-name="afii10030" unicode="&#x41c;" horiz-adv-x="954" 
d="M398 0l-160 500h-4l-12 -500h-176l58 700h207l164 -526h3l165 526h207l58 -700h-176l-13 500h-3l-160 -500h-158z" />
    <glyph glyph-name="afii10031" unicode="&#x41d;" horiz-adv-x="746" 
d="M508 700h172v-700h-172v304h-270v-304h-172v700h172v-264h270v264z" />
    <glyph glyph-name="afii10032" unicode="&#x41e;" horiz-adv-x="730" 
d="M38 266v162q0 139 87 210.5t240 71.5q154 0 240.5 -71.5t86.5 -210.5v-162q0 -138 -86 -207t-241 -69t-241 69t-86 207zM217 414v-128q0 -77 36.5 -120.5t111.5 -43.5q148 0 148 164v128q0 75 -35.5 119.5t-112.5 44.5q-74 0 -111 -44.5t-37 -119.5z" />
    <glyph glyph-name="afii10033" unicode="&#x41f;" horiz-adv-x="754" 
d="M238 0h-172v700h622v-700h-172v556h-278v-556z" />
    <glyph glyph-name="afii10034" unicode="&#x420;" horiz-adv-x="645" 
d="M66 700h254q155 0 221 -55t66 -191q0 -138 -66.5 -195.5t-220.5 -57.5h-82v-201h-172v700zM238 567v-234h82q54 0 83.5 25.5t29.5 96.5q0 64 -27.5 88t-85.5 24h-82z" />
    <glyph glyph-name="afii10035" unicode="&#x421;" horiz-adv-x="569" 
d="M507 154l24 -130q-110 -34 -186 -34q-141 0 -224 71.5t-83 216.5v144q0 145 83.5 216.5t223.5 71.5q76 0 186 -34l-30 -130q-26 9 -75.5 19t-80.5 10q-66 0 -100 -43t-34 -112v-140q0 -68 32.5 -111.5t101.5 -43.5q31 0 84 10t78 19z" />
    <glyph glyph-name="afii10036" unicode="&#x422;" horiz-adv-x="576" 
d="M18 558v142h540v-142h-184v-558h-172v558h-184z" />
    <glyph glyph-name="afii10037" unicode="&#x423;" horiz-adv-x="661" 
d="M297 179q-27 1 -63.5 22t-56.5 64l-167 435h200l139 -419h4l121 419h177l-184 -542q-68 -168 -239 -168q-103 0 -192 26l30 124q64 -23 123 -23q84 0 108 62z" />
    <glyph glyph-name="afii10038" unicode="&#x424;" horiz-adv-x="914" 
d="M371 736h172v-72h38q151 0 223 -64t72 -203v-54q0 -137 -72 -202t-223 -65h-38v-76h-172v76h-38q-151 0 -223 65t-72 202v54q0 139 72 203t223 64h38v72zM581 543h-38v-346h38q65 0 93.5 33t28.5 109v62q0 74 -28 108t-94 34zM211 339q0 -76 28.5 -109t93.5 -33h38v346
h-38q-66 0 -94 -34.5t-28 -107.5v-62z" />
    <glyph glyph-name="afii10039" unicode="&#x425;" horiz-adv-x="696" 
d="M228 700l130 -260l131 260h197l-201 -340l201 -360h-219l-109 299l-152 -299h-196l211 360l-211 340h218z" />
    <glyph glyph-name="afii10040" unicode="&#x426;" horiz-adv-x="780" 
d="M66 700h172v-568h252v568h172v-568h81l-10 -289h-163v157h-504v700z" />
    <glyph glyph-name="afii10041" unicode="&#x427;" horiz-adv-x="664" 
d="M46 700h172v-270q0 -48 22.5 -68t67.5 -20q27 0 118 7v351h172v-700h-172v221q-101 -9 -128 -9q-25 0 -48.5 2.5t-54 10t-55.5 23t-47 38t-34.5 59t-12.5 83.5v272z" />
    <glyph glyph-name="afii10042" unicode="&#x428;" horiz-adv-x="964" 
d="M396 700h172v-568h158v568h172v-700h-832v700h172v-568h158v568z" />
    <glyph glyph-name="afii10043" unicode="&#x429;" horiz-adv-x="1016" 
d="M396 700h172v-568h158v568h172v-568h80l-10 -289h-162v157h-740v700h172v-568h158v568z" />
    <glyph glyph-name="afii10044" unicode="&#x42a;" horiz-adv-x="722" 
d="M143 0v576h-129l14 124h287v-258q56 10 103 10q140 0 203 -54t63 -173q0 -120 -66.5 -172.5t-220.5 -52.5h-254zM397 334q-46 0 -82 -5v-215h82q59 0 86.5 23.5t27.5 86.5t-28 86.5t-86 23.5z" />
    <glyph glyph-name="afii10045" unicode="&#x42b;" horiz-adv-x="925" 
d="M687 0v700h172v-700h-172zM320 0q154 0 220.5 52.5t66.5 172.5q0 113 -57 169.5t-183 56.5q-50 0 -129 -9v258h-172v-700h254zM320 334q57 0 85 -23.5t28 -86.5t-27.5 -86.5t-85.5 -23.5h-82v215q35 5 82 5z" />
    <glyph glyph-name="afii10046" unicode="&#x42c;" horiz-adv-x="645" 
d="M320 0h-254v700h172v-258q77 9 129 9q126 0 183 -56.5t57 -169.5q0 -120 -66.5 -172.5t-220.5 -52.5zM320 334q-47 0 -82 -5v-215h82q58 0 85.5 23.5t27.5 86.5t-28 86.5t-85 23.5z" />
    <glyph glyph-name="afii10047" unicode="&#x42d;" horiz-adv-x="590" 
d="M378 277v21h-256v128h256v15q0 73 -32.5 103.5t-96.5 30.5q-38 0 -100.5 -9.5t-95.5 -22.5l-29 133q21 9 93.5 21.5t137.5 12.5q297 0 297 -288v-144q0 -144 -85 -216t-222 -72q-62 0 -129.5 12t-91.5 22l29 133q95 -29 192 -29q133 0 133 149z" />
    <glyph glyph-name="afii10048" unicode="&#x42e;" horiz-adv-x="949" 
d="M335 248v32h-97v-280h-172v700h172v-286h97v22q0 139 76 206.5t212 67.5q135 0 211.5 -68t76.5 -205v-188q0 -259 -288 -259t-288 258zM502 442v-182q0 -58 32 -91.5t89 -33.5t89 33.5t32 91.5v182q0 56 -32.5 89.5t-88.5 33.5q-55 0 -88 -33.5t-33 -89.5z" />
    <glyph glyph-name="afii10049" unicode="&#x42f;" horiz-adv-x="707" 
d="M341 700h300v-700h-172v227h-83l-132 -227h-190l158 245q-84 14 -127.5 71.5t-43.5 148.5q0 106 70.5 170.5t219.5 64.5zM341 367h128v194h-128q-58 0 -85.5 -20.5t-27.5 -75.5q0 -56 28 -77t85 -21z" />
    <glyph glyph-name="afii10065" unicode="&#x430;" horiz-adv-x="559" 
d="M78 376l-18 103q124 31 209 31q122 0 180 -45t58 -142v-323h-160v34q-60 -44 -151 -44q-160 0 -160 154q0 74 47 107t140 33h125v44q0 40 -19 56.5t-68 16.5q-66 0 -183 -25zM274 86q27 0 73 20v95h-79q-34 0 -52.5 -15.5t-18.5 -38.5q0 -33 18 -47t59 -14z" />
    <glyph glyph-name="afii10066" unicode="&#x431;" horiz-adv-x="607" 
d="M42 242v200q0 106 66 177.5t186 91.5l101 16q46 8 113 37l42 -130q-43 -25 -90 -31l-169 -20q-103 -12 -103 -125v-77q14 37 56.5 64t97.5 27q112 0 169 -45t57 -157v-61q0 -220 -263 -220q-132 0 -197.5 60.5t-65.5 192.5zM305 107q49 0 75.5 29t26.5 83v42
q0 54 -26.5 82.5t-75.5 28.5q-102 0 -102 -123v-30q0 -112 102 -112z" />
    <glyph glyph-name="afii10067" unicode="&#x432;" horiz-adv-x="559" 
d="M52 0v500h290q82 0 117 -27.5t35 -95.5q0 -72 -80 -97q26 -4 42 -9.5t35 -18t28.5 -37t9.5 -60.5q0 -88 -48.5 -121.5t-166.5 -33.5h-262zM293 218h-93v-120h96q44 0 64 13.5t20 49.5q0 31 -21 44t-66 13zM200 301h88q57 0 57 54q0 49 -57 49h-88v-103z" />
    <glyph glyph-name="afii10068" unicode="&#x433;" horiz-adv-x="440" 
d="M212 0h-160v500h374v-122h-214v-378z" />
    <glyph glyph-name="afii10069" unicode="&#x434;" horiz-adv-x="672" 
d="M143 500h432v-392h59l-9 -268h-139v160h-318l-9 -160h-139v268h49q74 79 74 392zM415 404h-127q0 -193 -57 -296h184v296z" />
    <glyph glyph-name="afii10070" unicode="&#x435;" horiz-adv-x="560" 
d="M501 123l16 -106q-113 -27 -224 -27q-257 0 -257 203v82q0 118 61 176.5t188 58.5q69 0 121 -16.5t88 -62.5t36 -120v-98h-333v-31q0 -53 28.5 -69t85.5 -16q99 0 190 26zM197 312v-17h184v24q0 52 -23.5 72t-72.5 20q-47 0 -67.5 -21.5t-20.5 -77.5z" />
    <glyph glyph-name="afii10072" unicode="&#x436;" horiz-adv-x="797" 
d="M10 500h167l133 -223h12v223h154v-223h13l128 223h170l-156 -241l155 -259h-169l-129 244h-12v-244h-154v242h-11l-136 -242h-164l163 259z" />
    <glyph glyph-name="afii10073" unicode="&#x437;" horiz-adv-x="531" 
d="M36 22l20 98q73 -22 133 -22q77 0 110.5 13t33.5 49q0 32 -23.5 43t-71.5 11h-129v89h113q79 0 79 57q0 26 -27 35t-85 9q-56 0 -130 -22l-20 99q84 28 176 28q127 0 187.5 -25.5t60.5 -93.5q0 -39 -24 -63.5t-62 -34.5q27 -6 45 -13.5t38.5 -22t30.5 -39.5t10 -60
q0 -91 -73.5 -128.5t-212.5 -37.5q-90 0 -179 31z" />
    <glyph glyph-name="afii10074" unicode="&#x438;" horiz-adv-x="628" 
d="M52 500h160v-292l224 292h140v-500h-160v291l-223 -291h-141v500z" />
    <glyph glyph-name="afii10075" unicode="&#x439;" horiz-adv-x="628" 
d="M86 730h124q0 -14 2.5 -23.5t12 -20.5t32 -16.5t57.5 -5.5q104 0 104 66h124v-20q0 -40 -20 -68t-55 -42t-72 -20t-81 -6t-81 6t-72 20t-55 42t-20 68v20zM52 500h160v-292l224 292h140v-500h-160v291l-223 -291h-141v500z" />
    <glyph glyph-name="afii10076" unicode="&#x43a;" horiz-adv-x="565" 
d="M212 500v-217h7l154 217h186l-192 -240l194 -260h-181l-162 245h-6v-245h-160v500h160z" />
    <glyph glyph-name="afii10077" unicode="&#x43b;" horiz-adv-x="631" 
d="M147 500h432v-500h-160v393h-134q0 -58 -1.5 -97t-7 -90.5t-18.5 -85.5t-32.5 -65.5t-52.5 -47t-76 -15.5q-39 0 -68 8l-15 112q24 -3 40 -3q93 0 93 391z" />
    <glyph glyph-name="afii10078" unicode="&#x43c;" horiz-adv-x="814" 
d="M201 351l-22 -351h-133l42 500h175l144 -360l144 360h175l42 -500h-133l-22 351l-147 -351h-129z" />
    <glyph glyph-name="afii10079" unicode="&#x43d;" horiz-adv-x="624" 
d="M412 500h160v-500h-160v204h-200v-204h-160v500h160v-190h200v190z" />
    <glyph glyph-name="afii10080" unicode="&#x43e;" horiz-adv-x="580" 
d="M30 203v93q0 104 66 158.5t191 54.5q126 0 194.5 -55t68.5 -158v-93q0 -103 -68.5 -158.5t-194.5 -55.5q-125 0 -191 55t-66 159zM185 308v-103q0 -110 102 -110t102 110v89q0 110 -102 110t-102 -96z" />
    <glyph glyph-name="afii10081" unicode="&#x43f;" horiz-adv-x="620" 
d="M212 0h-160v500h516v-500h-160v392h-196v-392z" />
    <glyph glyph-name="afii10082" unicode="&#x440;" horiz-adv-x="593" 
d="M212 -200h-160v700h160v-34q75 48 151 48q96 0 145 -62.5t49 -201.5q0 -137 -48 -195.5t-146 -58.5q-26 0 -51.5 4.5t-37 8.5t-35.5 14t-27 11v-234zM282 397q-30 0 -70 -20v-254q48 -19 83 -19q101 0 101 146q0 147 -114 147z" />
    <glyph glyph-name="afii10083" unicode="&#x441;" horiz-adv-x="473" 
d="M437 133l22 -113q-78 -29 -168 -29q-115 0 -185 55.5t-70 165.5v75q0 102 72 163t183 61q89 0 168 -32l-22 -114q-18 8 -54 18t-60 10q-61 0 -90.5 -27t-29.5 -91v-51q0 -65 29 -91t91 -26q12 0 22.5 1t24 4.5t18.5 4.5t24.5 7.5t24.5 8.5z" />
    <glyph glyph-name="afii10084" unicode="&#x442;" horiz-adv-x="524" 
d="M20 378v122h484v-122h-161v-378h-160v378h-163z" />
    <glyph glyph-name="afii10085" unicode="&#x443;" horiz-adv-x="588" 
d="M236 -65l28 66q-33 0 -62.5 23t-44.5 63l-149 413h181l109 -411h11l105 411h164l-159 -493q-11 -35 -36 -85t-44 -75q-57 -77 -160 -77q-69 0 -161 30l24 108q77 -24 116 -24q30 0 46.5 10t31.5 41z" />
    <glyph glyph-name="afii10086" unicode="&#x444;" horiz-adv-x="858" 
d="M349 700h160v-211q15 7 47.5 14t54.5 7q217 0 217 -256q0 -264 -217 -264q-22 0 -54.5 7t-47.5 14v-211h-160v211q-15 -7 -47 -14t-55 -7q-217 0 -217 264q0 121 53 188.5t164 67.5q55 0 102 -21v211zM298 101q26 0 51 10v277q-33 10 -51 10q-58 0 -82.5 -35.5
t-24.5 -108.5q0 -84 27 -118t80 -35zM559 398q-30 0 -50 -10v-277q22 -10 50 -10q57 0 82.5 36t25.5 117q0 77 -26 110.5t-82 33.5z" />
    <glyph glyph-name="afii10087" unicode="&#x445;" horiz-adv-x="562" 
d="M184 500l97 -197l100 197h171l-156 -244l156 -256h-174l-97 216l-99 -216h-172l147 256l-147 244h174z" />
    <glyph glyph-name="afii10088" unicode="&#x446;" horiz-adv-x="646" 
d="M52 500h160v-392h180v392h160v-392h60l-11 -268h-149v160h-400v500z" />
    <glyph glyph-name="afii10089" unicode="&#x447;" horiz-adv-x="584" 
d="M42 500h160v-168q0 -47 17.5 -66.5t62.5 -19.5q55 0 90 9v245h160v-500h-160v150q-78 -12 -139 -12q-98 0 -144.5 46.5t-46.5 146.5v169z" />
    <glyph glyph-name="afii10090" unicode="&#x448;" horiz-adv-x="848" 
d="M350 500h148v-392h144v392h154v-500h-744v500h154v-392h144v392z" />
    <glyph glyph-name="afii10091" unicode="&#x449;" horiz-adv-x="890" 
d="M52 0v500h154v-392h144v392h148v-392h144v392h154v-392h60l-10 -268h-150v160h-644z" />
    <glyph glyph-name="afii10092" unicode="&#x44a;" horiz-adv-x="652" 
d="M14 391l12 109h276v-160h82q124 0 178 -32.5t54 -133.5q0 -42 -12 -73t-32.5 -50.5t-53 -31t-68.5 -15.5t-84 -4h-224v391h-128zM375 240h-73v-137h77q41 0 58 15.5t17 55.5q0 34 -18 50t-61 16z" />
    <glyph glyph-name="afii10093" unicode="&#x44b;" horiz-adv-x="806" 
d="M593 0v500h161v-500h-161zM52 0v500h160v-160h82q123 0 177 -32.5t54 -133.5t-62.5 -137.5t-186.5 -36.5h-224zM284 240h-72v-137h76q42 0 59 15.5t17 55.5q0 34 -18 50t-62 16z" />
    <glyph glyph-name="afii10094" unicode="&#x44c;" horiz-adv-x="561" 
d="M52 0v500h160v-160h83q123 0 176.5 -32.5t53.5 -133.5t-62.5 -137.5t-186.5 -36.5h-224zM284 240h-72v-137h76q42 0 59 15.5t17 55.5q0 34 -18 50t-62 16z" />
    <glyph glyph-name="afii10095" unicode="&#x44d;" horiz-adv-x="504" 
d="M305 190v12h-201v98h201v15q0 51 -30 67.5t-96 16.5q-47 0 -120 -27l-23 102q87 36 180 36q116 0 184 -56t68 -167v-76q0 -111 -68 -166t-184 -55q-98 0 -186 34l22 103q76 -27 127 -27q64 0 95 19t31 71z" />
    <glyph glyph-name="afii10096" unicode="&#x44e;" horiz-adv-x="849" 
d="M296 200h-96v-200h-148v500h148v-204h95v26q0 89 75 138t183 49q119 0 189.5 -54t70.5 -165v-81q0 -111 -70.5 -165.5t-189.5 -54.5q-108 0 -182.5 51t-74.5 143v17zM453 293v-96q0 -96 100 -96q49 0 74.5 25t25.5 71v96q0 53 -24 79t-76 26q-100 0 -100 -105z" />
    <glyph glyph-name="afii10097" unicode="&#x44f;" horiz-adv-x="601" 
d="M253 500h296v-500h-160v154h-67l-113 -154h-174l134 166q-135 8 -135 160q0 90 53.5 132t165.5 42zM201 327q1 -40 20.5 -58t65.5 -18h102v145h-102q-47 0 -66.5 -15t-19.5 -54z" />
    <glyph glyph-name="afii10071" unicode="&#x451;" horiz-adv-x="560" 
d="M103 718h145v-147h-145v147zM310 718h146v-147h-146v147zM501 123l16 -106q-113 -27 -224 -27q-257 0 -257 203v82q0 118 61 176.5t188 58.5q69 0 121 -16.5t88 -62.5t36 -120v-98h-333v-31q0 -53 28.5 -69t85.5 -16q99 0 190 26zM197 312v-17h184v24q0 52 -23.5 72
t-72.5 20q-47 0 -67.5 -21.5t-20.5 -77.5z" />
    <glyph glyph-name="endash" unicode="&#x2013;" horiz-adv-x="632" 
d="M66 276v136h500v-136h-500z" />
    <glyph glyph-name="emdash" unicode="&#x2014;" horiz-adv-x="902" 
d="M66 276v136h770v-136h-770z" />
    <glyph glyph-name="quoteleft" unicode="&#x2018;" horiz-adv-x="300" 
d="M238 432h-180v100q0 62 32.5 122t75.5 96l57 -31q-45 -57 -45 -123h60v-164z" />
    <glyph glyph-name="quoteright" unicode="&#x2019;" horiz-adv-x="300" 
d="M60 700h180v-100q0 -62 -32.5 -122t-75.5 -96l-57 31q45 57 45 123h-60v164z" />
    <glyph glyph-name="quotesinglbase" unicode="&#x201a;" horiz-adv-x="300" 
d="M60 164h180v-100q0 -62 -32.5 -122t-75.5 -96l-57 31q45 57 45 123h-60v164z" />
    <glyph glyph-name="quotedblleft" unicode="&#x201c;" horiz-adv-x="528" 
d="M474 432h-180v100q0 62 32.5 122t75.5 96l57 -31q-45 -57 -45 -123h60v-164zM238 432h-180v100q0 62 32.5 122t75.5 96l57 -31q-45 -57 -45 -123h60v-164z" />
    <glyph glyph-name="quotedblright" unicode="&#x201d;" horiz-adv-x="528" 
d="M60 700h180v-100q0 -62 -32.5 -122t-75.5 -96l-57 31q45 57 45 123h-60v164zM296 700h180v-100q0 -62 -32.5 -122t-75.5 -96l-57 31q45 57 45 123h-60v164z" />
    <glyph glyph-name="quotedblbase" unicode="&#x201e;" horiz-adv-x="528" 
d="M60 164h180v-100q0 -62 -32.5 -122t-75.5 -96l-57 31q45 57 45 123h-60v164zM296 164h180v-100q0 -62 -32.5 -122t-75.5 -96l-57 31q45 57 45 123h-60v164z" />
    <glyph glyph-name="bullet" unicode="&#x2022;" horiz-adv-x="386" 
d="M66 277q0 57 30.5 92.5t95.5 35.5t96.5 -35.5t31.5 -92.5q0 -56 -31.5 -91t-96.5 -35t-95.5 34.5t-30.5 91.5z" />
    <glyph glyph-name="ellipsis" unicode="&#x2026;" horiz-adv-x="781" 
d="M60 164h180v-164h-180v164zM300 164h180v-164h-180v164zM540 164h181v-164h-181v164z" />
    <glyph glyph-name="perthousand" unicode="&#x2030;" horiz-adv-x="1389" 
d="M749 701l-360 -701h-150l359 701h151zM236 710q81 0 125 -41.5t44 -120.5v-67q0 -79 -44 -119t-125 -40q-82 0 -126 40t-44 119v67q0 79 45 120.5t125 41.5zM185 533v-34q0 -45 9.5 -65.5t41.5 -20.5q50 0 50 86v34q0 30 -2.5 46t-14 28t-33.5 12q-31 0 -41 -21.5
t-10 -64.5zM755 378q81 0 125 -41.5t44 -120.5v-67q0 -79 -44 -119t-125 -40q-82 0 -126 40t-44 119v67q0 79 45 120.5t125 41.5zM704 201v-34q0 -45 9.5 -65.5t41.5 -20.5q50 0 50 86v34q0 30 -2.5 46t-14 28t-33.5 12q-31 0 -41 -21.5t-10 -64.5zM1155 378q81 0 125 -41.5
t44 -120.5v-67q0 -79 -44 -119t-125 -40q-82 0 -126 40t-44 119v67q0 79 45 120.5t125 41.5zM1104 201v-34q0 -45 9.5 -65.5t41.5 -20.5q50 0 50 86v34q0 30 -2.5 46t-14 28t-33.5 12q-31 0 -41 -21.5t-10 -64.5z" />
    <glyph glyph-name="Euro" unicode="&#x20ac;" horiz-adv-x="698" 
d="M82 368l-16 92h59v10q0 126 77 183t206 57q64 0 131 -12t92 -23l-30 -121q-17 8 -79 15.5t-106 7.5q-122 0 -122 -107v-10h290l-14 -92h-276v-31h268l-14 -92h-254v-15q0 -107 123 -107q44 0 105 7.5t86 15.5l24 -122q-31 -11 -95.5 -22.5t-128.5 -11.5
q-128 0 -205.5 58.5t-77.5 181.5v15h-43l-16 92h56v31h-40z" />
    <glyph glyph-name="afii61352" unicode="&#x2116;" horiz-adv-x="1131" 
d="M482 700h152v-700h-168l-248 440v-440h-152v700h172l244 -434v434zM693 412v31q0 157 184 157q98 0 143 -43.5t45 -113.5v-31q0 -71 -45 -113.5t-143 -42.5q-184 0 -184 156zM824 441v-27q0 -31 10.5 -46t42.5 -15t42.5 15t10.5 46v27q0 31 -10.5 46.5t-42.5 15.5
t-42.5 -15.5t-10.5 -46.5zM697 110v95h368v-95h-368z" />
    <glyph glyph-name="trademark" unicode="&#x2122;" horiz-adv-x="866" 
d="M40 610v90h290v-90h-90v-259h-110v259h-90zM473 569l-16 -218h-98l30 349h126l68 -250l78 250h116l29 -349h-97l-16 219l-62 -219h-96z" />
    <glyph glyph-name="CR" horiz-adv-x="264" 
 />
    </font>
</defs>
</svg>
