<?xml version="1.0" standalone="no"?>
<!DOCTYPE svg PUBLIC "-//W3C//DTD SVG 1.1//EN" "http://www.w3.org/Graphics/SVG/1.1/DTD/svg11.dtd" >
<svg xmlns="http://www.w3.org/2000/svg" xmlns:xlink="http://www.w3.org/1999/xlink" version="1.1">
<metadata>
Created by FontForge 20161003 at Fri Jan 13 11:56:00 2017
 By www-data
Copyright (c) 2008 by . All rights reserved.
</metadata>
<defs>
<font id="ALSEkibastuzExtraBlack" horiz-adv-x="760" >
  <font-face 
    font-family="ALSEkibastuzExtraBlack"
    font-weight="1000"
    font-stretch="normal"
    units-per-em="1000"
    panose-1="2 0 9 5 2 0 0 2 0 4"
    ascent="800"
    descent="-200"
    x-height="500"
    cap-height="700"
    bbox="-67 -251 1573 974"
    underline-thickness="50"
    underline-position="-150"
    unicode-range="U+0020-2122"
  />
<missing-glyph horiz-adv-x="500" 
 />
    <glyph glyph-name=".notdef" horiz-adv-x="500" 
 />
    <glyph glyph-name=".null" horiz-adv-x="0" 
 />
    <glyph glyph-name="nonmarkingreturn" horiz-adv-x="333" 
 />
    <glyph glyph-name="space" unicode=" " horiz-adv-x="500" 
 />
    <glyph glyph-name="exclam" unicode="!" horiz-adv-x="340" 
d="M40 700h260l-30 -440h-200zM40 204h260v-204h-260v204z" />
    <glyph glyph-name="quotedbl" unicode="&#x22;" horiz-adv-x="569" 
d="M309 700h210l-10 -230h-190zM50 700h210l-10 -230h-190z" />
    <glyph glyph-name="numbersign" unicode="#" horiz-adv-x="890" 
d="M50 390v220h155l17 90h265l-18 -90h54l17 90h265l-18 -90h53v-220h-96l-15 -80h111v-220h-154l-18 -90h-264l17 90h-53l-18 -90h-264l17 90h-53v220h96l16 80h-112zM426 390l-15 -80h53l16 80h-54z" />
    <glyph glyph-name="dollar" unicode="$" horiz-adv-x="670" 
d="M265 730h140v-60q105 -4 207 -22l-25 -160q-96 12 -182 12v-50q101 0 168 -56t67 -157q0 -118 -56.5 -181t-178.5 -66v-70h-140v70q-126 0 -227 30l25 170q76 -16 202 -16v56q-104 0 -169.5 50t-65.5 158q0 232 235 232v60zM405 230v-56q25 0 25 29q0 27 -25 27zM265 450
v50q-25 0 -25 -26q0 -24 25 -24z" />
    <glyph glyph-name="percent" unicode="%" horiz-adv-x="1099" 
d="M859 -10q-190 0 -190 177v55q0 94 50.5 138t139.5 44q190 0 190 -182v-55q0 -177 -190 -177zM240 710q190 0 190 -182v-55q0 -177 -190 -177t-190 177v55q0 94 50.5 138t139.5 44zM205 538v-52q0 -44 6 -59.5t29 -15.5q21 0 27.5 13.5t6.5 44.5v52q0 26 -1.5 39t-9 24
t-23.5 11q-35 0 -35 -57zM859 289q-16 0 -24 -10.5t-9.5 -23.5t-1.5 -40v-52q0 -31 6.5 -44.5t28.5 -13.5q21 0 27.5 13.5t6.5 44.5v69q0 57 -34 57zM811 700q-264 -597 -309 -700h-219q66 148 308 700h220z" />
    <glyph glyph-name="ampersand" unicode="&#x26;" horiz-adv-x="867" 
d="M654 657l-45 -189q-66 33 -110 33q-59 0 -59 -40q0 -26 21 -53l117 -129q13 22 13 65l225 -27q0 -94 -105 -182l126 -135h-264l-31 31q-68 -41 -197 -41q-305 0 -305 209q0 92 43.5 137.5t116.5 64.5q-41 58 -41 129q0 84 75.5 132t187.5 48q123 0 232 -53zM359 136
q51 0 77 16l-110 116q-27 -27 -27 -69q0 -29 17 -46t43 -17z" />
    <glyph glyph-name="quotesingle" unicode="'" horiz-adv-x="310" 
d="M50 700h210l-10 -230h-190z" />
    <glyph glyph-name="parenleft" unicode="(" horiz-adv-x="525" 
d="M60 325q0 227 146 485l239 -40q-67 -115 -96 -213.5t-29 -231.5t29 -230.5t96 -212.5l-239 -40q-146 246 -146 483z" />
    <glyph glyph-name="parenright" unicode=")" horiz-adv-x="525" 
d="M445 325q0 -237 -146 -483l-239 40q67 115 96 212.5t29 230.5t-29 231.5t-96 213.5l239 40q146 -258 146 -485z" />
    <glyph glyph-name="asterisk" unicode="*" horiz-adv-x="754" 
d="M50 515l86 180l151 -87l-10 132h200l-10 -132l151 87l86 -180l-125 -45l125 -45l-86 -180l-151 87l10 -132h-200l10 132l-151 -87l-86 180l124 45z" />
    <glyph glyph-name="plus" unicode="+" horiz-adv-x="600" 
d="M190 585h220v-140h140v-190h-140v-140h-220v140h-140v190h140v140z" />
    <glyph glyph-name="comma" unicode="," horiz-adv-x="340" 
d="M40 204h260v-124q0 -64 -46.5 -133t-103.5 -101l-81 47q51 45 51 107h-80v204z" />
    <glyph glyph-name="hyphen" unicode="-" horiz-adv-x="400" 
d="M50 220v190h300v-190h-300z" />
    <glyph glyph-name="period" unicode="." horiz-adv-x="340" 
d="M40 204h260v-204h-260v204z" />
    <glyph glyph-name="slash" unicode="/" horiz-adv-x="568" 
d="M568 700l-349 -700h-219l348 700h220z" />
    <glyph glyph-name="zero" unicode="0" horiz-adv-x="700" 
d="M20 297v96q0 164 88 240.5t242 76.5q155 0 242.5 -76.5t87.5 -240.5v-96q0 -307 -330 -307t-330 307zM350 510q-36 0 -48 -27t-12 -73v-120q0 -53 11 -76.5t49 -23.5t49 23.5t11 76.5v120q0 22 -2 37.5t-7.5 31t-18.5 23.5t-32 8z" />
    <glyph glyph-name="one" unicode="1" horiz-adv-x="700" 
d="M100 458l274 242h226v-700h-260v386l-182 -128z" />
    <glyph glyph-name="two" unicode="2" horiz-adv-x="700" 
d="M335 710q51 0 92.5 -5t81.5 -19.5t67.5 -37.5t44 -61t16.5 -88q0 -47 -13 -84.5t-31.5 -61t-50.5 -42.5t-57.5 -29t-64.5 -22q-8 -2 -24.5 -7t-23.5 -7t-18 -7.5t-16 -12t-9 -16.5t-4 -24h320v-186h-590v54q0 107 15 167.5t47 94t95 59.5q12 5 38.5 14.5t45 17t38.5 17
t30.5 19.5t10.5 21q0 17 -12 22.5t-45 5.5q-60 0 -230 -25l-25 210q155 33 272 33z" />
    <glyph glyph-name="three" unicode="3" horiz-adv-x="700" 
d="M60 22l30 197q95 -17 197 -17q52 0 72.5 6.5t20.5 27.5q0 24 -21.5 31t-74.5 7h-110l-26 160h136q44 0 56.5 7t12.5 26t-14 24.5t-55 5.5q-116 0 -187 -13l-37 198q28 9 96 18.5t120 9.5q172 0 249.5 -37.5t77.5 -137.5q0 -69 -24 -100.5t-68 -47.5q64 -18 96.5 -58
t32.5 -122q0 -56 -18 -96t-47.5 -63t-79.5 -36.5t-102 -17.5t-126 -4q-48 0 -116 11t-91 21z" />
    <glyph glyph-name="four" unicode="4" horiz-adv-x="700" 
d="M282 700h298v-350h90l-30 -210h-60v-140h-260v140h-290v185zM320 478l-78 -127h78v127z" />
    <glyph glyph-name="five" unicode="5" horiz-adv-x="700" 
d="M50 22l30 177q95 -17 235 -17q37 0 51 10t14 41q0 41 -75 41q-64 0 -213 -7l31 433h502l-13 -208h-274l-6 -66q35 7 128 7q98 0 144 -41.5t46 -154.5q0 -64 -18 -110.5t-46 -72.5t-71.5 -40.5t-84 -19t-94.5 -4.5q-88 0 -170 10t-116 22z" />
    <glyph glyph-name="six" unicode="6" horiz-adv-x="700" 
d="M50 296v107q0 146 88.5 226t229.5 80q125 0 273 -40l-40 -186q-75 25 -201 25q-51 0 -70 -19t-19 -59v-21q12 5 45 12q46 10 88 10q102 0 154 -48.5t52 -167.5q0 -115 -67 -170t-215 -55q-158 0 -238 69.5t-80 236.5zM311 271v-29q0 -41 7 -56.5t34 -15.5q37 0 37 44
q0 63 -36 63q-16 0 -42 -6z" />
    <glyph glyph-name="seven" unicode="7" horiz-adv-x="700" 
d="M451 0h-310q0 308 200 470h-290v230h597v-166q-29 -23 -60 -65.5t-63.5 -107.5t-53 -160t-20.5 -201z" />
    <glyph glyph-name="eight" unicode="8" horiz-adv-x="700" 
d="M165 379q-53 18 -84 54t-31 109q0 87 80.5 127.5t219.5 40.5t219.5 -40.5t80.5 -127.5q0 -73 -31 -109t-84 -54q145 -48 145 -192q0 -197 -330 -197t-330 197q0 144 145 192zM340 268q-3 -2 -11.5 -7.5t-12 -7.5t-10 -7.5t-9 -10t-5 -11t-2.5 -13.5q0 -23 18.5 -38.5
t41.5 -15.5t41.5 15.5t18.5 38.5q0 34 -70 57zM350 560q-28 0 -44 -10t-16 -27q0 -45 80 -69q1 1 7 8l9 10.5t8.5 11t8 13t5 12.5t2.5 14q0 37 -60 37z" />
    <glyph glyph-name="nine" unicode="9" horiz-adv-x="700" 
d="M650 403v-107q0 -146 -88.5 -226t-229.5 -80q-125 0 -273 40l40 186q75 -25 201 -25q51 0 70 19t19 59v21q-61 -22 -133 -22q-102 0 -154 48.5t-52 167.5q0 115 67 170t215 55q158 0 238 -69.5t80 -236.5zM389 428v43q0 31 -8.5 44.5t-32.5 13.5q-37 0 -37 -44
q0 -63 36 -63q16 0 42 6z" />
    <glyph glyph-name="colon" unicode=":" horiz-adv-x="340" 
d="M40 508h260v-204h-260v204zM40 204h260v-204h-260v204z" />
    <glyph glyph-name="semicolon" unicode=";" horiz-adv-x="340" 
d="M40 508h260v-204h-260v204zM40 204h260v-124q0 -64 -46.5 -133t-103.5 -101l-81 47q51 45 51 107h-80v204z" />
    <glyph glyph-name="less" unicode="&#x3c;" horiz-adv-x="675" 
d="M50 202v105q93 32 575 200v-181q-236 -53 -297 -68v-8q82 -21 297 -68v-181q-40 14 -251 88t-324 113z" />
    <glyph glyph-name="equal" unicode="=" horiz-adv-x="600" 
d="M50 370v170h500v-170h-500zM50 160v170h500v-170h-500z" />
    <glyph glyph-name="greater" unicode="&#x3e;" horiz-adv-x="675" 
d="M625 307v-105q-113 -39 -324 -113t-251 -88v181q215 47 297 68v8q-61 15 -297 68v181q482 -168 575 -200z" />
    <glyph glyph-name="question" unicode="?" horiz-adv-x="602" 
d="M74 523l-24 168q91 19 172 19q52 0 90.5 -2.5t78.5 -10.5t67 -22.5t49.5 -37.5t33.5 -57.5t11 -80.5q0 -25 -5.5 -46.5t-12.5 -36.5t-21.5 -29t-25 -21.5t-31 -16.5t-31 -13t-33 -11t-30.5 -10q-30 -11 -30 -42v-45h-220v88q0 90 98 120q18 5 28 9t25 11.5t22 18t7 24.5
q0 27 -14.5 34.5t-55.5 7.5q-85 0 -148 -18zM92 204h260v-204h-260v204z" />
    <glyph glyph-name="at" unicode="@" horiz-adv-x="1175" 
d="M587 750q97 0 171 -8.5t146 -34t118.5 -68t74.5 -114.5t28 -170q0 -92 -27.5 -155.5t-78 -97.5t-110.5 -48t-137 -14h-142v32q-11 -16 -44.5 -29t-65.5 -13q-73 0 -123.5 58.5t-50.5 183.5q0 133 70.5 194t183.5 61q90 0 213 -20v-331q42 4 63.5 40.5t21.5 138.5
q0 55 -6 93t-22.5 65t-37 42t-59.5 23.5t-79.5 11t-106.5 2.5q-65 0 -118 -15.5t-98 -50.5t-69.5 -99t-24.5 -153q0 -79 17.5 -137t45 -90.5t70 -51.5t83 -24.5t94.5 -5.5q258 0 446 56l28 -146q-200 -77 -474 -77q-101 0 -179.5 13t-147.5 46t-114 86.5t-70.5 136.5
t-25.5 194q0 130 38 223.5t111 148t168 79.5t220 25zM586 183q12 0 20 6v193q-15 3 -22 3q-23 0 -35.5 -21t-13.5 -81q0 -100 51 -100z" />
    <glyph glyph-name="A" unicode="A" 
d="M478 0l-19 100h-156l-20 -100h-273l210 700h329l201 -700h-272zM387 457l-50 -187h89z" />
    <glyph glyph-name="B" unicode="B" horiz-adv-x="660" 
d="M50 0v700h360q46 0 78.5 -7t62 -25.5t44.5 -55.5t15 -92q0 -106 -83 -136q16 -4 27.5 -9t27 -17t25 -29.5t16.5 -48t7 -70.5q0 -115 -46.5 -162.5t-153.5 -47.5h-380zM300 270v-100h60q14 0 22 16t8 34t-8 34t-22 16h-60zM340 530h-40v-90h40q14 0 22 16t8 34q0 16 -8 28
t-22 12z" />
    <glyph glyph-name="C" unicode="C" horiz-adv-x="582" 
d="M520 240l32 -220q-116 -30 -186 -30q-53 0 -99.5 9t-90.5 30.5t-76 54.5t-51 85t-19 118v126q0 81 28.5 141t78 92.5t106.5 48t123 15.5q31 0 77.5 -7.5t77.5 -14.5l31 -8l-42 -220q-108 20 -144 20q-34 0 -55 -20t-21 -50v-120q0 -70 76 -70q16 0 54.5 5t69.5 10z" />
    <glyph glyph-name="D" unicode="D" horiz-adv-x="730" 
d="M50 0v700h280q208 0 289 -74.5t81 -275.5q0 -200 -82 -275t-288 -75h-280zM330 501h-20v-303h20q67 0 88.5 30.5t21.5 121.5q0 98 -20.5 124.5t-89.5 26.5z" />
    <glyph glyph-name="E" unicode="E" horiz-adv-x="590" 
d="M310 260v-62h250v-198h-510v700h510v-198h-250v-62h190v-180h-190z" />
    <glyph glyph-name="F" unicode="F" horiz-adv-x="580" 
d="M310 211v-211h-260v700h510v-220h-250v-69h190v-200h-190z" />
    <glyph glyph-name="G" unicode="G" horiz-adv-x="680" 
d="M650 38q-110 -48 -260 -48q-360 0 -360 284v146q0 81 29 139.5t80.5 90.5t113 46t137.5 14q120 0 243 -32l-42 -199q-96 25 -167 25q-70 0 -102 -23t-32 -71v-136q0 -94 100 -94q34 0 70 6v71l-100 6v149h290v-374z" />
    <glyph glyph-name="H" unicode="H" horiz-adv-x="790" 
d="M480 700h260v-700h-260v260h-170v-260h-260v700h260v-240h170v240z" />
    <glyph glyph-name="I" unicode="I" horiz-adv-x="480" 
d="M20 500v200h430v-200h-85v-300h95v-200h-430v200h75v300h-85z" />
    <glyph glyph-name="J" unicode="J" horiz-adv-x="542" 
d="M212 -10q-96 0 -192 29l27 204q66 -23 105 -23t59.5 10t20.5 42v448h260v-474q0 -72 -19.5 -120t-59 -72.5t-86.5 -34t-115 -9.5z" />
    <glyph glyph-name="K" unicode="K" horiz-adv-x="725" 
d="M310 700v-292h16l87 292h293l-136 -323l145 -377h-285l-102 320h-18v-320h-260v700h260z" />
    <glyph glyph-name="L" unicode="L" horiz-adv-x="600" 
d="M50 0v700h260v-470h270v-230h-530z" />
    <glyph glyph-name="M" unicode="M" horiz-adv-x="1003" 
d="M300 390l-20 -390h-250l56 700h301l115 -410l114 410h301l56 -700h-250l-19 390l-102 -390h-200z" />
    <glyph glyph-name="N" unicode="N" 
d="M480 700h230v-700h-245l-185 298v-298h-230v700h253l177 -289v289z" />
    <glyph glyph-name="O" unicode="O" 
d="M30 267v156q0 82 26 139.5t75 89t109.5 45t139.5 13.5t139.5 -13.5t109.5 -45t75 -89t26 -139.5v-156q0 -66 -17.5 -115t-47.5 -79.5t-75.5 -49.5t-95.5 -26t-114 -7t-114 7t-95.5 26t-75.5 49.5t-47.5 79.5t-17.5 115zM300 400v-100q0 -29 2 -45t9.5 -33t24 -24.5
t44.5 -7.5q52 0 66 26t14 84v100q0 29 -2 45t-9.5 33t-24 24.5t-44.5 7.5t-45 -7.5t-24 -25t-9 -33t-2 -44.5z" />
    <glyph glyph-name="P" unicode="P" horiz-adv-x="700" 
d="M50 700h290q179 0 254.5 -63.5t75.5 -213.5t-75 -212t-255 -62h-30v-149h-260v700zM310 499v-150h30q36 0 52.5 16t16.5 60t-15.5 59t-53.5 15h-30z" />
    <glyph glyph-name="Q" unicode="Q" 
d="M30 267v156q0 82 26 139.5t75 89t109.5 45t139.5 13.5t139.5 -13.5t109.5 -45t75 -89t26 -139.5v-156q0 -132 -71 -200l72 -195h-234l-44 121q-36 -3 -73 -3q-64 0 -114 7t-95.5 26t-75.5 49.5t-47.5 79.5t-17.5 115zM342 296h118v110q0 23 -0.5 35t-5 27.5t-12.5 23
t-23.5 13t-38.5 5.5t-38.5 -5.5t-23.5 -13t-12.5 -23t-5 -27.5t-0.5 -35v-112q0 -94 45 -101q15 -3 35 -3z" />
    <glyph glyph-name="R" unicode="R" horiz-adv-x="712" 
d="M414 0l-82 244h-22v-244h-260v700h300q182 0 256 -55t74 -196q0 -91 -28 -141t-79 -58l127 -250h-286zM310 507v-119h50q59 0 59 61q0 29 -12.5 43.5t-46.5 14.5h-50z" />
    <glyph glyph-name="S" unicode="S" horiz-adv-x="670" 
d="M330 710q149 0 282 -23l-25 -180q-56 11 -132.5 18t-107.5 7q-57 0 -57 -23q0 -22 40 -33q20 -5 53.5 -13t50.5 -12t44.5 -12t41.5 -14.5t34.5 -17.5t30.5 -22.5t22.5 -28.5t18.5 -37t10 -45.5t4 -56.5q0 -66 -22.5 -111.5t-65.5 -70t-96.5 -35t-125.5 -10.5
q-156 0 -292 42l25 180q178 -35 267 -35q50 0 50 19q0 30 -50 43q-27 7 -67 17t-61.5 15t-50.5 14.5t-43.5 19.5t-32.5 26.5t-26 37.5t-13.5 50.5t-5.5 68.5q0 120 75.5 171t224.5 51z" />
    <glyph glyph-name="T" unicode="T" horiz-adv-x="600" 
d="M10 470v230h580v-230h-160v-470h-260v470h-160z" />
    <glyph glyph-name="U" unicode="U" horiz-adv-x="730" 
d="M440 700h240v-450q0 -58 -16.5 -103.5t-44 -74.5t-67.5 -48t-84 -26.5t-96 -7.5q-161 0 -241.5 58.5t-80.5 201.5v450h270v-460q0 -28 15.5 -39t46.5 -11t44.5 10.5t13.5 39.5v460z" />
    <glyph glyph-name="V" unicode="V" horiz-adv-x="753" 
d="M198 0l-188 700h292l69 -465h6l72 465h294l-194 -700h-351z" />
    <glyph glyph-name="W" unicode="W" horiz-adv-x="1042" 
d="M145 0l-135 700h269l32 -424l78 424h235l75 -421l33 421h300l-169 -700h-291l-66 423l-67 -423h-294z" />
    <glyph glyph-name="X" unicode="X" horiz-adv-x="780" 
d="M320 700l70 -236l69 236h311l-170 -350l170 -350h-311l-69 235l-70 -235h-310l169 350l-169 350h310z" />
    <glyph glyph-name="Y" unicode="Y" horiz-adv-x="722" 
d="M231 184l-221 516h281l65 -293l73 293h283l-221 -514v-186h-260v184z" />
    <glyph glyph-name="Z" unicode="Z" horiz-adv-x="620" 
d="M30 520v180h550v-187l-251 -333h271v-180h-580v187l260 333h-250z" />
    <glyph glyph-name="bracketleft" unicode="[" horiz-adv-x="510" 
d="M460 800v-200h-150v-540h150v-200h-410v940h410z" />
    <glyph glyph-name="backslash" unicode="\" horiz-adv-x="568" 
d="M595 -111h-219l-365 833h220z" />
    <glyph glyph-name="bracketright" unicode="]" horiz-adv-x="510" 
d="M200 600h-150v200h410v-940h-410v200h150v540z" />
    <glyph glyph-name="asciicircum" unicode="^" horiz-adv-x="739" 
d="M278 700h183l228 -440h-229l-86 215l-96 -215h-228z" />
    <glyph glyph-name="underscore" unicode="_" horiz-adv-x="500" 
d="M0 -220v200h500v-200h-500z" />
    <glyph glyph-name="grave" unicode="`" horiz-adv-x="318" 
d="M278 749v-176l-162 -22l-76 198h238z" />
    <glyph glyph-name="a" unicode="a" horiz-adv-x="600" 
d="M72 346l-25 132q125 32 222 32q65 0 115 -9t91 -30t63 -60.5t22 -96.5v-314h-240v30q-57 -40 -145 -40q-70 0 -107.5 37t-37.5 121q0 80 44.5 112.5t145.5 32.5h102v11q0 28 -13.5 44.5t-52.5 16.5q-80 0 -184 -19zM304 113h16v81l-28 -2q-22 -7 -22 -40q0 -17 9 -28
t25 -11z" />
    <glyph glyph-name="b" unicode="b" horiz-adv-x="620" 
d="M40 700h240v-230q68 40 132 40q96 0 142 -60.5t46 -199.5q0 -83 -10.5 -134t-37 -76t-57 -32.5t-83.5 -7.5q-62 0 -132 30v-30h-240v700zM296 149q64 0 64 101q0 91 -63 91h-17v-192h16z" />
    <glyph glyph-name="c" unicode="c" horiz-adv-x="485" 
d="M445 163l30 -150q-59 -22 -168 -22q-121 0 -199 54t-78 168v72q0 101 81.5 163.5t195.5 62.5q28 0 80 -6.5t88 -19.5l-30 -150q0 1 -16.5 5t-37.5 7.5t-31 3.5q-41 0 -60.5 -18t-19.5 -68v-32q0 -50 19 -67.5t61 -17.5q28 0 85 15z" />
    <glyph glyph-name="d" unicode="d" horiz-adv-x="620" 
d="M340 700h240v-700h-240v30q-1 0 -17 -12t-40.5 -20t-57.5 -8q-39 0 -72.5 11.5t-65 39t-49.5 81t-18 128.5q0 150 50 205t157 55q33 0 56.5 -7t32.5 -13t24 -20v230zM320 159h20v182h-20q-35 0 -47.5 -17.5t-12.5 -73.5q0 -51 12.5 -71t47.5 -20z" />
    <glyph glyph-name="e" unicode="e" horiz-adv-x="601" 
d="M543 145l21 -136q-129 -19 -254 -19q-41 0 -77.5 5t-75 19t-65.5 37t-44.5 61.5t-17.5 88.5v64q0 129 68.5 187t211.5 58q271 0 271 -199v-113h-311v-15q0 -33 17.5 -42t52.5 -9q119 0 203 13zM270 320v-18h92v17q0 36 -13.5 49.5t-38.5 13.5q-23 0 -31.5 -12.5
t-8.5 -49.5z" />
    <glyph glyph-name="f" unicode="f" horiz-adv-x="460" 
d="M490 729l-29 -157q-45 8 -82 8q-31 0 -40 -20t-9 -60h110v-170h-110v-330h-240v330h-70v170h70v16q0 121 51.5 177.5t154.5 56.5q122 0 194 -21z" />
    <glyph glyph-name="g" unicode="g" horiz-adv-x="600" 
d="M300 510q26 0 65 -4v44h237q0 -89 -67 -117q35 -25 35 -79q0 -41 -15 -70.5t-38.5 -46t-60.5 -26.5t-72.5 -13t-83.5 -3h-42v-42q13 1 42 1q69 0 119.5 -8t90.5 -27.5t60 -54.5t20 -87q0 -99 -74 -138.5t-216 -39.5t-216 39.5t-74 138.5q0 101 65 141q-19 25 -19 53
q0 37 27 62q-53 39 -53 121q0 41 15.5 70t39 45.5t61.5 26t72.5 12t81.5 2.5zM360 -23q0 25 -12.5 38.5t-47.5 13.5q-36 0 -48 -12.5t-12 -39.5q0 -26 12.5 -39.5t47.5 -13.5t47.5 12.5t12.5 40.5zM340 354q0 24 -8 36.5t-32 12.5q-23 0 -31 -12t-9 -37q0 -24 8 -36.5
t32 -13.5q23 0 31.5 13t8.5 37z" />
    <glyph glyph-name="h" unicode="h" horiz-adv-x="660" 
d="M620 0h-240v300q0 40 -52 40q-22 0 -48 -13v-327h-240v700h240v-222q69 32 161 32q33 0 54 -2t47.5 -10.5t41.5 -25.5t25.5 -48.5t10.5 -76.5v-347z" />
    <glyph glyph-name="i" unicode="i" horiz-adv-x="320" 
d="M40 500h240v-500h-240v500zM40 700h240v-117h-240v117z" />
    <glyph glyph-name="j" unicode="j" horiz-adv-x="320" 
d="M-59 -181l16 134q14 -4 42 -4q17 0 29 9.5t12 20.5v521h240v-520q0 -180 -210 -180q-82 0 -129 19zM40 700h240v-117h-240v117z" />
    <glyph glyph-name="k" unicode="k" horiz-adv-x="620" 
d="M280 700v-375h10l70 175h257l-106 -242l109 -258h-252l-79 207h-9v-207h-240v700h240z" />
    <glyph glyph-name="l" unicode="l" horiz-adv-x="320" 
d="M280 0h-240v750h240v-750z" />
    <glyph glyph-name="m" unicode="m" horiz-adv-x="940" 
d="M590 0h-230v312q0 14 -11.5 22t-26.5 8q-18 0 -52 -23v-319h-230v500h230v-53q39 25 93.5 44t95.5 19q51 0 77.5 -10t39.5 -43q39 22 93.5 37.5t93.5 15.5q89 0 113 -32.5t24 -120.5v-357h-230v312q0 30 -38 30q-14 0 -42 -15v-327z" />
    <glyph glyph-name="n" unicode="n" horiz-adv-x="660" 
d="M620 0h-240v287q0 30 -13.5 41.5t-38.5 11.5q-24 0 -48 -10v-330h-240v500h240v-22q100 32 208 32q69 0 100.5 -47.5t31.5 -151.5v-311z" />
    <glyph glyph-name="o" unicode="o" horiz-adv-x="610" 
d="M20 210v78q0 221 280 221q141 0 215.5 -55t74.5 -166v-78q0 -111 -74.5 -166t-215.5 -55q-280 0 -280 221zM250 308v-94q0 -20 1 -32t5.5 -26.5t15.5 -21t28 -6.5q32 0 41 22.5t9 63.5v70q0 21 -1 32t-5 25.5t-15 21.5t-29 7q-50 0 -50 -62z" />
    <glyph glyph-name="p" unicode="p" horiz-adv-x="630" 
d="M280 -200h-240v700h240v-30q71 46 145 46q85 0 130 -59t45 -207q0 -76 -12.5 -127t-37.5 -77t-54.5 -36t-70.5 -10q-18 0 -35 1.5t-26.5 2.5t-25.5 5.5t-19 5.5t-20.5 8t-18.5 7v-230zM290 341h-10v-182q23 0 31 1q25 4 37 24t12 66q0 49 -16.5 70t-53.5 21z" />
    <glyph glyph-name="q" unicode="q" horiz-adv-x="630" 
d="M590 500v-700h-240v230q-75 -42 -126 -42q-101 0 -147.5 61t-46.5 201q0 143 54 201.5t186 58.5q173 0 320 -10zM340 341q-37 0 -53.5 -21t-16.5 -70q0 -54 16.5 -72.5t53.5 -18.5h10v182h-10z" />
    <glyph glyph-name="r" unicode="r" horiz-adv-x="473" 
d="M443 510l20 -191h-88q-36 0 -65.5 -38.5t-29.5 -91.5v-189h-240v500h240v-41q51 51 122 51h41z" />
    <glyph glyph-name="s" unicode="s" horiz-adv-x="571" 
d="M300 510q117 0 229 -25l-21 -125q-101 22 -208 22q-23 0 -31.5 -6t-8.5 -20q0 -13 5.5 -18.5t24.5 -7.5q55 -6 88.5 -11.5t70 -17.5t56 -29t32.5 -45.5t13 -67.5q0 -98 -57.5 -133.5t-192.5 -35.5q-154 0 -276 21l16 126q162 -21 232 -21q38 0 38 16q0 23 -40 29
q-123 19 -162 37q-78 35 -87 127q-1 15 -1 31q0 82 70 118t210 36z" />
    <glyph glyph-name="t" unicode="t" horiz-adv-x="420" 
d="M10 340v160h50v120l240 20v-140h100v-160h-100v-154q0 -35 28 -35q38 0 79 5l24 -147q-83 -19 -169 -19q-110 0 -156 31.5t-46 116.5v202h-50z" />
    <glyph glyph-name="u" unicode="u" horiz-adv-x="660" 
d="M40 500h240v-287q0 -30 13.5 -41.5t38.5 -11.5q26 0 48 10v330h240v-500h-240v22q-114 -32 -208 -32q-66 0 -99 38t-33 99v373z" />
    <glyph glyph-name="v" unicode="v" horiz-adv-x="639" 
d="M154 0l-144 500h259l47 -330h9l45 330h259l-143 -500h-332z" />
    <glyph glyph-name="w" unicode="w" horiz-adv-x="932" 
d="M104 0l-94 500h252l32 -306h4l48 306h240l48 -308h4l33 308h251l-95 -500h-312l-49 288l-50 -288h-312z" />
    <glyph glyph-name="x" unicode="x" horiz-adv-x="622" 
d="M263 500l52 -176l46 176h251l-109 -240l109 -260h-252l-51 175l-46 -175h-253l111 260l-111 240h253z" />
    <glyph glyph-name="y" unicode="y" horiz-adv-x="651" 
d="M250 -26l14 27q-45 0 -91 32.5t-62 90.5l-104 376h268l54 -351l51 351h261l-166 -555q-37 -70 -76 -107q-70 -68 -185 -68q-79 0 -204 35l32 159q31 -9 79 -17.5t62 -8.5q27 0 40.5 6.5t26.5 29.5z" />
    <glyph glyph-name="z" unicode="z" horiz-adv-x="510" 
d="M24 340v160h444v-113l-133 -226h155v-161h-470v113l143 227h-139z" />
    <glyph glyph-name="braceleft" unicode="{" horiz-adv-x="550" 
d="M500 588h-71q-32 0 -32 -30v-142q0 -55 -64 -67q23 -10 44 -38t21 -60v-147q0 -30 31 -30h71v-214h-90q-134 0 -203 46.5t-69 152.5v149q0 30 -25 30h-63v213h63q25 0 25 30v115q0 110 70.5 157t201.5 47h90v-212z" />
    <glyph glyph-name="bar" unicode="|" horiz-adv-x="360" 
d="M50 750h260v-1001h-260v1001z" />
    <glyph glyph-name="braceright" unicode="}" horiz-adv-x="550" 
d="M121 588h-71v212h90q131 0 201.5 -47t70.5 -157v-115q0 -30 25 -30h63v-213h-63q-25 0 -25 -30v-149q0 -106 -69 -152.5t-203 -46.5h-90v214h71q31 0 31 30v147q0 32 21 60t44 38q-65 13 -65 67v142q0 30 -31 30z" />
    <glyph glyph-name="asciitilde" unicode="~" horiz-adv-x="783" 
d="M142 233l-72 214q100 74 171 74q64 0 147 -23.5t131 -23.5q60 0 141 47l93 -213q-98 -89 -180 -89q-72 0 -154 23.5t-124 23.5q-77 0 -153 -33z" />
    <glyph glyph-name="sterling" unicode="&#xa3;" horiz-adv-x="944" 
d="M748 669l-44 -176q-1 1 -37 6.5t-88 11.5t-83 6q-70 0 -70 -65v-16h210v-152h-210v-65q17 -3 47 -11q6 -2 30 -9t34 -9t29 -5t37 -3q39 0 96 14t79 24l76 -164q-91 -66 -251 -66q-70 0 -147.5 22t-140.5 22q-34 0 -93 -9t-100 -24l-52 166q47 20 96 33v85h-56v151h56v41
q0 62 25.5 108t72 73t104.5 39.5t128 12.5q56 0 117.5 -10t91.5 -18t43 -13z" />
    <glyph glyph-name="section" unicode="&#xa7;" horiz-adv-x="800" 
d="M400 699q129 0 323 -32l-46 -158q-185 33 -277 33q-90 0 -90 -29q0 -20 136 -54q10 -3 44 -11l51 -12t49 -14.5t50 -20t42 -25.5t36.5 -33.5t22 -42t9.5 -53.5q0 -77 -84 -127q84 -50 84 -130q0 -65 -52 -109t-128.5 -62.5t-169.5 -18.5q-183 0 -323 32l46 159
q52 -13 146 -23.5t131 -10.5q38 0 58.5 5t26 11.5t5.5 16.5q0 9 -9.5 16.5t-30.5 13.5t-34.5 9t-43.5 8t-35 6q-29 5 -48.5 9.5t-52.5 13.5t-55.5 19t-49 26.5t-43 36t-27.5 46.5t-11 59q0 71 85 125q-41 20 -63 55.5t-22 76.5q0 62 51 106t128.5 63.5t170.5 19.5zM310 253
q0 -21 21 -32.5t74 -25.5q85 35 85 52q0 19 -19.5 32.5t-74.5 23.5q-86 -26 -86 -50z" />
    <glyph glyph-name="dieresis" unicode="&#xa8;" horiz-adv-x="534" 
d="M40 730h201v-167h-201v167zM292 730h202v-167h-202v167z" />
    <glyph glyph-name="copyright" unicode="&#xa9;" horiz-adv-x="1010" 
d="M505 710q119 0 208.5 -34.5t142.5 -97.5t78.5 -143.5t25.5 -179.5t-25.5 -179.5t-78.5 -143.5t-142.5 -97.5t-208.5 -34.5t-208.5 34.5t-142.5 97.5t-78.5 143.5t-25.5 179.5t25.5 179.5t78.5 143.5t142.5 97.5t208.5 34.5zM763 256q0 162 -59.5 228t-198.5 66
q-258 0 -258 -294q0 -88 22 -148.5t61.5 -90t80.5 -41t94 -11.5q67 0 111 11t79 42t51.5 89.5t16.5 148.5zM642 181l21 -149q-78 -21 -126 -21q-46 0 -84.5 10t-72 32.5t-53 63t-19.5 96.5v85q0 55 19.5 95.5t53 63t72.5 33t84 10.5q21 0 52.5 -5t52.5 -10l21 -5l-28 -150
q-74 14 -98 14q-23 0 -37.5 -13.5t-14.5 -34.5v-81q0 -48 52 -48z" />
    <glyph glyph-name="guillemotleft" unicode="&#xab;" horiz-adv-x="657" 
d="M50 265l119 204h198l-96 -204l94 -213h-204zM310 265l119 204h198l-96 -204l94 -213h-204z" />
    <glyph glyph-name="registered" unicode="&#xae;" horiz-adv-x="600" 
d="M255 710q105 0 155 -56t50 -149t-50 -149t-155 -56t-155 56t-50 149q0 92 50 148.5t155 56.5zM369 504q0 71 -26 100t-88 29q-111 0 -111 -129q0 -126 111 -126q60 0 87 25.5t27 100.5zM275 416l-22 63h-5v-63h-68v182h78q47 0 66.5 -14.5t19.5 -50.5q0 -47 -28 -52
l33 -65h-74zM248 548v-31h13q15 0 15 16q0 15 -15 15h-13z" />
    <glyph glyph-name="degree" unicode="&#xb0;" horiz-adv-x="600" 
d="M300 720q103 0 176.5 -73.5t73.5 -176.5t-73.5 -176.5t-176.5 -73.5t-176.5 73.5t-73.5 176.5t73.5 176.5t176.5 73.5zM372 470q0 30 -21 51t-51 21t-50.5 -21t-20.5 -51t20.5 -50.5t50.5 -20.5t51 20.5t21 50.5z" />
    <glyph glyph-name="plusminus" unicode="&#xb1;" horiz-adv-x="600" 
d="M190 700h220v-140h140v-190h-140v-140h-220v140h-140v190h140v140zM50 0v190h500v-190h-500z" />
    <glyph glyph-name="acute" unicode="&#xb4;" horiz-adv-x="318" 
d="M40 570v180h238l-96 -202z" />
    <glyph glyph-name="paragraph" unicode="&#xb6;" horiz-adv-x="890" 
d="M800 700l40 -260h-90v-525l-200 -32v557h-76v-562l-200 -28v410h-17q-99 0 -153 55t-54 165t54 165t153 55h543z" />
    <glyph glyph-name="periodcentered" unicode="&#xb7;" horiz-adv-x="292" 
d="M50 250q0 43 23.5 70t71.5 27t72.5 -27t24.5 -70q0 -42 -24 -68.5t-73 -26.5q-48 0 -71.5 26t-23.5 69z" />
    <glyph glyph-name="guillemotright" unicode="&#xbb;" horiz-adv-x="657" 
d="M406 265l-96 204h198l119 -204l-111 -213h-204zM146 265l-96 204h198l119 -204l-111 -213h-204z" />
    <glyph glyph-name="Agrave" unicode="&#xc0;" 
d="M478 0l-19 100h-156l-20 -100h-273l210 700h329l201 -700h-272zM387 457l-50 -187h89zM499 949v-176l-162 -22l-76 198h238z" />
    <glyph glyph-name="Aacute" unicode="&#xc1;" 
d="M478 0l-19 100h-156l-20 -100h-273l210 700h329l201 -700h-272zM387 457l-50 -187h89zM261 770v180h238l-96 -202z" />
    <glyph glyph-name="Acircumflex" unicode="&#xc2;" 
d="M478 0l-19 100h-156l-20 -100h-273l210 700h329l201 -700h-272zM387 457l-50 -187h89zM272 935h205l107 -152h-177l-29 77l-26 -77h-177z" />
    <glyph glyph-name="Atilde" unicode="&#xc3;" 
d="M478 0l-19 100h-156l-20 -100h-273l210 700h329l201 -700h-272zM387 457l-50 -187h89zM183 795l-42 113q89 66 161 66q40 0 85.5 -28.5t73.5 -28.5q20 0 34.5 5.5t37 19.5t29.5 18l56 -104q-76 -84 -157 -84q-48 0 -93.5 28.5t-65.5 28.5q-22 0 -41.5 -5t-46 -16
t-31.5 -13z" />
    <glyph glyph-name="Adieresis" unicode="&#xc4;" 
d="M478 0l-19 100h-156l-20 -100h-273l210 700h329l201 -700h-272zM387 457l-50 -187h89zM153 930h201v-167h-201v167zM405 930h202v-167h-202v167z" />
    <glyph glyph-name="Egrave" unicode="&#xc8;" horiz-adv-x="590" 
d="M310 260v-62h250v-198h-510v700h510v-198h-250v-62h190v-180h-190zM414 949v-176l-162 -22l-76 198h238z" />
    <glyph glyph-name="Eacute" unicode="&#xc9;" horiz-adv-x="590" 
d="M310 260v-62h250v-198h-510v700h510v-198h-250v-62h190v-180h-190zM176 770v180h238l-96 -202z" />
    <glyph glyph-name="Ecircumflex" unicode="&#xca;" horiz-adv-x="590" 
d="M310 260v-62h250v-198h-510v700h510v-198h-250v-62h190v-180h-190zM187 935h205l107 -152h-177l-29 77l-26 -77h-177z" />
    <glyph glyph-name="Edieresis" unicode="&#xcb;" horiz-adv-x="590" 
d="M310 260v-62h250v-198h-510v700h510v-198h-250v-62h190v-180h-190zM68 930h201v-167h-201v167zM320 930h202v-167h-202v167z" />
    <glyph glyph-name="Igrave" unicode="&#xcc;" horiz-adv-x="480" 
d="M20 500v200h430v-200h-85v-300h95v-200h-430v200h75v300h-85zM359 949v-176l-162 -22l-76 198h238z" />
    <glyph glyph-name="Iacute" unicode="&#xcd;" horiz-adv-x="480" 
d="M20 500v200h430v-200h-85v-300h95v-200h-430v200h75v300h-85zM121 770v180h238l-96 -202z" />
    <glyph glyph-name="Icircumflex" unicode="&#xce;" horiz-adv-x="480" 
d="M20 500v200h430v-200h-85v-300h95v-200h-430v200h75v300h-85zM133 935h205l107 -152h-177l-29 77l-26 -77h-177z" />
    <glyph glyph-name="Idieresis" unicode="&#xcf;" horiz-adv-x="480" 
d="M20 500v200h430v-200h-85v-300h95v-200h-430v200h75v300h-85zM13 930h201v-167h-201v167zM265 930h202v-167h-202v167z" />
    <glyph glyph-name="Ograve" unicode="&#xd2;" 
d="M30 267v156q0 82 26 139.5t75 89t109.5 45t139.5 13.5t139.5 -13.5t109.5 -45t75 -89t26 -139.5v-156q0 -66 -17.5 -115t-47.5 -79.5t-75.5 -49.5t-95.5 -26t-114 -7t-114 7t-95.5 26t-75.5 49.5t-47.5 79.5t-17.5 115zM300 400v-100q0 -29 2 -45t9.5 -33t24 -24.5
t44.5 -7.5q52 0 66 26t14 84v100q0 29 -2 45t-9.5 33t-24 24.5t-44.5 7.5t-45 -7.5t-24 -25t-9 -33t-2 -44.5zM499 949v-176l-162 -22l-76 198h238z" />
    <glyph glyph-name="Oacute" unicode="&#xd3;" 
d="M30 267v156q0 82 26 139.5t75 89t109.5 45t139.5 13.5t139.5 -13.5t109.5 -45t75 -89t26 -139.5v-156q0 -66 -17.5 -115t-47.5 -79.5t-75.5 -49.5t-95.5 -26t-114 -7t-114 7t-95.5 26t-75.5 49.5t-47.5 79.5t-17.5 115zM300 400v-100q0 -29 2 -45t9.5 -33t24 -24.5
t44.5 -7.5q52 0 66 26t14 84v100q0 29 -2 45t-9.5 33t-24 24.5t-44.5 7.5t-45 -7.5t-24 -25t-9 -33t-2 -44.5zM261 770v180h238l-96 -202z" />
    <glyph glyph-name="Ocircumflex" unicode="&#xd4;" 
d="M30 267v156q0 82 26 139.5t75 89t109.5 45t139.5 13.5t139.5 -13.5t109.5 -45t75 -89t26 -139.5v-156q0 -66 -17.5 -115t-47.5 -79.5t-75.5 -49.5t-95.5 -26t-114 -7t-114 7t-95.5 26t-75.5 49.5t-47.5 79.5t-17.5 115zM300 400v-100q0 -29 2 -45t9.5 -33t24 -24.5
t44.5 -7.5q52 0 66 26t14 84v100q0 29 -2 45t-9.5 33t-24 24.5t-44.5 7.5t-45 -7.5t-24 -25t-9 -33t-2 -44.5zM272 935h205l107 -152h-177l-29 77l-26 -77h-177z" />
    <glyph glyph-name="Otilde" unicode="&#xd5;" 
d="M30 267v156q0 82 26 139.5t75 89t109.5 45t139.5 13.5t139.5 -13.5t109.5 -45t75 -89t26 -139.5v-156q0 -66 -17.5 -115t-47.5 -79.5t-75.5 -49.5t-95.5 -26t-114 -7t-114 7t-95.5 26t-75.5 49.5t-47.5 79.5t-17.5 115zM300 400v-100q0 -29 2 -45t9.5 -33t24 -24.5
t44.5 -7.5q52 0 66 26t14 84v100q0 29 -2 45t-9.5 33t-24 24.5t-44.5 7.5t-45 -7.5t-24 -25t-9 -33t-2 -44.5zM183 795l-42 113q89 66 161 66q40 0 85.5 -28.5t73.5 -28.5q20 0 34.5 5.5t37 19.5t29.5 18l56 -104q-76 -84 -157 -84q-48 0 -93.5 28.5t-65.5 28.5
q-22 0 -41.5 -5t-46 -16t-31.5 -13z" />
    <glyph glyph-name="Odieresis" unicode="&#xd6;" 
d="M30 267v156q0 82 26 139.5t75 89t109.5 45t139.5 13.5t139.5 -13.5t109.5 -45t75 -89t26 -139.5v-156q0 -66 -17.5 -115t-47.5 -79.5t-75.5 -49.5t-95.5 -26t-114 -7t-114 7t-95.5 26t-75.5 49.5t-47.5 79.5t-17.5 115zM300 400v-100q0 -29 2 -45t9.5 -33t24 -24.5
t44.5 -7.5q52 0 66 26t14 84v100q0 29 -2 45t-9.5 33t-24 24.5t-44.5 7.5t-45 -7.5t-24 -25t-9 -33t-2 -44.5zM153 930h201v-167h-201v167zM405 930h202v-167h-202v167z" />
    <glyph glyph-name="Ugrave" unicode="&#xd9;" horiz-adv-x="730" 
d="M440 700h240v-450q0 -58 -16.5 -103.5t-44 -74.5t-67.5 -48t-84 -26.5t-96 -7.5q-161 0 -241.5 58.5t-80.5 201.5v450h270v-460q0 -30 12.5 -40t49.5 -10t47.5 9.5t10.5 40.5v460zM484 949v-176l-162 -22l-76 198h238z" />
    <glyph glyph-name="Uacute" unicode="&#xda;" horiz-adv-x="730" 
d="M440 700h240v-450q0 -58 -16.5 -103.5t-44 -74.5t-67.5 -48t-84 -26.5t-96 -7.5q-161 0 -241.5 58.5t-80.5 201.5v450h270v-460q0 -30 12.5 -40t49.5 -10t47.5 9.5t10.5 40.5v460zM246 770v180h238l-96 -202z" />
    <glyph glyph-name="Ucircumflex" unicode="&#xdb;" horiz-adv-x="730" 
d="M440 700h240v-450q0 -58 -16.5 -103.5t-44 -74.5t-67.5 -48t-84 -26.5t-96 -7.5q-161 0 -241.5 58.5t-80.5 201.5v450h270v-460q0 -30 12.5 -40t49.5 -10t47.5 9.5t10.5 40.5v460zM257 935h205l107 -152h-177l-29 77l-26 -77h-177z" />
    <glyph glyph-name="Udieresis" unicode="&#xdc;" horiz-adv-x="730" 
d="M440 700h240v-450q0 -58 -16.5 -103.5t-44 -74.5t-67.5 -48t-84 -26.5t-96 -7.5q-161 0 -241.5 58.5t-80.5 201.5v450h270v-460q0 -30 12.5 -40t49.5 -10t47.5 9.5t10.5 40.5v460zM155 930h201v-167h-201v167zM407 930h202v-167h-202v167z" />
    <glyph glyph-name="agrave" unicode="&#xe0;" horiz-adv-x="600" 
d="M72 346l-25 132q125 32 222 32q65 0 115 -9t91 -30t63 -60.5t22 -96.5v-314h-240v30q-57 -40 -145 -40q-70 0 -107.5 37t-37.5 121q0 80 44.5 112.5t145.5 32.5h102v11q0 28 -13.5 44.5t-52.5 16.5q-80 0 -184 -19zM419 749v-176l-162 -22l-76 198h238zM304 113h16v81
l-28 -2q-22 -7 -22 -40q0 -17 9 -28t25 -11z" />
    <glyph glyph-name="aacute" unicode="&#xe1;" horiz-adv-x="600" 
d="M72 346l-25 132q125 32 222 32q65 0 115 -9t91 -30t63 -60.5t22 -96.5v-314h-240v30q-57 -40 -145 -40q-70 0 -107.5 37t-37.5 121q0 80 44.5 112.5t145.5 32.5h102v11q0 28 -13.5 44.5t-52.5 16.5q-80 0 -184 -19zM181 570v180h238l-96 -202zM304 113h16v81l-28 -2
q-22 -7 -22 -40q0 -17 9 -28t25 -11z" />
    <glyph glyph-name="acircumflex" unicode="&#xe2;" horiz-adv-x="600" 
d="M72 346l-25 132q125 32 222 32q65 0 115 -9t91 -30t63 -60.5t22 -96.5v-314h-240v30q-57 -40 -145 -40q-70 0 -107.5 37t-37.5 121q0 80 44.5 112.5t145.5 32.5h102v11q0 28 -13.5 44.5t-52.5 16.5q-80 0 -184 -19zM192 735h205l107 -152h-177l-29 77l-26 -77h-177z
M304 113h16v81l-28 -2q-22 -7 -22 -40q0 -17 9 -28t25 -11z" />
    <glyph glyph-name="atilde" unicode="&#xe3;" horiz-adv-x="600" 
d="M72 346l-25 132q125 32 222 32q65 0 115 -9t91 -30t63 -60.5t22 -96.5v-314h-240v30q-57 -40 -145 -40q-70 0 -107.5 37t-37.5 121q0 80 44.5 112.5t145.5 32.5h102v11q0 28 -13.5 44.5t-52.5 16.5q-80 0 -184 -19zM103 595l-42 113q89 66 161 66q40 0 85.5 -28.5
t73.5 -28.5q20 0 34.5 5.5t37 19.5t29.5 18l56 -104q-76 -84 -157 -84q-48 0 -93.5 28.5t-65.5 28.5q-22 0 -41.5 -5t-46 -16t-31.5 -13zM304 113h16v81l-28 -2q-22 -7 -22 -40q0 -17 9 -28t25 -11z" />
    <glyph glyph-name="adieresis" unicode="&#xe4;" horiz-adv-x="600" 
d="M72 346l-25 132q125 32 222 32q65 0 115 -9t91 -30t63 -60.5t22 -96.5v-314h-240v30q-57 -40 -145 -40q-70 0 -107.5 37t-37.5 121q0 80 44.5 112.5t145.5 32.5h102v11q0 28 -13.5 44.5t-52.5 16.5q-80 0 -184 -19zM325 730h202v-167h-202v167zM73 730h201v-167h-201v167
zM304 113h16v81l-28 -2q-22 -7 -22 -40q0 -17 9 -28t25 -11z" />
    <glyph glyph-name="egrave" unicode="&#xe8;" horiz-adv-x="601" 
d="M543 145l22 -138q-115 -17 -255 -17q-41 0 -77.5 5t-75 19t-65.5 37t-44.5 61.5t-17.5 88.5v64q0 129 68.5 187t211.5 58q271 0 271 -199v-113h-311v-15q0 -18 5.5 -29t17.5 -15.5t21.5 -5.5t25.5 -1q119 0 203 13zM270 320v-18h92v17q0 36 -13.5 49.5t-38.5 13.5
q-23 0 -31.5 -12.5t-8.5 -49.5zM419 749v-176l-162 -22l-76 198h238z" />
    <glyph glyph-name="eacute" unicode="&#xe9;" horiz-adv-x="601" 
d="M543 145l22 -138q-115 -17 -255 -17q-41 0 -77.5 5t-75 19t-65.5 37t-44.5 61.5t-17.5 88.5v64q0 129 68.5 187t211.5 58q271 0 271 -199v-113h-311v-15q0 -32 17.5 -41.5t52.5 -9.5q119 0 203 13zM270 320v-18h92v17q0 36 -13.5 49.5t-38.5 13.5q-23 0 -31.5 -12.5
t-8.5 -49.5zM181 570v180h238l-96 -202z" />
    <glyph glyph-name="ecircumflex" unicode="&#xea;" horiz-adv-x="601" 
d="M543 145l22 -138q-115 -17 -255 -17q-41 0 -77.5 5t-75 19t-65.5 37t-44.5 61.5t-17.5 88.5v64q0 129 68.5 187t211.5 58q271 0 271 -199v-113h-311v-15q0 -18 6 -29t18.5 -15.5t21.5 -5.5t24 -1q119 0 203 13zM270 320v-18h92v17q0 36 -13.5 49.5t-38.5 13.5
q-23 0 -31.5 -12.5t-8.5 -49.5zM193 735h205l107 -152h-177l-29 77l-26 -77h-177z" />
    <glyph glyph-name="edieresis" unicode="&#xeb;" horiz-adv-x="601" 
d="M543 145l22 -138q-115 -17 -255 -17q-41 0 -77.5 5t-75 19t-65.5 37t-44.5 61.5t-17.5 88.5v64q0 129 68.5 187t211.5 58q271 0 271 -199v-113h-311v-15q0 -33 18 -42t52 -9q119 0 203 13zM270 320v-18h92v17q0 36 -13.5 49.5t-38.5 13.5q-23 0 -31.5 -12.5t-8.5 -49.5z
M73 730h201v-167h-201v167zM325 730h202v-167h-202v167z" />
    <glyph glyph-name="igrave" unicode="&#xec;" horiz-adv-x="320" 
d="M40 500h240v-500h-240v500zM279 749v-176l-162 -22l-76 198h238z" />
    <glyph glyph-name="iacute" unicode="&#xed;" horiz-adv-x="320" 
d="M40 500h240v-500h-240v500zM41 570v180h238l-96 -202z" />
    <glyph glyph-name="icircumflex" unicode="&#xee;" horiz-adv-x="320" 
d="M40 500h240v-500h-240v500zM53 735h205l107 -152h-177l-29 77l-26 -77h-177z" />
    <glyph glyph-name="idieresis" unicode="&#xef;" horiz-adv-x="320" 
d="M40 500h240v-500h-240v500zM-67 730h201v-167h-201v167zM185 730h202v-167h-202v167z" />
    <glyph glyph-name="ograve" unicode="&#xf2;" horiz-adv-x="610" 
d="M424 749v-176l-162 -22l-76 198h238zM20 210v78q0 221 280 221q141 0 215.5 -55t74.5 -166v-78q0 -111 -74.5 -166t-215.5 -55q-280 0 -280 221zM250 308v-94q0 -20 1 -32t5.5 -26.5t15.5 -21t28 -6.5q32 0 41 22.5t9 63.5v70q0 21 -1 32t-5 25.5t-15 21.5t-29 7
q-50 0 -50 -62z" />
    <glyph glyph-name="oacute" unicode="&#xf3;" horiz-adv-x="610" 
d="M186 570v180h238l-96 -202zM20 210v78q0 221 280 221q141 0 215.5 -55t74.5 -166v-78q0 -111 -74.5 -166t-215.5 -55q-280 0 -280 221zM250 308v-94q0 -20 1 -32t5.5 -26.5t15.5 -21t28 -6.5q32 0 41 22.5t9 63.5v70q0 21 -1 32t-5 25.5t-15 21.5t-29 7q-50 0 -50 -62z
" />
    <glyph glyph-name="ocircumflex" unicode="&#xf4;" horiz-adv-x="610" 
d="M197 735h205l107 -152h-177l-29 77l-26 -77h-177zM20 210v78q0 221 280 221q141 0 215.5 -55t74.5 -166v-78q0 -111 -74.5 -166t-215.5 -55q-280 0 -280 221zM250 308v-94q0 -20 1 -32t5.5 -26.5t15.5 -21t28 -6.5q32 0 41 22.5t9 63.5v70q0 21 -1 32t-5 25.5t-15 21.5
t-29 7q-50 0 -50 -62z" />
    <glyph glyph-name="otilde" unicode="&#xf5;" horiz-adv-x="610" 
d="M108 595l-42 113q89 66 161 66q40 0 85.5 -28.5t73.5 -28.5q20 0 34.5 5.5t37 19.5t29.5 18l56 -104q-76 -84 -157 -84q-48 0 -93.5 28.5t-65.5 28.5q-22 0 -41.5 -5t-46 -16t-31.5 -13zM20 210v78q0 221 280 221q141 0 215.5 -55t74.5 -166v-78q0 -111 -74.5 -166
t-215.5 -55q-280 0 -280 221zM250 308v-94q0 -20 1 -32t5.5 -26.5t15.5 -21t28 -6.5q32 0 41 22.5t9 63.5v70q0 21 -1 32t-5 25.5t-15 21.5t-29 7q-50 0 -50 -62z" />
    <glyph glyph-name="odieresis" unicode="&#xf6;" horiz-adv-x="610" 
d="M78 730h201v-167h-201v167zM330 730h202v-167h-202v167zM20 210v78q0 221 280 221q141 0 215.5 -55t74.5 -166v-78q0 -111 -74.5 -166t-215.5 -55q-280 0 -280 221zM250 308v-94q0 -20 1 -32t5.5 -26.5t15.5 -21t28 -6.5q32 0 41 22.5t9 63.5v70q0 21 -1 32t-5 25.5
t-15 21.5t-29 7q-50 0 -50 -62z" />
    <glyph glyph-name="ugrave" unicode="&#xf9;" horiz-adv-x="660" 
d="M449 749v-176l-162 -22l-76 198h238zM40 500h240v-287q0 -30 13.5 -41.5t38.5 -11.5q26 0 48 10v330h240v-500h-240v22q-114 -32 -208 -32q-66 0 -99 38t-33 99v373z" />
    <glyph glyph-name="uacute" unicode="&#xfa;" horiz-adv-x="660" 
d="M211 570v180h238l-96 -202zM40 500h240v-287q0 -30 13.5 -41.5t38.5 -11.5q26 0 48 10v330h240v-500h-240v22q-114 -32 -208 -32q-66 0 -99 38t-33 99v373z" />
    <glyph glyph-name="ucircumflex" unicode="&#xfb;" horiz-adv-x="660" 
d="M222 735h205l107 -152h-177l-29 77l-26 -77h-177zM40 500h240v-287q0 -30 13.5 -41.5t38.5 -11.5q26 0 48 10v330h240v-500h-240v22q-114 -32 -208 -32q-66 0 -99 38t-33 99v373z" />
    <glyph glyph-name="udieresis" unicode="&#xfc;" horiz-adv-x="660" 
d="M103 730h201v-167h-201v167zM355 730h202v-167h-202v167zM40 500h240v-287q0 -30 13.5 -41.5t38.5 -11.5q26 0 48 10v330h240v-500h-240v22q-114 -32 -208 -32q-66 0 -99 38t-33 99v373z" />
    <glyph glyph-name="circumflex" unicode="&#x2c6;" horiz-adv-x="539" 
d="M167 735h205l107 -152h-177l-29 77l-26 -77h-177z" />
    <glyph glyph-name="tilde" unicode="&#x2dc;" horiz-adv-x="587" 
d="M102 595l-42 113q89 66 161 66q40 0 85.5 -28.5t73.5 -28.5q20 0 34.5 5.5t37 19.5t29.5 18l56 -104q-76 -84 -157 -84q-48 0 -93.5 28.5t-65.5 28.5q-22 0 -41.5 -5t-46 -16t-31.5 -13z" />
    <glyph glyph-name="afii10023" unicode="&#x401;" horiz-adv-x="610" 
d="M310 260v-62h250v-198h-510v700h510v-198h-250v-62h190v-180h-190zM78 930h201v-167h-201v167zM330 930h202v-167h-202v167z" />
    <glyph glyph-name="afii10017" unicode="&#x410;" 
d="M478 0l-19 100h-156l-20 -100h-273l210 700h329l201 -700h-272zM387 457l-50 -187h89z" />
    <glyph glyph-name="afii10018" unicode="&#x411;" horiz-adv-x="690" 
d="M310 500v-62h143q103 0 150 -52.5t47 -165.5t-47.5 -166.5t-152.5 -53.5h-400v700h550v-200h-290zM370 261h-60v-82h60q14 0 22 12t8 29t-8 29t-22 12z" />
    <glyph glyph-name="afii10019" unicode="&#x412;" horiz-adv-x="670" 
d="M50 0v700h360q46 0 78.5 -7t62 -25.5t44.5 -55.5t15 -92q0 -106 -83 -136q16 -4 27.5 -9t27 -17t25 -29.5t16.5 -48t7 -70.5q0 -115 -46.5 -162.5t-153.5 -47.5h-380zM300 270v-100h60q14 0 22 16t8 34t-8 34t-22 16h-60zM340 530h-40v-90h40q14 0 22 16t8 34q0 16 -8 28
t-22 12z" />
    <glyph glyph-name="afii10020" unicode="&#x413;" horiz-adv-x="580" 
d="M310 0h-260v700h510v-230h-250v-470z" />
    <glyph glyph-name="afii10021" unicode="&#x414;" horiz-adv-x="850" 
d="M160 700h580v-500h80l-20 -400h-240v200h-280l-10 -200h-250v400h76q64 120 64 500zM480 480h-79q-15 -201 -55 -280h134v280z" />
    <glyph glyph-name="afii10022" unicode="&#x415;" horiz-adv-x="610" 
d="M310 260v-62h250v-198h-510v700h510v-198h-250v-62h190v-180h-190z" />
    <glyph glyph-name="afii10024" unicode="&#x416;" horiz-adv-x="1032" 
d="M144 375l-124 325h272l77 -291h17v291h260v-291h17l77 291h272l-124 -325l120 -375h-263l-83 337h-16v-337h-260v337h-17l-84 -337h-263z" />
    <glyph glyph-name="afii10025" unicode="&#x417;" horiz-adv-x="630" 
d="M30 22l30 187q12 -2 52 -10.5t68.5 -12.5t56.5 -4q51 0 72 9t21 35q0 27 -27.5 37.5t-109.5 10.5h-79v160h120q42 0 55.5 11t13.5 32q0 22 -15.5 31t-53.5 9q-42 0 -167 -23l-32 188q90 28 211 28q168 0 237.5 -36.5t69.5 -138.5q0 -69 -24 -100.5t-68 -47.5
q64 -18 96.5 -58t32.5 -122q0 -56 -16 -95.5t-42.5 -63.5t-73.5 -37t-97 -17t-124 -4q-64 0 -122.5 10t-84.5 22z" />
    <glyph glyph-name="afii10026" unicode="&#x418;" horiz-adv-x="770" 
d="M50 700h260v-310l206 310h204v-700h-260v310l-206 -310h-204v700z" />
    <glyph glyph-name="afii10027" unicode="&#x419;" horiz-adv-x="770" 
d="M142 900h179q0 -46 64 -46q66 0 66 46h179v-25q0 -37 -15 -63t-36.5 -39.5t-57.5 -21.5t-65 -9.5t-71 -1.5q-54 0 -89 3.5t-74.5 16t-59.5 41.5t-20 74v25zM50 700h260v-310l206 310h204v-700h-260v310l-206 -310h-204v700z" />
    <glyph glyph-name="afii10028" unicode="&#x41a;" horiz-adv-x="725" 
d="M310 700v-292h16l87 292h293l-136 -323l145 -377h-285l-102 320h-18v-320h-260v700h260z" />
    <glyph glyph-name="afii10029" unicode="&#x41b;" horiz-adv-x="805" 
d="M155 700h600v-700h-260v470h-103q-7 -200 -33 -301t-79 -140t-155 -39q-45 0 -85 10l-30 203q17 0 38 3q25 4 43.5 21.5t30 52.5t18.5 72.5t10 100t4 113.5t1 134z" />
    <glyph glyph-name="afii10030" unicode="&#x41c;" horiz-adv-x="1003" 
d="M300 390l-20 -390h-250l56 700h301l115 -410l114 410h301l56 -700h-250l-19 390l-102 -390h-200z" />
    <glyph glyph-name="afii10031" unicode="&#x41d;" horiz-adv-x="790" 
d="M480 700h260v-700h-260v260h-170v-260h-260v700h260v-240h170v240z" />
    <glyph glyph-name="afii10032" unicode="&#x41e;" 
d="M30 267v156q0 82 26 139.5t75 89t109.5 45t139.5 13.5t139.5 -13.5t109.5 -45t75 -89t26 -139.5v-156q0 -66 -17.5 -115t-47.5 -79.5t-75.5 -49.5t-95.5 -26t-114 -7t-114 7t-95.5 26t-75.5 49.5t-47.5 79.5t-17.5 115zM300 400v-100q0 -29 2 -45t9.5 -33t24 -24.5
t44.5 -7.5q52 0 66 26t14 84v100q0 29 -2 45t-9.5 33t-24 24.5t-44.5 7.5t-45 -7.5t-24 -25t-9 -33t-2 -44.5z" />
    <glyph glyph-name="afii10033" unicode="&#x41f;" horiz-adv-x="790" 
d="M310 0h-260v700h690v-700h-260v480h-170v-480z" />
    <glyph glyph-name="afii10034" unicode="&#x420;" horiz-adv-x="700" 
d="M50 700h290q179 0 254.5 -63.5t75.5 -213.5t-75 -212t-255 -62h-30v-149h-260v700zM310 499v-150h30q36 0 52.5 16t16.5 60t-15.5 59t-53.5 15h-30z" />
    <glyph glyph-name="afii10035" unicode="&#x421;" horiz-adv-x="582" 
d="M520 240l32 -220q-116 -30 -186 -30q-53 0 -99.5 9t-90.5 30.5t-76 54.5t-51 85t-19 118v126q0 81 28.5 141t78 92.5t106.5 48t123 15.5q31 0 77.5 -7.5t77.5 -14.5l31 -8l-42 -220q-108 20 -144 20q-34 0 -55 -20t-21 -50v-120q0 -70 76 -70q16 0 54.5 5t69.5 10z" />
    <glyph glyph-name="afii10036" unicode="&#x422;" horiz-adv-x="600" 
d="M10 470v230h580v-230h-160v-470h-260v470h-160z" />
    <glyph glyph-name="afii10037" unicode="&#x423;" horiz-adv-x="729" 
d="M309 218q-17 0 -39 5t-49.5 17.5t-54 38t-42.5 60.5l-114 361h302l74 -337h5l58 337h270l-164 -542q-20 -51 -57 -87t-81.5 -52t-81.5 -22.5t-76 -6.5q-130 0 -227 26l42 185q68 -20 117 -20q25 0 39 0.5t33.5 4t30.5 11.5t15 21z" />
    <glyph glyph-name="afii10038" unicode="&#x424;" horiz-adv-x="1000" 
d="M370 740h260v-60h10q174 0 252 -66t78 -219v-50q0 -153 -78 -219t-252 -66h-10v-60h-260v60h-10q-174 0 -252 66t-78 219v50q0 153 78 219t252 66h10v60zM640 499h-10v-258h10q41 0 55.5 22t14.5 82v50q0 57 -13.5 80.5t-56.5 23.5zM290 345q0 -60 14.5 -82t55.5 -22h10
v257h-10q-43 0 -56.5 -23t-13.5 -80v-50z" />
    <glyph glyph-name="afii10039" unicode="&#x425;" horiz-adv-x="780" 
d="M320 700l70 -236l69 236h311l-170 -350l170 -350h-311l-69 235l-70 -235h-310l169 350l-169 350h310z" />
    <glyph glyph-name="afii10040" unicode="&#x426;" horiz-adv-x="820" 
d="M50 700h260v-500h140v500h260v-500h80l-12 -328h-248v128h-480v700z" />
    <glyph glyph-name="afii10041" unicode="&#x427;" horiz-adv-x="720" 
d="M30 700h260v-260q0 -50 44 -50q31 0 76 5v305h260v-700h-260v186q-52 -6 -94 -6q-28 0 -54 2.5t-71.5 16t-78 36.5t-57.5 71t-25 114v280z" />
    <glyph glyph-name="afii10042" unicode="&#x428;" horiz-adv-x="1020" 
d="M380 700h260v-500h70v500h260v-700h-920v700h260v-500h70v500z" />
    <glyph glyph-name="afii10043" unicode="&#x429;" horiz-adv-x="1080" 
d="M380 700h260v-500h70v500h260v-500h80l-12 -328h-248v128h-740v700h260v-500h70v500z" />
    <glyph glyph-name="afii10044" unicode="&#x42a;" horiz-adv-x="782" 
d="M132 0v513h-122l20 187h362v-236q65 7 104 7q135 0 195.5 -59.5t60.5 -176.5q0 -128 -75 -181.5t-255 -53.5h-290zM422 297h-30v-127h30q38 0 53.5 13t15.5 50t-16.5 50.5t-52.5 13.5z" />
    <glyph glyph-name="afii10045" unicode="&#x42b;" horiz-adv-x="1040" 
d="M340 0h-290v700h260v-236q65 7 104 7q135 0 195.5 -59.5t60.5 -176.5q0 -128 -75.5 -181.5t-254.5 -53.5zM730 0v700h260v-700h-260zM340 297h-30v-127h30q38 0 53.5 13t15.5 50t-16.5 50.5t-52.5 13.5z" />
    <glyph glyph-name="afii10046" unicode="&#x42c;" horiz-adv-x="700" 
d="M340 0h-290v700h260v-236q65 7 104 7q135 0 195.5 -59.5t60.5 -176.5q0 -128 -75.5 -181.5t-254.5 -53.5zM340 297h-30v-127h30q38 0 53.5 13t15.5 50t-16.5 50.5t-52.5 13.5z" />
    <glyph glyph-name="afii10047" unicode="&#x42d;" horiz-adv-x="630" 
d="M339 255v18h-239v160h239v18q0 59 -75 59q-30 0 -103.5 -10.5t-100.5 -19.5l-40 200q130 30 244 30q66 0 123 -15.5t106.5 -48t78 -92.5t28.5 -141v-126q0 -66 -19 -118t-51 -85t-76 -54.5t-91 -30.5t-99 -9q-46 0 -107 7.5t-99 14.5l-38 8l40 200q120 -20 204 -20
q75 0 75 55z" />
    <glyph glyph-name="afii10048" unicode="&#x42e;" horiz-adv-x="1020" 
d="M380 208v52h-70v-260h-260v700h260v-270h70v49q0 62 24 107.5t67 72t96 39t118 12.5q305 0 305 -281v-181q0 -64 -16.5 -111t-42.5 -75t-67 -44.5t-83 -22t-96 -5.5q-68 0 -118.5 9t-95 32t-68 67.5t-23.5 109.5zM630 461v-220q0 -61 55 -61t55 61v220q0 59 -55 59
t-55 -59z" />
    <glyph glyph-name="afii10049" unicode="&#x42f;" 
d="M370 700h340v-700h-260v179h-18l-90 -179h-282l127 208q-71 23 -107.5 85.5t-36.5 152.5q0 110 78.5 182t248.5 72zM370 359h80v130h-80q-69 0 -69 -64q0 -31 18 -48.5t51 -17.5z" />
    <glyph glyph-name="afii10065" unicode="&#x430;" horiz-adv-x="600" 
d="M72 346l-25 132q125 32 222 32q65 0 115 -9t91 -30t63 -60.5t22 -96.5v-314h-240v30q-57 -40 -145 -40q-70 0 -107.5 37t-37.5 121q0 80 44.5 112.5t145.5 32.5h102v11q0 28 -13.5 44.5t-52.5 16.5q-80 0 -184 -19zM304 113h16v81l-28 -2q-22 -7 -22 -40q0 -17 9 -28
t25 -11z" />
    <glyph glyph-name="afii10066" unicode="&#x431;" horiz-adv-x="644" 
d="M30 276v132q0 141 55 208t165 84l188 29q63 10 126 35l60 -190q-44 -23 -94 -28l-172 -16q-58 -5 -81 -32.5t-27 -71.5l-3 -29q19 26 64.5 48t115.5 22q41 0 70.5 -7.5t57 -28.5t41.5 -63t14 -105v-43q0 -126 -73 -179t-217 -53q-72 0 -122.5 12.5t-90 44t-58.5 88.5
t-19 143zM320 153q27 0 38.5 16t11.5 57v23q0 39 -12 55t-38 16q-29 0 -39.5 -16t-10.5 -55v-23q0 -43 10 -58t40 -15z" />
    <glyph glyph-name="afii10067" unicode="&#x432;" horiz-adv-x="600" 
d="M40 0v500h356q90 0 123.5 -28.5t33.5 -94.5q0 -75 -97 -93q27 -1 44.5 -5t38 -15t31 -36.5t10.5 -63.5q0 -91 -48.5 -127.5t-182.5 -36.5h-309zM313 217h-53v-91h60q17 0 28.5 13.5t11.5 34.5q0 17 -13 30t-34 13zM260 301h46q11 0 19 12t8 26q0 12 -8 24.5t-19 12.5h-46
v-75z" />
    <glyph glyph-name="afii10068" unicode="&#x433;" horiz-adv-x="480" 
d="M280 0h-240v500h430v-180h-190v-320z" />
    <glyph glyph-name="afii10069" unicode="&#x434;" horiz-adv-x="740" 
d="M131 500h520v-340h59l-11 -320h-209v160h-250l-10 -160h-210v320h50q61 63 61 340zM411 360h-64q0 -113 -33 -200h97v200z" />
    <glyph glyph-name="afii10070" unicode="&#x435;" horiz-adv-x="601" 
d="M543 145l22 -138q-115 -17 -255 -17q-41 0 -77.5 5t-75 19t-65.5 37t-44.5 61.5t-17.5 88.5v64q0 129 68.5 187t211.5 58q271 0 271 -199v-113h-311v-15q0 -32 17.5 -41.5t52.5 -9.5q119 0 203 13zM270 320v-18h92v17q0 36 -13.5 49.5t-38.5 13.5q-23 0 -31.5 -12.5
t-8.5 -49.5z" />
    <glyph glyph-name="afii10072" unicode="&#x436;" horiz-adv-x="904" 
d="M10 500h224l89 -215h15v215h230v-215h15l81 215h230l-101 -241l99 -259h-227l-83 236h-14v-236h-230v234h-13l-93 -234h-221l111 259z" />
    <glyph glyph-name="afii10073" unicode="&#x437;" horiz-adv-x="563" 
d="M30 15l24 127q32 -8 118 -8q68 0 94.5 6.5t26.5 29.5q0 27 -45 27h-149v112h123q44 0 44 31q0 30 -94 30q-70 0 -118 -9l-24 127q86 21 186 21q150 0 220.5 -25.5t70.5 -93.5q0 -75 -87 -95q26 -4 44.5 -11t38 -20.5t30 -38.5t10.5 -60q0 -94 -82 -133.5t-245 -39.5
q-119 0 -186 23z" />
    <glyph glyph-name="afii10074" unicode="&#x438;" horiz-adv-x="680" 
d="M40 500h240v-241l153 241h207v-500h-240v240l-152 -240h-208v500z" />
    <glyph glyph-name="afii10075" unicode="&#x439;" horiz-adv-x="680" 
d="M80 750h180q0 -20 18.5 -35t61.5 -15t61.5 15t18.5 35h180v-20q0 -46 -23 -79t-63 -50t-82.5 -24t-91.5 -7t-91.5 7t-82 24t-63 50t-23.5 79v20zM40 500h240v-241l153 241h207v-500h-240v240l-152 -240h-208v500z" />
    <glyph glyph-name="afii10076" unicode="&#x43a;" horiz-adv-x="630" 
d="M280 500v-195h10l70 195h267l-126 -242l129 -258h-262l-79 217h-9v-217h-240v500h240z" />
    <glyph glyph-name="afii10077" unicode="&#x43b;" horiz-adv-x="694" 
d="M131 500h523v-500h-240v350h-77q0 -49 -1 -81t-5.5 -73.5t-12.5 -68.5t-23 -55.5t-37 -44.5t-54 -26.5t-73 -10.5q-57 0 -100 10l-21 160h51q13 0 23 7.5t19.5 29t15 58.5t9 98.5t3.5 146.5z" />
    <glyph glyph-name="afii10078" unicode="&#x43c;" horiz-adv-x="864" 
d="M251 327l-9 -327h-212l37 500h280l85 -340l85 340h280l37 -500h-212l-9 327l-97 -327h-187z" />
    <glyph glyph-name="afii10079" unicode="&#x43d;" horiz-adv-x="680" 
d="M400 500h240v-500h-240v170h-120v-170h-240v500h240v-170h120v170z" />
    <glyph glyph-name="afii10080" unicode="&#x43e;" horiz-adv-x="610" 
d="M20 210v78q0 221 280 221q141 0 215.5 -55t74.5 -166v-78q0 -111 -74.5 -166t-215.5 -55q-280 0 -280 221zM250 308v-94q0 -20 1 -32t5.5 -26.5t15.5 -21t28 -6.5q32 0 41 22.5t9 63.5v70q0 21 -1 32t-5 25.5t-15 21.5t-29 7q-50 0 -50 -62z" />
    <glyph glyph-name="afii10081" unicode="&#x43f;" horiz-adv-x="680" 
d="M280 0h-240v500h600v-500h-240v340h-120v-340z" />
    <glyph glyph-name="afii10082" unicode="&#x440;" horiz-adv-x="630" 
d="M280 -200h-240v700h240v-30q71 46 145 46q85 0 130 -59t45 -207q0 -76 -12.5 -127t-37.5 -77t-54.5 -36t-70.5 -10q-27 0 -50 3.5t-35 7t-31.5 10l-28.5 9.5v-230zM290 341h-10v-182q23 0 31 1q25 4 37 24t12 66q0 49 -16.5 70t-53.5 21z" />
    <glyph glyph-name="afii10083" unicode="&#x441;" horiz-adv-x="485" 
d="M445 163l30 -150q-59 -22 -168 -22q-121 0 -199 54t-78 168v72q0 101 81.5 163.5t195.5 62.5q28 0 80 -6.5t88 -19.5l-30 -150q0 1 -16.5 5t-37.5 7.5t-31 3.5q-41 0 -60.5 -18t-19.5 -68v-32q0 -50 19 -67.5t61 -17.5q28 0 85 15z" />
    <glyph glyph-name="afii10084" unicode="&#x442;" horiz-adv-x="580" 
d="M20 320v180h540v-180h-148v-320h-240v320h-152z" />
    <glyph glyph-name="afii10085" unicode="&#x443;" horiz-adv-x="651" 
d="M250 -26l14 27q-50 0 -94 35.5t-59 87.5l-104 376h268l54 -351l51 351h261l-166 -555q-37 -70 -76 -107q-70 -68 -185 -68q-79 0 -204 35l32 159q31 -9 79 -17.5t62 -8.5q19 0 28.5 1.5t19.5 9.5t19 25z" />
    <glyph glyph-name="afii10086" unicode="&#x444;" horiz-adv-x="940" 
d="M350 700h240v-210q14 7 52.5 13.5t57.5 6.5q112 0 166 -68t54 -192q0 -260 -220 -260q-19 0 -57.5 6.5t-52.5 13.5v-210h-240v210q-15 -7 -53 -13.5t-57 -6.5q-114 0 -167 65t-53 195q0 124 54 192t166 68q19 0 58 -6.5t52 -13.5v210zM597 360h-7v-221h7q38 0 60.5 28
t22.5 83q0 110 -83 110zM341 139h9v221h-9q-81 0 -81 -110q0 -60 24.5 -85t56.5 -26z" />
    <glyph glyph-name="afii10087" unicode="&#x445;" horiz-adv-x="622" 
d="M263 500l52 -176l46 176h251l-109 -240l109 -260h-252l-51 175l-46 -175h-253l111 260l-111 240h253z" />
    <glyph glyph-name="afii10088" unicode="&#x446;" horiz-adv-x="710" 
d="M40 500h240v-340h100v340h240v-340h60l-13 -320h-227v160h-400v500z" />
    <glyph glyph-name="afii10089" unicode="&#x447;" horiz-adv-x="640" 
d="M30 500h240v-180q0 -50 40 -50q10 0 50 5v225h240v-500h-240v120q-70 -10 -131 -10q-104 0 -151.5 55t-47.5 183v152z" />
    <glyph glyph-name="afii10090" unicode="&#x448;" horiz-adv-x="920" 
d="M350 500h220v-340h80v340h230v-500h-840v500h230v-340h80v340z" />
    <glyph glyph-name="afii10091" unicode="&#x449;" horiz-adv-x="970" 
d="M40 0v500h230v-340h80v340h220v-340h80v340h230v-340h60l-12 -320h-228v160h-660z" />
    <glyph glyph-name="afii10092" unicode="&#x44a;" horiz-adv-x="730" 
d="M10 355l20 145h350v-137q71 6 111 6q110 0 159.5 -38.5t49.5 -142.5q0 -46 -14.5 -80t-39 -54.5t-63.5 -32.5t-82 -16.5t-102 -4.5h-259v355h-130zM413 236h-33v-101h40q17 0 28.5 14.5t11.5 38.5q0 20 -13 34t-34 14z" />
    <glyph glyph-name="afii10093" unicode="&#x44b;" horiz-adv-x="927" 
d="M647 0v500h240v-500h-240zM40 0v500h240v-137q85 6 111 6q110 0 159.5 -38.5t49.5 -142.5q0 -46 -14.5 -80t-39 -54.5t-63.5 -32.5t-82 -16.5t-102 -4.5h-259zM313 236h-33v-101h40q17 0 28.5 14.5t11.5 38.5q0 20 -13 34t-34 14z" />
    <glyph glyph-name="afii10094" unicode="&#x44c;" horiz-adv-x="630" 
d="M40 0v500h240v-137q85 6 111 6q110 0 159.5 -38.5t49.5 -142.5q0 -46 -14.5 -80t-39 -54.5t-63.5 -32.5t-82 -16.5t-102 -4.5h-259zM313 236h-33v-101h40q17 0 28.5 14.5t11.5 38.5q0 20 -13 34t-34 14z" />
    <glyph glyph-name="afii10095" unicode="&#x44d;" horiz-adv-x="520" 
d="M248 193v5h-158v110h158v7q0 21 -13.5 32t-30 13t-47.5 2q-40 0 -96 -16l-31 132q91 32 190 32q122 0 196 -54t74 -171v-73q0 -115 -74.5 -168.5t-195.5 -53.5q-118 0 -200 30l31 132q57 -15 106 -15q91 0 91 56z" />
    <glyph glyph-name="afii10096" unicode="&#x44e;" horiz-adv-x="923" 
d="M329 170h-69v-170h-220v500h220v-190h67v15q0 62 44 105t105.5 61t132.5 18q284 0 284 -231v-58q0 -231 -284 -231q-66 0 -127.5 17.5t-107 58.5t-45.5 98v7zM562 283v-83q0 -62 47 -62q46 0 46 62v83q0 42 -8 59.5t-38 17.5q-47 0 -47 -77z" />
    <glyph glyph-name="afii10097" unicode="&#x44f;" horiz-adv-x="650" 
d="M263 500h347v-500h-240v146h-18l-75 -146h-252l104 166q-21 4 -37 10.5t-34 22t-28 45.5t-10 73q0 94 57 138.5t186 44.5zM270 318q1 -24 12 -35t38 -11h50v92h-50q-27 0 -38.5 -11t-11.5 -35z" />
    <glyph glyph-name="afii10071" unicode="&#x451;" horiz-adv-x="601" 
d="M73 730h201v-167h-201v167zM325 730h202v-167h-202v167zM543 145l21 -136q-129 -19 -254 -19q-41 0 -77.5 5t-75 19t-65.5 37t-44.5 61.5t-17.5 88.5v64q0 129 68.5 187t211.5 58q271 0 271 -199v-113h-311v-15q0 -33 17.5 -42t52.5 -9q119 0 203 13zM270 320v-18h92v17
q0 36 -13.5 49.5t-38.5 13.5q-23 0 -31.5 -12.5t-8.5 -49.5z" />
    <glyph glyph-name="endash" unicode="&#x2013;" horiz-adv-x="600" 
d="M50 240v200h500v-200h-500z" />
    <glyph glyph-name="emdash" unicode="&#x2014;" horiz-adv-x="870" 
d="M50 240v200h770v-200h-770z" />
    <glyph glyph-name="quoteleft" unicode="&#x2018;" horiz-adv-x="340" 
d="M300 392h-260v124q0 64 46.5 133t103.5 101l81 -47q-51 -45 -51 -107h80v-204z" />
    <glyph glyph-name="quoteright" unicode="&#x2019;" horiz-adv-x="340" 
d="M40 700h260v-124q0 -64 -46.5 -133t-103.5 -101l-81 47q51 45 51 107h-80v204z" />
    <glyph glyph-name="quotesinglbase" unicode="&#x201a;" horiz-adv-x="340" 
d="M40 204h260v-124q0 -64 -46.5 -133t-103.5 -101l-81 47q51 45 51 107h-80v204z" />
    <glyph glyph-name="quotedblleft" unicode="&#x201c;" horiz-adv-x="640" 
d="M620 392h-260v124q0 64 46.5 133t103.5 101l81 -47q-51 -45 -51 -107h80v-204zM300 392h-260v124q0 64 46.5 133t103.5 101l81 -47q-51 -45 -51 -107h80v-204z" />
    <glyph glyph-name="quotedblright" unicode="&#x201d;" horiz-adv-x="640" 
d="M40 700h260v-124q0 -64 -46.5 -133t-103.5 -101l-81 47q51 45 51 107h-80v204zM360 700h260v-124q0 -64 -46.5 -133t-103.5 -101l-81 47q51 45 51 107h-80v204z" />
    <glyph glyph-name="quotedblbase" unicode="&#x201e;" horiz-adv-x="640" 
d="M40 204h260v-124q0 -64 -46.5 -133t-103.5 -101l-81 47q51 45 51 107h-80v204zM360 204h260v-124q0 -64 -46.5 -133t-103.5 -101l-81 47q51 45 51 107h-80v204z" />
    <glyph glyph-name="bullet" unicode="&#x2022;" horiz-adv-x="424" 
d="M50 266q0 72 39.5 117.5t120.5 45.5q82 0 123 -45.5t41 -117.5q0 -71 -41 -116t-123 -45q-81 0 -120.5 44.5t-39.5 116.5z" />
    <glyph glyph-name="ellipsis" unicode="&#x2026;" horiz-adv-x="1020" 
d="M720 204h260v-204h-260v204zM380 204h260v-204h-260v204zM40 204h260v-204h-260v204z" />
    <glyph glyph-name="perthousand" unicode="&#x2030;" horiz-adv-x="1529" 
d="M859 -10q-190 0 -190 177v55q0 94 50.5 138t139.5 44q190 0 190 -182v-55q0 -177 -190 -177zM240 710q190 0 190 -182v-55q0 -177 -190 -177t-190 177v55q0 94 50.5 138t139.5 44zM205 538v-52q0 -40 6 -57.5t29 -17.5q21 0 27.5 13.5t6.5 44.5v52q0 22 -1 34.5t-9 26
t-24 13.5q-35 0 -35 -57zM859 289q-16 0 -24.5 -13.5t-9.5 -26t-1 -34.5v-52q0 -31 6.5 -44.5t28.5 -13.5q21 0 27.5 13.5t6.5 44.5v69q0 57 -34 57zM811 700l-309 -700h-219l308 700h220zM1289 -10q-190 0 -190 177v55q0 94 50.5 138t139.5 44q190 0 190 -182v-55
q0 -177 -190 -177zM1289 289q-16 0 -24.5 -13.5t-9.5 -26t-1 -34.5v-52q0 -31 6.5 -44.5t28.5 -13.5q21 0 27.5 13.5t6.5 44.5v69q0 57 -34 57z" />
    <glyph glyph-name="Euro" unicode="&#x20ac;" horiz-adv-x="712" 
d="M70 364l-20 116h65v7q0 62 25 107.5t69 69.5t94 35t110 11q53 0 115 -7.5t98 -14.5l36 -8l-42 -180q-175 10 -186 10q-64 0 -64 -23v-7h247l-19 -116h-228v-26h224l-18 -116h-206v-8q0 -24 70 -24l190 10l32 -180q-130 -30 -249 -30q-61 0 -110.5 10.5t-93.5 34t-69 69.5
t-25 110v8h-45l-20 116h60v26h-40z" />
    <glyph glyph-name="afii61352" unicode="&#x2116;" horiz-adv-x="1195" 
d="M819 700l23 -167h-80q-35 0 -63.5 -20t-28.5 -66v-447h-245l-145 298v-298h-230v700h253l137 -289v117q0 53 20 89t57.5 53t75 23.5t87.5 6.5h139zM715 307v21q0 167 211 167q106 0 162.5 -42t56.5 -125v-21q0 -166 -219 -166q-211 0 -211 166zM888 325v-15
q0 -20 1.5 -31.5t10.5 -22t26 -10.5q25 0 31.5 16.5t6.5 47.5v15q0 20 -1.5 31.5t-10.5 22.5t-26 11q-38 0 -38 -65z" />
    <glyph glyph-name="trademark" unicode="&#x2122;" horiz-adv-x="846" 
d="M35 585v115h290v-115h-80v-234h-130v234h-80zM470 543l-10 -192h-125l28 349h150l58 -205l57 205h150l28 -349h-125l-9 193l-51 -193h-100z" />
    <glyph glyph-name="nine.001" horiz-adv-x="640" 
d="M620 403v-107q0 -146 -88.5 -226t-229.5 -80q-125 0 -273 40l40 186q54 -18 133 -23q24 -2 68 -2q51 0 70 19t19 59v21q-28 -9 -45 -13q-41 -9 -88 -9q-102 0 -154 48.5t-52 167.5q0 115 67 170t215 55q158 0 238 -69.5t80 -236.5zM359 428v43q0 31 -8.5 44.5t-32.5 13.5
q-37 0 -37 -44q0 -64 36 -64q12 0 42 7z" />
    <glyph glyph-name="afii10070.001" horiz-adv-x="601" 
d="M543 145l22 -138q-115 -17 -255 -17q-41 0 -77.5 5t-75 19t-65.5 37t-44.5 61.5t-17.5 88.5v64q0 129 68.5 187t211.5 58q271 0 271 -199v-113h-311v-15q0 -29 14.5 -40t47.5 -11q127 0 211 13zM270 320v-18h92v17q0 36 -13.5 49.5t-38.5 13.5q-23 0 -31.5 -12.5
t-8.5 -49.5z" />
    <glyph glyph-name="afii10035.001" horiz-adv-x="582" 
d="M520 240l32 -220q-116 -30 -186 -30q-53 0 -99.5 9t-90.5 30.5t-76 54.5t-51 85t-19 118v126q0 81 28.5 141t78 92.5t106.5 48t123 15.5q31 0 77.5 -7.5t77.5 -14.5l31 -8l-42 -220q-108 20 -144 20q-34 0 -55 -20t-21 -50v-120q0 -70 76 -70q16 0 54.5 5t69.5 10z" />
    <glyph glyph-name="b.001" horiz-adv-x="620" 
d="M40 700h240v-230q34 20 60 29q33 11 72 11q96 0 142 -60.5t46 -199.5q0 -68 -11.5 -113t-32 -72.5t-62 -41.5t-88.5 -18.5t-126 -4.5h-240v700zM280 341v-192h16q64 0 64 101q0 72 -40 87q-13 4 -40 4z" />
    <glyph glyph-name="quotesinglbase.001" horiz-adv-x="340" 
d="M40 204h260v-124q0 -64 -46.5 -133t-103.5 -101l-81 47q51 45 51 107h-80v204z" />
    <glyph glyph-name="afii10028.001" horiz-adv-x="725" 
d="M310 700v-292h16q41 131 87 292h293q-101 -238 -136 -323q77 -203 145 -377h-285q-91 286 -102 320h-18v-320h-260v700h260z" />
    <glyph glyph-name="quoteright.001" horiz-adv-x="340" 
d="M40 700h260v-124q0 -64 -46.5 -133t-103.5 -101l-81 47q51 45 51 107h-80v204z" />
    <glyph glyph-name="quoteleft.001" horiz-adv-x="340" 
d="M300 389h-260v124q0 64 46.5 133t103.5 101l81 -47q-51 -45 -51 -107h80v-204z" />
    <glyph glyph-name="afii10039.001" horiz-adv-x="780" 
d="M320 700l70 -236l69 236h311l-170 -350l170 -350h-311l-69 235l-70 -235h-310l169 350l-169 350h310z" />
    <glyph glyph-name="quotedblright.001" horiz-adv-x="640" 
d="M340 700h260v-124q0 -64 -46.5 -133t-103.5 -101l-81 47q51 45 51 107h-80v204zM40 700h260v-124q0 -64 -46.5 -133t-103.5 -101l-81 47q51 45 51 107h-80v204z" />
    <glyph glyph-name="quotedblleft.001" horiz-adv-x="640" 
d="M600 389h-260v124q0 64 46.5 133t103.5 101l81 -47q-51 -45 -51 -107h80v-204zM300 389h-260v124q0 64 46.5 133t103.5 101l81 -47q-51 -45 -51 -107h80v-204z" />
    <glyph glyph-name="b.002" horiz-adv-x="620" 
d="M40 700h240v-230q68 40 132 40q96 0 142 -60.5t46 -199.5q0 -68 -11.5 -113t-32 -72.5t-62 -41.5t-88.5 -18.5t-126 -4.5h-240v700zM296 149q64 0 64 101q0 91 -63 91h-17v-192h16z" />
    <glyph glyph-name="afii10030.001" horiz-adv-x="1003" 
d="M300 390l-20 -390h-250l56 700h301l115 -410l114 410h301l56 -700h-250l-19 390l-102 -390h-200z" />
    <glyph glyph-name="afii10032.001" 
d="M30 267v156q0 82 26 139.5t75 89t109.5 45t139.5 13.5t139.5 -13.5t109.5 -45t75 -89t26 -139.5v-156q0 -66 -17.5 -115t-47.5 -79.5t-75.5 -49.5t-95.5 -26t-114 -7t-114 7t-95.5 26t-75.5 49.5t-47.5 79.5t-17.5 115zM300 400v-100q0 -29 2 -45t9.5 -33t24 -24.5
t44.5 -7.5q52 0 66 26t14 84v100q0 29 -2 45t-9.5 33t-24 24.5t-44.5 7.5t-45 -7.5t-24 -25t-9 -33t-2 -44.5z" />
    <glyph glyph-name="afii10082.001" horiz-adv-x="630" 
d="M280 -200h-240v700h240v-30q20 12 49 22q52 18 94 18q44 0 73.5 -9.5t54.5 -36t37 -79.5t12 -135q0 -140 -49 -200t-156 -60q-44 0 -71 6q-18 4 -44 14v-210zM290 341h-10v-182h23q30 0 43.5 21.5t13.5 69.5q0 49 -16.5 70t-53.5 21z" />
    <glyph glyph-name="afii10017.001" 
d="M478 0q-13 73 -19 100h-156q-13 -60 -20 -100h-273q96 315 210 700h329q12 -42 86.5 -302.5t114.5 -397.5h-272zM387 457q-30 -108 -50 -187h89q-3 13 -39 187z" />
    <glyph glyph-name="afii10083.001" horiz-adv-x="485" 
d="M445 163l30 -150q-59 -22 -168 -22q-121 0 -199 54t-78 168v72q0 101 81.5 163.5t195.5 62.5q28 0 80 -6.5t88 -19.5l-30 -150q0 1 -16.5 5t-37.5 7.5t-31 3.5q-41 0 -60.5 -18t-19.5 -68v-32q0 -50 19 -67.5t61 -17.5q28 0 85 15z" />
    <glyph glyph-name="afii10065.001" horiz-adv-x="600" 
d="M72 346l-25 132q125 32 222 32q65 0 115 -9t91 -30t63 -60.5t22 -96.5v-314h-240v30q-57 -40 -145 -40q-70 0 -107.5 37t-37.5 121q0 80 44.5 112.5t145.5 32.5h102v11q0 28 -13.5 44.5t-52.5 16.5q-80 0 -184 -19zM304 113h16v81l-28 -2q-22 -7 -22 -40q0 -17 9 -28
t25 -11z" />
    <glyph glyph-name="CR" horiz-adv-x="500" 
 />
    <glyph glyph-name="two.001" horiz-adv-x="833" 
 />
    <glyph glyph-name="three.001" horiz-adv-x="670" 
d="M91 -40l-21 193q8 1 48 4.5t75.5 9t75.5 15t64 27.5t24 42q0 31 -75 31q-16 0 -84 -6l-20 167l77 9q85 10 85 39q0 26 -99 26q-58 0 -172 -21l-27 186q90 28 254 28q143 0 218.5 -38.5t75.5 -136.5q0 -55 -24.5 -83.5t-67.5 -44.5q129 -8 129 -157q0 -40 -12 -73.5
t-30 -59t-48.5 -47t-59.5 -35.5t-72.5 -26.5t-76 -19.5t-81.5 -13.5t-78.5 -9t-77.5 -6.5z" />
    <glyph glyph-name="trademark.001" horiz-adv-x="1603" 
d="M10 470v230h580v-230h-160v-470h-260v470h-160zM900 390l-20 -390h-250l56 700h301l115 -410l114 410h301l56 -700h-250l-19 390l-102 -390h-200z" />
    <glyph glyph-name="three.002" horiz-adv-x="670" 
d="M91 -40l-21 193q8 1 48 4.5t75.5 9t75.5 15t64 27.5t24 42q0 31 -71 31q-18 0 -88 -6l-20 167l77 9q85 10 85 39q0 26 -99 26q-58 0 -172 -21l-27 186q90 28 254 28q143 0 218.5 -38.5t75.5 -136.5q0 -55 -24.5 -83.5t-67.5 -44.5q129 -8 129 -157q0 -59 -23 -104.5
t-64 -74.5t-91 -49.5t-110.5 -31.5t-116.5 -17.5t-114 -11.5q-11 -1 -17 -1z" />
    </font>
</defs>
</svg>
