<?xml version="1.0" standalone="no"?>
<!DOCTYPE svg PUBLIC "-//W3C//DTD SVG 1.1//EN" "http://www.w3.org/Graphics/SVG/1.1/DTD/svg11.dtd" >
<svg xmlns="http://www.w3.org/2000/svg" xmlns:xlink="http://www.w3.org/1999/xlink" version="1.1">
<metadata>
Created by FontForge 20161003 at Fri Jan 13 11:56:09 2017
 By www-data
Copyright (c) 2006 by Art. Lebedev Studio. All rights reserved.
</metadata>
<defs>
<font id="ALSEkibastuzLight" horiz-adv-x="647" >
  <font-face 
    font-family="ALSEkibastuzLight"
    font-weight="300"
    font-stretch="normal"
    units-per-em="1000"
    panose-1="2 0 5 3 0 0 0 2 0 4"
    ascent="800"
    descent="-200"
    x-height="500"
    cap-height="700"
    bbox="-121 -250 1350 950"
    underline-thickness="50"
    underline-position="-150"
    unicode-range="U+0020-2122"
  />
<missing-glyph horiz-adv-x="300" 
 />
    <glyph glyph-name=".notdef" horiz-adv-x="300" 
 />
    <glyph glyph-name=".null" horiz-adv-x="0" 
 />
    <glyph glyph-name="nonmarkingreturn" horiz-adv-x="333" 
 />
    <glyph glyph-name="space" unicode=" " horiz-adv-x="260" 
 />
    <glyph glyph-name="exclam" unicode="!" horiz-adv-x="262" 
d="M91 700h60l-10 -530h-40zM90 104h61v-104h-61v104z" />
    <glyph glyph-name="quotedbl" unicode="&#x22;" horiz-adv-x="378" 
d="M90 700h60l-10 -230h-40zM213 700h60l-10 -230h-40z" />
    <glyph glyph-name="numbersign" unicode="#" horiz-adv-x="622" 
d="M90 480v40h114l35 180h41l-35 -180h159l35 180h41l-35 -180h45v-40h-53l-51 -260h104v-40h-112l-35 -180h-40l35 180h-160l-35 -180h-40l35 180h-48v40h56l50 260h-106zM237 480l-51 -260h160l50 260h-159z" />
    <glyph glyph-name="dollar" unicode="$" horiz-adv-x="677" 
d="M315 730h40v-60q92 -2 205 -44l-11 -31q-104 45 -194 48v-295q39 -11 57 -16t48.5 -16.5t46.5 -22.5t32.5 -28.5t24.5 -38.5q11 -28 11 -66q0 -75 -63 -119.5t-157 -49.5v-71h-40v70q-150 5 -225 44l10 32q87 -43 215 -48v300q-49 14 -82 27.5t-67.5 36t-52.5 54.5
t-18 74q0 73 62.5 114.5t157.5 45.5v60zM414 289q-10 3 -30.5 8.5t-28.5 8.5v-288q49 2 85 16t53 30.5t26.5 38.5t11 33.5t1.5 23.5q0 56 -24.5 81.5t-93.5 47.5zM246 387q38 -17 69 -26v281q-92 -4 -134.5 -42.5t-42.5 -89.5q0 -75 108 -123z" />
    <glyph glyph-name="percent" unicode="%" horiz-adv-x="866" 
d="M599 -10q-69 0 -104 38t-35 95v84q0 57 35 95t104 38t104 -38t35 -95v-84q0 -57 -35 -95t-104 -38zM229 710q69 0 104 -38t35 -95v-84q0 -57 -35 -95t-104 -38t-104 38t-35 95v84q0 57 35 95t104 38zM130 577v-84q0 -44 27.5 -73.5t71.5 -29.5q45 0 72 29.5t27 73.5v84
q0 43 -27 73t-72 30q-44 0 -71.5 -30t-27.5 -73zM599 310q-45 0 -72 -31t-27 -79v-77q0 -44 27.5 -73.5t71.5 -29.5q46 0 72.5 30t26.5 73v84q0 43 -26.5 73t-72.5 30zM656 702q-48 -78 -201 -323t-235 -379h-48q84 134 236 379t201 323h47z" />
    <glyph glyph-name="ampersand" unicode="&#x26;" horiz-adv-x="727" 
d="M519 668l-12 -36q-93 48 -157 48q-160 0 -160 -130q0 -48 52 -110q40 -47 83.5 -100.5t96 -119t81.5 -101.5q47 63 69 161l37 -6q-18 -94 -87 -180q6 -8 75 -94h-52l-51 63q-36 -36 -77.5 -54.5t-106.5 -18.5q-99 0 -159.5 50t-60.5 141q0 84 35 134t98 86
q-73 88 -73 149q0 80 53.5 120t146.5 40q83 0 169 -42zM310 20q43 0 89.5 18.5t74.5 48.5q-26 32 -107 132.5t-126 155.5q-12 -5 -28.5 -18t-36 -35.5t-33 -59.5t-13.5 -81q0 -74 52 -117.5t128 -43.5z" />
    <glyph glyph-name="quotesingle" unicode="'" horiz-adv-x="256" 
d="M90 700h60l-10 -230h-40z" />
    <glyph glyph-name="parenleft" unicode="(" horiz-adv-x="396" 
d="M90 325q0 92 27.5 187.5t55.5 150.5t71 127h36q-17 -23 -37 -59.5t-48 -99t-46.5 -144.5t-18.5 -162q0 -73 16 -147.5t38 -127.5t46.5 -98.5t38.5 -66t17 -23.5h-38q-33 52 -54.5 91t-48.5 100.5t-41 130t-14 141.5z" />
    <glyph glyph-name="parenright" unicode=")" horiz-adv-x="396" 
d="M286 325q0 -73 -14 -141.5t-41 -130t-48.5 -100.5t-54.5 -91h-38q3 3 17 23.5t38.5 66t46.5 98.5t38 127.5t16 147.5q0 80 -18.5 162t-46.5 144.5t-48 99t-37 59.5h36q43 -72 71 -127t55.5 -150.5t27.5 -187.5z" />
    <glyph glyph-name="asterisk" unicode="*" horiz-adv-x="686" 
d="M90 588l20 34l211 -130l-7 248h40l-6 -248l210 130l20 -34l-217 -118l217 -118l-20 -34l-210 130l6 -248h-40l7 247l-211 -129l-20 34l219 118z" />
    <glyph glyph-name="plus" unicode="+" horiz-adv-x="680" 
d="M320 600h40v-230h230v-40h-230v-230h-40v230h-230v40h230v230z" />
    <glyph glyph-name="comma" unicode="," horiz-adv-x="265" 
d="M96 104h61v-64q0 -86 -46 -194l-21 6q35 84 35 148h-29v104z" />
    <glyph glyph-name="hyphen" unicode="-" horiz-adv-x="480" 
d="M90 310v40h300v-40h-300z" />
    <glyph glyph-name="period" unicode="." horiz-adv-x="262" 
d="M90 104h61v-104h-61v104z" />
    <glyph glyph-name="slash" unicode="/" horiz-adv-x="604" 
d="M496 722l-363 -833h-43l362 833h44z" />
    <glyph glyph-name="zero" unicode="0" 
d="M47 275v150q0 124 71.5 204.5t198.5 80.5t198.5 -80t71.5 -204v-151q0 -124 -71.5 -204.5t-198.5 -80.5t-198.5 80t-71.5 205zM317 680q-106 0 -168 -71.5t-62 -182.5v-151q0 -114 61.5 -184.5t168.5 -70.5t168.5 70.5t61.5 184.5v150q0 112 -62 183.5t-168 71.5z" />
    <glyph glyph-name="one" unicode="1" 
d="M168 443l251 257h37v-700h-40v652l-226 -235z" />
    <glyph glyph-name="two" unicode="2" 
d="M315 710q114 0 178 -41t64 -123q0 -34 -16 -64.5t-46 -55t-57 -41.5t-66.5 -39t-56.5 -33q-10 -6 -37 -23t-37.5 -24t-32.5 -24t-31.5 -28.5t-24 -32.5t-21 -41.5t-11.5 -48.5t-5 -61h445v-30h-485v28q0 28 2.5 52t9.5 45.5t12 38.5t19 35t22 29t28.5 27t30 24t36.5 24.5
t37.5 23t42.5 24.5q8 5 39 22t46.5 26.5t41.5 28.5t39.5 34.5t24.5 38t11 45.5q0 59 -54 96.5t-148 37.5q-47 0 -115 -17.5t-98 -36.5l-12 29q28 17 97.5 36t127.5 19z" />
    <glyph glyph-name="three" unicode="3" 
d="M64 21l8 36q28 -10 92.5 -23t124.5 -13q49 0 89.5 8t76 25t55.5 49.5t20 76.5q0 41 -13.5 73.5t-37 51.5t-49 32t-56.5 18.5t-51.5 7.5t-41.5 2h-71l-7 30h96q69 0 129 42t60 111q0 66 -51.5 99t-137.5 33q-47 0 -112.5 -8.5t-92.5 -22.5l-12 31q31 12 98.5 21t118.5 9
q50 0 88 -7t72.5 -24t53 -50t18.5 -81q0 -53 -44.5 -99.5t-109.5 -63.5q93 -25 144.5 -70t51.5 -135q0 -53 -23 -91.5t-64.5 -59t-89.5 -30t-107 -9.5q-60 0 -135 12.5t-90 18.5z" />
    <glyph glyph-name="four" unicode="4" 
d="M470 700h40v-457h70l-7 -29h-63v-214h-40v214h-416v34zM469 655l-373 -412h373v412z" />
    <glyph glyph-name="five" unicode="5" 
d="M66 31l8 36q33 -12 109 -29t138 -17q100 0 153 46t53 154q0 164 -174 164q-58 0 -130 -12t-114 -25l35 352h403l-4 -30h-364l-29 -276q87 25 203 25q44 0 78.5 -7.5t68 -27.5t52 -61.5t18.5 -101.5q0 -231 -249 -231q-46 0 -107.5 9.5t-100 18.5t-47.5 13z" />
    <glyph glyph-name="six" unicode="6" 
d="M51 265v160q0 63 17 113t44.5 81.5t64.5 52.5t74 29.5t77 8.5q132 0 222 -31l-12 -31q-29 12 -92.5 22t-117.5 10q-97 0 -165.5 -64t-68.5 -168v-80q34 23 106.5 42t130.5 19q44 0 83 -6q174 -29 174 -202q0 -99 -75.5 -164.5t-193.5 -65.5q-54 0 -99 13t-84.5 42.5
t-62 85t-22.5 133.5zM94 343v-85q14 -237 225 -237q98 0 162 53t64 147q0 93 -59.5 135.5t-153.5 42.5q-52 0 -126.5 -17t-111.5 -39z" />
    <glyph glyph-name="seven" unicode="7" 
d="M275 0h-43q0 125 30 241t77 199t91 138.5t85 89.5h-453v32h513v-20q-119 -90 -209.5 -278.5t-90.5 -401.5z" />
    <glyph glyph-name="eight" unicode="8" 
d="M256 388q-22 7 -42 14.5t-46.5 22.5t-45.5 32t-32 42t-13 53q0 75 62 116.5t178 41.5t178 -41.5t62 -116.5q0 -114 -201 -165q61 -14 109 -35.5t85 -63t37 -95.5q0 -107 -67.5 -155t-202.5 -48t-202.5 48t-67.5 155q0 45 19 80t53.5 57t65.5 35t71 23zM294 370
q-92 -21 -148 -65t-56 -112q0 -173 227 -173t227 173q0 20 -5 37t-18.5 31.5t-24 25t-35 22.5t-36 18t-44.5 16.5t-42 13.5t-45 13zM317 680q-99 0 -148 -31t-49 -97q0 -24 15.5 -46.5t34.5 -37t51 -29t50 -21t47 -15.5q31 8 59.5 19t62 29t54 44t20.5 57q0 67 -48.5 97.5
t-148.5 30.5z" />
    <glyph glyph-name="nine" unicode="9" 
d="M588 436v-160q0 -63 -17 -113t-44.5 -81.5t-64.5 -52.5t-74 -29.5t-77 -8.5q-132 0 -222 31l12 31q29 -12 92.5 -22t117.5 -10q96 0 165 63.5t69 168.5v80q-34 -23 -106.5 -42t-130.5 -19q-257 0 -257 208q0 99 75.5 164.5t193.5 65.5q54 0 99 -13t84.5 -42.5t62 -85
t22.5 -133.5zM545 358v85q-17 237 -225 237q-98 0 -162 -53t-64 -147q0 -93 59.5 -135.5t153.5 -42.5q52 0 126.5 17t111.5 39z" />
    <glyph glyph-name="colon" unicode=":" horiz-adv-x="262" 
d="M90 500h61v-104h-61v104zM90 104h61v-104h-61v104z" />
    <glyph glyph-name="semicolon" unicode=";" horiz-adv-x="265" 
d="M96 500h61v-104h-61v104zM96 104h61v-64q0 -86 -46 -194l-21 6q35 84 35 148h-29v104z" />
    <glyph glyph-name="less" unicode="&#x3c;" horiz-adv-x="603" 
d="M90 228v44q270 148 405 223v-47l-360 -198l360 -198v-47q-45 25 -186.5 103t-218.5 120z" />
    <glyph glyph-name="equal" unicode="=" horiz-adv-x="680" 
d="M90 230v40h500v-40h-500zM90 430v40h500v-40h-500z" />
    <glyph glyph-name="greater" unicode="&#x3e;" horiz-adv-x="603" 
d="M495 272v-44q-76 -41 -214 -117.5t-191 -105.5v47l360 198l-360 198v47q135 -75 405 -223z" />
    <glyph glyph-name="question" unicode="?" horiz-adv-x="549" 
d="M96 660l-6 30q70 20 133 20q44 0 77 -6.5t68.5 -25.5t55 -61.5t19.5 -106.5q0 -22 -3 -40t-12 -33.5t-14.5 -25t-21.5 -22t-21.5 -16.5t-25.5 -16.5t-24 -14.5q-28 -18 -41.5 -27.5t-25 -27t-11.5 -37.5v-80h-40v70q0 24 7.5 43.5t23.5 35t29.5 25t37.5 23.5q31 18 43 26
t29.5 25.5t23.5 39t6 52.5q0 95 -45.5 132.5t-134.5 37.5q-67 0 -127 -20zM192 104h61v-104h-61v104z" />
    <glyph glyph-name="at" unicode="@" horiz-adv-x="1113" 
d="M548 710q241 0 349.5 -101.5t108.5 -308.5q0 -137 -64.5 -218.5t-198.5 -81.5h-40v54q-108 -64 -180 -64q-204 0 -204 250q0 280 224 280q33 0 69 -4t57 -8.5t46.5 -11t27.5 -6.5v-460q220 4 220 270q0 196 -99 288t-316 92q-211 0 -313 -105.5t-102 -319.5
q0 -220 99 -322.5t316 -102.5q213 0 406 98l18 -26q-42 -21 -93.5 -41t-146 -40.5t-184.5 -20.5q-228 0 -343 109t-115 346q0 455 458 455zM523 20q70 0 180 71v377q-88 22 -160 22q-180 0 -180 -250q0 -67 13 -112t36.5 -67.5t50 -31.5t60.5 -9z" />
    <glyph glyph-name="A" unicode="A" horiz-adv-x="606" 
d="M520 0l-78 228h-301l-78 -228h-43l248 700h48l247 -700h-43zM292 667l-140 -409h280z" />
    <glyph glyph-name="B" unicode="B" horiz-adv-x="594" 
d="M96 0v700h218q76 0 120.5 -42t44.5 -120q0 -122 -83 -153q123 -48 123 -185q0 -44 -9.5 -77t-33 -62.5t-69 -45t-111.5 -15.5h-200zM136 365v-335h160q89 0 134.5 37.5t45.5 132.5q0 47 -16 81t-43.5 51.5t-57 25t-63.5 7.5h-160zM314 670h-178v-275h178q122 0 122 143
q0 62 -31 97t-91 35z" />
    <glyph glyph-name="C" unicode="C" horiz-adv-x="573" 
d="M495 62l12 -31q-121 -41 -186 -41q-140 0 -201.5 71.5t-61.5 203.5v170q0 132 61.5 203.5t201.5 71.5q65 0 186 -41l-12 -31q-5 2 -32 11t-32.5 11t-25.5 7.5t-29.5 7t-25 3.5t-29.5 2q-117 0 -168.5 -60.5t-51.5 -184.5v-170q0 -245 220 -245q14 0 29.5 2t25 3.5t29.5 7
t25.5 7.5t32.5 11t32 11z" />
    <glyph glyph-name="D" unicode="D" horiz-adv-x="690" 
d="M96 0v700h220q71 0 122 -14.5t94 -51t65 -108t22 -176.5t-22 -176.5t-65 -108t-94 -51t-122 -14.5h-220zM316 670h-180v-640h180q43 0 76 5.5t69.5 25t60 53t39 93.5t15.5 143t-15.5 143t-39 93.5t-60 53t-69.5 25t-76 5.5z" />
    <glyph glyph-name="E" unicode="E" horiz-adv-x="565" 
d="M136 370v-340h360v-30h-400v700h400v-30h-360v-270h320v-30h-320z" />
    <glyph glyph-name="F" unicode="F" horiz-adv-x="564" 
d="M136 350v-350h-40v700h400v-30h-360v-290h320v-30h-320z" />
    <glyph glyph-name="G" unicode="G" horiz-adv-x="614" 
d="M541 26q-107 -36 -220 -36q-140 0 -201.5 71.5t-61.5 203.5v170q0 132 61.5 203.5t201.5 71.5q114 0 206 -31l-12 -31q-95 32 -194 32q-117 0 -168.5 -60.5t-51.5 -184.5v-170q0 -245 220 -245q87 0 180 28v272l-180 6v34h220v-334z" />
    <glyph glyph-name="H" unicode="H" horiz-adv-x="712" 
d="M556 700h40v-700h-40v370h-420v-370h-40v700h40v-300h420v300z" />
    <glyph glyph-name="I" unicode="I" horiz-adv-x="357" 
d="M30 670v30h280v-30h-120v-640h120v-30h-280v30h120v640h-120z" />
    <glyph glyph-name="J" unicode="J" horiz-adv-x="491" 
d="M153 -10q-78 0 -132 28l13 35q44 -33 119 -33q50 0 86.5 13t56 32t30.5 49.5t14 56t3 59.5v470h40v-470q0 -38 -3.5 -67t-17 -63.5t-37.5 -57t-68 -37.5t-104 -15z" />
    <glyph glyph-name="K" unicode="K" horiz-adv-x="626" 
d="M136 700v-314h12l378 314h59l-394 -320l395 -380h-55l-383 369h-12v-369h-40v700h40z" />
    <glyph glyph-name="L" unicode="L" horiz-adv-x="584" 
d="M96 0v700h40v-665h380v-35h-420z" />
    <glyph glyph-name="M" unicode="M" horiz-adv-x="913" 
d="M169 637l-53 -637h-40l60 700h41l269 -659l268 659h42l60 -700h-40l-53 637l-256 -637h-43z" />
    <glyph glyph-name="N" unicode="N" horiz-adv-x="780" 
d="M641 700h35v-700h-52l-493 652v-652h-35v700h51l494 -652v652z" />
    <glyph glyph-name="O" unicode="O" horiz-adv-x="726" 
d="M60 265v170q0 111 76.5 193t216.5 82t216.5 -82t76.5 -193v-170q0 -52 -18 -100t-53 -88t-92.5 -63.5t-129.5 -23.5t-129.5 23.5t-92.5 63.5t-53 88t-18 100zM103 435v-170q0 -110 69.5 -177.5t180.5 -67.5q117 0 183.5 66.5t66.5 178.5v170q0 104 -68 174.5t-182 70.5
q-106 0 -178 -69t-72 -176z" />
    <glyph glyph-name="P" unicode="P" horiz-adv-x="598" 
d="M96 700h200q118 0 170.5 -42.5t52.5 -157.5q0 -118 -54.5 -169t-168.5 -51h-160v-280h-40v700zM136 670v-360h160q39 0 67.5 7t56 25.5t42 58t14.5 99.5q0 95 -45.5 132.5t-134.5 37.5h-160z" />
    <glyph glyph-name="Q" unicode="Q" horiz-adv-x="726" 
d="M60 265v170q0 111 76.5 193t216.5 82t216.5 -82t76.5 -193v-170q0 -85 -47 -157t-134 -101l96 -198h-45l-90 188q-40 -7 -73 -7q-72 0 -129.5 23.5t-92.5 63.5t-53 88t-18 100zM285 291h44l123 -256q72 24 111.5 84t39.5 146v170q0 104 -68 174.5t-182 70.5
q-115 0 -182.5 -70t-67.5 -175v-170q0 -112 66.5 -178.5t183.5 -66.5q37 0 59 5z" />
    <glyph glyph-name="R" unicode="R" horiz-adv-x="637" 
d="M551 0l-220 310h-195v-310h-40v700h220q115 0 169 -48t54 -152q0 -91 -47.5 -140.5t-119.5 -49.5l229 -310h-50zM136 670v-330h180q92 0 136 33t44 127q0 95 -45.5 132.5t-134.5 37.5h-180z" />
    <glyph glyph-name="S" unicode="S" horiz-adv-x="614" 
d="M304 710q102 0 225 -47l-11 -33q-56 25 -102.5 37.5t-111.5 12.5q-102 0 -149.5 -42t-47.5 -98q0 -80 108 -130q39 -18 95.5 -36t92 -30.5t71 -33t53 -55t17.5 -85.5q0 -84 -69.5 -132t-170.5 -48q-161 0 -245 47l10 33q102 -50 235 -50q55 0 95 13.5t58.5 31t29.5 42
t12.5 37t1.5 26.5q0 59 -24.5 85.5t-93.5 50.5q-18 6 -66 20.5t-74.5 23.5t-65.5 28t-60 39t-37 52t-16 71q0 82 69.5 126t170.5 44z" />
    <glyph glyph-name="T" unicode="T" horiz-adv-x="567" 
d="M38 665v35h480v-35h-220v-665h-40v665h-220z" />
    <glyph glyph-name="U" unicode="U" horiz-adv-x="652" 
d="M521 700h37v-450q0 -125 -51.5 -192.5t-177.5 -67.5q-128 0 -189.5 69.5t-61.5 190.5v450h40v-460q0 -110 55.5 -165t155.5 -55q98 0 145 54t47 166v460z" />
    <glyph glyph-name="V" unicode="V" horiz-adv-x="598" 
d="M260 0l-240 700h47l221 -670h6l226 670h42l-240 -700h-62z" />
    <glyph glyph-name="W" unicode="W" horiz-adv-x="986" 
d="M229 0l-209 700h45l191 -641l211 641h48l217 -641l188 641h42l-209 -700h-46l-219 646l-213 -646h-46z" />
    <glyph glyph-name="X" unicode="X" horiz-adv-x="612" 
d="M74 700l224 -321l222 321h49l-250 -350l250 -350h-54l-224 320l-222 -320h-49l250 350l-250 350h54z" />
    <glyph glyph-name="Y" unicode="Y" horiz-adv-x="604" 
d="M274 294l-254 406h51l226 -372l223 372h47l-253 -407v-293h-40v294z" />
    <glyph glyph-name="Z" unicode="Z" horiz-adv-x="598" 
d="M65 670v30h480v-27l-450 -643h450v-30h-500v27l450 643h-430z" />
    <glyph glyph-name="bracketleft" unicode="[" horiz-adv-x="376" 
d="M260 800v-37h-130v-866h130v-37h-170v940h170z" />
    <glyph glyph-name="backslash" unicode="\" horiz-adv-x="606" 
d="M496 -111h-43l-363 833h44z" />
    <glyph glyph-name="bracketright" unicode="]" horiz-adv-x="376" 
d="M220 763h-130v37h170v-940h-170v37h130v866z" />
    <glyph glyph-name="asciicircum" unicode="^" horiz-adv-x="686" 
d="M313 701h44l223 -405h-47l-198 360l-198 -360h-47z" />
    <glyph glyph-name="underscore" unicode="_" horiz-adv-x="500" 
d="M0 -82v40h500v-40h-500z" />
    <glyph glyph-name="grave" unicode="`" horiz-adv-x="266" 
d="M127 749l39 -191l-31 -8l-59 199h51z" />
    <glyph glyph-name="a" unicode="a" horiz-adv-x="529" 
d="M94 446l-7 34q2 0 27.5 6.5t45 11t53 8.5t63.5 4q46 0 77.5 -10t47.5 -23.5t24 -40.5t9.5 -45.5t1.5 -54.5v-336h-40v40q-71 -51 -160 -51q-183 0 -183 150q0 65 50.5 98t132.5 33h160v95q0 62 -29 88t-91 26q-21 0 -42.5 -2.5t-43 -6.5t-36 -7.5t-34.5 -9.5t-26 -7z
M236 20q60 0 160 50v170h-160q-68 0 -104 -32t-36 -69q0 -119 140 -119z" />
    <glyph glyph-name="b" unicode="b" horiz-adv-x="567" 
d="M77 700h40v-240q77 48 160 48q223 0 223 -258q0 -260 -223 -260q-79 0 -160 50v-40h-40v700zM277 20q180 0 180 230t-180 230q-71 0 -160 -50v-360q80 -50 160 -50z" />
    <glyph glyph-name="c" unicode="c" horiz-adv-x="477" 
d="M433 64l9 -33q-102 -41 -166 -41q-106 0 -164.5 57.5t-58.5 162.5v80q0 104 58 162t165 58q86 0 166 -41l-10 -33q-4 2 -20 8.5t-22.5 9t-21 8t-23.5 7.5t-22 5.5t-24.5 4.5t-22.5 1q-89 0 -134.5 -50.5t-45.5 -139.5v-80q0 -90 45.5 -140t134.5 -50q55 0 157 44z" />
    <glyph glyph-name="d" unicode="d" horiz-adv-x="589" 
d="M458 700h40v-700h-40v40q-81 -50 -160 -50q-112 0 -167.5 67.5t-55.5 192.5q0 260 223 260q79 0 160 -50v240zM298 20q80 0 160 50v360q-89 50 -160 50q-180 0 -180 -230t180 -230z" />
    <glyph glyph-name="e" unicode="e" horiz-adv-x="529" 
d="M445 64l7 -33q-113 -41 -176 -41q-109 0 -166 43.5t-57 146.5v110q0 102 49 161t154 59q205 0 205 -200v-75h-365v-55q0 -84 45 -122t135 -38q52 0 169 44zM96 300v-40h322v60q0 78 -41 119t-121 41q-160 0 -160 -180z" />
    <glyph glyph-name="f" unicode="f" horiz-adv-x="409" 
d="M432 730l-8 -30q-67 20 -132 20q-32 0 -54 -10t-35 -27.5t-20.5 -46.5t-10 -60t-2.5 -76h200v-30h-200v-470h-40v470h-100v30h100v50q0 200 162 200q80 0 140 -20z" />
    <glyph glyph-name="g" unicode="g" horiz-adv-x="585" 
d="M292 510q90 0 153 -43q28 23 28 83h43q-1 -38 -12 -62.5t-42 -35.5q36 -39 36 -102q0 -83 -55 -115.5t-151 -32.5q-74 0 -105 9q-6 -6 -12 -24.5t-6 -33.5q0 -30 22 -56q29 7 101 7q52 0 91 -6.5t73 -22.5t51.5 -47t17.5 -76q0 -60 -33 -95t-81 -46t-119 -11t-118.5 11
t-80.5 46t-33 95q0 92 102 135q-33 28 -33 66q0 42 31 69q-74 38 -74 128q0 84 56.5 122t149.5 38zM482 -48q0 64 -39.5 92.5t-150.5 28.5q-189 0 -189 -121q0 -56 41 -89t148 -33q190 0 190 122zM455 350q0 59 -41 95.5t-122 36.5q-163 0 -163 -132q0 -64 35 -93t128 -29
q88 0 125.5 30t37.5 92z" />
    <glyph glyph-name="h" unicode="h" horiz-adv-x="573" 
d="M477 0h-40v340q0 75 -29.5 107.5t-108.5 32.5q-48 0 -100 -23.5t-82 -51.5v-405h-40v700h40v-265q28 27 76 51t106 24q92 0 135 -35.5t43 -134.5v-340z" />
    <glyph glyph-name="i" unicode="i" horiz-adv-x="215" 
d="M77 500h40v-500h-40v500zM77 700h40v-117h-40v117z" />
    <glyph glyph-name="j" unicode="j" horiz-adv-x="215" 
d="M-121 -179l5 31q70 -22 100 -22q100 0 100 130v540h40v-540q0 -160 -140 -160q-37 0 -105 21zM84 700h40v-117h-40v117z" />
    <glyph glyph-name="k" unicode="k" horiz-adv-x="505" 
d="M117 700v-431h4l278 231h66l-304 -237l303 -263h-60l-283 252h-4v-252h-40v700h40z" />
    <glyph glyph-name="l" unicode="l" horiz-adv-x="215" 
d="M117 0h-40v750h40v-750z" />
    <glyph glyph-name="m" unicode="m" horiz-adv-x="781" 
d="M397 0h-40v360q0 57 -20 83.5t-70 26.5q-32 0 -78.5 -20.5t-71.5 -45.5v-404h-40v500h40v-62q23 23 70.5 47.5t79.5 24.5q59 0 84 -21.5t38 -60.5q30 33 81 57.5t87 24.5q66 0 93 -37.5t27 -112.5v-360h-40v360q0 59 -15.5 84.5t-64.5 25.5q-31 0 -81 -20.5t-79 -45.5
v-404z" />
    <glyph glyph-name="n" unicode="n" horiz-adv-x="572" 
d="M477 0h-40v340q0 77 -29 108.5t-109 31.5q-48 0 -100 -23.5t-82 -51.5v-405h-40v500h40v-65q97 75 184 75q98 0 137 -41.5t39 -128.5v-340z" />
    <glyph glyph-name="o" unicode="o" horiz-adv-x="564" 
d="M52 192v116q0 91 59.5 146.5t163.5 55.5t163.5 -55.5t59.5 -146.5v-116q0 -91 -59.5 -146.5t-163.5 -55.5t-163.5 55.5t-59.5 146.5zM95 308v-116q0 -77 49 -124.5t131 -47.5t131 47.5t49 124.5v116q0 77 -49 124.5t-131 47.5t-131 -47.5t-49 -124.5z" />
    <glyph glyph-name="p" unicode="p" horiz-adv-x="568" 
d="M118 -200h-40v700h40v-40q81 50 160 50q112 0 167.5 -67.5t55.5 -192.5q0 -260 -223 -260q-79 0 -160 50v-240zM278 480q-80 0 -160 -50v-360q85 -50 160 -50q180 0 180 230t-180 230z" />
    <glyph glyph-name="q" unicode="q" horiz-adv-x="568" 
d="M476 470v-670h-40v240q-81 -50 -160 -50q-223 0 -223 260t223 260q94 0 200 -40zM276 480q-180 0 -180 -230t180 -230q72 0 160 50v380q-67 30 -160 30z" />
    <glyph glyph-name="r" unicode="r" horiz-adv-x="374" 
d="M319 510l8 -40h-33q-66 0 -121.5 -47t-55.5 -82v-341h-40v500h40v-96q22 43 67.5 74.5t92.5 31.5h42z" />
    <glyph glyph-name="s" unicode="s" horiz-adv-x="505" 
d="M250 510q79 0 171 -34l-10 -30q-3 1 -18.5 6.5t-20.5 7.5t-19 6t-23 5.5t-23 4t-28.5 3.5t-30.5 1q-79 0 -114.5 -34t-35.5 -73q0 -26 15.5 -46t40.5 -30t69.5 -20.5t77.5 -20t66.5 -25.5t52 -45t18.5 -72q0 -39 -15 -65t-44 -38t-59 -16.5t-72 -4.5q-92 0 -195 37l7 31
q116 -38 188 -38q52 0 85.5 9.5t46 27t15.5 29t3 28.5q0 54 -59 83q-24 12 -65 22t-75.5 18.5t-68 23t-53 42.5t-19.5 70q0 70 54 103.5t138 33.5z" />
    <glyph glyph-name="t" unicode="t" horiz-adv-x="404" 
d="M29 470v30h100v130l40 10v-140h200v-30h-200v-320q0 -130 100 -130q55 0 93 19l11 -27q-40 -22 -104 -22q-140 0 -140 160v320h-100z" />
    <glyph glyph-name="u" unicode="u" horiz-adv-x="573" 
d="M77 500h40v-340q0 -140 119 -140q59 0 115 23.5t86 51.5v405h40v-500h-40v65q-32 -28 -91 -51.5t-112 -23.5q-79 0 -118 45t-39 125v340z" />
    <glyph glyph-name="v" unicode="v" horiz-adv-x="502" 
d="M214 0l-194 500h48l174 -470h4l174 470h43l-193 -500h-56z" />
    <glyph glyph-name="w" unicode="w" horiz-adv-x="783" 
d="M179 0l-154 500h47l129 -458h4l156 458h54l156 -458h4l130 458h42l-154 -500h-42l-165 459l-165 -459h-42z" />
    <glyph glyph-name="x" unicode="x" horiz-adv-x="507" 
d="M76 500l176 -228l168 228h51l-200 -250l200 -250h-56l-174 228l-170 -228h-51l200 250l-200 250h56z" />
    <glyph glyph-name="y" unicode="y" horiz-adv-x="531" 
d="M226 -123l49 123q-11 2 -22.5 11.5t-16.5 20.5l-216 468h51l213 -477l167 477h43l-171 -469q-42 -117 -64 -168q-18 -43 -46 -68t-77 -25q-53 0 -97 23l13 31q40 -20 79 -20q34 0 56 15.5t39 57.5z" />
    <glyph glyph-name="z" unicode="z" horiz-adv-x="516" 
d="M72 470v30h384v-26l-353 -444h349v-30h-400v26l353 444h-333z" />
    <glyph glyph-name="braceleft" unicode="{" horiz-adv-x="407" 
d="M290 760h-50q-22 0 -36 -13.5t-14 -36.5v-293q0 -26 -7.5 -39.5t-25.5 -28.5q22 -18 27.5 -38.5t5.5 -79.5v-281q0 -23 14 -36.5t36 -13.5h50v-40h-50q-90 0 -90 109v308q0 25 -13 37.5t-25 12.5h-22v40h21q12 0 25.5 12.5t13.5 37.5v283q0 100 90 100h50v-40z" />
    <glyph glyph-name="bar" unicode="|" horiz-adv-x="244" 
d="M90 750h40v-1000h-40v1000z" />
    <glyph glyph-name="braceright" unicode="}" horiz-adv-x="407" 
d="M140 760h-50v40h50q90 0 90 -100v-283q0 -25 13.5 -37.5t25.5 -12.5h21v-40h-22q-12 0 -25 -12.5t-13 -37.5v-308q0 -109 -90 -109h-50v40h50q22 0 36 13.5t14 36.5v281q0 59 5.5 79.5t27.5 38.5q-18 15 -25.5 28.5t-7.5 39.5v293q0 23 -14 36.5t-36 13.5z" />
    <glyph glyph-name="asciitilde" unicode="~" horiz-adv-x="677" 
d="M112 399l-22 22q4 7 19 25.5t49.5 41t68.5 22.5t92.5 -35t105.5 -35q28 0 56 20t42.5 38t14.5 21l26 -18q-3 -5 -7 -12.5t-17.5 -24.5t-28.5 -30t-38 -23.5t-48 -10.5q-43 0 -101.5 35t-96.5 35q-30 0 -65.5 -25.5t-49.5 -45.5z" />
    <glyph glyph-name="sterling" unicode="&#xa3;" horiz-adv-x="772" 
d="M599 669l-14 -28q-2 2 -28 10.5t-74.5 18.5t-90.5 10q-71 0 -125.5 -47.5t-54.5 -142.5v-90h320v-30h-320v-290q35 10 70 10q36 0 102 -30t108 -30q35 0 70.5 20.5t54 39t18.5 21.5l24 -22q-8 -10 -25.5 -28.5t-60 -44.5t-81.5 -26q-28 0 -96.5 30t-113.5 30
q-95 0 -175 -60l-17 26q43 32 82 50v304h-60v30h60v90q0 99 61 159.5t159 60.5q79 0 207 -41z" />
    <glyph glyph-name="currency" unicode="&#xa4;" horiz-adv-x="611" 
d="M40 280v30h62v390h200q118 0 170.5 -42.5t52.5 -157.5q0 -118 -54.5 -169t-168.5 -51h-160v-98h341v-30h-341v-152h-40v152h-62v30h62v98h-62zM142 670v-360h160q39 0 67.5 7t56 25.5t42 58t14.5 99.5q0 95 -45.5 132.5t-134.5 37.5h-160z" />
    <glyph glyph-name="section" unicode="&#xa7;" horiz-adv-x="685" 
d="M334 710q112 0 244 -38l-7 -31q-138 39 -237 39q-101 0 -150.5 -37t-49.5 -83q0 -53 50.5 -79t154.5 -48q35 -7 53.5 -11.5t51.5 -15t51.5 -22.5t39 -30.5t30 -44.5t9.5 -58q0 -52 -45.5 -91.5t-107.5 -62.5q69 -16 111 -52.5t42 -94.5q0 -51 -36.5 -86t-89 -49.5
t-114.5 -14.5q-92 0 -244 38l7 30q7 -2 29 -7t30 -7t27.5 -6.5t29.5 -6t28 -4.5t31 -4t29.5 -2t32.5 -1q101 0 150.5 37t49.5 83q0 28 -15 49.5t-45 36t-63.5 23.5t-81.5 18q-37 7 -63.5 13.5t-61.5 20.5t-57 32.5t-37.5 48t-15.5 67.5q0 30 14 54.5t42.5 44.5t47 29.5
t51.5 24.5q-63 12 -109 52.5t-46 95.5q0 73 68 111.5t172 38.5zM134 259q0 -24 8 -44t24.5 -34t32.5 -24t42.5 -18t43.5 -12t46 -9.5t40 -8.5q39 16 61.5 27t49.5 29t39.5 39t12.5 47q0 25 -9 45t-27.5 35t-38 25.5t-50.5 19.5t-53.5 14t-58.5 11q-67 -25 -115 -61.5
t-48 -80.5z" />
    <glyph glyph-name="dieresis" unicode="&#xa8;" horiz-adv-x="408" 
d="M90 700h61v-117h-61v117zM230 700h61v-117h-61v117z" />
    <glyph glyph-name="copyright" unicode="&#xa9;" horiz-adv-x="1090" 
d="M545 710q227 0 341 -116.5t114 -338.5t-114 -338.5t-341 -116.5t-341 116.5t-114 338.5t114 338.5t341 116.5zM960 255q0 207 -103 316t-312 109q-210 0 -312.5 -109t-102.5 -316t102.5 -316t312.5 -109t312.5 109t102.5 316zM707 46l10 -28q-80 -28 -154 -28
q-126 0 -174.5 53t-48.5 172v71q0 120 49 177t174 57q77 0 154 -27l-10 -29q-83 29 -144 29q-104 0 -144.5 -47t-40.5 -160v-71q0 -104 40.5 -151t144.5 -47q61 0 144 29z" />
    <glyph glyph-name="guillemotleft" unicode="&#xab;" horiz-adv-x="537" 
d="M90 249l158 220h43l-151 -218l151 -199h-46zM220 249l158 220h43l-151 -218l151 -199h-46z" />
    <glyph glyph-name="registered" unicode="&#xae;" horiz-adv-x="667" 
d="M338 710q248 0 248 -245t-248 -245t-248 245t248 245zM543 465q0 108 -50 161.5t-155 53.5t-155 -53.5t-50 -161.5t50 -161.5t155 -53.5t155 53.5t50 161.5zM422 318l-91 132h-57v-132h-27v297h93q100 0 100 -85q0 -38 -22.5 -59t-53.5 -21l97 -132h-39zM274 592v-120h66
q17 0 27 1.5t21.5 6.5t16.5 17.5t5 32.5q0 39 -18 50.5t-52 11.5h-66z" />
    <glyph glyph-name="degree" unicode="&#xb0;" horiz-adv-x="567" 
d="M260 710q70 0 120 -50t50 -120t-50 -120t-120 -50t-120 50t-50 120t50 120t120 50zM390 540q0 54 -38 92t-92 38t-92 -38t-38 -92t38 -92t92 -38t92 38t38 92z" />
    <glyph glyph-name="plusminus" unicode="&#xb1;" horiz-adv-x="680" 
d="M320 600h40v-230h230v-40h-230v-230h-40v230h-230v40h230v230zM90 0v40h500v-40h-500z" />
    <glyph glyph-name="acute" unicode="&#xb4;" horiz-adv-x="286" 
d="M90 556l39 194h51l-59 -199z" />
    <glyph glyph-name="paragraph" unicode="&#xb6;" horiz-adv-x="729" 
d="M600 700l10 -40h-100v-744l-40 -11v755h-160v-798l-40 -11v449h-10q-80 0 -125 54.5t-45 145.5t45 145.5t125 54.5h340z" />
    <glyph glyph-name="periodcentered" unicode="&#xb7;" horiz-adv-x="275" 
d="M86 250q0 47 46 47q47 0 47 -47q0 -46 -47 -46q-46 0 -46 46z" />
    <glyph glyph-name="cedilla" unicode="&#xb8;" horiz-adv-x="150" 
d="M44 10h28l-12 -51h5q62 0 62 -51q0 -31 -18 -48t-53 -17t-56 15l14 28q17 -13 44 -13q34 0 34 32q0 27 -40 27l-27 -1z" />
    <glyph glyph-name="guillemotright" unicode="&#xbb;" horiz-adv-x="537" 
d="M371 251l-151 218h42l159 -220l-156 -197h-45zM241 251l-151 218h42l159 -220l-156 -197h-45z" />
    <glyph glyph-name="Agrave" unicode="&#xc0;" horiz-adv-x="605" 
d="M520 0l-78 228h-301l-78 -228h-43l248 700h48l247 -700h-43zM292 667l-140 -409h280zM298 949l39 -191l-31 -8l-59 199h51z" />
    <glyph glyph-name="Aacute" unicode="&#xc1;" horiz-adv-x="605" 
d="M520 0l-78 228h-301l-78 -228h-43l248 700h48l247 -700h-43zM292 667l-140 -409h280zM247 756l39 194h51l-59 -199z" />
    <glyph glyph-name="Acircumflex" unicode="&#xc2;" horiz-adv-x="605" 
d="M520 0l-78 228h-301l-78 -228h-43l248 700h48l247 -700h-43zM292 667l-140 -409h280zM270 935h44l83 -152h-47l-58 124l-59 -124h-46z" />
    <glyph glyph-name="Atilde" unicode="&#xc3;" horiz-adv-x="605" 
d="M520 0l-78 228h-301l-78 -228h-43l248 700h48l247 -700h-43zM292 667l-140 -409h280zM164 829l-9 27q42 39 86 39q24 0 57 -17.5t52 -17.5q36 0 76 37l13 -25q-9 -14 -36.5 -30t-52.5 -16q-19 0 -52.5 17.5t-56.5 17.5q-43 0 -77 -32z" />
    <glyph glyph-name="Adieresis" unicode="&#xc4;" horiz-adv-x="605" 
d="M520 0l-78 228h-301l-78 -228h-43l248 700h48l247 -700h-43zM292 667l-140 -409h280zM191 900h61v-117h-61v117zM331 900h61v-117h-61v117z" />
    <glyph glyph-name="AE" unicode="&#xc6;" horiz-adv-x="937" 
d="M470 0l1 16v212h-260l-146 -228h-45l448 700h403v-30h-360v-270h320v-30h-320v-340h360v-30h-401zM230 258h241v384z" />
    <glyph glyph-name="Ccedilla" unicode="&#xc7;" horiz-adv-x="573" 
d="M495 62l12 -31q-121 -41 -186 -41h-5l-7 -31h5q62 0 62 -51q0 -31 -18 -48t-53 -17t-56 15l14 28q17 -13 44 -13q34 0 34 32q0 27 -40 27l-27 -1l14 61q-123 8 -176.5 78t-53.5 195v170q0 132 61.5 203.5t201.5 71.5q65 0 186 -41l-12 -31q-5 2 -32 11t-32.5 11
t-25.5 7.5t-29.5 7t-25 3.5t-29.5 2q-117 0 -168.5 -60.5t-51.5 -184.5v-170q0 -245 220 -245q14 0 29.5 2t25 3.5t29.5 7t25.5 7.5t32.5 11t32 11z" />
    <glyph glyph-name="Egrave" unicode="&#xc8;" horiz-adv-x="565" 
d="M136 370v-340h360v-30h-400v700h400v-30h-360v-270h320v-30h-320zM282 949l39 -191l-31 -8l-59 199h51z" />
    <glyph glyph-name="Eacute" unicode="&#xc9;" horiz-adv-x="565" 
d="M136 370v-340h360v-30h-400v700h400v-30h-360v-270h320v-30h-320zM271 756l39 194h51l-59 -199z" />
    <glyph glyph-name="Ecircumflex" unicode="&#xca;" horiz-adv-x="565" 
d="M136 370v-340h360v-30h-400v700h400v-30h-360v-270h320v-30h-320zM254 935h44l83 -152h-47l-58 124l-59 -124h-46z" />
    <glyph glyph-name="Edieresis" unicode="&#xcb;" horiz-adv-x="565" 
d="M136 370v-340h360v-30h-400v700h400v-30h-360v-270h320v-30h-320zM175 900h61v-117h-61v117zM315 900h61v-117h-61v117z" />
    <glyph glyph-name="Igrave" unicode="&#xcc;" horiz-adv-x="357" 
d="M30 670v30h280v-30h-120v-640h120v-30h-280v30h120v640h-120zM176 949l39 -191l-31 -8l-59 199h51z" />
    <glyph glyph-name="Iacute" unicode="&#xcd;" horiz-adv-x="357" 
d="M30 670v30h280v-30h-120v-640h120v-30h-280v30h120v640h-120zM125 756l39 194h51l-59 -199z" />
    <glyph glyph-name="Icircumflex" unicode="&#xce;" horiz-adv-x="357" 
d="M30 670v30h280v-30h-120v-640h120v-30h-280v30h120v640h-120zM148 935h44l83 -152h-47l-58 124l-59 -124h-46z" />
    <glyph glyph-name="Idieresis" unicode="&#xcf;" horiz-adv-x="357" 
d="M30 670v30h280v-30h-120v-640h120v-30h-280v30h120v640h-120zM70 900h61v-117h-61v117zM210 900h61v-117h-61v117z" />
    <glyph glyph-name="Ograve" unicode="&#xd2;" horiz-adv-x="718" 
d="M60 265v170q0 111 76.5 193t216.5 82t216.5 -82t76.5 -193v-170q0 -52 -18 -100t-53 -88t-92.5 -63.5t-129.5 -23.5t-129.5 23.5t-92.5 63.5t-53 88t-18 100zM103 435v-170q0 -110 69.5 -177.5t180.5 -67.5q117 0 183.5 66.5t66.5 178.5v170q0 104 -68 174.5t-182 70.5
q-106 0 -178 -69t-72 -176zM359 949l39 -191l-31 -8l-59 199h51z" />
    <glyph glyph-name="Oacute" unicode="&#xd3;" horiz-adv-x="718" 
d="M60 265v170q0 111 76.5 193t216.5 82t216.5 -82t76.5 -193v-170q0 -52 -18 -100t-53 -88t-92.5 -63.5t-129.5 -23.5t-129.5 23.5t-92.5 63.5t-53 88t-18 100zM103 435v-170q0 -110 69.5 -177.5t180.5 -67.5q117 0 183.5 66.5t66.5 178.5v170q0 104 -68 174.5t-182 70.5
q-106 0 -178 -69t-72 -176zM308 756l39 194h51l-59 -199z" />
    <glyph glyph-name="Ocircumflex" unicode="&#xd4;" horiz-adv-x="718" 
d="M60 265v170q0 111 76.5 193t216.5 82t216.5 -82t76.5 -193v-170q0 -52 -18 -100t-53 -88t-92.5 -63.5t-129.5 -23.5t-129.5 23.5t-92.5 63.5t-53 88t-18 100zM103 435v-170q0 -110 69.5 -177.5t180.5 -67.5q117 0 183.5 66.5t66.5 178.5v170q0 104 -68 174.5t-182 70.5
q-106 0 -178 -69t-72 -176zM331 935h44l83 -152h-47l-58 124l-59 -124h-46z" />
    <glyph glyph-name="Otilde" unicode="&#xd5;" horiz-adv-x="718" 
d="M60 265v170q0 111 76.5 193t216.5 82t216.5 -82t76.5 -193v-170q0 -52 -18 -100t-53 -88t-92.5 -63.5t-129.5 -23.5t-129.5 23.5t-92.5 63.5t-53 88t-18 100zM103 435v-170q0 -110 69.5 -177.5t180.5 -67.5q117 0 183.5 66.5t66.5 178.5v170q0 104 -68 174.5t-182 70.5
q-106 0 -178 -69t-72 -176zM225 829l-9 27q42 39 86 39q24 0 57 -17.5t52 -17.5q36 0 76 37l13 -25q-9 -14 -36.5 -30t-52.5 -16q-19 0 -52.5 17.5t-56.5 17.5q-43 0 -77 -32z" />
    <glyph glyph-name="Odieresis" unicode="&#xd6;" horiz-adv-x="718" 
d="M60 265v170q0 111 76.5 193t216.5 82t216.5 -82t76.5 -193v-170q0 -52 -18 -100t-53 -88t-92.5 -63.5t-129.5 -23.5t-129.5 23.5t-92.5 63.5t-53 88t-18 100zM103 435v-170q0 -110 69.5 -177.5t180.5 -67.5q117 0 183.5 66.5t66.5 178.5v170q0 104 -68 174.5t-182 70.5
q-106 0 -178 -69t-72 -176zM252 900h61v-117h-61v117zM392 900h61v-117h-61v117z" />
    <glyph glyph-name="Ugrave" unicode="&#xd9;" horiz-adv-x="652" 
d="M521 700h37v-450q0 -125 -51.5 -192.5t-177.5 -67.5q-128 0 -189.5 69.5t-61.5 190.5v450h40v-460q0 -110 55.5 -165t155.5 -55q98 0 145 54t47 166v460zM324 949l39 -191l-31 -8l-59 199h51z" />
    <glyph glyph-name="Uacute" unicode="&#xda;" horiz-adv-x="652" 
d="M521 700h37v-450q0 -125 -51.5 -192.5t-177.5 -67.5q-128 0 -189.5 69.5t-61.5 190.5v450h40v-460q0 -110 55.5 -165t155.5 -55q98 0 145 54t47 166v460zM273 756l39 194h51l-59 -199z" />
    <glyph glyph-name="Ucircumflex" unicode="&#xdb;" horiz-adv-x="652" 
d="M521 700h37v-450q0 -125 -51.5 -192.5t-177.5 -67.5q-128 0 -189.5 69.5t-61.5 190.5v450h40v-460q0 -110 55.5 -165t155.5 -55q98 0 145 54t47 166v460zM296 935h44l83 -152h-47l-58 124l-59 -124h-46z" />
    <glyph glyph-name="Udieresis" unicode="&#xdc;" horiz-adv-x="652" 
d="M521 700h37v-450q0 -125 -51.5 -192.5t-177.5 -67.5q-128 0 -189.5 69.5t-61.5 190.5v450h40v-460q0 -110 55.5 -165t155.5 -55q98 0 145 54t47 166v460zM217 900h61v-117h-61v117zM357 900h61v-117h-61v117z" />
    <glyph glyph-name="agrave" unicode="&#xe0;" horiz-adv-x="529" 
d="M94 446l-7 34q2 0 27.5 6.5t45 11t53 8.5t63.5 4q46 0 77.5 -10t47.5 -23.5t24 -40.5t9.5 -45.5t1.5 -54.5v-336h-40v40q-71 -51 -160 -51q-183 0 -183 150q0 65 50.5 98t132.5 33h160v95q0 62 -29 88t-91 26q-21 0 -42.5 -2.5t-43 -6.5t-36 -7.5t-34.5 -9.5t-26 -7z
M236 20q60 0 160 50v170h-160q-68 0 -104 -32t-36 -69q0 -119 140 -119zM263 749l39 -191l-31 -8l-59 199h51z" />
    <glyph glyph-name="aacute" unicode="&#xe1;" horiz-adv-x="529" 
d="M94 446l-7 34q2 0 27.5 6.5t45 11t53 8.5t63.5 4q46 0 77.5 -10t47.5 -23.5t24 -40.5t9.5 -45.5t1.5 -54.5v-336h-40v40q-71 -51 -160 -51q-183 0 -183 150q0 65 50.5 98t132.5 33h160v95q0 62 -29 88t-91 26q-21 0 -42.5 -2.5t-43 -6.5t-36 -7.5t-34.5 -9.5t-26 -7z
M236 20q60 0 160 50v170h-160q-68 0 -104 -32t-36 -69q0 -119 140 -119zM242 556l39 194h51l-59 -199z" />
    <glyph glyph-name="acircumflex" unicode="&#xe2;" horiz-adv-x="529" 
d="M94 446l-7 34q2 0 27.5 6.5t45 11t53 8.5t63.5 4q46 0 77.5 -10t47.5 -23.5t24 -40.5t9.5 -45.5t1.5 -54.5v-336h-40v40q-71 -51 -160 -51q-183 0 -183 150q0 65 50.5 98t132.5 33h160v95q0 62 -29 88t-91 26q-21 0 -42.5 -2.5t-43 -6.5t-36 -7.5t-34.5 -9.5t-26 -7z
M236 20q60 0 160 50v170h-160q-68 0 -104 -32t-36 -69q0 -119 140 -119zM235 735h44l83 -152h-47l-58 124l-59 -124h-46z" />
    <glyph glyph-name="atilde" unicode="&#xe3;" horiz-adv-x="529" 
d="M94 446l-7 34q2 0 27.5 6.5t45 11t53 8.5t63.5 4q46 0 77.5 -10t47.5 -23.5t24 -40.5t9.5 -45.5t1.5 -54.5v-336h-40v40q-71 -51 -160 -51q-183 0 -183 150q0 65 50.5 98t132.5 33h160v95q0 62 -29 88t-91 26q-21 0 -42.5 -2.5t-43 -6.5t-36 -7.5t-34.5 -9.5t-26 -7z
M236 20q60 0 160 50v170h-160q-68 0 -104 -32t-36 -69q0 -119 140 -119zM129 629l-9 27q42 39 86 39q24 0 57 -17.5t52 -17.5q36 0 76 37l13 -25q-9 -14 -36.5 -30t-52.5 -16q-19 0 -52.5 17.5t-56.5 17.5q-43 0 -77 -32z" />
    <glyph glyph-name="adieresis" unicode="&#xe4;" horiz-adv-x="529" 
d="M94 446l-7 34q2 0 27.5 6.5t45 11t53 8.5t63.5 4q46 0 77.5 -10t47.5 -23.5t24 -40.5t9.5 -45.5t1.5 -54.5v-336h-40v40q-71 -51 -160 -51q-183 0 -183 150q0 65 50.5 98t132.5 33h160v95q0 62 -29 88t-91 26q-21 0 -42.5 -2.5t-43 -6.5t-36 -7.5t-34.5 -9.5t-26 -7z
M236 20q60 0 160 50v170h-160q-68 0 -104 -32t-36 -69q0 -119 140 -119zM156 700h61v-117h-61v117zM296 700h61v-117h-61v117z" />
    <glyph glyph-name="ae" unicode="&#xe6;" horiz-adv-x="862" 
d="M785 62l7 -31q-105 -41 -176 -41q-135 0 -184 63q-109 -64 -201 -64q-178 0 -178 141q0 70 50.5 105t132.5 35h160v95q0 62 -29 88t-91 26q-21 0 -42.5 -2.5t-43 -6.5t-36 -7.5t-34.5 -9.5t-26 -7l-7 34q2 0 27.5 6.5t45 11t53 8.5t63.5 4q72 0 104.5 -20.5t47.5 -64.5
q49 85 168 85q205 0 205 -200v-70h-365v-69q0 -151 180 -151q73 0 169 42zM596 480q-160 0 -160 -172v-38h322v50q0 78 -41 119t-121 41zM236 20q86 0 180 59q-20 42 -20 101v60h-160q-70 0 -105 -31.5t-35 -76.5q0 -53 34.5 -82.5t105.5 -29.5z" />
    <glyph glyph-name="ccedilla" unicode="&#xe7;" horiz-adv-x="477" 
d="M433 64l9 -33q-102 -41 -166 -41l-7 -31h5q62 0 62 -51q0 -31 -18 -48t-53 -17t-56 15l14 28q17 -13 44 -13q34 0 34 32q0 27 -40 27l-27 -1l14 60q-94 8 -144.5 64.5t-50.5 154.5v80q0 104 58 162t165 58q86 0 166 -41l-10 -33q-4 2 -20 8.5t-22.5 9t-21 8t-23.5 7.5
t-22 5.5t-24.5 4.5t-22.5 1q-89 0 -134.5 -50.5t-45.5 -139.5v-80q0 -90 45.5 -140t134.5 -50q55 0 157 44z" />
    <glyph glyph-name="egrave" unicode="&#xe8;" horiz-adv-x="509" 
d="M435 64l7 -33q-113 -41 -176 -41q-109 0 -166 43.5t-57 146.5v110q0 102 49 161t154 59q205 0 205 -200v-75h-365v-55q0 -84 45 -122t135 -38q52 0 169 44zM86 300v-40h322v60q0 78 -41 119t-121 41q-160 0 -160 -180zM253 749l39 -191l-31 -8l-59 199h51z" />
    <glyph glyph-name="eacute" unicode="&#xe9;" horiz-adv-x="509" 
d="M435 64l7 -33q-113 -41 -176 -41q-109 0 -166 43.5t-57 146.5v110q0 102 49 161t154 59q205 0 205 -200v-75h-365v-55q0 -84 45 -122t135 -38q52 0 169 44zM86 300v-40h322v60q0 78 -41 119t-121 41q-160 0 -160 -180zM222 556l39 194h51l-59 -199z" />
    <glyph glyph-name="ecircumflex" unicode="&#xea;" horiz-adv-x="509" 
d="M435 64l7 -33q-113 -41 -176 -41q-109 0 -166 43.5t-57 146.5v110q0 102 49 161t154 59q205 0 205 -200v-75h-365v-55q0 -84 45 -122t135 -38q52 0 169 44zM86 300v-40h322v60q0 78 -41 119t-121 41q-160 0 -160 -180zM225 735h44l83 -152h-47l-58 124l-59 -124h-46z" />
    <glyph glyph-name="edieresis" unicode="&#xeb;" horiz-adv-x="509" 
d="M435 64l7 -33q-113 -41 -176 -41q-109 0 -166 43.5t-57 146.5v110q0 102 49 161t154 59q205 0 205 -200v-75h-365v-55q0 -84 45 -122t135 -38q52 0 169 44zM86 300v-40h322v60q0 78 -41 119t-121 41q-160 0 -160 -180zM146 700h61v-117h-61v117zM286 700h61v-117h-61v117
z" />
    <glyph glyph-name="igrave" unicode="&#xec;" horiz-adv-x="216" 
d="M80 500h40v-500h-40v500zM106 749l39 -191l-31 -8l-59 199h51z" />
    <glyph glyph-name="iacute" unicode="&#xed;" horiz-adv-x="216" 
d="M80 500h40v-500h-40v500zM55 556l39 194h51l-59 -199z" />
    <glyph glyph-name="icircumflex" unicode="&#xee;" horiz-adv-x="216" 
d="M77 500h40v-500h-40v500zM75 735h44l83 -152h-47l-58 124l-59 -124h-46z" />
    <glyph glyph-name="idieresis" unicode="&#xef;" horiz-adv-x="216" 
d="M74 500h40v-500h-40v500zM-6 700h61v-117h-61v117zM134 700h61v-117h-61v117z" />
    <glyph glyph-name="ograve" unicode="&#xf2;" horiz-adv-x="564" 
d="M52 192v116q0 91 59.5 146.5t163.5 55.5t163.5 -55.5t59.5 -146.5v-116q0 -91 -59.5 -146.5t-163.5 -55.5t-163.5 55.5t-59.5 146.5zM95 308v-116q0 -77 49 -124.5t131 -47.5t131 47.5t49 124.5v116q0 77 -49 124.5t-131 47.5t-131 -47.5t-49 -124.5zM281 749l39 -191
l-31 -8l-59 199h51z" />
    <glyph glyph-name="oacute" unicode="&#xf3;" horiz-adv-x="564" 
d="M52 192v116q0 91 59.5 146.5t163.5 55.5t163.5 -55.5t59.5 -146.5v-116q0 -91 -59.5 -146.5t-163.5 -55.5t-163.5 55.5t-59.5 146.5zM95 308v-116q0 -77 49 -124.5t131 -47.5t131 47.5t49 124.5v116q0 77 -49 124.5t-131 47.5t-131 -47.5t-49 -124.5zM230 556l39 194h51
l-59 -199z" />
    <glyph glyph-name="ocircumflex" unicode="&#xf4;" horiz-adv-x="564" 
d="M52 192v116q0 91 59.5 146.5t163.5 55.5t163.5 -55.5t59.5 -146.5v-116q0 -91 -59.5 -146.5t-163.5 -55.5t-163.5 55.5t-59.5 146.5zM95 308v-116q0 -77 49 -124.5t131 -47.5t131 47.5t49 124.5v116q0 77 -49 124.5t-131 47.5t-131 -47.5t-49 -124.5zM253 735h44l83 -152
h-47l-58 124l-59 -124h-46z" />
    <glyph glyph-name="otilde" unicode="&#xf5;" horiz-adv-x="564" 
d="M52 192v116q0 91 59.5 146.5t163.5 55.5t163.5 -55.5t59.5 -146.5v-116q0 -91 -59.5 -146.5t-163.5 -55.5t-163.5 55.5t-59.5 146.5zM95 308v-116q0 -77 49 -124.5t131 -47.5t131 47.5t49 124.5v116q0 77 -49 124.5t-131 47.5t-131 -47.5t-49 -124.5zM147 629l-9 27
q42 39 86 39q24 0 57 -17.5t52 -17.5q36 0 76 37l13 -25q-9 -14 -36.5 -30t-52.5 -16q-19 0 -52.5 17.5t-56.5 17.5q-43 0 -77 -32z" />
    <glyph glyph-name="odieresis" unicode="&#xf6;" horiz-adv-x="564" 
d="M52 192v116q0 91 59.5 146.5t163.5 55.5t163.5 -55.5t59.5 -146.5v-116q0 -91 -59.5 -146.5t-163.5 -55.5t-163.5 55.5t-59.5 146.5zM95 308v-116q0 -77 49 -124.5t131 -47.5t131 47.5t49 124.5v116q0 77 -49 124.5t-131 47.5t-131 -47.5t-49 -124.5zM174 700h61v-117
h-61v117zM314 700h61v-117h-61v117z" />
    <glyph glyph-name="ugrave" unicode="&#xf9;" horiz-adv-x="573" 
d="M77 500h40v-340q0 -140 119 -140q59 0 115 23.5t86 51.5v405h40v-500h-40v65q-32 -28 -91 -51.5t-112 -23.5q-79 0 -118 45t-39 125v340zM283 749l39 -191l-31 -8l-59 199h51z" />
    <glyph glyph-name="uacute" unicode="&#xfa;" horiz-adv-x="573" 
d="M77 500h40v-340q0 -140 119 -140q59 0 115 23.5t86 51.5v405h40v-500h-40v65q-32 -28 -91 -51.5t-112 -23.5q-79 0 -118 45t-39 125v340zM232 556l39 194h51l-59 -199z" />
    <glyph glyph-name="ucircumflex" unicode="&#xfb;" horiz-adv-x="573" 
d="M77 500h40v-340q0 -140 119 -140q59 0 115 23.5t86 51.5v405h40v-500h-40v65q-32 -28 -91 -51.5t-112 -23.5q-79 0 -118 45t-39 125v340zM255 735h44l83 -152h-47l-58 124l-59 -124h-46z" />
    <glyph glyph-name="udieresis" unicode="&#xfc;" horiz-adv-x="573" 
d="M77 500h40v-340q0 -140 119 -140q59 0 115 23.5t86 51.5v405h40v-500h-40v65q-32 -28 -91 -51.5t-112 -23.5q-79 0 -118 45t-39 125v340zM176 700h61v-117h-61v117zM316 700h61v-117h-61v117z" />
    <glyph glyph-name="OE" unicode="&#x152;" horiz-adv-x="982" 
d="M60 265v170q0 112 77 193.5t226 81.5q27 0 149 -10h392v-30h-360v-270h320v-30h-320v-340h360v-30h-400q-118 -10 -141 -10q-149 0 -226 79t-77 196zM103 435v-170q0 -112 69 -178.5t191 -66.5q70 0 141 11v637q-73 12 -141 12q-116 0 -188 -68.5t-72 -176.5z" />
    <glyph glyph-name="oe" unicode="&#x153;" horiz-adv-x="923" 
d="M847 64l7 -33q-113 -41 -176 -41q-81 0 -131.5 23t-75.5 82q-61 -105 -196 -105q-104 0 -163.5 55.5t-59.5 146.5v116q0 91 59.5 146.5t163.5 55.5q73 0 127 -29.5t73 -82.5q39 112 183 112q205 0 205 -200v-75h-365v-55q0 -84 45 -122t135 -38q52 0 169 44zM95 308v-116
q0 -77 49 -124.5t131 -47.5t131 47.5t49 124.5v116q0 77 -49 124.5t-131 47.5t-131 -47.5t-49 -124.5zM498 308v-48h322v60q0 78 -41 119t-121 41q-160 0 -160 -172z" />
    <glyph glyph-name="circumflex" unicode="&#x2c6;" horiz-adv-x="412" 
d="M173 735h44l83 -152h-47l-58 124l-59 -124h-46z" />
    <glyph glyph-name="tilde" unicode="&#x2dc;" horiz-adv-x="485" 
d="M99 629l-9 27q42 39 86 39q24 0 57 -17.5t52 -17.5q36 0 76 37l13 -25q-9 -14 -36.5 -30t-52.5 -16q-19 0 -52.5 17.5t-56.5 17.5q-43 0 -77 -32z" />
    <glyph glyph-name="afii10023" unicode="&#x401;" horiz-adv-x="548" 
d="M126 370v-340h360v-30h-400v700h400v-30h-360v-270h320v-30h-320zM195 900h61v-117h-61v117zM335 900h61v-117h-61v117z" />
    <glyph glyph-name="afii10017" unicode="&#x410;" horiz-adv-x="604" 
d="M520 0l-78 228h-301l-78 -228h-43l248 700h48l247 -700h-43zM292 667l-140 -409h280z" />
    <glyph glyph-name="afii10018" unicode="&#x411;" horiz-adv-x="597" 
d="M136 670v-250h160q123 0 173 -53t50 -157q0 -44 -8 -77.5t-30.5 -65.5t-69 -49.5t-115.5 -17.5h-200v700h360v-30h-320zM296 390h-160v-360h160q90 0 135 39.5t45 140.5t-45 140.5t-135 39.5z" />
    <glyph glyph-name="afii10019" unicode="&#x412;" horiz-adv-x="594" 
d="M96 0v700h218q76 0 120.5 -42t44.5 -120q0 -122 -83 -153q123 -48 123 -185q0 -44 -9.5 -77t-33 -62.5t-69 -45t-111.5 -15.5h-200zM136 365v-335h160q89 0 134.5 37.5t45.5 132.5q0 47 -16 81t-43.5 51.5t-57 25t-63.5 7.5h-160zM314 670h-178v-275h178q122 0 122 143
q0 62 -31 97t-91 35z" />
    <glyph glyph-name="afii10020" unicode="&#x413;" horiz-adv-x="502" 
d="M136 0h-40v700h360v-33h-320v-667z" />
    <glyph glyph-name="afii10021" unicode="&#x414;" horiz-adv-x="727" 
d="M190 700h380v-670h80l-8 -230h-32v200h-540l-9 -200h-31v230h50q31 39 53.5 106.5t33 130t16.5 155.5t6.5 143.5t0.5 134.5zM530 670h-303v-50q0 -442 -108 -590h411v640z" />
    <glyph glyph-name="afii10022" unicode="&#x415;" horiz-adv-x="565" 
d="M136 370v-340h360v-30h-400v700h400v-30h-360v-270h320v-30h-320z" />
    <glyph glyph-name="afii10024" unicode="&#x416;" horiz-adv-x="807" 
d="M320 380l-298 320h51l282 -314h15v314h40v-314h15l281 314h52l-299 -320l299 -380h-48l-286 373h-14v-373h-40v373h-15l-286 -373h-48z" />
    <glyph glyph-name="afii10025" unicode="&#x417;" horiz-adv-x="587" 
d="M58 31l8 36q2 -1 15.5 -6t25 -9.5t31 -10.5t38 -10t42 -7t45.5 -3q102 0 156.5 36t54.5 123q0 49 -17 85.5t-40.5 55t-56.5 29t-56 13t-49 2.5h-68v30h86q67 0 113 36.5t46 106.5q0 141 -159 141q-96 0 -185 -41l-12 30q88 42 197 42q98 0 150 -39t52 -133
q0 -124 -117 -154q84 -22 121.5 -66t37.5 -138q0 -104 -67 -147t-187 -43q-42 0 -92 10t-75.5 18t-37.5 13z" />
    <glyph glyph-name="afii10026" unicode="&#x418;" horiz-adv-x="745" 
d="M96 700h40v-651l455 651h45v-700h-40v651l-455 -651h-45v700z" />
    <glyph glyph-name="afii10027" unicode="&#x419;" horiz-adv-x="745" 
d="M176 880h40q0 -12 1.5 -21t10 -23t24.5 -23t48 -16t76 -7t76 7t48 16t24.5 23t10 23t1.5 21h40v-20q0 -37 -35 -61t-77 -31.5t-88 -7.5q-31 0 -63 4.5t-64.5 15t-52.5 31.5t-20 49v20zM96 700h40v-651l455 651h45v-700h-40v651l-455 -651h-45v700z" />
    <glyph glyph-name="afii10028" unicode="&#x41a;" horiz-adv-x="626" 
d="M136 700v-314h12l378 314h59l-394 -320l395 -380h-55l-383 369h-12v-369h-40v700h40z" />
    <glyph glyph-name="afii10029" unicode="&#x41b;" horiz-adv-x="687" 
d="M196 700h373v-700h-40v670h-300q0 -680 -160 -680q-15 0 -30 3l-10 40q15 -3 29 -3q71 0 104.5 166t33.5 504z" />
    <glyph glyph-name="afii10030" unicode="&#x41c;" horiz-adv-x="913" 
d="M169 637l-53 -637h-40l60 700h41l269 -659l268 659h42l60 -700h-40l-53 637l-256 -637h-43z" />
    <glyph glyph-name="afii10031" unicode="&#x41d;" horiz-adv-x="712" 
d="M556 700h40v-700h-40v370h-420v-370h-40v700h40v-300h420v300z" />
    <glyph glyph-name="afii10032" unicode="&#x41e;" horiz-adv-x="714" 
d="M54 265v170q0 111 76.5 193t216.5 82t216.5 -82t76.5 -193v-170q0 -52 -18 -100t-53 -88t-92.5 -63.5t-129.5 -23.5t-129.5 23.5t-92.5 63.5t-53 88t-18 100zM97 435v-170q0 -110 69.5 -177.5t180.5 -67.5q117 0 183.5 66.5t66.5 178.5v170q0 104 -68 174.5t-182 70.5
q-106 0 -178 -69t-72 -176z" />
    <glyph glyph-name="afii10033" unicode="&#x41f;" horiz-adv-x="730" 
d="M136 0h-40v700h520v-700h-40v670h-440v-670z" />
    <glyph glyph-name="afii10034" unicode="&#x420;" horiz-adv-x="598" 
d="M96 700h200q118 0 170.5 -42.5t52.5 -157.5q0 -118 -54.5 -169t-168.5 -51h-160v-280h-40v700zM136 670v-360h160q39 0 67.5 7t56 25.5t42 58t14.5 99.5q0 95 -45.5 132.5t-134.5 37.5h-160z" />
    <glyph glyph-name="afii10035" unicode="&#x421;" horiz-adv-x="573" 
d="M495 62l12 -31q-121 -41 -186 -41q-140 0 -201.5 71.5t-61.5 203.5v170q0 132 61.5 203.5t201.5 71.5q65 0 186 -41l-12 -31q-5 2 -32 11t-32.5 11t-25.5 7.5t-29.5 7t-25 3.5t-29.5 2q-117 0 -168.5 -60.5t-51.5 -184.5v-170q0 -245 220 -245q14 0 29.5 2t25 3.5t29.5 7
t25.5 7.5t32.5 11t32 11z" />
    <glyph glyph-name="afii10036" unicode="&#x422;" horiz-adv-x="567" 
d="M38 665v35h480v-35h-220v-665h-40v665h-220z" />
    <glyph glyph-name="afii10037" unicode="&#x423;" horiz-adv-x="598" 
d="M290 120q-14 8 -24 34l-246 546h47l237 -541h3l214 541h39l-215 -543q-36 -92 -66 -129.5t-87 -37.5q-81 0 -141 27l12 32q62 -29 133 -29q31 0 50 22t44 78z" />
    <glyph glyph-name="afii10038" unicode="&#x424;" horiz-adv-x="829" 
d="M381 730h40v-90h80q118 0 180.5 -61.5t62.5 -178.5v-60q0 -115 -63 -177.5t-180 -62.5h-80v-100h-40v100h-80q-117 0 -180 62.5t-63 177.5v60q0 117 62.5 178.5t180.5 61.5h80v90zM501 610h-80v-480h80q200 0 200 200v80q0 200 -200 200zM101 330q0 -200 200 -200h80v480
h-80q-200 0 -200 -200v-80z" />
    <glyph glyph-name="afii10039" unicode="&#x425;" horiz-adv-x="612" 
d="M74 700l224 -321l222 321h49l-250 -350l250 -350h-54l-224 320l-222 -320h-49l250 350l-250 350h54z" />
    <glyph glyph-name="afii10040" unicode="&#x426;" horiz-adv-x="751" 
d="M96 700h40v-670h420v670h40v-670h83l-8 -230h-35v200h-540v700z" />
    <glyph glyph-name="afii10041" unicode="&#x427;" horiz-adv-x="615" 
d="M76 700h40v-260q0 -84 37.5 -112t122.5 -28q113 0 180 6v394h40v-700h-40v274q-84 -7 -180 -7q-97 0 -148.5 37.5t-51.5 135.5v260z" />
    <glyph glyph-name="afii10042" unicode="&#x428;" horiz-adv-x="915" 
d="M426 700h40v-670h290v670h40v-700h-700v700h40v-670h290v670z" />
    <glyph glyph-name="afii10043" unicode="&#x429;" horiz-adv-x="957" 
d="M426 700h40v-670h290v670h40v-670h80l-8 -230h-32v200h-740v700h40v-670h290v670z" />
    <glyph glyph-name="afii10044" unicode="&#x42a;" horiz-adv-x="669" 
d="M169 0v670h-140l4 30h176v-292q103 15 160 15q116 0 169.5 -52t53.5 -161q0 -108 -53 -159t-170 -51h-200zM369 390q-79 0 -160 -13v-347h160q90 0 135 39.5t45 140.5t-45 140.5t-135 39.5z" />
    <glyph glyph-name="afii10045" unicode="&#x42b;" horiz-adv-x="803" 
d="M628 0v700h40v-700h-40zM296 0q117 0 170 51t53 159q0 109 -53.5 161t-169.5 52q-57 0 -160 -15v292h-40v-700h200zM296 390q90 0 135 -39.5t45 -140.5t-45 -140.5t-135 -39.5h-160v347q81 13 160 13z" />
    <glyph glyph-name="afii10046" unicode="&#x42c;" horiz-adv-x="598" 
d="M296 0h-200v700h40v-292q103 15 160 15q116 0 169.5 -52t53.5 -161q0 -108 -53 -159t-170 -51zM296 390q-79 0 -160 -13v-347h160q90 0 135 39.5t45 140.5t-45 140.5t-135 39.5z" />
    <glyph glyph-name="afii10047" unicode="&#x42d;" horiz-adv-x="560" 
d="M445 336v24h-280v30h280v12q0 135 -52.5 206.5t-156.5 71.5q-88 0 -185 -42l-12 31q94 41 186 41q132 0 197.5 -67t65.5 -208v-170q0 -128 -66.5 -201.5t-196.5 -73.5q-93 0 -186 41l12 31q98 -42 174 -42q56 0 97 18.5t64.5 47t37 72.5t17.5 84.5t4 93.5z" />
    <glyph glyph-name="afii10048" unicode="&#x42e;" horiz-adv-x="882" 
d="M273 250v110h-137v-360h-40v700h40v-310h137v60q0 114 66 187t197 73t197 -73t66 -187v-200q0 -114 -66 -187t-197 -73t-197 73t-66 187zM316 460v-220q0 -95 58 -157.5t162 -62.5t162 62.5t58 157.5v220q0 95 -58 157.5t-162 62.5q-102 0 -161 -63t-59 -157z" />
    <glyph glyph-name="afii10049" unicode="&#x42f;" horiz-adv-x="662" 
d="M305 700h240v-700h-40v300h-180l-196 -300h-51l203 300q-102 0 -153 53.5t-51 146.5q0 200 228 200zM305 330h200v340h-200q-89 0 -134.5 -37.5t-45.5 -132.5t45.5 -132.5t134.5 -37.5z" />
    <glyph glyph-name="afii10065" unicode="&#x430;" horiz-adv-x="529" 
d="M94 446l-7 34q2 0 27.5 6.5t45 11t53 8.5t63.5 4q46 0 77.5 -10t47.5 -23.5t24 -40.5t9.5 -45.5t1.5 -54.5v-336h-40v40q-71 -51 -160 -51q-183 0 -183 150q0 65 50.5 98t132.5 33h160v95q0 62 -29 88t-91 26q-21 0 -42.5 -2.5t-43 -6.5t-36 -7.5t-34.5 -9.5t-26 -7z
M236 20q60 0 160 50v170h-160q-68 0 -104 -32t-36 -69q0 -119 140 -119z" />
    <glyph glyph-name="afii10066" unicode="&#x431;" horiz-adv-x="581" 
d="M67 192v300q0 80 35 133.5t102 65.5l183 33q14 2 28 7.5t22.5 9.5t23 11.5t19.5 10.5l15 -40q-11 -7 -38.5 -18.5t-45.5 -15.5l-195 -36q-50 -10 -81 -56t-31 -105v-161q11 61 63.5 105t122.5 44q103 0 163 -51t60 -149v-88q0 -85 -55.5 -143.5t-167.5 -58.5t-167.5 58.5
t-55.5 143.5zM290 20q82 0 131 49t49 123v88q0 74 -49 122t-131 48q-80 0 -130 -61t-50 -140v-57q0 -76 49 -124t131 -48z" />
    <glyph glyph-name="afii10067" unicode="&#x432;" horiz-adv-x="529" 
d="M77 0v500h192q70 0 107 -26.5t37 -95.5q0 -74 -55 -105q102 -22 102 -131q0 -85 -47.5 -113.5t-144.5 -28.5h-191zM269 245h-152v-215h151q80 0 114.5 24.5t34.5 87.5q0 54 -34.5 78.5t-113.5 24.5zM117 275h152q101 0 101 103q0 92 -101 92h-152v-195z" />
    <glyph glyph-name="afii10068" unicode="&#x433;" horiz-adv-x="411" 
d="M117 0h-40v500h290v-35h-250v-465z" />
    <glyph glyph-name="afii10069" unicode="&#x434;" horiz-adv-x="609" 
d="M170 500h300v-470h60l-7 -190h-33v160h-420l-7 -160h-33v190h47q33 35 53.5 90.5t28 131t9.5 123t2 125.5zM430 470h-220q0 -68 -2 -111.5t-10 -107t-28.5 -118.5t-52.5 -103h313v440z" />
    <glyph glyph-name="afii10070" unicode="&#x435;" horiz-adv-x="529" 
d="M445 64l7 -33q-113 -41 -176 -41q-109 0 -166 43.5t-57 146.5v110q0 102 49 161t154 59q205 0 205 -200v-75h-365v-55q0 -84 45 -122t135 -38q52 0 169 44zM96 300v-40h322v60q0 78 -41 119t-121 41q-160 0 -160 -180z" />
    <glyph glyph-name="afii10072" unicode="&#x436;" horiz-adv-x="686" 
d="M21 500h56l223 -235h9v235h40v-235h9l223 235h56l-240 -240l239 -260h-55l-223 255h-9v-255h-40v255h-9l-225 -255h-55l241 260z" />
    <glyph glyph-name="afii10073" unicode="&#x437;" horiz-adv-x="511" 
d="M53 32l13 31q7 -4 28.5 -13.5t59 -19.5t68.5 -10q88 0 134 33t46 92q0 61 -46.5 90.5t-124.5 29.5h-99v30h99q131 0 131 95q0 41 -36 65.5t-104 24.5q-63 0 -148 -41l-13 31q82 40 161 40q93 0 138 -26t45 -94q0 -73 -85 -101q29 -10 46 -17.5t38 -23.5t31 -41.5
t10 -61.5q0 -155 -223 -155q-85 0 -169 42z" />
    <glyph glyph-name="afii10074" unicode="&#x438;" horiz-adv-x="584" 
d="M77 500h40v-443l330 443h40v-500h-40v442l-330 -442h-40v500z" />
    <glyph glyph-name="afii10075" unicode="&#x439;" horiz-adv-x="584" 
d="M103 700h40v-11q0 -21 4 -33t17 -24t42.5 -17t76.5 -5q82 0 111 25t29 65h40v-20q0 -100 -180 -100t-180 100v20zM77 500h40v-443l330 443h40v-500h-40v442l-330 -442h-40v500z" />
    <glyph glyph-name="afii10076" unicode="&#x43a;" horiz-adv-x="505" 
d="M117 500v-231h4l278 231h66l-304 -237l303 -263h-60l-283 252h-4v-252h-40v500h40z" />
    <glyph glyph-name="afii10077" unicode="&#x43b;" horiz-adv-x="573" 
d="M180 500h295v-500h-40v470h-220q0 -59 -1.5 -102t-6 -104t-15.5 -103.5t-27.5 -83t-44.5 -61.5t-65 -21q-10 0 -20 5l-6 41q20 -4 26 -4q37 0 63.5 46t39 122t17.5 147t5 148z" />
    <glyph glyph-name="afii10078" unicode="&#x43c;" horiz-adv-x="774" 
d="M158 436l-42 -436h-40l50 500h42l208 -466l208 466h42l50 -500h-40l-42 436l-196 -436h-44z" />
    <glyph glyph-name="afii10079" unicode="&#x43d;" horiz-adv-x="575" 
d="M437 500h40v-500h-40v254h-320v-254h-40v500h40v-220h320v220z" />
    <glyph glyph-name="afii10080" unicode="&#x43e;" horiz-adv-x="564" 
d="M52 192v116q0 91 59.5 146.5t163.5 55.5t163.5 -55.5t59.5 -146.5v-116q0 -91 -59.5 -146.5t-163.5 -55.5t-163.5 55.5t-59.5 146.5zM95 308v-116q0 -77 49 -124.5t131 -47.5t131 47.5t49 124.5v116q0 77 -49 124.5t-131 47.5t-131 -47.5t-49 -124.5z" />
    <glyph glyph-name="afii10081" unicode="&#x43f;" horiz-adv-x="566" 
d="M117 0h-40v500h390v-500h-40v470h-310v-470z" />
    <glyph glyph-name="afii10082" unicode="&#x440;" horiz-adv-x="568" 
d="M118 -200h-40v700h40v-40q81 50 160 50q112 0 167.5 -67.5t55.5 -192.5q0 -260 -223 -260q-79 0 -160 50v-240zM278 480q-80 0 -160 -50v-360q85 -50 160 -50q180 0 180 230t-180 230z" />
    <glyph glyph-name="afii10083" unicode="&#x441;" horiz-adv-x="477" 
d="M433 64l9 -33q-102 -41 -166 -41q-106 0 -164.5 57.5t-58.5 162.5v80q0 104 58 162t165 58q86 0 166 -41l-10 -33q-4 2 -20 8.5t-22.5 9t-21 8t-23.5 7.5t-22 5.5t-24.5 4.5t-22.5 1q-89 0 -134.5 -50.5t-45.5 -139.5v-80q0 -90 45.5 -140t134.5 -50q55 0 157 44z" />
    <glyph glyph-name="afii10084" unicode="&#x442;" horiz-adv-x="475" 
d="M30 465v35h400v-35h-180v-465h-40v465h-180z" />
    <glyph glyph-name="afii10085" unicode="&#x443;" horiz-adv-x="531" 
d="M226 -123l49 123q-11 2 -22.5 11.5t-16.5 20.5l-216 468h51l213 -477l167 477h43l-171 -469q-42 -117 -64 -168q-18 -43 -46 -68t-77 -25q-53 0 -97 23l13 31q40 -20 79 -20q34 0 56 15.5t39 57.5z" />
    <glyph glyph-name="afii10086" unicode="&#x444;" horiz-adv-x="777" 
d="M355 700h40v-213q53 23 90 23q213 0 213 -250q0 -126 -51.5 -198t-161.5 -72q-47 0 -90 23v-213h-40v213q-41 -23 -90 -23q-110 0 -161.5 72t-51.5 198q0 250 213 250q17 0 32.5 -3t24 -6t19.5 -8t14 -6v213zM265 20q45 0 90 25v410q-45 25 -90 25q-85 0 -127.5 -59.5
t-42.5 -160.5q0 -240 170 -240zM485 480q-50 0 -90 -25v-410q43 -25 90 -25q170 0 170 240q0 101 -42.5 160.5t-127.5 59.5z" />
    <glyph glyph-name="afii10087" unicode="&#x445;" horiz-adv-x="507" 
d="M76 500l176 -228l168 228h51l-200 -250l200 -250h-56l-174 228l-170 -228h-51l200 250l-200 250h56z" />
    <glyph glyph-name="afii10088" unicode="&#x446;" horiz-adv-x="585" 
d="M77 500h40v-470h300v470h40v-470h60l-9 -190h-31v160h-400v500z" />
    <glyph glyph-name="afii10089" unicode="&#x447;" horiz-adv-x="535" 
d="M67 500h40v-150q0 -76 29 -108t111 -32q67 0 150 16v274h40v-500h-40v196q-93 -16 -150 -16q-93 0 -136.5 42t-43.5 138v140z" />
    <glyph glyph-name="afii10090" unicode="&#x448;" horiz-adv-x="781" 
d="M357 500h40v-470h240v470h40v-500h-600v500h40v-470h240v470z" />
    <glyph glyph-name="afii10091" unicode="&#x449;" horiz-adv-x="813" 
d="M77 0v500h40v-470h260v470h40v-470h240v470h40v-470h60l-7 -190h-33v160h-640z" />
    <glyph glyph-name="afii10092" unicode="&#x44a;" horiz-adv-x="575" 
d="M29 470v30h166v-200h131q84 0 128 -33.5t44 -114.5q0 -86 -44 -119t-128 -33h-171v470h-126zM326 270h-131v-240h131q75 0 102 27.5t27 94.5q0 59 -27 88.5t-102 29.5z" />
    <glyph glyph-name="afii10093" unicode="&#x44b;" horiz-adv-x="678" 
d="M520 0v500h42v-500h-42zM77 0v500h40v-200h131q84 0 128 -33.5t44 -114.5q0 -86 -44 -119t-128 -33h-171zM248 270h-131v-240h131q75 0 102 27.5t27 94.5q0 59 -27 88.5t-102 29.5z" />
    <glyph glyph-name="afii10094" unicode="&#x44c;" horiz-adv-x="497" 
d="M77 0v500h40v-200h131q84 0 128 -33.5t44 -114.5q0 -86 -44 -119t-128 -33h-171zM248 270h-131v-240h131q75 0 102 27.5t27 94.5q0 59 -27 88.5t-102 29.5z" />
    <glyph glyph-name="afii10095" unicode="&#x44d;" horiz-adv-x="503" 
d="M399 210v37h-265v30h265v13q0 89 -45.5 139.5t-134.5 50.5q-70 0 -156 -44l-10 33q80 41 166 41q107 0 165 -58t58 -162v-80q0 -105 -58.5 -162.5t-164.5 -57.5q-77 0 -166 41l9 33q100 -44 157 -44q89 0 134.5 50t45.5 140z" />
    <glyph glyph-name="afii10096" unicode="&#x44e;" horiz-adv-x="778" 
d="M254 245h-137v-245h-40v500h40v-225h137v42q0 89 59.5 141t163.5 52t163.5 -55.5t59.5 -146.5v-116q0 -91 -59.5 -146.5t-163.5 -55.5q-105 0 -164 59t-59 164v32zM297 308v-116q0 -77 49 -124.5t131 -47.5t131 47.5t49 124.5v116q0 77 -49 124.5t-131 47.5t-131 -47.5
t-49 -124.5z" />
    <glyph glyph-name="afii10097" unicode="&#x44f;" horiz-adv-x="561" 
d="M245 500h220v-500h-40v190h-142l-170 -190h-56l180 190q-85 0 -130 33t-45 117q0 160 183 160zM105 340q0 -64 33 -92t107 -28h180v250h-180q-73 0 -106.5 -32.5t-33.5 -97.5z" />
    <glyph glyph-name="afii10071" unicode="&#x451;" horiz-adv-x="509" 
d="M435 64l7 -33q-113 -41 -176 -41q-109 0 -166 43.5t-57 146.5v110q0 102 49 161t154 59q205 0 205 -200v-75h-365v-55q0 -84 45 -122t135 -38q52 0 169 44zM86 300v-40h322v60q0 78 -41 119t-121 41q-160 0 -160 -180zM146 700h61v-117h-61v117zM286 700h61v-117h-61v117
z" />
    <glyph glyph-name="endash" unicode="&#x2013;" horiz-adv-x="680" 
d="M90 330v40h500v-40h-500z" />
    <glyph glyph-name="emdash" unicode="&#x2014;" horiz-adv-x="950" 
d="M90 330v40h770v-40h-770z" />
    <glyph glyph-name="quoteleft" unicode="&#x2018;" horiz-adv-x="265" 
d="M151 492h-61v64q0 86 46 194l21 -6q-35 -84 -35 -148h29v-104z" />
    <glyph glyph-name="quoteright" unicode="&#x2019;" horiz-adv-x="265" 
d="M96 700h61v-64q0 -86 -46 -194l-21 6q35 84 35 148h-29v104z" />
    <glyph glyph-name="quotesinglbase" unicode="&#x201a;" horiz-adv-x="265" 
d="M96 104h61v-64q0 -86 -46 -194l-21 6q35 84 35 148h-29v104z" />
    <glyph glyph-name="quotedblleft" unicode="&#x201c;" horiz-adv-x="398" 
d="M261 492h-61v64q0 86 46 194l21 -6q-35 -84 -35 -148h29v-104zM151 492h-61v64q0 86 46 194l21 -6q-35 -84 -35 -148h29v-104z" />
    <glyph glyph-name="quotedblright" unicode="&#x201d;" horiz-adv-x="398" 
d="M96 700h61v-64q0 -86 -46 -194l-21 6q35 84 35 148h-29v104zM206 700h61v-64q0 -86 -46 -194l-21 6q35 84 35 148h-29v104z" />
    <glyph glyph-name="quotedblbase" unicode="&#x201e;" horiz-adv-x="398" 
d="M96 104h61v-64q0 -86 -46 -194l-21 6q35 84 35 148h-29v104zM206 104h61v-64q0 -86 -46 -194l-21 6q35 84 35 148h-29v104z" />
    <glyph glyph-name="bullet" unicode="&#x2022;" horiz-adv-x="339" 
d="M86 294q0 75 74 75q75 0 75 -75q0 -74 -75 -74q-74 0 -74 74z" />
    <glyph glyph-name="ellipsis" unicode="&#x2026;" horiz-adv-x="587" 
d="M236 104h61v-104h-61v104zM387 104h61v-104h-61v104zM85 104h61v-104h-61v104z" />
    <glyph glyph-name="perthousand" unicode="&#x2030;" horiz-adv-x="1180" 
d="M599 -10q-69 0 -104 38t-35 95v84q0 57 35 95t104 38t104 -38t35 -95v-84q0 -57 -35 -95t-104 -38zM229 710q69 0 104 -38t35 -95v-84q0 -57 -35 -95t-104 -38t-104 38t-35 95v84q0 57 35 95t104 38zM130 577v-84q0 -44 27.5 -73.5t71.5 -29.5q45 0 72 29.5t27 73.5v84
q0 43 -27 73t-72 30q-44 0 -71.5 -30t-27.5 -73zM599 310q-45 0 -72 -31t-27 -79v-77q0 -44 27.5 -73.5t71.5 -29.5q46 0 72.5 30t26.5 73v84q0 43 -26.5 73t-72.5 30zM656 702l-436 -702h-48l437 702h47zM951 -10q-69 0 -104 38t-35 95v84q0 57 35 95t104 38t104 -38
t35 -95v-84q0 -57 -35 -95t-104 -38zM951 310q-45 0 -72 -31t-27 -79v-77q0 -44 27.5 -73.5t71.5 -29.5q46 0 72.5 30t26.5 73v84q0 43 -26.5 73t-72.5 30z" />
    <glyph glyph-name="Euro" unicode="&#x20ac;" horiz-adv-x="688" 
d="M100 400l-10 30h50v15q0 138 65 201.5t195 63.5q84 0 184 -43l-11 -31q-103 44 -173 44q-113 0 -166.5 -58.5t-53.5 -176.5v-15h355l-6 -30h-349v-90h333l-6 -30h-327v-25q0 -108 55.5 -171.5t164.5 -63.5q28 0 57.5 6.5t50.5 13.5t66 24l12 -33q-108 -41 -186 -41
q-128 0 -194 69.5t-66 195.5v25h-40l-10 30h50v90h-40z" />
    <glyph glyph-name="afii61352" unicode="&#x2116;" horiz-adv-x="1205" 
d="M767 700l6 -27h-80q-62 0 -89.5 -41t-27.5 -105v-527h-52l-403 652v-652h-35v700h51l404 -652v490q0 76 40.5 119t111.5 43h74zM681 370v46q0 167 193 167t193 -167v-46q0 -166 -193 -166t-193 166zM724 416v-46q0 -66 34.5 -98.5t115.5 -32.5t115.5 32.5t34.5 98.5v46
q0 66 -35 99t-115 33t-115 -33t-35 -99z" />
    <glyph glyph-name="trademark" unicode="&#x2122;" horiz-adv-x="866" 
d="M59 672v28h240v-28h-105v-321h-30v321h-105zM405 659l-26 -308h-31l31 349h40l134 -318l134 318h41l30 -349h-30l-27 308l-127 -308h-42z" />
    <glyph glyph-name="CR" horiz-adv-x="220" 
 />
    <glyph glyph-name="afii10039.001" horiz-adv-x="569" 
d="M64 700l224 -321l222 321h49l-250 -350l250 -350h-54l-224 320l-222 -320h-49l250 350l-250 350h54z" />
    <glyph glyph-name="afii10028.001" horiz-adv-x="591" 
d="M130 700v-314h12q42 35 174 144t204 170h59q-51 -42 -186 -151t-208 -169q59 -57 124.5 -120.5t145.5 -140t125 -119.5h-55q-42 41 -176 170t-207 199h-12v-369h-40v700h40z" />
    <glyph glyph-name="afii10030.001" horiz-adv-x="880" 
d="M163 637l-53 -637h-40l60 700h41l269 -659l268 659h42l60 -700h-40l-53 637l-256 -637h-43z" />
    <glyph glyph-name="afii10032.001" horiz-adv-x="686" 
d="M50 265v170q0 111 76.5 193t216.5 82t216.5 -82t76.5 -193v-170q0 -52 -18 -100t-53 -88t-92.5 -63.5t-129.5 -23.5t-129.5 23.5t-92.5 63.5t-53 88t-18 100zM93 435l1 -197q8 -101 74 -159.5t175 -58.5q117 0 183.5 66.5t66.5 178.5v170q0 104 -68 174.5t-182 70.5
q-106 0 -178 -69t-72 -176z" />
    <glyph glyph-name="afii10035.001" horiz-adv-x="549" 
d="M487 62l12 -31q-121 -41 -186 -41q-140 0 -201.5 71.5t-61.5 203.5v170q0 132 61.5 203.5t201.5 71.5q65 0 186 -41l-12 -31q-5 2 -32 11t-32.5 11t-25.5 7.5t-29.5 7t-25 3.5t-29.5 2q-117 0 -168.5 -60.5t-51.5 -184.5v-170q0 -245 220 -245q14 0 29.5 2t25 3.5t29.5 7
t25.5 7.5t32.5 11t32 11z" />
    <glyph glyph-name="afii10082.001" horiz-adv-x="538" 
d="M110 -200h-40v700h40v-40q81 50 160 50q40 0 73 -9q150 -41 150 -251q0 -212 -150 -251q-33 -9 -73 -9q-79 0 -160 50v-240zM270 480q-80 0 -160 -50v-360q85 -50 160 -50q180 0 180 230t-180 230z" />
    <glyph glyph-name="afii10083.001" horiz-adv-x="454" 
d="M425 63l9 -32q-102 -41 -166 -41q-106 0 -164.5 57.5t-58.5 162.5v80q0 104 58 162t165 58q86 0 166 -41l-10 -33q-4 2 -20 8.5t-22.5 9t-21 8t-23.5 7.5t-22 5.5t-24.5 4.5t-22.5 1q-89 0 -134.5 -50.5t-45.5 -139.5v-80q0 -90 45.5 -140t134.5 -50q53 0 157 43z" />
    <glyph glyph-name="afii10070.001" horiz-adv-x="498" 
d="M437 64l7 -33q-113 -41 -176 -41q-109 0 -166 43.5t-57 146.5v110q0 102 49 161t154 59q205 0 205 -200v-75h-365v-55q0 -84 45 -122t135 -38q52 0 169 44zM88 300v-40h322v60q0 78 -41 119t-121 41q-160 0 -160 -180z" />
    <glyph glyph-name="b.001" horiz-adv-x="538" 
d="M70 700h40v-240q77 48 160 48q29 0 57 -5q166 -30 166 -253q0 -260 -223 -260q-79 0 -160 50v-40h-40v700zM110 430v-360q80 -50 160 -50q180 0 180 230t-180 230q-71 0 -160 -50z" />
    <glyph glyph-name="afii10017.001" horiz-adv-x="563" 
d="M510 0l-78 228h-301l-78 -228h-43q137 384 248 700h48q47 -135 135.5 -384.5t111.5 -315.5h-43zM282 667q-27 -77 -75 -218t-65 -191h280q-62 183 -140 409z" />
    <glyph glyph-name="afii10065.001" horiz-adv-x="498" 
d="M86 446l-7 34q2 0 27.5 6.5t45 11t53 8.5t63.5 4q46 0 77.5 -10t47.5 -23.5t24 -40.5t9.5 -45.5t1.5 -54.5v-336h-40v40q-71 -51 -160 -51q-183 0 -183 150q0 65 50.5 98t132.5 33h160v95q0 62 -29 88t-91 26q-21 0 -42.5 -2.5t-43 -6.5t-36 -7.5t-34.5 -9.5t-26 -7z
M228 20q60 0 160 50v170h-160q-68 0 -104 -32t-36 -69q0 -119 140 -119z" />
    <glyph glyph-name="two.001" horiz-adv-x="833" 
 />
    <glyph glyph-name="three.001" horiz-adv-x="559" 
d="M50 31l8 36q94 -44 208 -44q41 0 75.5 8t63.5 25.5t45 49t16 74.5q0 49 -17 85.5t-40.5 55t-56.5 29t-56 13t-49 2.5h-68v30h86q67 0 113 36.5t46 106.5q0 142 -159 142q-96 0 -185 -41l-12 29q88 42 197 42q98 0 150 -39t52 -133q0 -124 -117 -154q84 -22 121.5 -66
t37.5 -138q0 -52 -19.5 -90.5t-53.5 -59.5t-75 -30.5t-90 -9.5q-114 0 -221 41z" />
    <glyph glyph-name="three.002" horiz-adv-x="559" 
d="M50 31l8 36q94 -44 208 -44q41 0 75.5 8t63.5 25.5t45 49t16 74.5q0 49 -17 85.5t-40.5 55t-56.5 29t-56 13t-49 2.5h-68v30h86q67 0 113 36.5t46 106.5q0 142 -159 142q-96 0 -185 -41l-12 29q88 42 197 42q98 0 150 -39t52 -133q0 -124 -117 -154q84 -22 121.5 -66
t37.5 -138q0 -52 -19.5 -90.5t-53.5 -59.5t-75 -30.5t-90 -9.5q-114 0 -221 41z" />
    <glyph glyph-name="nine.001" horiz-adv-x="640" 
d="M558 436v-160q0 -78 -22 -136t-60 -89t-81.5 -45.5t-93.5 -14.5q-94 0 -182 31l12 31q79 -32 170 -32q44 0 86 16q59 24 93.5 80.5t34.5 135.5v80q-93 -61 -197 -61q-40 0 -76 6q-161 29 -161 202q0 104 57.5 167t171.5 63q248 0 248 -274zM515 358v85q-9 124 -59 180.5
t-146 56.5q-186 0 -186 -200q0 -178 193 -178q48 0 103 16t95 40z" />
    <glyph glyph-name="quotesinglbase.001" horiz-adv-x="241" 
d="M90 104h61v-104q-8 -25 -21 -73.5t-15 -56.5h-20q3 17 12 61t13 69h-30v104z" />
    <glyph glyph-name="quoteright.001" horiz-adv-x="241" 
d="M90 700h61v-104l-36 -130h-20l25 130h-30v104z" />
    <glyph glyph-name="quoteleft.001" horiz-adv-x="241" 
d="M151 466h-61v104l36 130h20l-25 -130h30v-104z" />
    <glyph glyph-name="quotedblright.001" horiz-adv-x="361" 
d="M90 701h61v-104l-36 -130h-20l25 130h-30v104zM210 701h61v-104l-36 -130h-20l25 130h-30v104z" />
    <glyph glyph-name="quotedblleft.001" horiz-adv-x="361" 
d="M271 467h-61v104l36 130h20l-25 -130h30v-104zM151 467h-61v104l36 130h20l-25 -130h30v-104z" />
    <glyph glyph-name="b.002" horiz-adv-x="538" 
d="M70 700h40v-240q77 48 160 48q223 0 223 -258q0 -260 -223 -260q-79 0 -160 50v-40h-40v700zM270 20q180 0 180 230t-180 230q-71 0 -160 -50v-360q80 -50 160 -50z" />
    <glyph glyph-name="trademark.001" horiz-adv-x="1420" 
d="M30 665v35h480v-35h-220v-665h-40v665h-220zM703 637l-53 -637h-40l60 700h41l269 -659l268 659h42l60 -700h-40l-53 637l-256 -637h-43z" />
    <glyph glyph-name="_19" horiz-adv-x="500" 
 />
    </font>
</defs>
</svg>
