<?xml version="1.0" encoding="utf-8"?>
<!-- Generator: Adobe Illustrator 19.2.1, SVG Export Plug-In . SVG Version: 6.00 Build 0)  -->
<svg version="1.1" id="Layer_1" xmlns="http://www.w3.org/2000/svg" xmlns:xlink="http://www.w3.org/1999/xlink" x="0px" y="0px"
	 viewBox="0 0 132 151.9" style="enable-background:new 0 0 132 151.9;" xml:space="preserve">
<style type="text/css">
	.st0{fill:#506ea8;}
</style>
<path class="st0" d="M132,88.6V63.3l-0.6,0.3v0l0.6-0.3l-0.6-0.3v0l0.6,0.3V38l-21.9-12.7L88.2,12.7L66.3,0L66,0.2L65.7,0L0,37.9
	v75.9l65.7,37.9l0.1-0.1l0.4,0.2v-0.5l0,0v0.5l21.9-12.7v0l21.9-12.7v0l21.9-12.7L132,88.6l-0.6,0.4v0L132,88.6z M110.1,50.6V76
	L88.1,63.3L110.1,50.6z M44.3,114l-21.9-12.7V76l21.9,12.7V114z M66.2,101.3L44.3,88.6L22.4,76V50.6l21.9,12.7L66.2,76l21.9-12.7
	L110,76L88.1,88.6L66.2,101.3z M110.1,101.3l-21.9,12.7V88.6L110.1,76V101.3z"/>
</svg>
