<?xml version="1.0" encoding="utf-8"?>
<!-- Generator: Adobe Illustrator 15.1.0, SVG Export Plug-In . SVG Version: 6.00 Build 0)  -->
<!DOCTYPE svg PUBLIC "-//W3C//DTD SVG 1.1//EN" "http://www.w3.org/Graphics/SVG/1.1/DTD/svg11.dtd">
<svg version="1.1" id="Layer_1" xmlns="http://www.w3.org/2000/svg" xmlns:xlink="http://www.w3.org/1999/xlink" x="0px" y="0px"
	 width="583.845px" height="586.374px" viewBox="13.198 102.291 583.845 586.374"
	 enable-background="new 13.198 102.291 583.845 586.374" xml:space="preserve">
<path fill="#FFFFFF" d="M305.185,158.597l34.927,86.446l2.822,6.979l7.514,0.518l92.716,6.362l-71.419,59.928l-5.766,4.842
	l1.829,7.302l22.6,90.147l-79.065-49.407l-6.384-3.991l-6.383,4l-78.751,49.352l22.558-90.464l1.824-7.309l-5.776-4.831
	l-71.272-59.644l93.006-6.504l7.513-0.527l2.812-6.983L305.185,158.597z M305.165,126.422L259.324,240.32l-122.775,8.586
	l94.156,78.792l-29.777,119.421l104.038-65.201l104.372,65.22l-29.858-119.091l94.279-79.112l-122.488-8.401L305.165,126.422z"/>
<path fill="#18285F" d="M241.646,526.429H219.75c-48.271,0-48.271,35.914-48.271,55.208v51.817c0,19.294,0,55.21,48.271,55.21
	h21.896c42.787,0,48.273-29.504,48.273-55.21v-18.78h-50.577v23.416h-17.075v-61.087h17.075v22.331h50.577v-17.697
	C289.919,555.933,284.433,526.429,241.646,526.429 M305.149,102.291c-11.745,29.175-40.396,100.366-52.09,129.418
	c-29.041,2.032-110.292,7.714-139.465,9.754c24.115,20.186,82.968,69.434,106.986,89.533
	c-7.565,30.338-26.17,104.953-33.823,135.653c26.646-16.7,91.67-57.448,118.214-74.084c24.689,15.43,93.76,58.59,118.561,74.088
	c-7.646-30.502-26.31-104.937-33.926-135.322c23.953-20.1,82.856-69.531,107.098-89.864c-31.374-2.155-107.931-7.407-139.183-9.549
	C345.807,202.925,316.999,131.628,305.149,102.291 M458.26,526.427h-56.924l-22.14,40.637v-40.637h-50.791v162.237h50.791v-45.485
	l24.306,45.485h58.229l-45.862-84.261L458.26,526.427z M529.149,500.061l3.952-30.914l3.955,30.914H529.149z M570.918,406.18
	h-75.863l-25.903,162.236h50.382l2.814-17.779h21.491l2.818,17.779h50.386L570.918,406.18z M128.388,406.197H77.594V517.86H63.991
	V406.197H13.198v162.238h83.911v21.678h49.49V517.86h-18.21V406.197z"/>
<path fill="#1F4285" d="M174.486,581.637c0-19.522,0-52.201,45.265-52.201h21.896c39.888,0,45.265,26.388,45.265,52.201v14.691
	h-44.561v-22.334H231.29h-0.974h-11.055v32.912v1.032v33.158h11.059h0.976h11.055V617.68h44.561v15.776
	c0,25.812-5.377,52.199-45.265,52.199H219.75c-45.265,0-45.265-32.676-45.265-52.199V581.637z M386.229,330.238
	c17.006-14.268,67.798-56.894,102.828-86.281c-31.713-2.178-107.141-7.353-133.62-9.169
	c-9.625-23.814-40.566-100.395-50.282-124.456c-38.257,95.045-49.374,122.668-50.009,124.246
	c-2.568,0.18-64.846,4.533-133.906,9.365c35.442,29.659,86.801,72.637,102.712,85.954c-3.324,13.335-29.114,116.775-32.474,130.242
	c120.1-75.264,112.549-70.533,113.49-71.122c2.828,1.767,78.615,49.125,113.833,71.132
	C411.659,431.658,393.408,358.867,386.229,330.238 M456.669,685.655c-11.34-20.835-41.187-75.671-44.222-81.252
	c1.66-3.054,38.606-71.016,40.755-74.968h-50.08c-16.979,31.164-16.791,30.817-26.932,49.434v-49.434h-44.781v156.22h44.781v-54.486
	c11.888,22.249,17.047,31.9,29.113,54.486H456.669z M519.777,547.628c-0.618,3.926-2.189,13.834-2.814,17.782h-44.286
	l24.942-156.223h70.736l25.158,156.223h-44.287c-0.627-3.946-2.199-13.856-2.82-17.782H519.777z M525.733,503.069h14.74
	c-1.218-9.513-2.478-19.36-6.422-50.194h-1.899C528.631,480.404,527.085,492.491,525.733,503.069 M60.982,409.207H16.207v156.221
	h83.912v21.68h43.47V520.87h-18.211V409.207H80.602V520.87h-19.62V409.207z"/>
<path fill="#FFFFFF" d="M280.891,623.702v10.406c0,30.571-6.938,45.53-39.459,45.53h-21.466c-32.524,0-39.462-14.959-39.462-45.53
	v-53.124c0-30.571,6.938-45.53,39.462-45.53h21.466c32.521,0,39.459,14.959,39.459,45.53v9.325h-32.522v-10.192
	c0-7.805,0.218-12.14-8.889-12.14h-17.344c-9.107,0-8.893,4.335-8.893,12.14v54.858c0,7.804-0.215,12.14,8.893,12.14h17.344
	c9.107,0,8.889-4.336,8.889-12.14v-11.273H280.891z M563.562,415.202h-60.927l-22.769,144.186h31.876l2.814-17.778h37.077
	l2.82,17.778h31.872L563.562,415.202z M518.889,509.086l9.764-62.228h8.672l9.972,62.228H518.889z M405.623,604.403l40.976,75.235
	h-37.725l-31.657-58.759h-7.045v58.759h-32.737V535.45h32.737v52.688h7.912l28.624-52.688h36.426L405.623,604.403z M305.185,158.598
	c7.478,18.509,30.254,74.877,37.747,93.425c13.026,0.896,84.013,5.766,100.233,6.878c-77.365,64.914-68.957,57.858-77.188,64.77
	c2.62,10.454-0.029-0.118,24.433,97.45c-20.391-12.74-74.602-46.617-85.454-53.397c-11.649,7.299-73.464,46.037-85.132,53.35
	c3.252-13.048,21.717-87.098,24.379-97.771c-9.577-8.012-64.957-54.354-77.048-64.476c16.245-1.137,87.874-6.145,100.519-7.031
	C272.334,240.224,298.818,174.416,305.185,158.598 M305.165,126.423l-45.842,113.896l-122.775,8.587l94.158,78.792l-29.777,119.42
	l104.037-65.201l104.37,65.22L379.48,328.045l94.275-79.109l-122.488-8.401L305.165,126.423z M137.573,526.885v54.203h-31.439
	v-21.681H22.225V415.222h32.741v111.663h31.656V415.222h32.738v111.663H137.573z"/>
<path fill="#EC1C24" d="M272.868,633.456v-1.731h-16.473v3.251c-0.221,17.994-4.557,20.166-17.13,20.166H222.35
	c-12.575,0-16.915-2.172-17.129-20.166v-54.858c0.214-17.995,4.555-20.162,17.129-20.162h16.915c12.573,0,16.909,2.167,17.13,20.162
	v2.17h16.473v-0.65c0-24.719-2.815-38.16-31.222-38.16H219.75c-28.403,0-31.219,13.441-31.219,38.16v51.819
	c0,24.717,2.815,38.163,31.219,38.163h21.896C270.053,671.619,272.868,658.173,272.868,633.456 M576.787,551.365l-20.165-128.139
	H509.57l-20.164,128.139h15.395l2.816-17.779h50.956l2.82,17.779H576.787z M544.268,438.836l11.704,78.276h-45.75l11.709-78.276
	H544.268z M433.158,671.617l-36.643-66.997l33.175-61.146h-18.211l-28.624,52.687h-20.706v-52.687h-16.693v128.143h16.693v-58.759
	h20.056l31.654,58.759H433.158z M390.409,421.121c-84.104-52.552-75.955-47.463-85.454-53.399
	c-11.649,7.302-73.464,46.039-85.132,53.352c3.818-15.311,21.289-85.373,24.379-97.771c-9.581-8.016-64.957-54.356-77.048-64.477
	c16.243-1.135,87.874-6.145,100.519-7.029c4.646-11.536,31.136-77.363,37.51-93.199c7.478,18.509,30.254,74.875,37.747,93.425
	c12.459,0.856,83.239,5.714,100.233,6.879c-77.363,64.909-68.957,57.858-77.188,64.767
	C369.076,336.046,384.618,398.033,390.409,421.121 M129.551,573.07v-38.165h-18.212V423.244H94.642v111.661h-47.7V423.244H30.247
	v128.139h83.912v21.688H129.551z"/>
</svg>
