<?xml version="1.0" encoding="utf-8"?>
<!-- Generator: Adobe Illustrator 20.1.0, SVG Export Plug-In . SVG Version: 6.00 Build 0)  -->
<svg version="1.1" id="Слой_1" xmlns="http://www.w3.org/2000/svg" xmlns:xlink="http://www.w3.org/1999/xlink" x="0px" y="0px"
	 viewBox="0 0 56.7 55.9" style="enable-background:new 0 0 56.7 55.9;" xml:space="preserve">
<style type="text/css">
	.st0{fill:#FFFFFF;}
	.st1{opacity:0.6;fill:url(#SVGID_1_);enable-background:new    ;}
	.st2{fill:#4E6EA8;}
</style>
<g>
	<circle class="st0" cx="19" cy="18.9" r="16"/>
	
		<linearGradient id="SVGID_1_" gradientUnits="userSpaceOnUse" x1="6.4215" y1="-1.0075" x2="39.7554" y2="23.3258" gradientTransform="matrix(1 0 0 -1 0 62.722)">
		<stop  offset="0" style="stop-color:#000000"/>
		<stop  offset="1" style="stop-color:#000000;stop-opacity:0"/>
	</linearGradient>
	<path class="st1" d="M35.5,28.9c-6,8-17.7,27-17.7,27s23.7-9.5,38.9-15.2L35.5,28.9z"/>
	<g>
		<g>
			<path class="st2" d="M18.8,0C8.4,0,0,8.6,0,19c0,2.9,0.7,5.4,1.9,8.4c1.2,3,16.9,28.5,16.9,28.5S34.5,30,35.6,27.4
				s1.9-5.5,1.9-8.4C37.5,8.6,29.1,0,18.8,0z M19,32.7c-7.8,0-14.1-6.3-14.1-14.1c0-7.8,6.3-14.1,14.1-14.1
				c7.8,0,14.1,6.3,14.1,14.1C33.1,26.4,26.8,32.7,19,32.7z"/>
		</g>
		<g>
			<path class="st2" d="M13.7,10.5c1.2-0.2,2.9-0.4,5.2-0.4c2.4,0,4.1,0.5,5.2,1.4c1.1,0.9,1.8,2.3,1.8,3.9s-0.6,3.1-1.6,4
				c-1.3,1.2-3.3,1.8-5.5,1.8c-0.5,0-1,0-1.3-0.1v6.1h-3.8L13.7,10.5L13.7,10.5z M17.5,18.3c0.3,0.1,0.7,0.1,1.3,0.1
				c2,0,3.3-1,3.3-2.8c0-1.6-1.1-2.5-3-2.5c-0.8,0-1.3,0.1-1.6,0.2L17.5,18.3L17.5,18.3z"/>
		</g>
	</g>
</g>
</svg>
