<?xml version="1.0" encoding="utf-8"?>
<!-- Generator: Adobe Illustrator 20.1.0, SVG Export Plug-In . SVG Version: 6.00 Build 0)  -->
<svg version="1.1" id="Слой_1" xmlns="http://www.w3.org/2000/svg" xmlns:xlink="http://www.w3.org/1999/xlink" x="0px" y="0px"
	 viewBox="0 0 57.3 55.9" style="enable-background:new 0 0 57.3 55.9;" xml:space="preserve">
<style type="text/css">
	.st0{fill:#FFFFFF;}
	.st1{fill:#EE1C25;}
	.st2{opacity:0.6;fill:url(#SVGID_1_);enable-background:new    ;}
</style>
<g>
	<circle class="st0" cx="19.6" cy="18.9" r="16"/>
	<polygon class="st1" points="19.2,7.1 16.5,14.9 8.2,15 14.8,20 12.4,27.9 19.2,23.2 26,27.9 23.6,20 30.2,15 21.9,14.9 	"/>
	
		<linearGradient id="SVGID_1_" gradientUnits="userSpaceOnUse" x1="7.0395" y1="-1.0075" x2="40.3734" y2="23.3258" gradientTransform="matrix(1 0 0 -1 0 62.722)">
		<stop  offset="0" style="stop-color:#000000"/>
		<stop  offset="1" style="stop-color:#000000;stop-opacity:0"/>
	</linearGradient>
	<path class="st2" d="M36.1,28.9c-6,8-17.7,27-17.7,27s23.7-9.5,38.9-15.2L36.1,28.9z"/>
	<path class="st1" d="M18.8,0C8.4,0,0,8.6,0,19c0,2.9,0.7,5.4,1.9,8.4c1.2,3,16.9,28.5,16.9,28.5S34.5,30,35.6,27.4s1.9-5.5,1.9-8.4
		C37.5,8.6,29.1,0,18.8,0z M19,32.7c-7.8,0-14.1-6.3-14.1-14.1c0-7.8,6.3-14.1,14.1-14.1c7.8,0,14.1,6.3,14.1,14.1
		C33.1,26.4,26.8,32.7,19,32.7z"/>
</g>
</svg>
