<?xml version="1.0" encoding="utf-8"?>
<!-- Generator: Adobe Illustrator 19.2.1, SVG Export Plug-In . SVG Version: 6.00 Build 0)  -->
<svg version="1.1" id="Layer_1" xmlns="http://www.w3.org/2000/svg" xmlns:xlink="http://www.w3.org/1999/xlink" x="0px" y="0px"
	 viewBox="0 0 137.6 130.9" style="enable-background:new 0 0 137.6 130.9;" xml:space="preserve">
<style type="text/css">
	.st0{fill:#EC1C24;}
</style>
<path class="st0" d="M111.3,130.9c-41.9-26.2-37.9-23.7-42.6-26.6c-5.8,3.6-36.6,23-42.4,26.6c1.9-7.6,10.6-42.6,12.2-48.7
	C33.6,78.1,6,55,0,50c8.1-0.6,43.8-3.1,50.1-3.5C52.4,40.7,65.6,7.9,68.8,0c3.7,9.2,15.1,37.3,18.8,46.6c6.2,0.4,41.5,2.8,50,3.4
	C99,82.4,103.2,78.9,99.1,82.3C100.7,88.5,108.4,119.4,111.3,130.9"/>
</svg>
