<?xml version="1.0" encoding="utf-8"?>
<!-- Generator: Adobe Illustrator 19.2.1, SVG Export Plug-In . SVG Version: 6.00 Build 0)  -->
<svg version="1.1" id="Layer_1" xmlns="http://www.w3.org/2000/svg" xmlns:xlink="http://www.w3.org/1999/xlink" x="0px" y="0px"
	 viewBox="0 0 12.8 16.6" style="enable-background:new 0 0 12.8 16.6;" xml:space="preserve">
<path d="M6.4,3.9h-3l2.3-2.2c0.4-0.4,0.4-1,0-1.4c-0.4-0.4-1-0.4-1.4,0L0.3,4.2c-0.4,0.4-0.4,1,0,1.4l3.9,3.9c0.4,0.4,1,0.4,1.4,0
	c0.4-0.4,0.4-1,0-1.4L3.3,5.9h3c2.4,0,4.4,2,4.4,4.4c0,2.4-2,4.4-4.4,4.4c-0.5,0-1,0.4-1,1c0,0.5,0.4,1,1,1c3.5,0,6.4-2.8,6.4-6.3
	C12.8,6.8,9.9,3.9,6.4,3.9z"/>
</svg>
