<?xml version="1.0" encoding="utf-8"?>
<!-- Generator: Adobe Illustrator 20.1.0, SVG Export Plug-In . SVG Version: 6.00 Build 0)  -->
<svg version="1.1" id="Слой_1" xmlns="http://www.w3.org/2000/svg" xmlns:xlink="http://www.w3.org/1999/xlink" x="0px" y="0px"
	 viewBox="0 0 14.3 17.6" style="enable-background:new 0 0 14.3 17.6;" xml:space="preserve">

<g>
	<path class="st0" d="M13.6,2.6c-0.2-1-0.8-1.4-1.7-1.7C11,0.5,8.8,0,7.2,0C5.5,0,3.4,0.5,2.4,0.9C1.5,1.2,0.9,1.6,0.7,2.6L0,8v7.4
		h1.2v1.2c0,1.4,2.1,1.4,2.1,0v-1.2h3.8h0h4v1.2c0,1.4,2.1,1.4,2.1,0v-1.2h1.2V8L13.6,2.6z M4.2,1.4h2.9h3c0.6,0,0.6,0.9,0,0.9h-3
		H4.2C3.6,2.2,3.6,1.4,4.2,1.4z M2.2,13c-0.5,0-1-0.4-1-1c0-0.5,0.4-1,1-1c0.5,0,1,0.4,1,1C3.2,12.6,2.8,13,2.2,13z M7.1,8.5H1.8
		c-0.5,0-0.6-0.4-0.6-0.7l0.5-3.9C1.9,3.4,2,3.1,2.7,3.1h4.4h4.6c0.6,0,0.8,0.3,0.9,0.8l0.5,3.9c0,0.4-0.1,0.7-0.6,0.7H7.1z
		 M12.1,13c-0.5,0-1-0.4-1-1c0-0.5,0.4-1,1-1c0.6,0,1,0.4,1,1C13.1,12.6,12.7,13,12.1,13z"/>
	<path class="st0" d="M7.1,0C7.1,0,7.1,0,7.1,0c0.1,0,0.1,0,0.1,0H7.1z"/>
</g>
</svg>
