<?xml version="1.0" encoding="utf-8"?>
<!-- Generator: Adobe Illustrator 20.1.0, SVG Export Plug-In . SVG Version: 6.00 Build 0)  -->
<svg version="1.1" id="Слой_1" xmlns="http://www.w3.org/2000/svg" xmlns:xlink="http://www.w3.org/1999/xlink" x="0px" y="0px"
	 viewBox="0 0 19.4 13.1" style="enable-background:new 0 0 19.4 13.1;" xml:space="preserve">

<path class="st0" d="M18.8,1.8C18,0.4,17,0,15.8,0H3.7c-1.2,0-2.2,0.4-3,1.8C0,2.8,0,3.7,0,3.8C0,4,0.1,4,0.2,4h1.5
	c0.1,0,0.2,0.1,0.2,0.2V13c0,0.1,0.1,0.2,0.2,0.2h1.5c0.1,0,0.2-0.1,0.2-0.2V4.1C3.7,4.1,3.7,4,3.8,4h11.7c0.1,0,0.2,0.1,0.2,0.2V13
	c0,0.1,0.1,0.2,0.2,0.2h1.5c0.1,0,0.2-0.1,0.2-0.2V4.1c0-0.1,0.1-0.2,0.2-0.2h1.5c0.1,0,0.2,0,0.2-0.2C19.4,3.7,19.4,2.8,18.8,1.8z"
	/>
<path class="st0" d="M15.1,11l-1.2-1.5c0,0,0,0,0,0H5.5c0,0,0,0,0,0L4.3,11c0,0,0,0,0,0v0.3h1.1c0,0,0,0,0,0v1.6c0,0,0,0.1,0.1,0.1
	H6c0,0,0.1,0,0.1-0.1v-1.6c0,0,0,0,0,0h1c0,0,0,0,0,0v0.9c0,0,0,0.1,0.1,0.1h0.2c0,0,0.1,0,0.1-0.1v-0.9c0,0,0,0,0,0h4.3
	c0,0,0,0,0,0v0.8c0,0,0,0.1,0.1,0.1h0.2c0,0,0.1,0,0.1-0.1v-0.8c0,0,0,0,0,0h1.1c0,0,0,0,0,0v1.6c0,0,0,0.1,0.1,0.1H14
	c0,0,0.1,0,0.1-0.1v-1.6c0,0,0,0,0,0h1L15.1,11C15.1,11,15.1,11,15.1,11z"/>
</svg>
