<?xml version="1.0" encoding="utf-8"?>
<!-- Generator: Adobe Illustrator 20.1.0, SVG Export Plug-In . SVG Version: 6.00 Build 0)  -->
<svg version="1.1" id="Layer_1" xmlns="http://www.w3.org/2000/svg" xmlns:xlink="http://www.w3.org/1999/xlink" x="0px" y="0px"
	 viewBox="0 0 18 10" style="enable-background:new 0 0 18 10;" xml:space="preserve">
<path d="M9,1c3.4,0,6.4,2.7,7.6,4C15.4,6.3,12.4,9,9,9C5.6,9,2.6,6.3,1.3,5C2.6,3.7,5.6,1,9,1 M9,0C4,0,0,5,0,5s4,5,9,5s9-5,9-5
	S13.9,0,9,0L9,0z"/>
<path d="M9,3c1.1,0,2,0.9,2,2s-0.9,2-2,2s-2-0.9-2-2S7.9,3,9,3 M9,2c-1.7,0-3,1.4-3,3s1.4,3,3,3s3-1.4,3-3C12,3.3,10.7,2,9,2L9,2z"
	/>
</svg>
