<?xml version="1.0" encoding="utf-8"?>
<!-- Generator: Adobe Illustrator 19.2.1, SVG Export Plug-In . SVG Version: 6.00 Build 0)  -->
<svg version="1.1" id="Layer_1" xmlns="http://www.w3.org/2000/svg" xmlns:xlink="http://www.w3.org/1999/xlink" x="0px" y="0px"
	 viewBox="0 0 25 16" style="enable-background:new 0 0 25 16;" xml:space="preserve">
<style type="text/css">
	.st0{fill-rule:evenodd;clip-rule:evenodd;}
</style>
<g>
	<g>
		<path class="st0" d="M15.7,6.3h-3.4H7.8v3.3h4.5c-0.7,1.8-2.4,3-4.4,3c-2.6,0-4.7-2.1-4.7-4.7c0-2.6,2.1-4.7,4.7-4.7
			c1.1,0,2.2,0.4,3,1.1l2.3-2.3C11.9,0.8,10,0,7.9,0C3.5,0,0,3.6,0,8c0,4.4,3.5,8,7.9,8c4.4,0,7.9-3.6,7.9-8
			C15.9,7.4,15.8,6.9,15.7,6.3L15.7,6.3z M22.2,6.6V3.8h-2v2.8h-2.8v2h2.8v2.8h2V8.6H25v-2H22.2z"/>
	</g>
</g>
</svg>
