<?xml version="1.0" encoding="utf-8"?>
<!-- Generator: Adobe Illustrator 19.2.1, SVG Export Plug-In . SVG Version: 6.00 Build 0)  -->
<svg version="1.1" id="Layer_1" xmlns="http://www.w3.org/2000/svg" xmlns:xlink="http://www.w3.org/1999/xlink" x="0px" y="0px"
	 viewBox="0 0 15.4 15.4" style="enable-background:new 0 0 15.4 15.4;" xml:space="preserve">
<style type="text/css">
	.st0{fill-rule:evenodd;clip-rule:evenodd;}
</style>
<path class="st0" d="M2,0h11.4c1.1,0,2,0.9,2,2v11.4c0,1.1-0.9,2-2,2H2c-1.1,0-2-0.9-2-2V2C0,0.9,0.9,0,2,0L2,0z M11.2,1.7
	c-0.4,0-0.7,0.3-0.7,0.7v1.7c0,0.4,0.3,0.7,0.7,0.7h1.7c0.4,0,0.7-0.3,0.7-0.7V2.4c0-0.4-0.3-0.7-0.7-0.7H11.2L11.2,1.7z M13.6,6.5
	h-1.4c0.1,0.4,0.2,0.9,0.2,1.3c0,2.6-2.1,4.6-4.8,4.6s-4.8-2.1-4.8-4.6c0-0.5,0.1-0.9,0.2-1.3H1.7V13c0,0.3,0.3,0.6,0.6,0.6H13
	c0.3,0,0.6-0.3,0.6-0.6V6.5L13.6,6.5z M7.7,4.7C6,4.7,4.6,6,4.6,7.6c0,1.7,1.4,3,3.1,3c1.7,0,3.1-1.3,3.1-3C10.8,6,9.4,4.7,7.7,4.7z
	"/>
</svg>
