<?xml version="1.0" encoding="utf-8"?>
<!-- Generator: Adobe Illustrator 20.1.0, SVG Export Plug-In . SVG Version: 6.00 Build 0)  -->
<svg version="1.1" id="Слой_1" xmlns="http://www.w3.org/2000/svg" xmlns:xlink="http://www.w3.org/1999/xlink" x="0px" y="0px"
	 viewBox="0 0 9.4 14" style="enable-background:new 0 0 9.4 14;" xml:space="preserve">

<g>
	<g>
		<g>
			<path class="st0" d="M4.7,0C2.1,0,0,2.2,0,4.8c0,0.7,0.2,1.3,0.5,2.1C0.8,7.6,4.7,14,4.7,14s4-6.5,4.2-7.1
				c0.3-0.7,0.5-1.4,0.5-2.1C9.4,2.1,7.3,0,4.7,0z M4.8,6.8c-1.2,0-2.2-1-2.2-2.2c0-1.2,1-2.2,2.2-2.2c1.2,0,2.2,1,2.2,2.2
				C6.9,5.8,5.9,6.8,4.8,6.8z"/>
		</g>
	</g>
</g>
</svg>
