<?xml version="1.0" encoding="utf-8"?>
<!-- Generator: Adobe Illustrator 20.1.0, SVG Export Plug-In . SVG Version: 6.00 Build 0)  -->
<svg version="1.1" id="Слой_1" xmlns="http://www.w3.org/2000/svg" xmlns:xlink="http://www.w3.org/1999/xlink" x="0px" y="0px"
	 viewBox="0 0 13.7 20.4" style="enable-background:new 0 0 13.7 20.4;" xml:space="preserve">

<g>
	<g>
		<g>
			<path class="st0" d="M6.8,2c1.3,0,2.5,0.5,3.4,1.4c0.9,0.9,1.4,2.2,1.4,3.5c0,0.7-0.2,1.4-0.5,2.3C10.9,9.7,9,13,6.8,16.5
				c-2.1-3.5-4-6.7-4.3-7.3C2.1,8.2,2,7.6,2,6.9C2,4.2,4.2,2,6.8,2 M6.8,0C3.1,0,0,3.2,0,6.9c0,1.1,0.2,2,0.7,3
				c0.4,1.1,6.2,10.4,6.2,10.4S12.6,11,13,10c0.4-1,0.7-2,0.7-3.1C13.7,3.1,10.6,0,6.8,0L6.8,0z"/>
		</g>
	</g>
</g>
<circle class="st0" cx="7" cy="6.8" r="2"/>
</svg>
