<?xml version="1.0" encoding="utf-8"?>
<!-- Generator: Adobe Illustrator 19.2.1, SVG Export Plug-In . SVG Version: 6.00 Build 0)  -->
<svg version="1.1" id="Layer_1" xmlns="http://www.w3.org/2000/svg" xmlns:xlink="http://www.w3.org/1999/xlink" x="0px" y="0px"
	 viewBox="0 0 12.4 19" style="enable-background:new 0 0 12.4 19;" xml:space="preserve">
<style type="text/css">
	.st0{fill-rule:evenodd;clip-rule:evenodd;}
</style>
<g>
	<g>
		<path class="st0" d="M6.2,10c3,0,5.5-2.2,5.5-5S9.3,0,6.2,0c-3,0-5.5,2.2-5.5,5S3.2,10,6.2,10z M6.2,3c1.2,0,2.2,0.9,2.2,2
			c0,1.1-1,2.1-2.2,2.1C5,7.1,4,6.1,4,5C4,3.9,5,3,6.2,3z M10.5,13.3c2.1-0.7,1.9-1.9,1.9-1.9l0,0c0-0.6-0.4-1.1-1-1.2
			C11.2,10,11.1,10,11,10c0,0-0.1,0-0.1,0c0,0,0,0-0.1,0c-0.1,0-0.2,0-0.4,0c-0.5,0.1-0.7,0.2-0.7,0.2S8,11.2,6.1,11.2
			c-1.9,0-2.8-0.7-3.4-1c-0.2-0.1-0.4-0.1-0.8-0.2c-0.1,0-0.2,0-0.3,0c-0.3,0-0.6,0.1-0.8,0.2c-0.4,0.2-0.7,0.5-0.7,1
			c0,0,0,0.1,0,0.1c0,0,0,0,0,0c0,0,0,0.1,0,0.1c0,0,0,0.1,0,0.1c0,0,0,0,0,0.1c0,0.1,0,0.1,0.1,0.2c0,0.1,0,0.1,0.1,0.1
			c0,0,0,0.1,0.1,0.1c0,0,0,0,0.1,0.1C1.3,13.4,4,13.8,4,13.8l-3.1,2.8l0,0c-0.2,0.2-0.3,0.5-0.3,0.9c0,0.8,0.7,1.5,1.6,1.5
			c0.4,0,0.7-0.1,1-0.3l0,0l3.1-2.8l3,2.8l0,0c0.1,0,0.1,0.1,0.2,0.1v0l0,0C9.8,18.9,10,19,10.3,19c0.9,0,1.6-0.7,1.6-1.5
			c0-0.3-0.1-0.6-0.3-0.9l0,0l-3.1-2.8C8.5,13.8,8.7,13.8,10.5,13.3z"/>
	</g>
</g>
</svg>
