<?xml version="1.0" encoding="utf-8"?>
<!-- Generator: Adobe Illustrator 19.2.1, SVG Export Plug-In . SVG Version: 6.00 Build 0)  -->
<svg version="1.1" id="Layer_1" xmlns="http://www.w3.org/2000/svg" xmlns:xlink="http://www.w3.org/1999/xlink" x="0px" y="0px"
	 viewBox="0 0 22.7 18.1" style="enable-background:new 0 0 22.7 18.1;" xml:space="preserve">
<path d="M20.4,3.4h-2.7c-0.4,0-0.8-0.3-0.9-0.6l-0.7-2.1C16,0.3,15.6,0,15.2,0H7.5C7.1,0,6.7,0.3,6.6,0.6L5.9,2.8
	C5.8,3.1,5.4,3.4,5,3.4H2.3C1,3.4,0,4.4,0,5.7v10.2c0,1.2,1,2.3,2.3,2.3h18.1c1.2,0,2.3-1,2.3-2.3V5.7C22.7,4.4,21.6,3.4,20.4,3.4z
	 M11.3,15c-2.5,0-4.6-2.1-4.6-4.6c0-2.5,2.1-4.6,4.6-4.6c2.5,0,4.6,2.1,4.6,4.6C15.9,12.9,13.9,15,11.3,15z"/>
</svg>
