<?xml version="1.0" encoding="utf-8"?>
<!-- Generator: Adobe Illustrator 19.2.1, SVG Export Plug-In . SVG Version: 6.00 Build 0)  -->
<svg version="1.1" id="Layer_1" xmlns="http://www.w3.org/2000/svg" xmlns:xlink="http://www.w3.org/1999/xlink" x="0px" y="0px"
	 viewBox="0 0 16 16" style="enable-background:new 0 0 16 16;" xml:space="preserve">
<g>
	<g>
		<path d="M2.2,11.6c-1.2,0-2.2,1-2.2,2.2C0,15,1,16,2.2,16c1.2,0,2.2-1,2.2-2.2C4.4,12.6,3.4,11.6,2.2,11.6z M0,5.4v3.1
			c4.1,0,7.5,3.4,7.5,7.5h3.1C10.6,10.1,5.9,5.4,0,5.4z M0,0v3.2c7.1,0,12.8,5.7,12.8,12.8H16C16,7.2,8.8,0,0,0z"/>
	</g>
</g>
</svg>
