<?xml version="1.0" encoding="utf-8"?>
<!-- Generator: Adobe Illustrator 19.2.1, SVG Export Plug-In . SVG Version: 6.00 Build 0)  -->
<svg version="1.1" id="Layer_1" xmlns="http://www.w3.org/2000/svg" xmlns:xlink="http://www.w3.org/1999/xlink" x="0px" y="0px"
	 viewBox="0 0 13.3 13.3" style="enable-background:new 0 0 13.3 13.3;" xml:space="preserve">
<path d="M0,5.4c0,3,2.4,5.4,5.4,5.4c1.2,0,2.3-0.4,3.2-1l3.3,3.3c0.3,0.3,0.8,0.3,1.2,0c0.3-0.3,0.3-0.8,0-1.2L9.8,8.6
	c0.6-0.9,1-2,1-3.2c0-3-2.4-5.4-5.4-5.4C2.4,0,0,2.4,0,5.4z M1.7,5.4c0-2.1,1.7-3.7,3.7-3.7c2.1,0,3.7,1.7,3.7,3.7
	c0,2.1-1.7,3.7-3.7,3.7C3.3,9.1,1.7,7.5,1.7,5.4z"/>
</svg>
