<?xml version="1.0" encoding="utf-8"?>
<!-- Generator: Adobe Illustrator 19.2.1, SVG Export Plug-In . SVG Version: 6.00 Build 0)  -->
<svg version="1.1" id="Layer_1" xmlns="http://www.w3.org/2000/svg" xmlns:xlink="http://www.w3.org/1999/xlink" x="0px" y="0px"
	 viewBox="0 0 16.7 16.7" style="enable-background:new 0 0 16.7 16.7;" xml:space="preserve">
<g>
	<g>
		<path d="M8.4,0C3.7,0,0,3.7,0,8.4c0,4.6,3.7,8.4,8.4,8.4c4.6,0,8.4-3.7,8.4-8.4C16.7,3.7,13,0,8.4,0z M8.4,14.9
			c-3.6,0-6.5-2.9-6.5-6.5c0-3.6,2.9-6.5,6.5-6.5c3.6,0,6.5,2.9,6.5,6.5C14.9,12,12,14.9,8.4,14.9z"/>
		<polygon points="9,3.6 7.7,3.6 7.7,8.6 10.8,11.7 11.7,10.8 9,8.1 		"/>
	</g>
</g>
</svg>
