<?xml version="1.0" encoding="utf-8"?>
<!-- Generator: Adobe Illustrator 19.2.1, SVG Export Plug-In . SVG Version: 6.00 Build 0)  -->
<svg version="1.1" id="Layer_1" xmlns="http://www.w3.org/2000/svg" xmlns:xlink="http://www.w3.org/1999/xlink" x="0px" y="0px"
	 viewBox="0 0 19 15" style="enable-background:new 0 0 19 15;" xml:space="preserve">
<path d="M9.3,4.6c-0.6-2.3,1-4,2.4-4.4c1.4-0.4,3.2-0.1,4.2,1c0,0,1.6-0.4,2.5-0.9c0,0-0.5,1.5-1.8,2.1c0,0,1,0,2.3-0.6
	c0,0-0.8,1.1-2,2c0,9.9-10.3,13.9-17,9.5c0,0,3.2,0.4,5.7-1.6c0,0-2.8,0-3.7-2.6c0,0,1.2,0.2,1.8-0.1c0,0-3-0.6-3.1-3.7
	c0,0,0.5,0.6,1.8,0.5c0,0-2.9-1.7-1.2-5.1C1.3,0.6,4.4,4.9,9.3,4.6z"/>
</svg>
