<?xml version="1.0" encoding="utf-8"?>
<!-- Generator: Adobe Illustrator 19.2.1, SVG Export Plug-In . SVG Version: 6.00 Build 0)  -->
<svg version="1.1" id="Layer_1" xmlns="http://www.w3.org/2000/svg" xmlns:xlink="http://www.w3.org/1999/xlink" x="0px" y="0px"
	 viewBox="0 0 11 10" style="enable-background:new 0 0 11 10;" xml:space="preserve">
<g>
	<g>
		<path d="M0.8,10h7.1V4.7H0.8V10z M8.1,8.4h0.7v-2H8.1V8.4z M8.9,6.4v2L11,9.2V5.4L8.9,6.4z M6.6,0c-1.1,0-2,0.9-2.1,2H4.3
			c-0.1-1.1-1-2-2.1-2C1,0,0,1,0,2.3c0,1.2,1,2.2,2.1,2.3v0h4.4v0c0,0,0,0,0,0c1.2,0,2.2-1,2.2-2.3S7.8,0,6.6,0z"/>
	</g>
</g>
</svg>
