<?xml version="1.0" encoding="utf-8"?>
<!-- Generator: Adobe Illustrator 19.2.1, SVG Export Plug-In . SVG Version: 6.00 Build 0)  -->
<svg version="1.1" id="Layer_1" xmlns="http://www.w3.org/2000/svg" xmlns:xlink="http://www.w3.org/1999/xlink" x="0px" y="0px"
	 viewBox="0 0 25.7 14.5" style="enable-background:new 0 0 25.7 14.5;" xml:space="preserve">
<style type="text/css">
	.st0{fill-rule:evenodd;clip-rule:evenodd;}
</style>
<path class="st0" d="M20.9,14.5c0,0-0.1,0-0.1,0c-1.3-0.2-2.2-1.1-3-2c-0.4-0.5-1.1-1.5-1.9-1.4c-1.1,0.2-0.6,2-1,2.8
	c-0.4,0.6-2,0.5-3.1,0.4c-3.5-0.4-5.3-2.2-6.8-4.1C3.4,8.2,2.1,6,0.9,3.6C0.5,2.8,0,1.9,0,1c0.6-0.5,1.5-0.3,2.4-0.3
	c0.8,0,2-0.2,2.6,0.1c0.3,0.2,0.7,1.1,1,1.7c0.6,1.3,1.2,2.3,2,3.4c0.3,0.5,0.8,1.4,1.4,1.2C10,6.9,10,5.5,10.1,4.6
	c0-1,0-2.3-0.3-2.8C9.5,1.3,9,1.3,8.4,1C8.9,0.1,10.1,0,11.5,0c1.2,0,2.9-0.1,3.4,0.7C15.4,1.5,15,2.9,15,4c0,1.2-0.2,2.5,0.6,3
	c0.7-0.1,1-0.7,1.4-1.2c0.8-1.1,1.3-2,2-3.4c0.3-0.6,0.5-1.5,1-1.7c0.7-0.3,1.9-0.1,3-0.1c0.9,0,2.4-0.2,2.7,0.4
	c0.2,0.5-0.5,1.7-0.7,2.1c-0.8,1.3-1.6,2.1-2.5,3.3c-0.3,0.5-1.1,1.2-1,1.9c0,0.5,0.6,1,1,1.4c0.9,0.9,1.6,1.5,2.4,2.4
	c0.3,0.4,0.9,1.1,0.8,1.6C25.6,15.1,22.1,14.2,20.9,14.5z"/>
</svg>
