<?xml version="1.0" encoding="utf-8"?>
<!-- Generator: Adobe Illustrator 19.2.1, SVG Export Plug-In . SVG Version: 6.00 Build 0)  -->
<svg version="1.1" id="Layer_1" xmlns="http://www.w3.org/2000/svg" xmlns:xlink="http://www.w3.org/1999/xlink" x="0px" y="0px"
	 viewBox="0 0 17.9 17.6" style="enable-background:new 0 0 17.9 17.6;" xml:space="preserve">
<g>
	<g>
		<path d="M14.9,7.7H3c-1.7,0-3,1.1-3,2.5v4.9c0,1.4,1.3,2.5,3,2.5h11.9c1.7,0,3-1.1,3-2.5v-4.9C17.9,8.8,16.6,7.7,14.9,7.7z
			 M5.4,10.4H4.2v5.3H3v-5.3H1.8v-1h3.6V10.4z M8.7,15.6h-1v-0.5c-0.2,0.4-0.5,0.6-0.9,0.6c-0.6,0-1-0.4-1-1.1v-3.7h1V14
			c0,0.3,0,0.4,0.1,0.5c0.1,0.2,0.2,0.3,0.4,0.3c0.2,0,0.3-0.1,0.4-0.3c0-0.1,0.1-0.3,0.1-0.6v-3h1v4.7H8.7z M12.4,14.9
			c-0.2,0.6-0.5,0.9-1,0.9c-0.4,0-0.7-0.2-0.9-0.6v0.5h-1V9.4h1v2c0.2-0.4,0.5-0.5,0.9-0.5c0.5,0,0.8,0.3,1,0.9
			c0.1,0.3,0.1,0.8,0.1,1.6C12.6,14,12.5,14.6,12.4,14.9z M16.2,13.4h-2c0,0.1,0,0.2,0,0.3c0,0.4,0,0.6,0.1,0.8
			c0.1,0.3,0.2,0.5,0.4,0.5c0.3,0,0.5-0.3,0.5-0.9h0.9v0.1v0.1c0,0.5-0.1,0.9-0.4,1.2c-0.2,0.3-0.6,0.4-1.1,0.4s-0.9-0.2-1.1-0.5
			c-0.2-0.2-0.3-0.6-0.3-1.1c0-0.2,0-0.6,0-1.1s0-0.8,0-1c0-0.4,0.1-0.7,0.3-0.9c0.3-0.3,0.7-0.5,1.2-0.5s0.9,0.2,1.2,0.5
			c0.2,0.3,0.3,0.9,0.3,1.8V13.4z M14.7,11.6c-0.2,0-0.3,0.1-0.4,0.2c-0.1,0.2-0.1,0.4-0.1,0.7v0.1v0.1h1v-0.2c0-0.3,0-0.5-0.1-0.6
			C15.1,11.7,14.9,11.6,14.7,11.6z M11.1,11.7c-0.3,0-0.4,0.2-0.5,0.7c0,0.1,0,0.4,0,1c0,0.5,0,0.8,0,0.9c0.1,0.4,0.2,0.5,0.5,0.5
			c0.2,0,0.4-0.2,0.4-0.6c0-0.1,0-0.4,0-0.9s0-0.9,0-0.9C11.5,11.9,11.3,11.7,11.1,11.7z M4.9,6.4H6V3.7L7.5,0H6.3L5.4,2.4L4.5,0
			H3.3l1.5,3.7v2.7H4.9z M9.4,6.5c0.7,0,1.1-0.3,1.3-0.8c0.1-0.3,0.2-0.9,0.2-1.7s-0.1-1.4-0.2-1.7C10.5,1.8,10,1.5,9.4,1.5
			c-0.7,0-1.1,0.3-1.3,0.8C8,2.6,7.9,3.2,7.9,4S8,5.4,8.1,5.7C8.3,6.3,8.8,6.5,9.4,6.5z M8.9,3.6c0-0.4,0-0.7,0-0.8
			C9,2.5,9.1,2.3,9.4,2.3s0.4,0.2,0.5,0.5c0,0.1,0,0.4,0,0.9v0.5c0,0.5,0,0.8,0,0.9C9.8,5.5,9.7,5.6,9.4,5.6S9,5.4,8.9,5
			c0-0.1,0-0.4,0-1V3.6z M12.7,6.5c0.4,0,0.7-0.2,0.9-0.6v0.5h1V1.6h-1v3c0,0.3,0,0.5-0.1,0.6c-0.1,0.2-0.2,0.3-0.4,0.3
			c-0.2,0-0.3-0.1-0.4-0.3c0-0.1-0.1-0.3-0.1-0.5V1.6h-1v3.7C11.7,6.1,12,6.5,12.7,6.5z"/>
	</g>
</g>
</svg>
